<?xml version="1.0" encoding="UTF-8"?>
<svg width="48px" height="48px" viewBox="0 0 48 48" version="1.1" xmlns="http://www.w3.org/2000/svg" xmlns:xlink="http://www.w3.org/1999/xlink">
  <g stroke="none" stroke-width="1" fill="none" fill-rule="evenodd">
    <g transform="translate(8.000000, 10.000000)">
      <rect fill="#D7D9E0" x="0" y="0" width="32" height="28" rx="3"/>
      <path d="M8,4 C9.65686841,4 11,5.34313159 11,7 C11,8.65686841 9.65686841,10 8,10 C6.34313159,10 5,8.65686841 5,7 C5,5.34313159 6.34313155,4 8,4 Z" fill="#FFFFFF" fill-rule="nonzero"/>
      <path d="M10.8216102,16.7159324 L13.4766616,20.0440299 C13.8210834,20.4757614 14.4502799,20.5465399 14.8820114,20.2021181 C14.9491721,20.1485394 15.0091482,20.0865292 15.0604578,20.0176194 L19.4593737,14.1097995 C19.7892094,13.6668245 20.4156962,13.575107 20.8586713,13.9049427 C20.9441855,13.9686159 21.018967,14.0455546 21.0801833,14.1328445 L26.8960339,22.4258246 C27.2131422,22.877998 27.1036503,23.501624 26.6514769,23.8187323 C26.4832527,23.9367077 26.2827708,24 26.0773016,24 L5.95488979,24 C5.40260504,24 4.95488979,23.5522847 4.95488979,23 C4.95488979,22.7899115 5.0210567,22.5851591 5.14400038,22.4148006 L9.22900176,16.7543638 C9.55219848,16.3065219 10.1772487,16.2054771 10.6250906,16.5286738 C10.6988039,16.5818709 10.7649195,16.6448707 10.8216102,16.7159324 Z" fill="#FFFFFF" fill-rule="nonzero"/>
    </g>
  </g>
</svg>
