<?xml version="1.0" encoding="UTF-8"?>
<svg width="140px" height="24px" viewBox="0 0 140 24" version="1.1" xmlns="http://www.w3.org/2000/svg" xmlns:xlink="http://www.w3.org/1999/xlink">
  <g stroke="none" stroke-width="1" fill="none" fill-rule="evenodd">
    <g>
      <g>
        <rect x="0" y="0" width="24" height="24" rx="2.24"/>
        <g transform="translate(2.000000, 2.000000)" fill="#FFFFFF">
          <rect x="8.0952381" y="13.3333333" width="9.04761905" height="6.66666667" rx="1"/>
          <rect x="8.0952381" y="0" width="11.9047619" height="11.9047619" rx="1"/>
          <rect x="0" y="8.0952381" width="6.66666667" height="11.9047619" rx="1"/>
          <rect x="0" y="0" width="6.66666667" height="6.66666667" rx="1"/>
        </g>
      </g>
      <g transform="translate(32.000000, 2.571429)" fill="#FFFFFF" fill-rule="nonzero">
        <path d="M6.8420067,0 C8.96314494,0 10.5829168,0.649326157 11.6911801,1.94964562 C12.7833477,3.21929724 13.3272976,5.03385267 13.3272976,7.38825388 C13.3272976,9.89224005 12.749907,11.7888272 11.5896775,13.0729902 C10.454437,14.3179163 8.79640343,14.9387755 6.62401373,14.9387755 C4.43718864,14.9387755 2.77145302,14.2830453 1.63611756,12.9688464 C0.543989276,11.6992406 0,9.89142757 0,7.55052163 C0,5.15406415 0.601250009,3.29415483 1.80715476,1.97715479 C3.01446926,0.658615142 4.6956192,0 6.8420067,0 Z M6.76253434,2.93877551 C4.10033634,2.93877551 3.70202712,5.96649866 3.70202712,7.46938776 C3.70202712,8.94456906 3.94156842,12 6.67353736,12 C9.40550631,12 9.62527051,8.98224227 9.62527051,7.46938776 C9.62527051,5.95653324 9.42473235,2.93877551 6.76253434,2.93877551 Z"/>
        <path d="M18.0329331,4.1631515 L18.0329331,5.3877551 C18.5745555,4.54900283 19.5640832,4.15875829 20.8711539,4.1631515 C23.7120474,4.17306122 25.6837891,5.97167133 25.6837891,9.55102041 C25.6837891,12.855238 24.002427,14.9387755 20.8711539,14.9387755 C19.7184186,14.9387755 18.772345,14.5366531 18.0329331,13.7324082 L18.0329331,18.8571429 L14.8245096,18.8571429 L14.8245096,4.1631515 L18.0329331,4.1631515 Z M20.747753,6.6122449 C19.0383156,6.6122449 18.5265367,8.33402084 18.5265367,9.55102041 C18.5265367,10.76802 19.0207796,12.4897959 20.747753,12.4897959 C22.4747263,12.4897959 22.9689692,10.7681458 22.9689692,9.55102041 C22.9689692,8.33389506 22.4571903,6.6122449 20.747753,6.6122449 Z"/>
        <path d="M32.3594547,4.16326531 C35.994264,4.16311483 36.8062716,7.06089336 36.8062716,8.57244189 C36.8062716,9.96967297 36.0658662,10.5334835 35.0786589,10.5334835 L30.3867445,10.5334835 L30.3867445,10.5334835 L30.3867445,10.7573756 C30.4085822,11.3695312 30.7811529,11.672083 31.0348017,11.9142266 L31.070084,11.9461157 L31.1067511,11.9757458 C31.4400154,12.2300035 31.8496361,12.4897959 33.014777,12.4897959 C34.1799179,12.4897959 34.9066528,12.2817162 35.6735641,11.9757458 L36.4154353,14.1897093 C35.3903459,14.6890868 34.0707339,14.9387755 32.4565991,14.9387755 C28.3458627,14.9387755 27.1810011,11.3605341 27.1810011,9.55102041 C27.1810011,7.80925168 27.6862183,6.6454624 28.4943923,5.73037854 C29.3449579,4.77268992 30.6763988,4.16326531 32.3594547,4.16326531 Z M32.3594547,6.36734694 C31.1216256,6.36734694 30.3867445,7.2362456 30.3867445,8.57244189 L30.3867445,8.57244189 L32.3328491,8.57323684 C32.4274549,8.57326996 32.5198088,8.57330125 32.6099108,8.57333069 L34.3400032,8.573684 C34.3400032,7.2362456 33.5972837,6.36734694 32.3594547,6.36734694 Z"/>
        <path d="M44.2203583,4.16326531 C42.7606689,4.16326531 41.8149405,4.64462384 41.511907,5.3877551 C41.5150341,5.09432464 41.5127437,4.68616137 41.5050359,4.16326531 L38.3034835,4.16326531 L38.3034835,14.9387755 L41.5050359,14.9387755 L41.5050359,8.81632653 C41.5050359,7.83737994 41.6868023,6.85714286 42.9860086,6.85714286 C44.285215,6.85714286 44.4672282,7.83817677 44.4672282,8.81632653 L44.4735287,14.9387755 L47.6819522,14.9387755 C47.6783422,10.3673469 47.6765372,8.08163265 47.6765372,8.08163265 C47.6827487,7.62998238 47.9296187,4.16326531 44.2203583,4.16326531 Z"/>
        <path d="M52.3875877,0 L52.3875877,5.63959163 C53.0524696,4.65621895 54.0396769,4.1643648 55.3492094,4.1640292 C58.3299057,4.16326531 60.2852455,6.05387728 60.2852455,9.55102041 C60.2852455,13.0530337 58.0733744,14.9387755 55.3492094,14.9387755 C54.1912166,14.9387755 52.941699,14.5587958 52.3875877,13.7142857 C52.3875877,13.8668951 52.3875877,14.2750583 52.3875877,14.9387755 L49.1791642,14.9387755 L49.1791642,0 L52.3875877,0 Z M55.3492094,12.4897959 C56.6441057,12.4897959 57.5704257,11.1740613 57.5704257,9.55102041 C57.5704257,7.92797951 56.6441057,6.6122449 55.3492094,6.6122449 C54.0543131,6.6122449 53.0045922,7.92797951 53.0045922,9.55102041 C53.0045922,11.1740613 54.0543131,12.4897959 55.3492094,12.4897959 Z"/>
        <polygon points="64.990881 1.39607513e-17 61.7824575 0 61.7824575 14.9387755 64.990881 14.9387755"/>
        <path d="M71.7943318,4.16326531 C73.5745203,4.16326531 74.9801825,4.58819389 75.829306,5.44458433 C76.6788071,6.30135555 77.1005707,7.76609451 77.1005707,9.55102041 C77.1005707,11.4697253 76.6594386,12.7401794 75.7705221,13.6373606 C74.9082813,14.5071997 73.6136994,14.9387755 71.7943318,14.9387755 C69.9747195,14.9387755 68.5917079,14.5104757 67.7488628,13.6467068 C66.9061372,12.7830604 66.488093,11.3890764 66.488093,9.55102041 C66.488093,7.65812235 66.9430779,6.30630905 67.8594453,5.42243498 C68.7344973,4.58084587 69.9889361,4.16326531 71.7943318,4.16326531 Z M71.7943318,6.85714286 C71.0926853,6.85714286 70.6397805,7.05405517 70.3669963,7.44097944 C70.0874727,7.83746296 69.9433183,8.54175699 69.9433183,9.55102041 C69.9433183,10.5864643 70.0874816,11.297293 70.36588,11.6796446 C70.6382927,12.0537753 71.0792511,12.244898 71.7943318,12.244898 C72.4824851,12.244898 72.9947976,12.0519243 73.2485543,11.6735508 C73.509874,11.2839004 73.6453454,10.6281436 73.6453454,9.55102041 C73.6453454,8.54186826 73.510359,7.76982144 73.2502054,7.40067972 C72.9970007,7.04139789 72.4962533,6.85714286 71.7943318,6.85714286 Z"/>
        <path d="M84.0046562,4.16326531 C82.2009217,4.16326531 80.8526988,4.60829471 79.9656212,5.5042115 C79.0517686,6.42799322 78.5977827,7.61852743 78.5977827,9.55102041 C78.5977827,12.9679326 80.2660604,14.9387755 83.5609164,14.9387755 C84.7862258,14.9387755 85.862211,14.7719196 86.9890441,14.3283172 C86.8828036,13.945385 86.6545649,13.1160434 86.3043278,11.8402924 C85.4799378,12.1100294 84.8039172,12.244898 84.276266,12.244898 C83.3938921,12.244898 82.8035804,12.0369521 82.4638101,11.6460044 C82.1210418,11.2516072 81.8073602,10.5270836 81.8073602,9.55102041 C81.8073602,8.54857306 82.1303804,7.88480826 82.4919379,7.47704602 C82.8511567,7.07192133 83.3678251,6.85714286 84.276266,6.85714286 C84.8112156,6.85714286 85.4872362,7.00458313 86.3043278,7.29946368 C86.6375401,6.05080213 86.8657788,5.20570042 86.9890441,4.76415856 C85.9391904,4.26287914 84.9278268,4.16326531 84.0046562,4.16326531 Z"/>
        <polygon points="91.9414814 7.65518601e-14 88.4862561 4.65417868e-14 88.4862561 14.9387755 91.9414814 14.9387755 91.9464174 10.2857143 94.6563013 14.9387755 98.1115266 14.9387755 94.9031031 9.55102041 97.8647248 4.16326531 94.6563013 4.16326531 91.9414814 8.81632653"/>
        <path d="M104.637405,4.16326531 C101.666357,4.16344119 100.149008,5.26049324 100.149008,7.46938776 C100.149008,8.27580275 100.369957,8.94168742 100.813376,9.43487602 C101.183643,9.85324482 101.798843,10.2244802 102.658471,10.5522904 L102.847964,10.619695 C102.974974,10.663546 103.130894,10.7153599 103.316167,10.7753069 C104.27948,11.1188593 104.750973,11.4737872 104.750973,11.8005211 C104.750973,12.0766209 104.659655,12.249079 104.474842,12.3403626 C104.266012,12.4435094 103.952925,12.4897959 103.338473,12.4897959 C102.436997,12.4897959 101.416027,12.2755373 100.275563,11.84702 L99.6087385,14.3284447 C100.911852,14.7353319 102.155097,14.9387755 103.338473,14.9387755 C104.860701,14.9387755 105.983444,14.7067597 106.717772,14.2365889 C107.572748,13.6896895 108,12.7826402 108,11.5102041 C108,10.6874951 107.743886,10.0078327 107.231856,9.50121933 C106.821457,9.09779191 106.154954,8.73494512 105.230985,8.40813133 L104.814698,8.26701201 C104.362033,8.12232135 104.042266,7.98574858 103.856589,7.85987158 C103.585272,7.67992623 103.461145,7.47168582 103.461145,7.23673469 C103.461145,7.00246934 103.54995,6.8499511 103.744566,6.75099795 C103.934044,6.65465771 104.27314,6.6035719 104.755911,6.6035719 C105.419663,6.6035719 106.256195,6.73390384 107.265509,6.99456772 L107.904342,4.67687377 C106.736382,4.33446813 105.647403,4.16326531 104.637405,4.16326531 Z"/>
      </g>
    </g>
  </g>
</svg>
