<?xml version="1.0" encoding="UTF-8"?>
<svg width="16px" height="16px" viewBox="0 0 16 16" version="1.1" xmlns="http://www.w3.org/2000/svg" xmlns:xlink="http://www.w3.org/1999/xlink">
  <defs>
    <radialGradient cx="50.0135415%" cy="54.714503%" fx="50.0135415%" fy="54.714503%" r="71.8250304%" gradientTransform="translate(0.500135,0.547145),scale(0.923077,1.000000),translate(-0.500135,-0.547145)" id="asana_svg__a">
      <stop stop-color="#FFB900" offset="0%"/>
      <stop stop-color="#F95D8F" offset="60%"/>
      <stop stop-color="#F95353" offset="99.9%"/>
    </radialGradient>
  </defs>
  <g stroke="none" stroke-width="1" fill="none" fill-rule="evenodd">
    <rect fill="#FFFFFF" x="0" y="0" width="16" height="16" rx="2"/>
    <g transform="translate(1.500000, 2.000000)" fill="url(#asana_svg__a)" fill-rule="nonzero">
      <path d="M10.1728608,6.35287167 C8.6111983,6.35287167 7.34544652,7.6169306 7.34544652,9.17622974 C7.34544652,10.73568 8.6111983,12 10.1728608,12 C11.734262,12 13,10.73568 13,9.17622974 C13,7.6169306 11.734262,6.35287167 10.1728608,6.35287167 Z M2.82727674,6.35300907 C1.26587561,6.35314646 0,7.6169306 0,9.17636714 C0,10.73568 1.26587561,11.9998626 2.82727674,11.9998626 C4.3888017,11.9998626 5.65469106,10.73568 5.65469106,9.17636714 C5.65469106,7.61691686 4.3888017,6.35300907 2.82713916,6.35300907 L2.82727674,6.35300907 L2.82727674,6.35300907 Z M9.32728362,2.82349547 C9.32728362,4.38280834 8.06154559,5.64726573 6.50014446,5.64726573 C4.93848192,5.64726573 3.67273014,4.38280834 3.67273014,2.82349547 C3.67273014,1.26418259 4.93848192,0 6.5001307,0 C8.06153183,0 9.32714604,1.26418259 9.32714604,2.82349547 L9.32728362,2.82349547 Z"/>
    </g>
  </g>
</svg>
