<?xml version="1.0" encoding="UTF-8"?>
<svg width="16px" height="16px" viewBox="0 0 16 16" version="1.1" xmlns="http://www.w3.org/2000/svg" xmlns:xlink="http://www.w3.org/1999/xlink">
  <g stroke="none" stroke-width="1" fill="none" fill-rule="evenodd">
    <rect fill="#FFFFFF" x="0" y="0" width="16" height="16" rx="2"/>
    <g transform="translate(2.000000, 2.000000)" fill-rule="nonzero">
      <polygon fill="#FCBF92" points="12 7.25358658 6 6.50676904 0 7.25358658 6 12"/>
      <polygon fill="#9D5025" points="0 7.25358658 6 9.06607395 6 12 0 8.95938573"/>
      <polygon fill="#F58534" points="12 7.25358658 6 9.06607395 6 12 12 8.95938573"/>
      <polygon fill="#9D5025" points="0.7752 4.67488381 0 4.67488381 0 6.39886846 0.7752 6.54192766 1.6356 5.61810467"/>
      <polygon fill="#F58534" points="1.6356 6.47039806 0.7752 6.54192766 0.7752 4.67488381 1.6356 4.67488381 1.6356 6.47039806"/>
      <polygon fill="#9D5025" points="2.2164 2.52535866 1.1964 2.71933724 1.1964 6.63164276 2.2164 6.8450192 3.15 4.67488381"/>
      <polygon fill="#F58534" points="3.15 6.73833098 2.2164 6.8450192 2.2164 2.52535866 3.15 2.63204688"/>
      <polygon fill="#9D5025" points="4.2048 3.39462518 2.7972 3.53768438 2.7972 6.96868054 4.2048 7.25358658 5.7 5.31501313"/>
      <polygon fill="#F58534" points="5.1552 7.09234189 4.2048 7.25358658 4.2048 3.39462518 5.1552 3.46615478 5.1552 7.09234189"/>
      <polygon fill="#9D5025" points="6 0.283693675 5.0508 0.586785209 5.0508 7.41361891 6 7.60759749 6.9492 3.94625177"/>
      <polygon fill="#9D5025" points="6.8784 7.09234189 7.7952 7.25358658 9.2028 4.67488381 7.7952 2.1155789 6.8784 2.25742574 6.8784 7.09234189"/>
      <polyline fill="#9D5025" points="9.2028 4.67488381 7.7952 2.1155789 6.8784 2.25742574"/>
      <polygon fill="#9D5025" points="8.832 6.73833098 9.7836 6.8450192 10.8036 3.59102849 9.7836 0.355223277 8.832 0.586785209"/>
      <polygon fill="#9D5025" points="10.3644 6.47039806 11.2248 6.54192766 12 3.32430794 11.2248 0 10.3644 0.214588806"/>
      <path d="M6,0.283693675 L6.9492,0.586785209 L6.9492,7.41361891 L6,7.60759749 L6,0.283693675 Z M9.2028,2.40048495 L7.7952,2.1155789 L7.7952,7.25358658 L9.2028,6.96868054 L9.2028,2.40048495 Z M10.8036,0.765003031 L9.7836,0.355223277 L9.7836,6.8450192 L10.8036,6.63164276 L10.8036,0.765003031 Z M12,0.391594261 L11.2248,0 L11.2248,6.54192766 L12,6.39886846 L12,0.391594261 Z" fill="#F58534"/>
    </g>
  </g>
</svg>
