<svg width="100" height="100" fill="none" xmlns="http://www.w3.org/2000/svg">
    <path d="M100 60.34l-50-6.16-50 6.16 50 39.15 50-39.15z" fill="#FCBF92" />
    <path d="M0 60.34l50 14.95v24.2L0 74.41V60.34z" fill="#9D5025" />
    <path d="M100 60.34L50 75.29v24.2l50-25.08V60.34z" fill="#F58534" />
    <path d="M6.46 39.07H0v14.22l6.46 1.18 7.17-7.62-7.17-7.78z" fill="#9D5025" />
    <path d="M13.63 53.88l-7.17.59v-15.4h7.17v14.81z" fill="#F58534" />
    <path d="M18.47 21.34l-8.5 1.6v32.27l8.5 1.76 7.78-17.9-7.78-17.73z" fill="#9D5025" />
    <path d="M26.25 56.09l-7.78.88V21.34l7.78.88v33.87z" fill="#F58534" />
    <path d="M35.04 28.51l-11.73 1.18v28.3l11.73 2.35L47.5 44.35 35.04 28.51z" fill="#9D5025" />
    <path d="M42.96 59.01l-7.92 1.33V28.51l7.92.59v29.91z" fill="#F58534" />
    <path d="M50 2.85l-7.91 2.5v56.31l7.91 1.6 7.91-30.2L50 2.85z" fill="#9D5025" />
    <path d="M57.32 59.01l7.64 1.33 11.73-21.27-11.73-21.11-7.64 1.17v39.88z" fill="#9D5025" />
    <path d="M76.69 39.07L64.96 17.96l-7.64 1.17" fill="#9D5025" />
    <path d="M73.6 56.09l7.93.88 8.5-26.84-8.5-26.69-7.93 1.91v50.74z" fill="#9D5025" />
    <path d="M86.37 53.88l7.17.59L100 27.93 93.54.51l-7.17 1.77v51.6z" fill="#9D5025" />
    <path
        d="M50 2.85l7.91 2.5v56.31L50 63.26V2.85zm26.69 17.46l-11.73-2.35v42.38l11.73-2.35V20.31zM90.03 6.82l-8.5-3.38v53.53l8.5-1.76V6.82zM100 3.74L93.54.51v53.96l6.46-1.18V3.74z"
        fill="#F58534" />
</svg>