<?xml version="1.0" encoding="UTF-8"?>
<svg width="16px" height="16px" viewBox="0 0 16 16" version="1.1" xmlns="http://www.w3.org/2000/svg" xmlns:xlink="http://www.w3.org/1999/xlink">
  <g stroke="none" stroke-width="1" fill="none" fill-rule="evenodd">
    <rect fill="#FFFFFF" x="0" y="0" width="16" height="16" rx="2"/>
    <g transform="translate(1.500000, 1.500000)">
      <rect fill="#2E80F7" x="0" y="0" width="13" height="13" rx="2"/>
      <g transform="translate(3.000000, 3.000000)" fill-rule="nonzero">
        <path d="M10,8 L10,4.55090501 L10,4.55090501 L6.8263505,1.67665217 C6.1676582,0.658678265 5.02994247,0 3.71257191,0 C1.61676722,0 0,1.67665217 0,3.71257191 C0,5.20958328 0.898204013,6.52695384 2.21556054,7.12574716 L5.44909499,10 L8,10 C9.1045695,10 10,9.1045695 10,8 Z" fill="#3979DC"/>
        <path d="M8.02395117,7.36527291 L6.70658061,6.04790234 C7.1856321,5.44910902 7.48502876,4.67066087 7.48502876,3.77245685 C7.48502876,1.67665217 5.80837659,0.0598849457 3.77245685,0.0598849457 C1.73653711,0.0598849457 0,1.67665217 0,3.77245685 C0,5.86826154 1.67663813,7.48502876 3.71257191,7.48502876 C4.61077592,7.48502876 5.44909499,7.1856321 6.04790234,6.6467097 L7.36527291,7.96408026 C7.48502876,8.08383612 7.66466957,8.08383612 7.78442542,7.96408026 L8.02395117,7.72455451 C8.14370703,7.66466957 8.14370703,7.48502876 8.02395117,7.36527291 Z M0.838319067,3.77245685 C0.838319067,2.21557458 2.09580469,0.898204013 3.71257191,0.898204013 C5.32933913,0.898204013 6.58682475,2.15568963 6.58682475,3.77245685 C6.58682475,5.38922408 5.32933913,6.6467097 3.71257191,6.6467097 C2.09580469,6.6467097 0.838319067,5.32933913 0.838319067,3.77245685 Z" fill="#FFFFFF"/>
        <path d="M2.63472709,3.652701 L2.63472709,5.50897993 C2.33533043,5.32933913 2.09580469,5.08982742 1.91616388,4.79041672 L1.91616388,3.652701 L2.63472709,3.652701 L2.63472709,3.652701 Z M4.01196857,2.57485618 L4.01196857,5.68862074 L3.53293111,5.68862074 C3.47304616,5.68862074 3.3532903,5.68862074 3.29340536,5.62874983 L3.23353445,5.62874983 L3.23353445,2.57485618 L4.01196857,2.57485618 L4.01196857,2.57485618 Z M5.50897993,4.07185351 L5.50897993,4.73054581 C5.32933913,5.02994247 5.08981338,5.26946822 4.79041672,5.44910902 L4.79041672,4.07185351 L5.50897993,4.07185351 Z" fill="#FFFFFF"/>
      </g>
    </g>
  </g>
</svg>
