<?xml version="1.0" encoding="UTF-8"?>
<svg width="16px" height="16px" viewBox="0 0 16 16" version="1.1" xmlns="http://www.w3.org/2000/svg" xmlns:xlink="http://www.w3.org/1999/xlink">
  <g stroke="none" stroke-width="1" fill="none" fill-rule="evenodd">
    <rect fill="#FFFFFF" x="0" y="0" width="16" height="16" rx="2"/>
    <g transform="translate(1.000000, 1.000000)" fill="#000000" fill-rule="nonzero">
      <path d="M5.20330002,7 C5.20330002,6.0746875 5.96204982,5.3344375 6.89182929,5.3344375 C7.82471839,5.3344375 8.58568935,6.083875 8.58568935,7 C8.58568935,7.916125 7.82471839,8.6655625 6.89182929,8.6655625 C5.96204982,8.6655625 5.20330002,7.916125 5.20330002,7 L5.20330002,7 Z M6.89227352,0 C3.57474219,0 0.795621133,2.24 0.00666349357,5.2635625 C-1.4795928e-16,5.2863125 -1.4795928e-16,5.305125 -1.4795928e-16,5.334875 C-1.4795928e-16,5.516875 0.150594955,5.6721875 0.339838172,5.6721875 L3.20425194,5.6721875 C3.34063145,5.6721875 3.46057433,5.59475 3.50943995,5.4761875 C4.10160241,4.2161875 5.39298747,3.3341875 6.89449469,3.3341875 C8.94685071,3.3341875 10.6171664,4.9791875 10.6171664,7.002625 C10.6171664,9.0260625 8.94685071,10.6710625 6.89227352,10.6710625 C5.39298747,10.6710625 4.10026971,9.7960625 3.50943995,8.5290625 C3.4521339,8.4175 3.33841028,8.3330625 3.20425194,8.3330625 L0.339838172,8.3330625 C0.154593051,8.3330625 -1.4795928e-16,8.47875 -1.4795928e-16,8.66775 C-1.4795928e-16,8.6905 0.0088846581,8.7115 0.0088846581,8.7381875 C0.791178804,11.76 3.57474219,14 6.89227352,14 C10.8161828,14 14,10.8644375 14,7 C14,3.13775 10.8161828,0 6.89227352,0 Z"/>
    </g>
  </g>
</svg>
