<?xml version="1.0" encoding="UTF-8"?>
<svg width="16px" height="16px" viewBox="0 0 16 16" version="1.1" xmlns="http://www.w3.org/2000/svg" xmlns:xlink="http://www.w3.org/1999/xlink">
  <g stroke="none" stroke-width="1" fill="none" fill-rule="evenodd">
    <rect fill="#FFFFFF" x="0" y="0" width="16" height="16" rx="2"/>
    <g transform="translate(1.000000, 3.000000)" fill-rule="nonzero">
      <path d="M11.9558606,9.65012249 C11.7775456,9.65012249 11.611532,9.52621684 11.5530172,9.3310412 C11.4802061,9.08806992 11.6015578,8.82658535 11.8242023,8.74708727 C12.6307757,8.45886138 13.1518678,7.68699197 13.1518678,6.78056867 C13.1518678,5.63262617 12.296532,4.69861454 11.2451495,4.69861454 C11.1721168,4.69861454 11.093543,4.70490663 10.9979023,4.71845881 L10.5833115,4.7771446 L10.5237993,4.32520349 C10.2690161,2.38724128 8.7228067,0.925783521 6.92713355,0.925783521 C5.4426528,0.925783521 4.12108259,1.89609564 3.56064816,3.39784695 L3.45514419,3.68038577 L3.17586898,3.68595184 C1.89242205,3.71172519 0.848243052,4.87225189 0.848243052,6.27284584 C0.848243052,7.29530966 1.39194313,8.22774827 2.23331513,8.64822893 C2.44620707,8.75471039 2.53985292,9.02938411 2.44232825,9.26182825 C2.34480357,9.4942724 2.09334505,9.59627676 1.88045311,9.49015833 C0.738084495,8.91927263 0,7.65649954 0,6.27284584 C0,4.47234148 1.2705914,2.96405609 2.884514,2.77880258 C3.62813967,1.08114962 5.18665052,0 6.9270227,0 C9.01006121,0 10.8208063,1.59455956 11.2903655,3.77331503 C12.7885884,3.79981438 14,5.13869749 14,6.7806897 C14,8.07456019 13.2315498,9.21838869 12.0879622,9.62701118 C12.0441869,9.6426204 11.9996359,9.65012249 11.9558606,9.65012249 Z" fill="#0071CE"/>
      <path d="M5.46965563,9.85040725 C5.46954494,9.8502864 5.46954494,9.8502864 5.46943425,9.8502864 C5.46932362,9.8502864 5.46921293,9.85016555 5.46910224,9.85016555 L5.46899161,9.85016555 L5.46888092,9.8500447 L5.46877023,9.84992391 C5.46877023,9.84992391 5.46865957,9.84992391 5.46865957,9.84980306 L5.4685489,9.84980306 L5.46843823,9.8496822 C5.4685489,9.84956141 5.46832755,9.84956141 5.46832755,9.84956141 L5.46821688,9.84944056 L5.46810621,9.84944056 L5.46799554,9.84931971 C5.46810621,9.84944056 5.46788487,9.84919886 5.46788487,9.84919886 C5.46788487,9.84919886 5.46766352,9.84907807 5.46755285,9.84907807 L5.46744218,9.84895722 L5.46744218,9.84895722 L5.4673315,9.84883637 L5.46722083,9.84871557 C5.46688881,9.84859472 5.46699949,9.84859472 5.46688881,9.84859472 C5.46677814,9.84871557 5.46677814,9.84847387 5.46666747,9.84847387 L5.4665568,9.84835302 C5.4665568,9.84835302 5.46644613,9.84823223 5.46633546,9.84823223 L5.46622478,9.84811138 C5.46611411,9.84799053 5.46589277,9.84799053 5.4657821,9.84799053 C5.46567143,9.84799053 5.46545008,9.84786973 5.46533941,9.84786973 C5.46522874,9.84774888 5.46522874,9.84774888 5.46511807,9.84774888 L5.4650074,9.84774888 C5.46489672,9.84762803 5.46478605,9.84762803 5.46467538,9.84762803 C5.46456471,9.84750718 5.46434336,9.84750718 5.46434336,9.84750718 L5.46423269,9.84750718 L5.46401134,9.84738639 C5.46390067,9.84738639 5.46390067,9.84726554 5.46390067,9.84726554 L5.46379,9.84726554 C5.45726036,9.84472802 5.45028803,9.84315719 5.44298368,9.8427947 L5.44276234,9.8427947 L5.44254099,9.8427947 L5.44231965,9.8427947 C5.44231965,9.8427947 5.44231965,9.8427947 5.44220898,9.8427947 L5.4420983,9.8427947 L5.44198763,9.8427947 L5.44187696,9.84267385 L5.44165561,9.84267385 L5.44143427,9.84267385 L5.4413236,9.84267385 L5.44121293,9.84267385 L5.44110225,9.84267385 L5.44088091,9.84267385 L5.44077024,9.84267385 L5.44088091,9.84267385 L5.44077024,9.84267385 L5.44065957,9.84267385 L5.4405489,9.84267385 L5.44043823,9.84267385 L5.44032755,9.84267385 L5.44021688,9.84267385 L5.44010621,9.84267385 L5.43999554,9.84267385 C5.25672281,9.84267385 5.10676234,9.67978926 5.10565561,9.48017114 L5.10565561,5.4121656 L5.38975048,5.4121656 L5.39118921,5.4121656 C5.43468329,5.41421978 5.46434336,5.37772784 5.46434336,5.33386501 C5.46434336,5.30111894 5.44597182,5.27308539 5.41985324,5.26136447 L4.04984534,4.22895673 C4.02527617,4.21046908 3.99284929,4.21046908 3.96828012,4.22895673 L2.58753704,5.26946036 C2.56163981,5.28891468 2.55046194,5.32456078 2.55975838,5.35730685 C2.5691655,5.39005293 2.59683348,5.41228644 2.62826431,5.41228644 L2.91379791,5.41228644 L2.91401925,9.48125862 C2.91545799,9.76256077 3.12241451,9.9921458 3.38570305,9.99939586 C3.38869119,9.99975836 3.39156866,10 3.3945568,10 L5.43988487,10 L5.44110225,10 C5.45991649,9.99963751 5.47695996,9.99142082 5.48957659,9.97824988 C5.48957659,9.97824988 5.48957659,9.97824988 5.48968722,9.97812903 C5.48990859,9.97788733 5.49012991,9.97764569 5.4902406,9.97752484 C5.49035129,9.97740404 5.49046192,9.97740404 5.49057261,9.97716234 L5.4906833,9.97704149 L5.49079393,9.9769207 L5.49090462,9.97679985 L5.4910153,9.976679 L5.49112599,9.9765582 L5.49123663,9.97643735 C5.491458,9.9763165 5.49134731,9.9763165 5.491458,9.97619565 C5.491458,9.97619565 5.491458,9.97619565 5.49156863,9.97607486 L5.49167932,9.97595401 C5.49167932,9.97595401 5.49167932,9.97595401 5.49179001,9.97583316 C5.50418526,9.96181638 5.51193229,9.94284543 5.51204298,9.92182024 L5.51204298,9.9215786 L5.51204298,9.92145775 L5.51204298,9.92133695 L5.51204298,9.9212161 L5.51204298,9.92109525 L5.51204298,9.9209744 L5.51204298,9.92085361 L5.51204298,9.92061191 C5.51148959,9.88967835 5.49433544,9.86261149 5.46965563,9.85040725 Z" fill="#DC8327"/>
      <path d="M8.42869098,9.85040725 C8.42869098,9.85040725 8.42858029,9.8502864 8.42846966,9.8502864 C8.42835897,9.8502864 8.42824828,9.85016555 8.42813759,9.85016555 L8.42802696,9.85016555 L8.42791627,9.8500447 L8.42780559,9.84992391 L8.42769495,9.84992391 L8.42758427,9.84980306 L8.42747358,9.8496822 C8.42758427,9.84956141 8.42736289,9.84956141 8.42725226,9.84956141 L8.42714157,9.84944056 L8.42703088,9.84944056 C8.42692025,9.84944056 8.42692025,9.84931971 8.42692025,9.84931971 C8.42669887,9.84944056 8.42669887,9.84919886 8.42669887,9.84919886 L8.42647755,9.84907807 L8.42636687,9.84895722 L8.42625618,9.84895722 L8.42614555,9.84883637 L8.42603486,9.84871557 C8.42592417,9.84859472 8.42581348,9.84859472 8.42581348,9.84859472 C8.42570285,9.84871557 8.42570285,9.84847387 8.42548148,9.84847387 L8.42537084,9.84835302 L8.42526016,9.84823223 C8.42526016,9.84823223 8.42514947,9.84823223 8.42503878,9.84811138 C8.42492815,9.84799053 8.42470677,9.84799053 8.42459614,9.84799053 C8.42448545,9.84799053 8.42426408,9.84786973 8.42415345,9.84786973 C8.42404276,9.84774888 8.42404276,9.84774888 8.42393207,9.84774888 C8.42382144,9.84774888 8.42382144,9.84774888 8.42371075,9.84762803 C8.42371075,9.84762803 8.42360006,9.84762803 8.42348937,9.84750718 C8.42315737,9.84738639 8.42337874,9.84738639 8.42326805,9.84738639 C8.42293605,9.84738639 8.42315737,9.84738639 8.42304673,9.84726554 C8.42304673,9.84726554 8.42293605,9.84714469 8.42282536,9.84714469 L8.42271467,9.8470239 L8.42260404,9.8470239 C8.41607435,9.84448638 8.40910202,9.84291549 8.40179769,9.842553 L8.40157637,9.842553 L8.40146568,9.842553 L8.40124436,9.842553 L8.40113367,9.842553 L8.40102298,9.842553 L8.4009123,9.842553 L8.40080166,9.84243215 L8.40058029,9.84243215 L8.40035897,9.84243215 L8.40024828,9.84243215 L8.40013759,9.84243215 L8.40002696,9.84243215 L8.39980559,9.84243215 L8.39958427,9.84243215 L8.39947358,9.84243215 L8.39936289,9.84243215 L8.39925226,9.84243215 L8.39914157,9.84243215 L8.39903088,9.84243215 L8.39892025,9.84243215 L8.39880956,9.84243215 L8.39869887,9.84243215 L8.39858819,9.84243215 C8.21542613,9.84243215 8.06546568,9.67954761 8.06435897,9.47992944 L8.06435897,6.32313494 L8.34978189,6.32313494 C8.35077791,6.32301409 8.35155262,6.32301409 8.35265938,6.32313494 C8.39227993,6.32313494 8.42437477,6.28809298 8.42437477,6.24483433 C8.42437477,6.21208824 8.40600321,6.18405475 8.37988468,6.1723338 L7.00976609,5.13992606 C6.98519691,5.12143842 6.95277002,5.12143842 6.92820084,5.13992606 L5.54801111,6.18030884 C5.5221139,6.19976321 5.51093605,6.2354093 5.52023248,6.26815533 C5.52963961,6.30090142 5.5573076,6.32313494 5.58873842,6.32313494 L5.87294395,6.32313494 L5.87316527,9.48113777 C5.87438266,9.76256077 6.0816712,9.99226666 6.34507043,9.99939586 C6.34794787,9.99975836 6.35082536,9.99987921 6.35370285,9.99987921 L8.39903088,9.99987921 L8.40024828,9.99987921 C8.41906253,9.99951665 8.436106,9.99129997 8.44872262,9.97812903 C8.44872262,9.97812903 8.44872262,9.97812903 8.44883326,9.97800818 C8.44905463,9.97776654 8.44949733,9.97752484 8.44938664,9.97740404 C8.44949733,9.97728319 8.44960796,9.97728319 8.44971865,9.97704149 L8.44982934,9.9769207 L8.44993997,9.97679985 L8.45005066,9.976679 C8.45005066,9.976679 8.45016134,9.976679 8.45016134,9.9765582 L8.45027203,9.97643735 C8.45038266,9.97643735 8.45038266,9.9763165 8.45038266,9.9763165 C8.45071467,9.97619565 8.45060404,9.97619565 8.45060404,9.97607486 C8.45060404,9.97607486 8.45060404,9.97607486 8.45071467,9.97595401 C8.45071467,9.97595401 8.45071467,9.97595401 8.45082536,9.97583316 C8.45082536,9.97583316 8.45082536,9.97583316 8.45093605,9.97571237 C8.4633313,9.96169559 8.47107833,9.94272458 8.47118902,9.92169945 L8.47118902,9.92145775 L8.47118902,9.92133695 L8.47118902,9.9212161 L8.47118902,9.92109525 L8.47118902,9.9209744 L8.47118902,9.92085361 L8.47118902,9.92073276 L8.47118902,9.92049111 C8.47052495,9.88967835 8.45337084,9.86261149 8.42869098,9.85040725 Z" fill="#F4B21B"/>
      <path d="M11.3954739,9.85040725 L11.3952526,9.8502864 C11.3951419,9.8502864 11.3950312,9.85016555 11.3949206,9.85016555 L11.3948099,9.85016555 L11.3946992,9.8500447 L11.3945886,9.84992391 C11.3944779,9.84992391 11.3944779,9.84992391 11.3944779,9.84980306 L11.3943672,9.84980306 L11.3942565,9.8496822 L11.3941459,9.84956141 C11.3941459,9.84956141 11.3940352,9.84956141 11.3940352,9.84944056 L11.3939245,9.84944056 L11.3938139,9.84931971 C11.3937032,9.84944056 11.3937032,9.84919886 11.3935925,9.84919886 C11.3937032,9.84907807 11.3934818,9.84907807 11.3933712,9.84907807 L11.3932605,9.84895722 L11.3931498,9.84895722 L11.3930392,9.84883637 L11.3929285,9.84871557 C11.3925965,9.84859472 11.3927071,9.84859472 11.3927071,9.84859472 C11.3925965,9.84871557 11.3925965,9.84847387 11.3923751,9.84847387 L11.3922645,9.84835302 C11.3923751,9.84823223 11.3921538,9.84823223 11.3920431,9.84823223 C11.3920431,9.84823223 11.3919324,9.84823223 11.3919324,9.84811138 C11.3918218,9.84799053 11.3916004,9.84799053 11.3914898,9.84799053 C11.3913791,9.84799053 11.3911577,9.84786973 11.3910471,9.84786973 L11.3908257,9.84774888 C11.3908257,9.84774888 11.3907151,9.84774888 11.3906044,9.84762803 L11.390383,9.84750718 C11.390051,9.84738639 11.390051,9.84738639 11.3901617,9.84738639 C11.3898297,9.84738639 11.3898297,9.84738639 11.3899404,9.84726554 C11.3898297,9.84726554 11.3898297,9.84714469 11.3898297,9.84714469 C11.389719,9.84714469 11.3896083,9.8470239 11.3896083,9.8470239 L11.3894977,9.8470239 C11.382968,9.84448638 11.3759956,9.84291549 11.3686913,9.842553 L11.3685806,9.842553 L11.3683593,9.842553 L11.3680273,9.842553 L11.3679166,9.842553 L11.3678059,9.842553 L11.3676953,9.842553 C11.3675846,9.84243215 11.3675846,9.84243215 11.3674739,9.84243215 L11.3672526,9.84243215 L11.3670312,9.84243215 L11.3669206,9.84243215 L11.3668099,9.84243215 L11.3666992,9.84243215 L11.3664779,9.84243215 L11.3662565,9.84243215 C11.3662565,9.84243215 11.3662565,9.84243215 11.3661459,9.84243215 L11.3660352,9.84243215 L11.3659245,9.84243215 L11.3658139,9.84243215 L11.3657032,9.84243215 L11.3655925,9.84243215 L11.3654818,9.84243215 L11.3659245,9.84243215 L11.3658139,9.84243215 C11.1826518,9.84243215 11.0326913,9.67954761 11.0315846,9.47992944 L11.0315846,7.23374175 L11.3163435,7.23374175 L11.3177822,7.23374175 C11.3581775,7.23265427 11.3909364,7.19930398 11.3909364,7.1554412 C11.3909364,7.12269511 11.3725648,7.09466156 11.3464462,7.08294061 L9.9763277,6.05053289 C9.95186916,6.03204528 9.91933162,6.03204528 9.89476245,6.05053289 L8.51401939,7.09091571 C8.48812212,7.11037001 8.47694427,7.14601611 8.48624071,7.1787622 C8.49564784,7.21150829 8.52331583,7.23374175 8.55474665,7.23374175 L8.83950555,7.23374175 L8.83972687,9.48113777 C8.84116565,9.76256077 9.0483435,9.99238745 9.31163204,9.99939586 C9.31450948,9.99975836 9.31738697,9.99987921 9.32026446,9.99987921 L11.3655925,9.99987921 L11.3668099,9.99987921 C11.3856241,9.99951665 11.4026676,9.99129997 11.4152842,9.97812903 L11.4153949,9.97800818 C11.4156162,9.97776654 11.4159482,9.97752484 11.4159482,9.97740404 C11.4160589,9.97728319 11.4161696,9.97728319 11.4162803,9.97704149 L11.4163909,9.9769207 L11.4165016,9.97679985 L11.4166123,9.976679 L11.416723,9.9765582 L11.4168336,9.97643735 L11.4169443,9.9763165 C11.4172763,9.97619565 11.417055,9.97619565 11.4171656,9.97607486 C11.4171656,9.97607486 11.4171656,9.97607486 11.4172763,9.97595401 L11.417387,9.97583316 C11.417387,9.97583316 11.417387,9.97583316 11.4174977,9.97571237 C11.4298929,9.96169559 11.4376399,9.94272458 11.4377506,9.92169945 L11.4377506,9.92145775 L11.4377506,9.92133695 L11.4377506,9.9212161 L11.4377506,9.92109525 L11.4377506,9.9209744 L11.4377506,9.92085361 L11.4377506,9.92073276 L11.4377506,9.92049111 C11.4373079,9.88967835 11.4200431,9.86261149 11.3954739,9.85040725 Z" fill="#F2D864"/>
    </g>
  </g>
</svg>
