<?xml version="1.0" encoding="UTF-8"?>
<svg width="16px" height="16px" viewBox="0 0 16 16" version="1.1" xmlns="http://www.w3.org/2000/svg" xmlns:xlink="http://www.w3.org/1999/xlink">
  <g stroke="none" stroke-width="1" fill="none" fill-rule="evenodd">
    <rect fill="#FFFFFF" x="0" y="0" width="16" height="16" rx="2"/>
    <g transform="translate(1.500000, 1.000000)" fill="#632CA6">
      <path d="M10.8887007,9.94025113 L9.7309883,9.17276848 L8.76539409,10.7957892 L7.6427032,10.4655815 L6.65409483,11.9835361 L6.70412562,12.4618369 L12.0814347,11.4652101 L11.768242,8.08508447 L10.8887007,9.94025113 L10.8887007,9.94025113 Z M5.87561576,8.48333492 L6.73714594,8.36325941 C6.87723214,8.42729968 6.97429187,8.45131478 7.1413947,8.49334121 C7.4015548,8.56238463 7.70374076,8.62742553 8.15101601,8.40128332 C8.25508005,8.3492506 8.47121305,8.15012537 8.55926724,8.03605364 L12.0934421,7.39164839 L12.4536638,11.7824096 L6.39993842,12.8800999 L5.87561576,8.48333492 L5.87561576,8.48333492 Z M12.4396552,6.90134005 L12.0914409,6.96838221 L11.4210283,0 L0,1.33283818 L1.40786638,12.8210628 L2.74368842,12.6259401 C2.58454915,12.4100578 2.39746917,12.2162457 2.18734606,12.0495776 C1.79410406,11.71937 1.93318966,11.1610188 2.16533251,10.8087973 C2.47252155,10.2124223 4.05549569,9.45394531 3.96644089,8.50034562 C3.93342057,8.15412789 3.8783867,7.70284409 3.55919027,7.39364965 C3.54718288,7.5217302 3.56919643,7.64580822 3.56919643,7.64580822 C3.56919643,7.64580822 3.43711515,7.47670188 3.37207512,7.24755778 C3.3070351,7.1595024 3.25600369,7.13048415 3.18696121,7.01341053 C3.13693042,7.14949611 3.14393473,7.30759553 3.14393473,7.30759553 C3.14393473,7.30759553 3.03686884,7.05243507 3.01885776,6.83729978 C2.97429919,6.92427712 2.94710977,7.0191015 2.9388085,7.11647534 C2.9388085,7.11647534 2.79972291,6.71322175 2.83174261,6.4960852 C2.7677032,6.3079669 2.57958744,5.93373155 2.63262007,5.08319667 C2.98083436,5.32835084 3.74830665,5.27031435 4.04749076,4.82703558 C4.14755234,4.67994308 4.2145936,4.27869074 3.99745998,3.48919425 C3.85837438,2.98287584 3.51416256,2.22840138 3.37907943,1.94222141 L3.36306958,1.95422896 C3.4341133,2.18437369 3.5802032,2.66767762 3.63623768,2.90182487 C3.80634236,3.61227165 3.85137007,3.86042771 3.77232143,4.18763348 C3.70427956,4.47281282 3.5421798,4.65892986 3.12992611,4.86806138 C2.71767241,5.07619227 2.17133621,4.5678726 2.13631466,4.53985498 C1.73606835,4.21965362 1.42687808,3.69532388 1.39185653,3.44116405 C1.35683498,3.16298911 1.55195505,2.99588402 1.65001539,2.76874118 C1.50992919,2.80876635 1.3518319,2.88081166 1.3518319,2.88081166 C1.3518319,2.88081166 1.53994766,2.68568895 1.7710899,2.5165826 C1.8661484,2.45354296 1.9231835,2.41251716 2.02324507,2.3284643 C1.87715517,2.32546242 1.75908251,2.33046556 1.75908251,2.33046556 C1.75908251,2.33046556 2.00223214,2.19738187 2.25538793,2.10032083 C2.07027401,2.09331643 1.89316502,2.10032083 1.89316502,2.10032083 C1.89316502,2.10032083 2.4375,1.85516666 2.86676416,1.67605402 C3.16194581,1.55397725 3.45012315,1.5899999 3.61222291,1.82614841 C3.82435345,2.13434223 4.04849138,2.30244794 4.52178264,2.40651339 C4.81196121,2.27643158 4.90101601,2.20938942 5.26624076,2.10932649 C5.58743842,1.7541031 5.8395936,1.70807416 5.8395936,1.70807416 C5.8395936,1.70807416 5.71451663,1.82314652 5.68149631,2.00526105 C5.86360837,1.86016981 6.06373153,1.74009429 6.06373153,1.74009429 C6.06373153,1.74009429 5.9856835,1.8361547 5.91363916,1.98925098 L5.93064963,2.01426671 C6.14378079,1.88518554 6.39393473,1.78412198 6.39393473,1.78412198 C6.39393473,1.78412198 6.32189039,1.87517925 6.23783867,1.9932535 C6.39793719,1.99125224 6.72413793,1.99925727 6.85021552,2.01326608 C7.59567426,2.03027678 7.7507697,1.21276267 8.0359452,1.11069849 C8.39416564,0.98161731 8.55426416,0.904568857 9.16463978,1.50694768 C9.68796182,2.02527364 10.0972137,2.95185634 9.89508929,3.15998722 C9.72398399,3.33209546 9.38777709,3.09194443 9.01554803,2.62565119 C8.80305787,2.36131324 8.66028099,2.04788794 8.60029249,1.71407793 C8.54125616,1.40088097 8.31211515,1.21876645 8.31211515,1.21876645 C8.31211515,1.21876645 8.44519704,1.51595334 8.44519704,1.77911884 C8.44519704,1.92120819 8.46320813,2.45754548 8.69134852,2.75873489 C8.66933498,2.80276258 8.6583282,2.97587144 8.63331281,3.0088922 C8.36814963,2.68568895 7.79679803,2.45454359 7.70374076,2.3865008 C8.01893473,2.64666441 8.74338054,3.24303945 9.02155172,3.81539939 C9.28471367,4.3557392 9.12961823,4.85105068 9.26169951,4.98013186 C9.30072352,5.01715514 9.82804803,5.67857109 9.93011084,6.01078 C10.1072198,6.59114498 9.940117,7.19952757 9.70797414,7.57776543 L9.06057574,7.67882899 C8.96651786,7.65281263 8.90247845,7.63880382 8.81742611,7.58877236 C8.86445505,7.50672076 8.95751232,7.29858987 8.95751232,7.25556281 L8.92149015,7.19052191 C8.70001639,7.48537885 8.42127641,7.73247038 8.10198584,7.91697876 C7.73475985,8.1271109 7.31149938,8.09409014 7.03633005,8.00903665 C6.25484914,7.76588374 5.51539409,7.2345496 5.33728448,7.0944615 C5.33728448,7.0944615 5.3322814,7.20653198 5.36530172,7.23154771 C5.56242303,7.45468803 6.01370074,7.85994289 6.45096983,8.14212034 L5.52039717,8.24418453 L5.9606681,11.6903517 C5.76454741,11.71937 5.73452894,11.7323781 5.52039717,11.7633977 C5.33328202,11.0939767 4.97306034,10.6577023 4.57981835,10.4025419 C4.23260468,10.1794015 3.75431034,10.1283694 3.29602833,10.2194267 L3.26600985,10.2534481 C3.58520628,10.2204273 3.96143781,10.2674569 4.34667488,10.5136117 C4.72690887,10.7537627 5.03209667,11.3771548 5.14416564,11.7523907 C5.28825431,12.2316922 5.38831589,12.7440143 5.00007697,13.287356 C4.72490764,13.6735989 3.91941195,13.8877336 3.2690117,13.4254429 C3.44311884,13.7066197 3.67826355,13.9357638 3.99445813,13.9797915 C4.46374692,14.0438318 4.90902094,13.9617802 5.21520936,13.6455813 C5.47737069,13.3754114 5.61545567,12.8090552 5.5794335,12.2126802 L5.99368842,12.1526424 L6.14378079,13.2223151 L13,12.3917928 L12.4396552,6.90134005 Z M8.26908867,3.99451203 C8.24907635,4.03853972 8.21905788,4.06755797 8.26408559,4.21064795 L8.26708744,4.21865299 L8.27409175,4.23766494 L8.29410406,4.27969137 C8.37415333,4.44779709 8.46420874,4.60589651 8.61430111,4.68594685 C8.65232451,4.67994308 8.69234914,4.67594056 8.734375,4.67293867 C8.83160139,4.66291255 8.92973717,4.67915355 9.01854988,4.71996825 C9.02420541,4.67684023 9.02521179,4.63322945 9.02155172,4.58988644 C9.01154557,4.37775304 9.06357759,4.01652588 8.6583282,3.82740694 C8.50523399,3.75536164 8.29110222,3.77737548 8.21905788,3.86743211 C8.2306023,3.86863362 8.24199867,3.87097996 8.25307882,3.87443652 C8.36114532,3.91246043 8.28810037,3.94948371 8.26808805,3.99451203 L8.26908867,3.99451203 Z M9.40378695,5.97375672 C9.35075431,5.94373784 9.1026016,5.95574539 8.92849446,5.97675861 C8.59528941,6.01678378 8.23706897,6.13185614 8.15802032,6.19389516 C8.01493227,6.30496501 8.07997229,6.49908708 8.18503695,6.5781368 C8.48221983,6.80127712 8.74137931,6.95037088 9.01554803,6.91434823 C9.18365148,6.89233439 9.33274323,6.62416574 9.43780788,6.3800122 C9.50985222,6.21290711 9.50985222,6.03179322 9.40378695,5.97375672 L9.40378695,5.97375672 Z M6.46097599,4.25767753 C6.55403325,4.16762089 5.99368842,4.05054727 5.55842057,4.34773416 C5.23822352,4.56887323 5.22821736,5.04117024 5.53440579,5.30833826 C5.56442426,5.33535525 5.59044027,5.3543672 5.61445505,5.36837601 C5.87032598,5.24715564 6.14337255,5.16615186 6.4239532,5.12822499 C6.48899323,5.05617968 6.56403941,4.92809914 6.54502771,4.69395189 C6.52001232,4.37875367 6.28186576,4.42878513 6.46097599,4.25767753 L6.46097599,4.25767753 Z"/>
    </g>
  </g>
</svg>
