<?xml version="1.0" encoding="UTF-8"?>
<svg width="16px" height="16px" viewBox="0 0 16 16" version="1.1" xmlns="http://www.w3.org/2000/svg"
    xmlns:xlink="http://www.w3.org/1999/xlink">
    <g stroke="none" stroke-width="1" fill="none" fill-rule="evenodd">
        <rect fill="#FFFFFF" x="0" y="0" width="16" height="16" rx="2" />
        <g transform="translate(1.000000, 2.000000)" fill="#000000" fill-rule="nonzero">
            <g transform="translate(9.049338, 0.000000)">
                <path
                    d="M4.78166236,6.75354711 L4.67727919,6.71740233 C4.63521005,6.72761337 4.59447936,6.74246508 4.55587985,6.76166819 C4.50371218,6.79862488 4.46932124,6.82899141 4.43765407,6.86193625 L4.42107845,6.97124208 L4.48719472,7.10617615 C4.554439,7.25605511 4.53313503,7.29469637 4.36441923,7.32883837 L4.20932292,7.35526905 C4.1625249,7.36264804 4.11768115,7.37102202 4.07422456,7.38059543 C3.56413626,7.49249559 3.37481893,7.88017439 3.62151539,8.32652755 C3.66440826,8.38095332 3.67940557,8.43157698 3.67331472,8.4819379 C3.66925463,8.51550791 3.6560524,8.54707501 3.63548983,8.57358045 L3.59934844,8.60916006 C3.43244457,8.74346486 3.39063782,8.97189242 3.49792837,9.15117982 L3.44503171,9.30995205 C3.38626773,9.45818263 3.34266646,9.62299186 3.31842135,9.79098532 C3.3157607,9.88931427 3.3213803,9.96439213 3.33910082,10.0897316 L3.38417643,10.4131494 C3.38583524,10.4315386 3.38710558,10.4493587 3.38813704,10.4680161 C3.40678576,10.6561655 3.30303352,10.8288362 3.13594274,10.9061173 L3.06062673,10.9331646 C2.92666428,10.9844058 2.79840078,11.0181952 2.6674323,11.0374104 L1.07730912,11.189099 C0.637119434,11.2216271 0.244392707,11.4779662 0.0454824772,11.8641015 L0.0885693142,11.9936563 L0.270506612,12.0860825 L0.369544502,12.0971429 L0.460270845,12.0408547 C0.553786978,11.84488 0.731762288,11.7018808 0.942934563,11.6476536 L1.05104979,11.6281033 C1.10745649,11.618921 1.1564382,11.6132524 1.22283705,11.6085039 L1.62240048,11.5844026 L1.68067105,11.5777524 C2.14988326,11.5339165 2.61974728,11.4648074 3.08472823,11.371113 C3.6223246,11.2432499 3.85354099,10.922473 3.83306816,10.371417 C3.83108138,10.3116178 3.82534524,10.261745 3.81170478,10.1829661 L3.77864931,10.0022275 C3.76628732,9.92954121 3.76025824,9.8731731 3.76025824,9.82003919 C3.77147144,9.7515201 3.78967447,9.6777956 3.81433112,9.60385034 L3.85608927,9.49338995 C3.91704691,9.36234166 3.94670578,9.21623309 3.94146858,9.06932221 C3.90387791,8.97249892 3.91691994,8.90231237 3.96477694,8.85646368 C4.14861934,8.66735359 4.17682892,8.38498987 4.03582774,8.16792763 L4.00032006,8.09687422 C3.90404505,7.88891585 3.94708088,7.83205877 4.2581671,7.79013386 C4.58839216,7.77046354 4.88919209,7.57616619 5.03944527,7.28137143 L5.05065915,7.13671927 L4.78166236,6.75354711 Z" />
                <path
                    d="M0.211287402,-0.0971428571 L0,-0.0971428571 L-0.1,0.00285714286 L-0.1,0.247562389 L-0.0201187346,0.345517667 C0.503862262,0.45313652 0.575314724,0.427760047 0.54999266,0.0803824825 L0.483560525,-0.00663885496 L0.244865958,-0.0913367031 L0.211287402,-0.0971428571 Z" />
                <path
                    d="M3.4963662,4.6677996 L3.4043136,4.69851295 L3.33665727,4.78161251 L3.25911296,5.43644107 L3.36746701,5.54779067 C3.60271137,5.52641829 3.69929888,5.42912408 3.72415628,5.25216409 L3.73121429,5.14662457 C3.73318658,5.05699824 3.73919078,5.02849967 3.75606765,5.01321562 L3.76282474,4.87170503 L3.60189945,4.69527021 L3.4963662,4.6677996 Z" />
                <polygon
                    points="3.7140838 5.49975594 3.50479754 5.64647893 3.47962148 5.78475642 3.77428986 6.21624555 3.91662475 6.24003411 4.1215752 6.08730198 4.14442275 5.95075368 3.85409018 5.52527369" />
                <polygon
                    points="4.15910015 6.13117828 3.96548952 6.29743096 3.95041584 6.43300295 4.25242175 6.83878634 4.3972348 6.85542198 4.5945142 6.68850162 4.60974769 6.55192988 4.30407302 6.14681417" />
                <polygon
                    points="2.21964225 0.789595726 2.07464582 0.800364605 1.91555491 0.995995266 1.92509195 1.13236581 2.2966376 1.47739019 2.44095217 1.46879068 2.60671356 1.27332694 2.59785837 1.13478703" />
                <polygon
                    points="2.64459306 1.32657946 2.45598529 1.49583671 2.44434715 1.63230313 2.75068887 2.01955836 2.89350374 2.03403078 3.08928228 1.86928038 3.10297206 1.73028498 2.78945958 1.3385229" />
                <polygon
                    points="0.802721059 0.0547388477 0.672041446 0.116580371 0.591161896 0.359950254 0.651286937 0.48524741 1.10137747 0.652167769 1.22668115 0.60088102 1.33357557 0.37303473 1.27882645 0.2371828" />
                <polygon
                    points="3.13538599 1.9208615 2.92042982 2.05439779 2.88799493 2.19168899 3.1498112 2.61783667 3.29141191 2.64806884 3.50136521 2.50468425 3.53007692 2.36960148 3.2732635 1.9533021" />
                <path
                    d="M3.6624558,2.62432585 L3.5276559,2.57098091 C3.28149691,2.6850694 3.23794646,2.83220648 3.32987791,3.02448714 L3.37689535,3.11939994 C3.39385048,3.15651006 3.3996774,3.18175695 3.3964884,3.20001537 L3.52059267,3.3138897 L3.79041352,3.24244779 L3.8575673,3.10839489 L3.6624558,2.62432585 Z" />
                <polygon
                    points="3.89964636 4.02250518 3.64400028 4.04453867 3.5535012 4.13067984 3.49495668 4.56208362 3.56460133 4.67105593 3.80940789 4.74650393 3.93801073 4.66394692 4.00738371 4.13514323" />
                <polygon
                    points="1.54242002 0.353963247 1.39979077 0.397386158 1.2913955 0.631241581 1.33084399 0.759146438 1.73941079 1.003184 1.87701437 0.967811277 2.00458727 0.749646367 1.97016444 0.613691326" />
                <path
                    d="M3.81641382,3.29749767 L3.5280824,3.34206541 L3.47123,3.51015603 C3.48498231,3.52447696 3.49423822,3.54453249 3.50112085,3.57734842 L3.51267612,3.66424873 C3.52471741,3.78668071 3.53765176,3.84007583 3.5897237,3.89856146 C3.65881945,3.97616772 3.76795046,3.99902583 3.92376154,3.9756104 L4.00763323,3.8608522 L3.93042244,3.38045541 L3.81641382,3.29749767 Z" />
            </g>
            <g transform="translate(0.000000, 1.997703)">
                <path
                    d="M0,0.0494561178 L1.4795121,0.0494561178 C2.1520075,0.0494561178 2.62833524,0.217012364 2.90849533,0.552124856 C3.18865542,0.887237349 3.32873547,1.36828593 3.32873547,1.99527059 L3.32873547,4.62633606 C3.32873547,5.28575096 3.19282447,5.79117627 2.92100248,6.14261199 C2.64918048,6.4940477 2.18830602,6.66965746 1.53837907,6.66944145 L0,6.66944145 L0,0.0494561178 Z M1.4961883,6.20422944 C1.76969068,6.22399816 2.04170995,6.15030339 2.26529445,5.99586514 C2.43845092,5.85324875 2.55571945,5.65692436 2.59731751,5.44001081 C2.65391144,5.13948389 2.67927573,4.83418416 2.67302744,4.52872103 L2.67302744,2.06013107 C2.68102844,1.77000386 2.64996965,1.48010516 2.58064132,1.19781096 C2.52898256,0.996586876 2.40341636,0.820683195 2.22760625,0.70324978 C1.99819826,0.575064257 1.73507196,0.515344967 1.47100724,0.531531653 L0.638865066,0.531531653 L0.638865066,6.20406729 L1.4961883,6.20422944 Z" />
                <polygon points="6.0754717 0 6.71433676 0 6.71433676 6.62063374 6.0754717 6.62063374" />
                <path
                    d="M7.92536211,0 L9.40487421,0 C10.0773696,0 10.5536974,0.167556246 10.8338574,0.502668739 C11.1140175,0.837781231 11.2540976,1.31882981 11.2540976,1.94581447 L11.2540976,4.5776907 C11.2540976,5.2371056 11.1181866,5.74253091 10.8463646,6.09396662 C10.5745426,6.44540234 10.1136125,6.62112019 9.46357442,6.62112019 L7.92536211,6.62112019 L7.92536211,0 Z M9.42171717,6.15477333 C9.69522096,6.1745558 9.96724494,6.10085975 10.1908233,5.94640903 C10.3639798,5.80379264 10.4812483,5.60746825 10.5228464,5.39055469 C10.5794336,5.09002692 10.6047978,4.78472785 10.5985563,4.47926491 L10.5985563,2.01067495 C10.6065458,1.72054817 10.5754872,1.43065092 10.5061702,1.14835484 C10.4545114,0.947130758 10.3289452,0.771227077 10.1531351,0.653793663 C9.92373444,0.525590128 9.66060249,0.465869556 9.39653612,0.482075535 L8.56439394,0.482075535 L8.56439394,6.15461117 L9.42171717,6.15477333 Z" />
                <polygon
                    points="3.95776158 2.88256199 5.32787783 2.88256199 5.32787783 3.2467536 3.95776158 3.2467536" />
            </g>
        </g>
    </g>
</svg>