<svg width="100" height="100" fill="none" xmlns="http://www.w3.org/2000/svg"><path d="M62.91 100h1.22l19.85-9.93.33-.47V10.39l-.33-.47L64.13 0H62.9l.01 100z" fill="#5294CF"/><path d="M37.09 100h-1.23l-19.83-9.93-.4-.69-.2-78.59.61-.87L35.85 0h1.25l-.01 100z" fill="#1F5B98"/><path d="M35.89 0h28.22v100H35.89V0z" fill="#2D72B8"/><path d="M94.37 47.75l-.67-.15-9.58-.89-.14.07-19.87-.79H35.89l-19.87.79V31.63l-.02.01.02-.04L35.89 27h28.23l19.87 4.6 7.3 3.88v-2.5l3.09-.34-.32-.62-9.77-6.99-.3.1-19.87-6.16H35.89l-19.87 6.16V9.92L5.63 22.09v10.63l.08-.06 3.01.33v2.55l-3.09 1.65v10.58l.08-.01 3.01.04v4.44l-2.59.04-.49-.05v10.58l3.09 1.66v2.58l-2.96.33-.13-.1V77.9l10.39 12.17V74.86l19.87 6.16h28.23l19.92-6.17.26.12 9.64-6.88.42-.69-3.09-.34v-2.52l-.4-.16-6.6 3.56-.24.5-19.92 4.58V73H35.89v-.01l-19.87-4.6v-15.2l19.87.79V54h28.23l19.87-.81.45.21 9.28-.8.65-.32-3.09-.04V47.8l3.09-.05z" fill="#1A476F"/><path d="M83.98 74.86v15.22L94.37 77.9V67.34l-10.33 7.5-.06.02zm0-6.43l.06-.01 10.33-5.56V52.24l-10.39.96v15.23zm.06-36.82l-.06-.01v15.18l10.39.97V37.14l-10.33-5.53zm0-6.42l10.33 7.45V22.09L83.98 9.92v15.22l.06.02v.03z" fill="#2D72B8"/></svg>