<?xml version="1.0" encoding="UTF-8"?>
<svg width="16px" height="16px" viewBox="0 0 16 16" version="1.1" xmlns="http://www.w3.org/2000/svg" xmlns:xlink="http://www.w3.org/1999/xlink">
  <g stroke="none" stroke-width="1" fill="none" fill-rule="evenodd">
    <rect fill="#FFFFFF" x="0" y="0" width="16" height="16" rx="2"/>
    <g transform="translate(2.000000, 1.500000)" fill-rule="nonzero">
      <polygon fill="#5294CF" points="7.74490141 13 7.90985915 13 10.5938028 11.7091 10.6384225 11.648 10.6384225 1.3507 10.5938028 1.2896 7.90985915 0 7.7435493 0"/>
      <polygon fill="#1F5B98" points="4.25374648 13 4.08743662 13 1.40619718 11.7091 1.35211268 11.6194 1.32507042 1.4027 1.4075493 1.2896 4.08608451 0 4.25509859 0"/>
      <polygon fill="#2D72B8" points="4.09149296 0 7.90715493 0 7.90715493 13 4.09149296 13"/>
      <polygon fill="#1A476F" points="11.9986479 6.2075 11.9080563 6.188 10.6127324 6.0723 10.5938028 6.0814 7.90715493 5.9787 4.09149296 5.9787 1.40484507 6.0814 1.40484507 4.1119 1.40214085 4.1132 1.40484507 4.108 4.09149296 3.51 7.90850704 3.51 10.5951549 4.108 11.5821972 4.6124 11.5821972 4.2874 12 4.2432 11.9567324 4.1626 10.6357183 3.2539 10.5951549 3.2669 7.90850704 2.4661 4.09149296 2.4661 1.40484507 3.2669 1.40484507 1.2896 1.2009173e-16 2.8717 1.2009173e-16 4.2536 0.0108169014 4.2458 0.417802817 4.2887 0.417802817 4.6202 0 4.8347 0 6.2101 0.0108169014 6.2088 0.417802817 6.214 0.417802817 6.7912 0.0676056338 6.7964 0.00135211268 6.7899 0.00135211268 8.1653 0.41915493 8.3811 0.41915493 8.7165 0.0189295775 8.7594 0.00135211268 8.7464 0.00135211268 10.127 1.40619718 11.7091 1.40619718 9.7318 4.09284507 10.5326 7.90985915 10.5326 10.6032676 9.7305 10.6384225 9.7461 11.9418592 8.8517 11.9986479 8.762 11.5808451 8.7178 11.5808451 8.3902 11.5267606 8.3694 10.6343662 8.8322 10.6019155 8.8972 7.90850704 9.4926 7.90850704 9.49 4.09149296 9.49 4.09149296 9.4887 1.40484507 8.8907 1.40484507 6.9147 4.09149296 7.0174 4.09149296 7.02 7.90850704 7.02 10.5951549 6.9147 10.656 6.942 11.9107606 6.838 11.9986479 6.7964 11.5808451 6.7912 11.5808451 6.214 11.9986479 6.2075"/>
      <path d="M10.5938028,9.7318 L10.5938028,11.7104 L11.9986479,10.127 L11.9986479,8.7542 L10.6019155,9.7292 L10.5938028,9.7318 Z M10.5938028,8.8959 L10.6019155,8.8946 L11.9986479,8.1718 L11.9986479,6.7912 L10.5938028,6.916 L10.5938028,8.8959 Z M10.6019155,4.1093 L10.5938028,4.108 L10.5938028,6.0814 L11.9986479,6.2075 L11.9986479,4.8282 L10.6019155,4.1093 L10.6019155,4.1093 Z M10.6019155,3.2747 L11.9986479,4.2432 L11.9986479,2.8717 L10.5938028,1.2896 L10.5938028,3.2682 L10.6019155,3.2708 L10.6019155,3.2747 Z" fill="#2D72B8"/>
    </g>
  </g>
</svg>
