<?xml version="1.0" encoding="UTF-8"?>
<svg width="16px" height="16px" viewBox="0 0 16 16" version="1.1" xmlns="http://www.w3.org/2000/svg" xmlns:xlink="http://www.w3.org/1999/xlink">
  <g stroke="none" stroke-width="1" fill="none" fill-rule="evenodd">
    <rect fill="#FFFFFF" x="0" y="0" width="16" height="16" rx="2"/>
    <g transform="translate(1.500000, 0.500000)" fill="#3A1AB6" fill-rule="nonzero">
      <path d="M10.0995066,3.14650948 C9.20673929,3.45624934 8.77685057,4.01180552 8.48398403,4.87708076 C8.4084095,5.10814677 8.21945282,5.36382435 8.00689698,5.5358974 L8.73908374,6.3520285 L6.41493272,4.66077339 L0,0 C0,0 0.462935732,3.12684518 0.623544837,4.27729861 C0.73691477,5.08848246 0.930595382,5.45229293 1.5446883,5.82105066 L1.790332,5.9587008 L2.84846907,6.53886021 L2.22020031,6.19961975 L5.12061205,7.846599 L5.10174905,7.89087489 L1.97928053,6.38645146 C2.14462172,6.97642222 2.46583176,8.11208792 2.60282537,8.61359012 C2.74926681,9.15437937 2.91459983,9.35102243 3.42005082,9.54284296 L4.35065845,9.89680051 L4.92696003,9.66078724 L4.19477326,10.1671951 L0.53379041,15 C2.96656292,12.6499698 5.02613371,11.8141744 6.53305108,11.1307878 C8.4556487,10.2655167 9.61298802,9.70996881 10.3687739,7.71385454 C10.9073087,6.31269992 11.3276843,4.51821755 11.8615645,3.82497797 L13,2.31072239 C13,2.31072239 10.6427367,2.95969025 10.0995066,3.14650948 Z"/>
    </g>
  </g>
</svg>
