<?xml version="1.0" encoding="UTF-8"?>
<svg width="16px" height="16px" viewBox="0 0 16 16" version="1.1" xmlns="http://www.w3.org/2000/svg" xmlns:xlink="http://www.w3.org/1999/xlink">
  <defs>
    <linearGradient x1="50.0002779%" y1="0.000877708828%" x2="50.0002779%" y2="99.8446455%" id="gcs_svg__a">
      <stop stop-color="#4387FD" offset="0%"/>
      <stop stop-color="#4683EA" offset="100%"/>
    </linearGradient>
    <path d="M3.03955991,12.3440267 L0.168498377,7.15603029 C-0.0561661258,6.75007733 -0.0561661258,6.24992266 0.168498377,5.8439697 L3.03955991,0.656087349 C3.26422172,0.250092168 3.6794506,1.01349135e-16 4.12881331,1.01349135e-16 L9.87093637,1.01349135e-16 C10.3203321,1.01349135e-16 10.7356013,0.250074094 10.9602991,0.656087349 L13.8313607,5.8439697 C14.0560673,6.24995166 14.0560673,6.75016244 13.8313607,7.1561444 L10.9602991,12.3439126 C10.7356178,12.7499431 10.3203382,13 9.87093637,13 L4.12881331,13 C3.6794506,13 3.26422172,12.7499078 3.03955991,12.3439126 L3.03955991,12.3440267 Z" id="gcs_svg__b"/>
  </defs>
  <g stroke="none" stroke-width="1" fill="none" fill-rule="evenodd">
    <rect fill="#FFFFFF" x="0" y="0" width="16" height="16" rx="2"/>
    <g transform="translate(1.000000, 1.500000)">
      <g fill="url(#gcs_svg__a)" fill-rule="nonzero">
        <path d="M3.03955991,12.3440267 L0.168498377,7.15603029 C-0.0561661258,6.75007733 -0.0561661258,6.24992266 0.168498377,5.8439697 L3.03955991,0.656087349 C3.26425778,0.250074094 3.67952694,0 4.12892268,0 L9.87104574,0 C10.3204024,0 10.7356208,0.250109398 10.9602991,0.656087349 L13.8313607,5.8439697 C14.0560673,6.24995166 14.0560673,6.75016244 13.8313607,7.1561444 L10.9602991,12.3439126 C10.7356208,12.7498906 10.3204024,13 9.87104574,13 L4.12892268,13 C3.6795209,13 3.26424126,12.7499431 3.03955991,12.3439126 L3.03955991,12.3440267 Z"/>
      </g>
      <g transform="translate(0.000109, 0.000000)">
        <mask id="gcs_svg__c" fill="white">
          <use xlink:href="#gcs_svg__b"/>
        </mask>
        <g/>
        <polygon fill="#000000" fill-rule="nonzero" opacity="0.07" mask="url(#gcs_svg__c)" points="5.39350224 5.3447728 4.6267921 6.14234681 5.27833166 6.82216741 4.63324515 8.01750151 9.51514349 13.110565 10.6981302 13.1107932 13.0084324 8.7821 9.35020784 4.96538316"/>
      </g>
      <path d="M9.2640213,4.93343456 L4.73200966,4.93343456 C4.65905736,4.93343456 4.59944865,4.99573433 4.59944865,5.07195457 L4.59944865,6.04935356 C4.59944865,6.12534559 4.65916673,6.18764537 4.73200966,6.18764537 L9.2640213,6.18764537 C9.33697361,6.18764537 9.39669169,6.12534559 9.39669169,6.04935356 L9.39669169,5.07172636 C9.39669169,4.99573433 9.33708298,4.93332046 9.26413068,4.93332046 M8.56238855,5.84339919 C8.41281104,5.84295965 8.29170999,5.71647023 8.29146963,5.56042586 C8.29141162,5.48544889 8.31993611,5.41352536 8.37075585,5.36050862 C8.42157559,5.30749188 8.49051862,5.27773423 8.56238855,5.27779475 C8.71223062,5.27779475 8.83363551,5.40364951 8.83363551,5.56042586 C8.83363551,5.63547505 8.80505779,5.70745043 8.75418912,5.76051822 C8.70332044,5.81358601 8.63432772,5.84339919 8.56238855,5.84339919 M9.2640213,6.81224052 L4.73200966,6.81246873 C4.65905736,6.81246873 4.59944865,6.8747685 4.59944865,6.95098873 L4.59944865,7.92827363 C4.59944865,8.00426566 4.65916673,8.06667953 4.73200966,8.06667953 L9.2640213,8.06667953 C9.33697361,8.06667953 9.39669169,8.00426566 9.39669169,7.92827363 L9.39669169,6.95076053 C9.39669169,6.8747685 9.33708298,6.81224052 9.26413068,6.81224052 M8.56238855,7.72231925 C8.4127861,7.72194223 8.29165003,7.59541623 8.29146963,7.43934593 C8.29141162,7.36436895 8.31993611,7.29244543 8.37075585,7.23942868 C8.42157559,7.18641194 8.49051862,7.15665429 8.56238855,7.15671491 C8.66181498,7.1525467 8.75544739,7.20550742 8.80634994,7.29470528 C8.85725249,7.38390313 8.85725249,7.49501692 8.80634994,7.58421478 C8.75544739,7.67341263 8.66181498,7.72637336 8.56238855,7.72220515" fill="#FFFFFF" fill-rule="nonzero"/>
    </g>
  </g>
</svg>
