<?xml version="1.0" encoding="UTF-8"?>
<svg width="16px" height="16px" viewBox="0 0 16 16" version="1.1" xmlns="http://www.w3.org/2000/svg" xmlns:xlink="http://www.w3.org/1999/xlink">
  <g stroke="none" stroke-width="1" fill="none" fill-rule="evenodd">
    <rect fill="#FFFFFF" x="0" y="0" width="16" height="16" rx="2"/>
    <path d="M8,1 C4.13483333,1 1,4.09871751 1,7.92064213 C1,10.9784125 3.0055,13.5724999 5.78741667,14.4877548 C6.13683333,14.5517707 6.25,14.3372308 6.25,14.1549872 L6.25,12.8665944 C4.30283333,13.2852932 3.89741667,12.0499586 3.89741667,12.0499586 C3.57891667,11.2500477 3.11983333,11.037238 3.11983333,11.037238 C2.48458333,10.6075814 3.16825,10.616809 3.16825,10.616809 C3.87116667,10.6652535 4.241,11.3302118 4.241,11.3302118 C4.86516667,12.3879166 5.87841667,12.0822549 6.278,11.9052018 C6.34041667,11.4582437 6.52183333,11.152582 6.7225,10.9801427 C5.16791667,10.804243 3.53341667,10.210798 3.53341667,7.5596153 C3.53341667,6.80353515 3.807,6.18644456 4.25441667,5.70199961 C4.18208333,5.52725339 3.94233333,4.82307806 4.32266667,3.87033632 C4.32266667,3.87033632 4.91066667,3.68463243 6.24825,4.57970214 C6.8065,4.42629457 7.405,4.34959079 8,4.34670719 C8.595,4.34959079 9.19408333,4.42629457 9.7535,4.57970214 C11.0899167,3.68463243 11.67675,3.87033632 11.67675,3.87033632 C12.0576667,4.82365478 11.8179167,5.52783011 11.7455833,5.70199961 C12.19475,6.18644456 12.466,6.80411187 12.466,7.5596153 C12.466,10.2177186 10.8285833,10.8030896 9.26991667,10.9743755 C9.52075,11.1889154 9.75,11.6099211 9.75,12.2558477 L9.75,14.1549872 C9.75,14.338961 9.862,14.5552311 10.21725,14.4871781 C12.9968333,13.5707697 15,10.9772591 15,7.92064213 C15,4.09871751 11.86575,1 8,1 Z" fill="#000000" fill-rule="nonzero"/>
  </g>
</svg>
