<?xml version="1.0" encoding="UTF-8"?>
<svg width="16px" height="16px" viewBox="0 0 16 16" version="1.1" xmlns="http://www.w3.org/2000/svg" xmlns:xlink="http://www.w3.org/1999/xlink">
  <g stroke="none" stroke-width="1" fill="none" fill-rule="evenodd">
    <rect fill="#FFFFFF" x="0" y="0" width="16" height="16" rx="2"/>
    <g transform="translate(1.000000, 1.000000)" fill-rule="nonzero">
      <polygon fill="#E24329" points="7 12.9979842 7 12.9979842 9.57795647 5.00170361 4.42204353 5.00170361"/>
      <polygon fill="#FC6D26" points="7 12.9979842 4.42204353 5.00170361 0.809604528 5.00170361"/>
      <path d="M0.809604528,5.00170361 L0.809604528,5.00170361 L0.0261177575,7.4317827 C-0.0452758309,7.65338746 0.0330483157,7.89612387 0.220114482,8.03300301 L7,13 L0.809604528,5.00170361 Z" fill="#FCA326"/>
      <path d="M0.809604528,5.00170361 L4.42204353,5.00170361 L2.86956974,0.185893629 C2.83365136,0.0752998148 2.73127711,0.000503956675 2.61582403,0.000503956675 C2.50037095,0.000503956675 2.3979967,0.0752998148 2.36207831,0.185893629 L0.809604528,5.00170361 Z" fill="#E24329"/>
      <polygon fill="#FC6D26" points="7 12.9979842 9.57795647 5.00170361 13.1903955 5.00170361"/>
      <path d="M13.1903955,5.00170361 L13.1903955,5.00170361 L13.9738822,7.4317827 C14.0452758,7.65338746 13.9669517,7.89612387 13.7798855,8.03300301 L7,13 L13.1903955,5.00170361 Z" fill="#FCA326"/>
      <path d="M13.1903955,5.00170361 L9.57795647,5.00170361 L11.1304303,0.185389673 C11.1663486,0.0747958581 11.2687229,0 11.384176,0 C11.499629,0 11.6020033,0.0747958581 11.6379217,0.185389673 L13.1903955,5.00170361 Z" fill="#E24329"/>
    </g>
  </g>
</svg>
