<?xml version="1.0" encoding="UTF-8"?>
<svg width="16px" height="16px" viewBox="0 0 16 16" version="1.1" xmlns="http://www.w3.org/2000/svg" xmlns:xlink="http://www.w3.org/1999/xlink">
  <defs>
    <path d="M2.06818204,2.36557338 C3.63179129,2.36557338 4.13636407,0.963906162 4.13636407,0.244125916 C4.13636407,-0.129960189 3.88625723,-0.0122175194 3.48566628,0.187182035 C3.1154776,0.371449873 2.61677528,0.625441974 2.06818204,0.625441974 C0.925956916,0.625441974 0,-0.475654331 0,0.244125916 C0,0.963906162 0.504556872,2.36557338 2.06818204,2.36557338 Z" id="huggingFace_svg__a"/>
  </defs>
  <g stroke="none" stroke-width="1" fill="none" fill-rule="evenodd">
    <rect fill="#FFFFFF" x="0" y="0" width="16" height="16" rx="2"/>
    <g transform="translate(1.000000, 2.000000)">
      <path d="M6.96023522,11.756672 C10.0134765,11.756672 12.4886449,9.26808042 12.4886449,6.19824542 C12.4886449,3.12841042 10.0134765,0.639818882 6.96023522,0.639818882 C3.90697808,0.639818882 1.43182555,3.12841042 1.43182555,6.19824542 C1.43182555,9.26808042 3.90697808,11.756672 6.96023522,11.756672 Z" fill="#FFD21E" fill-rule="nonzero"/>
      <path d="M12.4886449,6.19824542 C12.4886449,3.12841042 10.0134765,0.639818882 6.96023522,0.639818882 C3.90697808,0.639818882 1.43182555,3.12841042 1.43182555,6.19824542 C1.43182555,9.26808042 3.90697808,11.756672 6.96023522,11.756672 C10.0134765,11.756672 12.4886449,9.26808042 12.4886449,6.19824542 Z M0.795453889,6.19824542 C0.795453889,2.77505445 3.55551441,0 6.96023522,0 C10.3649401,0 13.1250086,2.77505445 13.1250086,6.19824542 C13.1250086,9.62143639 10.3649401,12.3964908 6.96023522,12.3964908 C3.55551441,12.3964908 0.795453889,9.62143639 0.795453889,6.19824542 Z" fill="#FF9D0B" fill-rule="nonzero"/>
      <path d="M8.75645132,4.6853137 C8.9591968,4.75729332 9.03987181,5.17637469 9.24468546,5.06686969 C9.63258096,4.85950439 9.77983552,4.37524147 9.57359005,3.98523987 C9.36734457,3.59525427 8.88569679,3.44720018 8.49780129,3.65456548 C8.1099058,3.86193078 7.96265124,4.34619369 8.16889671,4.73619529 C8.26624445,4.92027118 8.57521494,4.62096391 8.75645132,4.6853137 Z" fill="#3A3B45" fill-rule="nonzero"/>
      <path d="M5.00874638,4.6853137 C4.8060009,4.75729332 4.7253418,5.17637469 4.52052815,5.06686969 C4.13263265,4.85950439 3.98537809,4.37524147 4.19162357,3.98523987 C4.39786904,3.59525427 4.87951682,3.44720018 5.26741232,3.65456548 C5.65530781,3.86193078 5.80256237,4.34619369 5.5963169,4.73619529 C5.49896916,4.92027118 5.18998276,4.62096391 5.00874638,4.6853137 Z" fill="#3A3B45" fill-rule="nonzero"/>
      <path d="M6.92046249,8.5238271 C8.48407175,8.5238271 8.98864453,7.12215988 8.98864453,6.40237963 C8.98864453,6.02829353 8.73853768,6.1460362 8.33794673,6.34543575 C7.96775806,6.52970359 7.46905573,6.78369569 6.92046249,6.78369569 C5.77823737,6.78369569 4.85228045,5.68259939 4.85228045,6.40237963 C4.85228045,7.12215988 5.35683733,8.5238271 6.92046249,8.5238271 Z" fill="#3A3B45" fill-rule="nonzero"/>
      <g transform="translate(4.852280, 6.158254)">
        <mask id="huggingFace_svg__b" fill="white">
          <use xlink:href="#huggingFace_svg__a"/>
        </mask>
        <g/>
        <path d="M2.10795477,3.99887103 C2.86998439,3.99887103 3.48773446,3.37776685 3.48773446,2.61159974 C3.48773446,2.01482467 3.11296397,1.50607269 2.58715255,1.31027211 C2.56779118,1.30305816 2.54823891,1.29627608 2.52849572,1.28992587 C2.39590934,1.24731394 2.25460478,1.70548824 2.10795477,1.70548824 C1.97092975,1.70548824 1.8385661,1.24440276 1.71361609,1.28180017 C1.14372058,1.45237589 0.728159168,1.98318563 0.728159168,2.61159974 C0.728159168,3.37776685 1.34590923,3.99887103 2.10795477,3.99887103 Z" fill="#F94040" fill-rule="nonzero" mask="url(#huggingFace_svg__b)"/>
      </g>
      <path d="M10.698872,5.4384605 C10.9844243,5.4384605 11.2159175,5.20571038 11.2159175,4.91860766 C11.2159175,4.63150493 10.9844243,4.39875481 10.698872,4.39875481 C10.4133038,4.39875481 10.1818265,4.63150493 10.1818265,4.91860766 C10.1818265,5.20571038 10.4133038,5.4384605 10.698872,5.4384605 Z" fill="#FF9D0B" fill-rule="nonzero"/>
      <path d="M3.30114393,5.4384605 C3.58669623,5.4384605 3.81818944,5.20571038 3.81818944,4.91860766 C3.81818944,4.63150493 3.58669623,4.39875481 3.30114393,4.39875481 C3.01557571,4.39875481 2.78409842,4.63150493 2.78409842,4.91860766 C2.78409842,5.20571038 3.01557571,5.4384605 3.30114393,5.4384605 Z" fill="#FF9D0B" fill-rule="nonzero"/>
      <path d="M2.23712791,7.19796242 C1.9795597,7.19796242 1.74935513,7.30433231 1.58883238,7.49723771 C1.48955964,7.61672388 1.38583236,7.80930936 1.37740054,8.09770773 C1.2693778,8.06651656 1.16549143,8.04908149 1.06844596,8.04908149 C0.821855028,8.04908149 0.599127732,8.14409459 0.441627715,8.31668574 C0.239264057,8.53822303 0.149377684,8.81046596 0.188514052,9.08286885 C0.20712769,9.21259213 0.250241331,9.32887921 0.314673156,9.43652874 C0.178809506,9.54705745 0.0787413132,9.70093389 0.0303776717,9.8860015 C-0.00748596865,10.0310804 -0.0463041546,10.3332349 0.156377685,10.6445068 C0.14349132,10.664821 0.13140041,10.6859351 0.120104954,10.7075289 C-0.00175869531,10.9401031 -0.00955415068,11.2029087 0.0979913152,11.4476394 C0.261059514,11.8185744 0.666264103,12.1108117 1.45312782,12.4244829 C1.9426506,12.6196277 2.39049156,12.7443924 2.39446883,12.745512 C3.04165072,12.9142643 3.62694623,13 4.13365083,13 C5.06496911,13 5.73171918,12.7132012 6.1154465,12.1476013 C6.73303747,11.2368191 6.64474201,10.4037749 5.84562829,9.60080223 C5.40335551,9.15644802 5.10935548,8.50127349 5.04810548,8.35747419 C4.92465092,7.93167473 4.59819634,7.45836871 4.05553719,7.45836871 L4.0553781,7.45836871 C4.009719,7.45836871 3.96358263,7.46204767 3.91808263,7.46924563 C3.68040079,7.50683499 3.47262804,7.64439605 3.3241962,7.85137746 C3.16399164,7.65111415 3.00840071,7.49179924 2.86760524,7.40190469 C2.65537795,7.266583 2.44330975,7.19796242 2.23712791,7.19796242 Z M2.23712791,7.8377813 C2.31826428,7.8377813 2.41737792,7.87249148 2.52667339,7.94223174 C2.86601434,8.15865047 3.52083259,9.29033012 3.76058261,9.73052551 C3.84092353,9.87800377 3.978219,9.94038611 4.10183265,9.94038611 C4.34715086,9.94038611 4.53869633,9.69517552 4.12426447,9.38358372 C3.50110531,8.91475644 3.71969624,8.14841337 4.01719628,8.10122673 C4.03024173,8.09914732 4.0431281,8.09818759 4.05553719,8.09818759 C4.32599176,8.09818759 4.44530996,8.56685492 4.44530996,8.56685492 C4.44530996,8.56685492 4.79499181,9.44980498 5.39571915,10.0533141 C5.99644648,10.6569833 6.02746922,11.1414861 5.58965099,11.7870634 C5.29103732,12.2272587 4.71942362,12.3601811 4.13365083,12.3601811 C3.52608259,12.3601811 2.90324161,12.2171816 2.55419612,12.1261674 C2.5370143,12.1216886 0.414264076,11.5188193 0.683127741,11.0056845 C0.728309564,10.919469 0.802764117,10.8849187 0.896468672,10.8849187 C1.27510508,10.8849187 1.96380969,11.4514784 2.25987791,11.4514784 C2.32605973,11.4514784 2.37267337,11.4231664 2.39176429,11.3540659 C2.51792339,10.8989947 0.473604991,10.7076889 0.645900464,10.0485155 C0.676286831,9.93190851 0.758695931,9.88456191 0.874514125,9.88472186 C1.37485509,9.88472186 2.49740066,10.7694314 2.73269614,10.7694314 C2.75067341,10.7694314 2.76355978,10.7641529 2.77055978,10.7529561 C2.88844616,10.5616502 2.82385524,10.428088 1.99292333,9.92247118 C1.16199143,9.41669435 0.578764093,9.11246047 0.910468674,8.74936326 C0.948650496,8.70745512 1.00274141,8.68890037 1.06844596,8.68890037 C1.57292329,8.68906033 2.76483251,9.77963161 2.76483251,9.77963161 C2.76483251,9.77963161 3.08651436,10.1160164 3.28108256,10.1160164 C3.32578711,10.1160164 3.36380984,10.0982614 3.38958257,10.0544338 C3.52751441,9.82058002 2.10842335,8.73928611 2.02840061,8.29317239 C1.9741506,7.99085797 2.06642334,7.8377813 2.23712791,7.8377813 Z" fill="#FF9D0B" fill-rule="nonzero"/>
      <path d="M5.58963508,11.7870314 C6.02745331,11.1414541 5.99643058,10.6569513 5.39570324,10.0532821 C4.7949759,9.44977299 4.44529405,8.56682293 4.44529405,8.56682293 C4.44529405,8.56682293 4.3146804,8.0540081 4.01718037,8.10119474 C3.71968033,8.14838138 3.50124849,8.91472445 4.12440765,9.38355173 C4.74756681,9.85221906 4.00031673,10.1706889 3.7605667,9.73049352 C3.52081668,9.29029813 2.86615752,8.15861848 2.52665748,7.94219975 C2.18731654,7.72578101 1.94836197,7.84702669 2.0283847,8.2931404 C2.10840744,8.73925412 3.52765759,9.82054803 3.38956666,10.0545618 C3.25147574,10.2884156 2.7648166,9.77959962 2.7648166,9.77959962 C2.7648166,9.77959962 1.24199825,8.38623405 0.91044481,8.74933127 C0.578899321,9.11242848 1.16197552,9.41666236 1.99290742,9.92243919 C2.82399842,10.4280561 2.88843025,10.5616182 2.77054387,10.7529241 C2.6524984,10.9442299 0.818172073,9.3893101 0.6458766,10.0484835 C0.473740219,10.7076569 2.51790748,10.8989628 2.39174838,11.3540339 C2.26558927,11.8092651 0.951808451,10.4926778 0.683103877,11.0056526 C0.414240212,11.5187873 2.53699839,12.1216566 2.55418021,12.1261354 C3.2398621,12.3049647 4.98127138,12.6838975 5.58963508,11.7870314 Z" fill="#FFD21E" fill-rule="nonzero"/>
      <path d="M11.7628721,7.19796242 C12.0204403,7.19796242 12.2506449,7.30433231 12.4111676,7.49723771 C12.5104404,7.61672388 12.6141676,7.80930936 12.6225995,8.09770773 C12.7306222,8.06651656 12.8345086,8.04908149 12.931554,8.04908149 C13.178145,8.04908149 13.4008723,8.14409459 13.5583723,8.31668574 C13.7607359,8.53822303 13.8506223,8.81046596 13.8114859,9.08286885 C13.7928723,9.21259213 13.7497587,9.32887921 13.6853268,9.43652874 C13.8211905,9.54705745 13.9212587,9.70093389 13.9696223,9.8860015 C14.007486,10.0310804 14.0463042,10.3332349 13.8436223,10.6445068 C13.8565087,10.664821 13.8685996,10.6859351 13.879895,10.7075289 C14.0017587,10.9401031 14.0095542,11.2029087 13.9020087,11.4476394 C13.7389405,11.8185744 13.3337359,12.1108117 12.5468722,12.4244829 C12.0573494,12.6196277 11.6095084,12.7443924 11.6055312,12.745512 C10.9583493,12.9142643 10.3730538,13 9.86634917,13 C8.93503089,13 8.26828082,12.7132012 7.8845535,12.1476013 C7.26696253,11.2368191 7.35525799,10.4037749 8.15437171,9.60080223 C8.59664449,9.15644802 8.89064452,8.50127349 8.95189452,8.35747419 C9.07534908,7.93167473 9.40180366,7.45836871 9.94446281,7.45836871 L9.9446219,7.45836871 C9.990281,7.45836871 10.0364174,7.46204767 10.0819174,7.46924563 C10.3195992,7.50683499 10.527372,7.64439605 10.6758038,7.85137746 C10.8360084,7.65111415 10.9915993,7.49179924 11.1323948,7.40190469 C11.3446221,7.266583 11.5566903,7.19796242 11.7628721,7.19796242 Z M11.7628721,7.8377813 C11.6817357,7.8377813 11.5826221,7.87249148 11.4733266,7.94223174 C11.1339857,8.15865047 10.4791674,9.29033012 10.2394174,9.73052551 C10.1590765,9.87800377 10.021781,9.94038611 9.89816735,9.94038611 C9.65284914,9.94038611 9.46130367,9.69517552 9.87573553,9.38358372 C10.4988947,8.91475644 10.2803038,8.14841337 9.98280372,8.10122673 C9.96975827,8.09914732 9.9568719,8.09818759 9.94446281,8.09818759 C9.67400824,8.09818759 9.55469004,8.56685492 9.55469004,8.56685492 C9.55469004,8.56685492 9.20500819,9.44980498 8.60428085,10.0533141 C8.00355352,10.6569833 7.97253078,11.1414861 8.41034901,11.7870634 C8.70896268,12.2272587 9.28057638,12.3601811 9.86634917,12.3601811 C10.4739174,12.3601811 11.0967584,12.2171816 11.4458039,12.1261674 C11.4629857,12.1216886 13.5857359,11.5188193 13.3168723,11.0056845 C13.2716904,10.919469 13.1972359,10.8849187 13.1035313,10.8849187 C12.7248949,10.8849187 12.0361903,11.4514784 11.7401221,11.4514784 C11.6739403,11.4514784 11.6273266,11.4231664 11.6082357,11.3540659 C11.4820766,10.8989947 13.526395,10.7076889 13.3540995,10.0485155 C13.3237132,9.93190851 13.2413041,9.88456191 13.1254859,9.88472186 C12.6251449,9.88472186 11.5025993,10.7694314 11.2673039,10.7694314 C11.2493266,10.7694314 11.2364402,10.7641529 11.2294402,10.7529561 C11.1115538,10.5616502 11.1761448,10.428088 12.0070767,9.92247118 C12.8380086,9.41669435 13.4212359,9.11246047 13.0895313,8.74936326 C13.0513495,8.70745512 12.9972586,8.68890037 12.931554,8.68890037 C12.4270767,8.68906033 11.2351675,9.77963161 11.2351675,9.77963161 C11.2351675,9.77963161 10.9134856,10.1160164 10.7189174,10.1160164 C10.6742129,10.1160164 10.6361902,10.0982614 10.6104174,10.0544338 C10.4724856,9.82058002 11.8915767,8.73928611 11.9715994,8.29317239 C12.0258494,7.99085797 11.9335767,7.8377813 11.7628721,7.8377813 Z" fill="#FF9D0B" fill-rule="nonzero"/>
      <path d="M8.41038083,11.7870314 C7.9725626,11.1414541 8.00358533,10.6569513 8.60431267,10.0532821 C9.20504001,9.44977299 9.55472186,8.56682293 9.55472186,8.56682293 C9.55472186,8.56682293 9.68533551,8.0540081 9.98283554,8.10119474 C10.2803356,8.14838138 10.4987674,8.91472445 9.87560826,9.38355173 C9.2524491,9.85221906 9.99969918,10.1706889 10.2394492,9.73049352 C10.4791992,9.29029813 11.1338584,8.15861848 11.4733584,7.94219975 C11.8126994,7.72578101 12.0516539,7.84702669 11.9716312,8.2931404 C11.8916085,8.73925412 10.4723583,9.82054803 10.6104492,10.0545618 C10.7485402,10.2884156 11.2351993,9.77959962 11.2351993,9.77959962 C11.2351993,9.77959962 12.7580177,8.38623405 13.0895631,8.74933127 C13.4211086,9.11242848 12.8380404,9.41666236 12.0071085,9.92243919 C11.1760175,10.4280561 11.1115857,10.5616182 11.229472,10.7529241 C11.3475175,10.9442299 13.1818359,9.3893101 13.3541314,10.0484835 C13.5262677,10.7076569 11.4821084,10.8989628 11.6082675,11.3540339 C11.7344266,11.8092651 13.0481995,10.4926778 13.3169041,11.0056526 C13.5857677,11.5187873 11.4630175,12.1216566 11.4458357,12.1261354 C10.7601538,12.3049647 9.01874453,12.6838975 8.41038083,11.7870314 Z" fill="#FFD21E" fill-rule="nonzero"/>
    </g>
  </g>
</svg>
