<?xml version="1.0" encoding="UTF-8"?>
<svg width="16px" height="16px" viewBox="0 0 16 16" version="1.1" xmlns="http://www.w3.org/2000/svg" xmlns:xlink="http://www.w3.org/1999/xlink">
  <defs>
    <linearGradient x1="68.8999059%" y1="40.3278278%" x2="41.1469747%" y2="83.033033%" id="jira_svg__a">
      <stop stop-color="#0052CC" offset="18%"/>
      <stop stop-color="#2684FF" offset="100%"/>
    </linearGradient>
    <linearGradient x1="1769.01966%" y1="6028.25381%" x2="2736.55388%" y2="5060.75443%" id="jira_svg__b">
      <stop stop-color="#0052CC" offset="18%"/>
      <stop stop-color="#2684FF" offset="100%"/>
    </linearGradient>
  </defs>
  <g stroke="none" stroke-width="1" fill="none" fill-rule="evenodd">
    <rect fill="#FFFFFF" x="0" y="0" width="16" height="16" rx="2"/>
    <g transform="translate(0.500000, 0.500000)" fill-rule="nonzero">
      <path d="M14.82,7.08 L8.146875,0.6253125 L7.5,0 L2.476875,4.8590625 L0.18,7.0809375 C0.065685808,7.1904576 0.000726654584,7.34169063 0,7.5 C0,7.6575 0.0646875,7.8084375 0.18,7.92 L4.7690625,12.3590625 L7.5,15 L12.523125,10.1409375 L12.6009375,10.0659375 L14.82,7.9190625 C14.9343142,7.8095424 14.9992733,7.65830937 15,7.5 C14.9995274,7.34136475 14.9345479,7.18974584 14.82,7.08 Z M7.5,9.7171875 L5.206875,7.5 L7.5,5.2828125 L9.793125,7.5 L7.5,9.7171875 Z" fill="#2684FF"/>
      <path d="M7.5,5.281875 C6.78326162,4.59449356 6.37539483,3.64618638 6.369375,2.653125 C6.36908463,1.65977989 6.77123401,0.708691549 7.4840625,0.016875 L2.465625,4.8684375 L5.1965625,7.509375 L7.5,5.281875 Z" fill="url(#jira_svg__a)"/>
      <path d="M9.79875,7.494375 L7.5,9.7171875 C7.8590625,10.0640625 8.143125,10.4765625 8.3371875,10.929375 C8.72860864,11.8423136 8.72860864,12.8758114 8.3371875,13.78875 C8.143125,14.2415625 7.8590625,14.653125 7.5,15 L12.5296875,10.1353125 L9.79875,7.494375 Z" fill="url(#jira_svg__b)"/>
    </g>
  </g>
</svg>
