<?xml version="1.0" encoding="UTF-8"?>
<svg width="16px" height="16px" viewBox="0 0 16 16" version="1.1" xmlns="http://www.w3.org/2000/svg" xmlns:xlink="http://www.w3.org/1999/xlink">
  <g stroke="none" stroke-width="1" fill="none" fill-rule="evenodd">
    <rect fill="#FFFFFF" x="0" y="0" width="16" height="16" rx="2"/>
    <g transform="translate(2.000000, 2.000000)" fill="#000000" fill-rule="nonzero">
      <path d="M2.07094694,2.19114101 C2.45793023,2.50635816 2.60451481,2.48409375 3.33509235,2.43526829 L10.2226131,2.02240024 C10.3691977,2.02240024 10.2472393,1.87592387 10.1979869,1.85131584 L9.0538454,1.02518912 C8.83611844,0.85410472 8.54294928,0.661146517 7.98280074,0.707628352 L1.31535229,1.19588291 C1.07104466,1.21814732 1.02218313,1.34040626 1.11990619,1.43805718 L2.07094694,2.19114101 Z M2.48412,3.79652201 L2.48412,11.0367513 C2.48412,11.4254019 2.67761165,11.5718783 3.11541093,11.5472702 L10.6850386,11.1097941 C11.1228379,11.0851861 11.1736539,10.8187944 11.1736539,10.5016243 L11.1736539,3.31022047 C11.1736539,2.9926597 11.0513046,2.82391892 10.7827617,2.84852695 L2.87344865,3.31022047 C2.58027949,3.3348285 2.4845109,3.47896124 2.4845109,3.79456899 L2.48412,3.79652201 Z M9.95602463,4.18282902 C10.0048862,4.40273887 9.95602463,4.62030511 9.73595231,4.64686616 L9.37164077,4.72029964 L9.37164077,10.0645388 C9.0538454,10.2356232 8.7630216,10.3332741 8.52066843,10.3332741 C8.12977621,10.3332741 8.03205316,10.2110151 7.74083846,9.84697254 L5.3548324,6.10381777 L5.3548324,9.7251042 L6.11003616,9.8961886 C6.11003616,9.8961886 6.11003616,10.3336647 5.50141698,10.3336647 L3.82175315,10.4313156 C3.77289163,10.3336647 3.82175315,10.0895374 3.99296394,10.042665 L4.43076322,9.92040603 L4.43076322,5.1335583 L3.82214404,5.08473285 C3.77328252,4.86482299 3.89563178,4.54960585 4.23531711,4.52538842 L6.03693931,4.40312948 L8.52066843,8.19510971 L8.52066843,4.84021496 L7.88742304,4.76678148 C7.83856152,4.50038979 8.03205316,4.30508796 8.27636079,4.28243295 L9.95602463,4.18282902 Z M0.755594645,0.539278179 L7.69197694,0.028759209 C8.54294928,-0.0446742771 8.7630216,0.00415117904 9.29815303,0.39280181 L11.5133392,1.94896675 C11.8776507,2.21535844 12,2.28879192 12,2.57979164 L12,11.1101847 C12,11.6453117 11.8045539,11.9605289 11.1244014,12.0093543 L3.06615851,12.4956559 C2.55721685,12.5202639 2.31290922,12.4468304 2.04397537,12.1070053 L0.413173068,9.99110529 C0.12195837,9.60245466 0,9.31145494 0,8.97202037 L0,1.39001293 C0,0.95253684 0.195446106,0.588494239 0.755203753,0.539668782 L0.755594645,0.539278179 Z"/>
    </g>
  </g>
</svg>
