<?xml version="1.0" encoding="UTF-8"?>
<svg width="16px" height="16px" viewBox="0 0 16 16" version="1.1" xmlns="http://www.w3.org/2000/svg" xmlns:xlink="http://www.w3.org/1999/xlink">
  <g stroke="none" stroke-width="1" fill="none" fill-rule="evenodd">
    <rect fill="#FFFFFF" x="0" y="0" width="16" height="16" rx="2"/>
    <g transform="translate(1.000000, 1.500000)" fill="#E44A49" fill-rule="nonzero">
      <path d="M7.01880009,0 C3.14897518,0 0,3.17352941 0,7.07352939 C0,9.5588235 1.28994164,11.7382352 3.18691464,13 C3.30073302,12.9235294 3.4145514,12.8470588 3.52836978,12.7705882 C3.6042487,12.7323529 3.71806708,12.6558823 3.793946,12.617647 C3.90776438,12.5794117 4.02158276,12.5029412 4.09746168,12.4647059 C4.21128006,12.4264706 4.32509844,12.3882353 4.43891682,12.3117647 C4.51479574,12.2735294 4.62861412,12.2352941 4.70449304,12.1970588 C4.81831142,12.1588235 4.97006926,12.1205882 5.08388764,12.0823529 C5.19770602,12.0441176 5.27358494,12.0441176 5.38740332,12.0058823 C5.50122169,11.967647 5.5771006,11.967647 5.69091901,11.9294117 C5.80473737,11.8911765 5.91855579,11.8911765 6.03237415,11.8911765 L6.03237415,11.8911765 C6.14619251,11.8911765 6.29795037,11.8529412 6.41176873,11.8529412 L6.41176873,11.8529412 L6.41176873,11.3941176 L6.41176873,11.0117647 L6.41176873,9.44411763 L6.41176873,9.06176471 L6.41176873,7.64705881 L6.03237415,7.64705881 L6.03237415,6.88235295 L6.41176873,6.88235295 L7.54995255,6.88235295 L7.92934713,6.88235295 L7.92934713,8.94705879 L7.92934713,9.36764706 L7.92934713,10.9735294 L7.92934713,11.3558823 L7.92934713,11.9294117 C8.99165204,12.0823529 9.94013853,12.4647059 10.8127461,13 L10.8127461,13 C12.7476586,11.7382352 13.9996607,9.5588235 13.9996607,7.07352939 C14.0376002,3.17352941 10.888625,0 7.01880009,0 L7.01880009,0 Z M9.1054704,7.07352939 C9.1054704,5.92647056 8.15698391,4.97058823 7.01880009,4.97058823 C5.88061628,4.97058823 4.9321298,5.92647056 4.9321298,7.07352939 C4.9321298,7.87647059 5.38740332,8.60294115 6.0703136,8.94705879 L6.0703136,9.36764706 C5.19770602,8.98529408 4.5527352,8.10588236 4.5527352,7.07352939 C4.5527352,5.69705883 5.65297956,4.58823528 7.01880009,4.58823528 C8.38462068,4.58823528 9.48486499,5.69705883 9.48486499,7.07352939 C9.48486499,7.95294116 9.02959149,8.71764707 8.34668123,9.17647057 L8.34668123,8.71764707 C8.80195472,8.2970588 9.1054704,7.72352938 9.1054704,7.07352939 L9.1054704,7.07352939 Z M8.34668123,11.2411765 L8.34668123,10.8205882 C9.90219908,10.2852941 11.0024434,8.79411764 11.0024434,7.0352941 C11.0024434,4.85588234 9.21928876,3.05882352 7.01880009,3.05882352 C4.81831142,3.05882352 3.0351568,4.85588234 3.0351568,7.07352939 C3.0351568,8.94705879 4.32509844,10.5529412 6.0703136,10.9735294 L6.0703136,11.3558823 C4.13540114,10.9352941 2.6557622,9.17647059 2.6557622,7.07352939 C2.6557622,4.62647058 4.59067466,2.67647059 7.01880009,2.67647059 C9.44692553,2.67647059 11.381838,4.62647058 11.381838,7.07352939 C11.381838,9.02352942 10.0918963,10.7058823 8.34668123,11.2411765 L8.34668123,11.2411765 Z"/>
    </g>
  </g>
</svg>
