<?xml version="1.0" encoding="UTF-8"?>
<svg width="16px" height="16px" viewBox="0 0 16 16" version="1.1" xmlns="http://www.w3.org/2000/svg" xmlns:xlink="http://www.w3.org/1999/xlink">
  <g stroke="none" stroke-width="1" fill="none" fill-rule="evenodd">
    <rect fill="#FFFFFF" x="0" y="0" width="16" height="16" rx="2"/>
    <g transform="translate(1.500000, 1.500000)" fill="#000000" fill-rule="nonzero">
      <path d="M12.1460501,5.31975885 C12.4441569,4.43421844 12.3409639,3.46491269 11.8628665,2.65977606 C11.1440011,1.42551383 9.69919427,0.790627772 8.28817489,1.08896273 C7.49300339,0.216472205 6.28648656,-0.171509706 5.12279029,0.0710639879 C3.95909402,0.313637682 3.01486421,1.14994496 2.64553474,2.26517692 C1.71866911,2.45265574 0.918688839,3.02508617 0.450299137,3.83599024 C-0.276431144,5.0682885 -0.111505145,6.62275608 0.858134013,7.67993295 C0.558924486,8.5650584 0.661189723,9.53446545 1.13873671,10.3398616 C1.85850357,11.5745648 3.30426741,12.2094252 4.71606414,11.9107291 C5.34400921,12.6082583 6.24615366,13.005138 7.19184753,12.9999498 C8.6381531,13.0012113 9.91946703,12.0802348 10.3612852,10.7217859 C11.2880221,10.533984 12.0878866,9.96161664 12.5565208,9.15091839 C13.2744479,7.92079018 13.1088009,6.37473326 12.1460501,5.31981301 L12.1460501,5.31975885 Z M7.19184753,12.1490624 C6.61456244,12.1499607 6.05537976,11.9503759 5.61234539,11.5852999 L5.69026618,11.5417504 L8.31414848,10.0477445 C8.44700718,9.97088391 8.52895862,9.83063815 8.52978973,9.67871166 L8.52978973,6.02960397 L9.63902152,6.66258758 C9.65014237,6.66814553 9.65789803,6.67861427 9.65988826,6.69075389 L9.65988826,9.71462371 C9.65698858,11.05796 8.55369705,12.146229 7.19184753,12.1490624 L7.19184753,12.1490624 Z M1.88691904,9.91449616 C1.59740542,9.42138012 1.49345584,8.84335136 1.593357,8.28209612 L1.6713327,8.32824553 L4.2977959,9.8222515 C4.43012797,9.89884717 4.59411052,9.89884717 4.7264426,9.8222515 L7.93486809,7.99767057 L7.93486809,9.26103782 C7.93425747,9.27430276 7.92754489,9.28656816 7.91663715,9.29434989 L5.25898368,10.8062848 C4.0780038,11.4773677 2.56916147,11.0783337 1.88691904,9.91449616 L1.88691904,9.91449616 Z M1.19590058,4.27679296 C1.48742176,3.78050752 1.94756021,3.40197406 2.49485494,3.20820657 L2.49485494,6.28331741 C2.49284341,6.434627 2.57445889,6.57502995 2.70786039,6.64975024 L5.90069074,8.4666396 L4.79140404,9.09956904 C4.77921397,9.10595351 4.76460626,9.10595351 4.75241619,9.09956904 L2.0999794,7.5902341 C0.921346979,6.91632525 0.517123968,5.42913589 1.19590058,4.26400979 L1.19590058,4.27679296 Z M10.309338,6.3653247 L7.10612917,4.5305064 L8.21283499,3.90001443 C8.22502506,3.89362996 8.23963277,3.89362996 8.25182284,3.90001443 L10.9042596,5.41194934 C11.732133,5.88314966 12.2097481,6.78350522 12.1302385,7.72305058 C12.0507288,8.66259594 11.428392,9.47238095 10.5327768,9.80166843 L10.5327768,6.7265576 C10.5280978,6.57567367 10.44317,6.43838423 10.3092831,6.36527053 L10.309338,6.3653247 Z M11.4134629,4.72783305 L11.3354872,4.68168364 L8.7142407,3.1748945 C8.58109624,3.09782297 8.41610267,3.09782297 8.2829582,3.1748945 L5.07722342,4.99942126 L5.07722342,3.73610818 C5.07583242,3.72302286 5.08181816,3.71023701 5.09281856,3.70279611 L7.74525535,2.193407 C8.57513516,1.72182416 9.60655575,1.76583002 10.3920562,2.30633355 C11.1775566,2.84683707 11.5756057,3.78645047 11.4135178,4.71754152 L11.4134629,4.72783305 Z M4.4718135,6.9674337 L3.36258171,6.33705006 C3.35134726,6.33037763 3.34370131,6.31912415 3.34171497,6.30633795 L3.34171497,3.29021386 C3.34296127,2.34566098 3.89742266,1.486882 4.76462919,1.0863294 C5.63183573,0.685776804 6.65559152,0.81559566 7.39189364,1.41948352 L7.31391794,1.46308713 L4.69009054,2.95698477 C4.55723185,3.03384533 4.4752804,3.17409109 4.47444929,3.32601757 L4.4718135,6.9674337 Z M5.07453271,5.68619168 L6.50335504,4.87381036 L7.93486809,5.68619168 L7.93486809,7.31084599 L6.50857173,8.12317314 L5.07716851,7.31084599 L5.07453271,5.68619168 Z"/>
    </g>
  </g>
</svg>
