<?xml version="1.0" encoding="UTF-8"?>
<svg width="16px" height="16px" viewBox="0 0 16 16" version="1.1" xmlns="http://www.w3.org/2000/svg" xmlns:xlink="http://www.w3.org/1999/xlink">
  <g stroke="none" stroke-width="1" fill="none" fill-rule="evenodd">
    <rect fill="#FFFFFF" x="0" y="0" width="16" height="16" rx="2"/>
    <g transform="translate(-0.000000, 2.500000)" fill="#00A1E0" fill-rule="nonzero">
      <path d="M6.6582336,9.80028899 C7.17424499,10.3283946 7.89264953,10.6559141 8.68717945,10.6559141 C9.74336183,10.6559141 10.6648433,10.0774381 11.1555555,9.21867875 C11.5819943,9.40583275 12.0540171,9.5099316 12.5506552,9.5099316 C14.4556125,9.5099316 16,7.97979079 16,6.09235589 C16,4.20469716 14.4556125,2.67455632 12.5506552,2.67455632 C12.3181766,2.67455632 12.0909401,2.69739091 11.871225,2.74104525 C11.4390883,1.98392217 10.6156125,1.47238277 9.67042733,1.47238277 C9.27475785,1.47238277 8.90051278,1.56215402 8.56729343,1.72177222 C8.12923074,0.709662975 7.10860397,0 5.91908831,0 C4.68034188,0 3.62461538,0.769883589 3.21937322,1.8496011 C3.0422792,1.81266281 2.85880342,1.79341012 2.67054131,1.79341012 C1.19566951,1.79341012 0,2.97991289 0,4.44378866 C0,5.42478019 0.537207976,6.28130084 1.33538461,6.73955959 C1.17105413,7.11095731 1.07965812,7.52086045 1.07965812,7.95180721 C1.07965812,9.63529793 2.47111111,11 4.18735042,11 C5.19498575,11 6.09048432,10.5294285 6.6582336,9.80028899" transform="translate(8.000000, 5.500000) scale(-1, 1) rotate(-180.000000) translate(-8.000000, -5.500000) "/>
    </g>
  </g>
</svg>
