<?xml version="1.0" encoding="UTF-8"?>
<svg width="16px" height="16px" viewBox="0 0 16 16" version="1.1" xmlns="http://www.w3.org/2000/svg" xmlns:xlink="http://www.w3.org/1999/xlink">
  <g stroke="none" stroke-width="1" fill="none" fill-rule="evenodd">
    <rect fill="#FFFFFF" x="0" y="0" width="16" height="16" rx="2"/>
    <g transform="translate(1.500000, 0.500000)" fill-rule="nonzero">
      <path d="M11.3861487,2.92054273 C11.3759352,2.84511014 11.3108539,2.80341736 11.2570549,2.79883839 C11.2033746,2.79425941 10.0670638,2.70882538 10.0670638,2.70882538 C10.0670638,2.70882538 9.27789299,1.91389117 9.19131577,1.82592664 C9.10461983,1.73796212 8.93538454,1.76471297 8.86970941,1.78435436 C8.85997094,1.78724635 8.6972676,1.83821758 8.42803503,1.92268762 C8.16438432,1.15305827 7.69919517,0.445727093 6.88069029,0.445727093 C6.8581256,0.445727093 6.83484829,0.446691088 6.81157102,0.448016581 C6.57879833,0.135682268 6.29044516,0 6.0414021,0 C4.13480354,0 3.22390214,2.41830144 2.93828052,3.64727431 C2.19744571,3.88019955 1.67109434,4.04576566 1.60387528,4.06721454 C1.19034743,4.19879983 1.17728365,4.21205476 1.1230096,4.60741312 C1.08203685,4.90673351 0,13.3971177 0,13.3971177 L8.43147912,15 L13,13.9972044 C13,13.9972044 11.3962435,2.99597532 11.3861487,2.92054273 L11.3861487,2.92054273 Z M7.96201458,2.06897383 C7.75026265,2.13548947 7.50953292,2.21104256 7.24861367,2.29298212 C7.24885123,2.24201089 7.24908874,2.19176267 7.24908874,2.13693546 C7.24908874,1.65855304 7.18365112,1.27343713 7.07866587,0.968091773 C7.50038824,1.02183448 7.78125944,1.50865185 7.96201458,2.06897383 L7.96201458,2.06897383 Z M6.55552106,1.06292476 C6.67273874,1.36104015 6.74898369,1.78881284 6.74898369,2.36612522 C6.74898369,2.39564756 6.74874613,2.42263942 6.74850863,2.44999277 C6.28450711,2.59579698 5.78036413,2.75413313 5.27503356,2.91295127 C5.558755,1.80194727 6.09056942,1.26536367 6.55552106,1.06292476 L6.55552106,1.06292476 Z M5.98902826,0.518870199 C6.07133004,0.518870199 6.15422561,0.547187544 6.23355836,0.602617247 C5.62252997,0.894346173 4.96755981,1.6291512 4.69096407,3.09647178 C4.28669962,3.2234781 3.8915798,3.34759242 3.52626915,3.4624283 C3.85025077,2.34323035 4.61958836,0.518870199 5.98902826,0.518870199 L5.98902826,0.518870199 Z" fill="#95BF46"/>
      <path d="M11.2570549,2.79883839 C11.2033746,2.79425941 10.0670638,2.70882538 10.0670638,2.70882538 C10.0670638,2.70882538 9.27789299,1.91389117 9.19131577,1.82592664 C9.15889388,1.79315082 9.1151896,1.77640141 9.06946642,1.76917145 L8.43195419,14.9998795 L13,13.9972044 C13,13.9972044 11.3962435,2.99597532 11.3861487,2.92054273 C11.3759352,2.84511014 11.3108539,2.80341736 11.2570549,2.79883839" fill="#5E8E3E"/>
      <path d="M6.88069029,5.36005205 L6.31740407,7.06017739 C6.31740407,7.06017739 5.82383091,6.79290984 5.21885934,6.79290984 C4.33194778,6.79290984 4.28729342,7.35769027 4.28729342,7.49999999 C4.28729342,8.27649779 6.28225061,8.57401072 6.28225061,10.3928279 C6.28225061,11.8237576 5.38773834,12.7452162 4.18159561,12.7452162 C2.7342481,12.7452162 1.99412587,11.8312286 1.99412587,11.8312286 L2.38164494,10.5321251 C2.38164494,10.5321251 3.14243169,11.1948715 3.78445685,11.1948715 C4.20392279,11.1948715 4.3745832,10.8597629 4.3745832,10.6149082 C4.3745832,9.60199064 2.73792971,9.55680339 2.73792971,7.8924664 C2.73792971,6.49166144 3.72887643,5.13604378 5.72917788,5.13604378 C6.49994064,5.13604378 6.88069029,5.36005205 6.88069029,5.36005205" fill="#FFFFFF"/>
    </g>
  </g>
</svg>
