<?xml version="1.0" encoding="UTF-8"?>
<svg width="16px" height="16px" viewBox="0 0 16 16" version="1.1" xmlns="http://www.w3.org/2000/svg" xmlns:xlink="http://www.w3.org/1999/xlink">
  <g stroke="none" stroke-width="1" fill="none" fill-rule="evenodd">
    <rect fill="#FFFFFF" x="0" y="0" width="16" height="16" rx="2"/>
    <g transform="translate(1.500000, 1.500000)" fill-rule="nonzero">
      <path d="M1.36592857,9.581 C2.11931173,9.57895709 2.72939799,8.9684558 2.73092857,8.21507143 L2.73092857,6.85007143 L1.36592857,6.85007143 C0.612905342,6.85159972 0.00255280729,7.4611224 0,8.21414286 C0.000928571429,8.96721429 0.611928571,9.57821429 1.365,9.57914286 L1.36592857,9.581 Z M4.78492857,6.84914286 C4.03154541,6.85118577 3.42145915,7.46168706 3.41992857,8.21507143 L3.41992857,11.635 C3.42178571,12.3880714 4.03278571,12.9981429 4.78492857,13 C5.53795034,12.9979593 6.14788785,12.3880218 6.14992857,11.635 L6.14992857,8.21414286 C6.14788785,7.46112109 5.53795034,6.85118358 4.78492857,6.84914286 Z" fill="#E01E5A"/>
      <path d="M3.41992857,1.36592857 C3.42085714,2.119 4.03185714,2.73 4.78492857,2.73092857 L6.14992857,2.73092857 L6.14992857,1.36592857 C6.14840028,0.612905342 5.5388776,0.00255280729 4.78585714,0 C4.03283537,0.00204072063 3.42289786,0.61197823 3.42085714,1.365 L3.41992857,1.36592857 Z M6.14992857,4.78492857 C6.14788785,4.0319068 5.53795034,3.42196929 4.78492857,3.41992857 L1.365,3.41992857 C0.61197823,3.42196929 0.00204072063,4.0319068 0,4.78492857 C0.00185714286,5.53892857 0.612857143,6.149 1.365,6.14992857 L4.78585714,6.14992857 C5.53887891,6.14788785 6.14881642,5.53795034 6.15085714,4.78492857 L6.14992857,4.78492857 Z" fill="#36C5F0"/>
      <path d="M8.21507143,6.15085714 C8.9680932,6.14881642 9.57803071,5.53887891 9.58007143,4.78585714 L9.58007143,1.365 C9.57803324,0.612339324 8.96865912,0.00255037275 8.216,0 C7.46297823,0.00204072063 6.85304072,0.61197823 6.851,1.365 L6.851,4.78585714 C6.85285714,5.538 7.46292857,6.149 8.216,6.15085714 L8.21507143,6.15085714 Z M11.6340714,3.41992857 C10.8810497,3.42196929 10.2711121,4.0319068 10.2690714,4.78492857 L10.2690714,6.14992857 L11.6340714,6.14992857 C12.3870947,6.14840028 12.9974472,5.5388776 13,4.78585714 C12.9979593,4.03283537 12.3880218,3.42289786 11.635,3.42085714 L11.6340714,3.41992857 Z" fill="#2EB67D"/>
      <path d="M6.85007143,8.21507143 C6.85192857,8.96814286 7.462,9.57914286 8.21507143,9.58007143 L11.635,9.58007143 C12.3876607,9.57803324 12.9974496,8.96865912 13,8.216 C12.9979593,7.46297823 12.3880218,6.85304072 11.635,6.851 L8.21507143,6.851 C7.46204966,6.85304072 6.85211215,7.46297823 6.85007143,8.216 L6.85007143,8.21507143 Z M9.58007143,11.6340714 C9.57803071,10.8810497 8.9680932,10.2711121 8.21507143,10.2690714 L6.85007143,10.2690714 L6.85007143,11.6340714 C6.85192857,12.3880714 7.462,12.9981429 8.21507143,12.9990714 C8.9680932,12.9970307 9.57803071,12.3870932 9.58007143,11.6340714 L9.58007143,11.6340714 Z" fill="#ECB22E"/>
    </g>
  </g>
</svg>
