<?xml version="1.0" encoding="UTF-8"?>
<svg width="16px" height="16px" viewBox="0 0 16 16" version="1.1" xmlns="http://www.w3.org/2000/svg" xmlns:xlink="http://www.w3.org/1999/xlink">
  <g stroke="none" stroke-width="1" fill="none" fill-rule="evenodd">
    <rect fill="#FFFFFF" x="0" y="0" width="16" height="16" rx="2"/>
    <g transform="translate(1.500000, 1.500000)">
      <rect fill="#635BFF" x="0" y="0" width="13" height="13" rx="2"/>
      <path d="M5.92229331,4.85714285 C5.92229331,4.50892857 6.20890748,4.37499999 6.6836122,4.37499999 C7.36432085,4.37499999 8.2241634,4.58035714 8.90487204,4.94642856 L8.90487204,2.84821428 C8.16146657,2.55357143 7.42701774,2.4375 6.6836122,2.4375 C4.86540355,2.4375 3.65625,3.38392857 3.65625,4.96428571 C3.65625,7.42857143 7.05979333,7.0357143 7.05979333,8.09821425 C7.05979333,8.50892855 6.70152562,8.6428571 6.19995077,8.6428571 C5.45654529,8.6428571 4.50713583,8.33928571 3.75477362,7.92857141 L3.75477362,10.0535714 C4.58774607,10.4107143 5.42967517,10.5625 6.19995077,10.5625 C8.0629429,10.5625 9.34375,9.64285713 9.34375,8.04464285 C9.33479329,5.38392856 5.92229331,5.85714285 5.92229331,4.85714285 L5.92229331,4.85714285 Z" fill="#FFFFFF"/>
    </g>
  </g>
</svg>
