<?xml version="1.0" encoding="UTF-8"?>
<svg width="16px" height="16px" viewBox="0 0 16 16" version="1.1" xmlns="http://www.w3.org/2000/svg" xmlns:xlink="http://www.w3.org/1999/xlink">
  <defs>
    <linearGradient x1="27.5290328%" y1="3.79295706%" x2="50%" y2="37.8660838%" id="supabase_svg__a">
      <stop stop-color="#32A672" offset="0%"/>
      <stop stop-color="#3FCF8E" offset="100%"/>
    </linearGradient>
  </defs>
  <g stroke="none" stroke-width="1" fill="none" fill-rule="evenodd">
    <rect fill="#FFFFFF" x="0" y="0" width="16" height="16" rx="2"/>
    <g transform="translate(1.500000, 1.500000)">
      <rect fill="#222222" x="0" y="0" width="13" height="13" rx="2"/>
      <g transform="translate(2.000000, 1.000000)" fill-rule="nonzero">
        <path d="M8.54967303,4.28722451 L4.4998395,4.28722451 L4.4998395,10.8186088 C4.49989047,10.8971648 4.54763124,10.9667701 4.61813302,10.9910789 C4.6886348,11.0153878 4.76589403,10.9888822 4.80956827,10.9254026 L8.73784624,5.30566269 L8.91131166,5.04807409 C9.01271414,4.903378 9.02842682,4.71045854 8.95191936,4.54949505 C8.8754119,4.38853156 8.71976728,4.28704924 8.54967303,4.28722451 Z" fill="url(#supabase_svg__a)"/>
        <path d="M4.4998395,0.181391217 C4.49978853,0.102835245 4.45204776,0.0332299318 4.38154598,0.00892106267 C4.3110442,-0.0153878065 4.23378497,0.0111177648 4.19011073,0.07459737 L0.261832765,5.69433731 L0.0883673401,5.95192591 C-0.012779369,6.09661876 -0.0283449794,6.28935208 0.0481295971,6.45014946 C0.124604174,6.61094684 0.28006645,6.71231648 0.450005974,6.71231648 L4.4998395,6.71231648 L4.4998395,0.181391217 Z" fill="#3FCF8E"/>
      </g>
    </g>
  </g>
</svg>
