<?xml version="1.0" encoding="UTF-8"?>
<svg width="16px" height="16px" viewBox="0 0 16 16" version="1.1" xmlns="http://www.w3.org/2000/svg" xmlns:xlink="http://www.w3.org/1999/xlink">
  <g stroke="none" stroke-width="1" fill="none" fill-rule="evenodd">
    <rect fill="#FFFFFF" x="0" y="0" width="16" height="16" rx="2"/>
    <g transform="translate(1.000000, 1.000000)" fill-rule="nonzero">
      <g>
        <path d="M6.99993004,13.6661436 C3.32415172,13.6661436 0.333576533,10.6758483 0.333576533,6.99993004 C0.333576533,3.32401179 3.32415172,0.333716456 6.99993004,0.333716456 C10.6757084,0.333716456 13.6662835,3.32429164 13.6662835,7.00006996 C13.6662835,10.6758483 10.6757084,13.6661436 6.99993004,13.6661436 Z" fill="#85EA2D"/>
        <path d="M6.99993004,0.667292989 C10.4974464,0.667292989 13.3325671,3.50241367 13.3325671,6.99993004 C13.3325671,10.4973065 10.4974464,13.3325671 6.99993004,13.3325671 C3.5025536,13.3325671 0.667292989,10.4973065 0.667292989,6.99993004 C0.667292989,3.5025536 3.5025536,0.667292989 6.99993004,0.667292989 M6.99993004,0 C3.14015292,0 -2.71855121e-16,3.14015292 -2.71855121e-16,6.99993004 C-2.71855121e-16,10.8597072 3.14015292,13.9998601 6.99993004,13.9998601 C10.8597072,13.9998601 14,10.8597072 14,6.99993004 C14,3.14015292 10.8597072,0 6.99993004,0 L6.99993004,0 Z" fill="#173647"/>
      </g>
      <path d="M4.40771576,4.73695467 C4.38616761,4.97650292 4.41569137,5.22416671 4.39974014,5.46637349 C4.38085053,5.7087202 4.35118685,5.94826845 4.30277347,6.1878167 C4.23547049,6.52964869 4.02278747,6.78808655 3.72950877,7.00342811 C4.30025486,7.37492379 4.36475938,7.95084703 4.40239868,8.53502574 C4.42128829,8.8499925 4.41317275,9.16761781 4.44549498,9.47978612 C4.46970166,9.7219929 4.56386987,9.78397881 4.81433212,9.79195443 C4.91661586,9.79461296 5.02141822,9.79195443 5.14007296,9.79195443 L5.14007296,10.5402629 C4.39988007,10.6667533 3.78883614,10.4568687 3.6379991,9.82973365 C3.5894458,9.60095947 3.55712358,9.3667283 3.54648943,9.12983859 C3.53025836,8.87951627 3.55712358,8.62919394 3.53837389,8.37887162 C3.48450352,7.69240917 3.39565239,7.46097646 2.73899355,7.42865424 L2.73899355,6.57540353 C2.78740693,6.56462945 2.83316176,6.55651392 2.88157513,6.55119684 C3.24229674,6.53230723 3.39565239,6.42190795 3.47372945,6.06664335 C3.51150867,5.86753286 3.53305682,5.66562391 3.54103243,5.46105642 C3.56803758,5.07081105 3.55726351,4.67245015 3.62442657,4.28486333 C3.71859477,3.72768977 4.06322523,3.45847784 4.63662985,3.42615561 C4.79810104,3.41804008 4.9623707,3.42615561 5.14804857,3.42615561 L5.14804857,4.19069512 C5.06997152,4.19615212 5.00266853,4.20678627 4.93270701,4.20678627 C4.46704313,4.19055519 4.44269652,4.34936785 4.40771576,4.73695467 Z M5.30406277,6.50810054 L5.29328869,6.50810054 C5.02407676,6.49466793 4.79264405,6.7045525 4.77907151,6.97376443 C4.7656389,7.2456349 4.97552346,7.47720754 5.2447354,7.49050022 L5.27705762,7.49050022 C5.54361101,7.5067313 5.77224527,7.30202389 5.78847634,7.03561041 L5.78847634,7.00874519 C5.79393334,6.73687472 5.57593324,6.51355754 5.30406277,6.50810054 Z M6.9918145,6.50810054 C6.73071811,6.49998501 6.51257808,6.7045525 6.50460247,6.96299036 C6.50460247,6.97922143 6.50460247,6.99265404 6.50740093,7.00874519 C6.50740093,7.30216381 6.70651142,7.49064015 7.00804557,7.49064015 C7.30412273,7.49064015 7.48994053,7.29684673 7.48994053,6.99265404 C7.48714207,6.69923542 7.2905502,6.50544201 6.9918145,6.50810054 Z M8.720004,6.50810054 C8.44547499,6.50264355 8.21656089,6.72078357 8.20858528,6.99531258 C8.20858528,7.26984159 8.42924392,7.49050022 8.70377292,7.49050022 L8.70922992,7.49050022 C8.95689371,7.53359652 9.20721603,7.29404827 9.2234471,7.00608665 C9.23673979,6.73953326 8.99453301,6.50810054 8.720004,6.50810054 Z M11.0914197,6.54839838 C10.7791115,6.53496577 10.6229574,6.43002349 10.5450202,6.13380641 C10.4964669,5.94546999 10.4669432,5.74887812 10.4561691,5.5550847 C10.434621,5.1943631 10.4372795,4.83098296 10.4130728,4.47026136 C10.3565439,3.61435211 9.73752436,3.31561641 8.83837889,3.46351507 L8.83837889,4.20650642 C8.98096047,4.20650642 9.09135975,4.20650642 9.20175903,4.20916496 C9.39289391,4.2118235 9.53827395,4.28458348 9.55702364,4.4972665 C9.57591325,4.69105992 9.57591325,4.88751187 9.59480286,5.08410374 C9.63258208,5.47448903 9.65399031,5.87005147 9.72129329,6.25497976 C9.78062066,6.57260507 9.99862076,6.80949478 10.2703513,7.00328819 C9.79405327,7.32357204 9.65399031,7.78112038 9.62978362,8.29533756 C9.61635101,8.64794363 9.60823547,9.00320824 9.58948578,9.35861276 C9.57325471,9.68155514 9.46033681,9.78649743 9.13459597,9.79461296 C9.0430863,9.7972715 8.95423517,9.80538704 8.85195143,9.81084404 L8.85195143,10.5725851 C9.0430863,10.5725851 9.21799011,10.5833592 9.39289391,10.5725851 C9.93663485,10.5402629 10.2650342,10.2765079 10.372775,9.74885813 C10.4185298,9.45809805 10.445395,9.16481935 10.4535106,8.87140073 C10.4722603,8.6021888 10.4697416,8.33031832 10.4966069,8.06390485 C10.5369047,7.64665434 10.7280396,7.47440908 11.1452901,7.44754385 C11.1857278,7.44208685 11.2233671,7.43411124 11.2611464,7.42067863 L11.2611464,6.56728799 C11.1910449,6.55917246 11.1424916,6.55119684 11.0914197,6.54839838 Z" fill="#173647"/>
    </g>
  </g>
</svg>
