<?xml version="1.0" encoding="UTF-8"?>
<svg width="16px" height="16px" viewBox="0 0 16 16" version="1.1" xmlns="http://www.w3.org/2000/svg" xmlns:xlink="http://www.w3.org/1999/xlink">
  <g stroke="none" stroke-width="1" fill="none" fill-rule="evenodd">
    <rect fill="#FFFFFF" x="0" y="0" width="16" height="16" rx="2"/>
    <g transform="translate(1.000000, 4.500000)" fill="#7F54B3">
      <path d="M12.695027,0 L1.29934133,0 C0.578166239,0 -0.00564075072,0.56593313 4.11249477e-05,1.25274791 L4.11249477e-05,5.42857895 C4.11249477e-05,6.12087111 0.583890287,6.68131984 1.30506538,6.68131984 L6.70240668,6.68131984 L9.16930645,8 L8.6083864,6.68131984 L12.695027,6.68131984 C13.4162203,6.68131984 14,6.12087111 14,5.42857895 L14,1.25274791 C14,0.560438191 13.4162203,0 12.695027,0 Z M1.05897524,0.967032118 C0.898712885,0.978021997 0.778515208,1.03296788 0.698385862,1.1373612 C0.618256515,1.23626309 0.589639937,1.36263617 0.606808421,1.50549406 C0.944501605,3.56595244 1.2592986,4.95604926 1.55120307,5.67583368 C1.6656767,5.93955566 1.79731881,6.06595683 1.95185711,6.05496695 C2.19224515,6.03846458 2.47842557,5.71979319 2.81611875,5.09891769 C2.99354959,4.74724156 3.26828557,4.21979758 3.64031938,3.51648043 C3.9493777,4.55493623 4.37292062,5.33518254 4.90523872,5.85714913 C5.05406395,6.00549494 5.20859494,6.07143421 5.35738359,6.06044434 C5.48905497,6.04945446 5.59205124,5.98351518 5.66073981,5.86262651 C5.71798028,5.75824021 5.74087647,5.63735154 5.72942838,5.49999561 C5.69508409,5.00000878 5.74661881,4.30220412 5.8897017,3.40659568 C6.03849035,2.48351957 6.22165986,1.81868104 6.44487942,1.42307699 C6.4906718,1.34065992 6.50782565,1.25823934 6.50211989,1.15934096 C6.4906718,1.03296437 6.43343132,0.928571052 6.32469271,0.846153981 C6.2159541,0.76373691 6.09573082,0.725275844 5.96409603,0.736262212 C5.79811694,0.747252091 5.6721879,0.824174223 5.58634548,0.978021997 C5.23149113,1.59890101 4.97963305,2.60439771 4.8308444,4 C4.6133306,3.47253145 4.43016109,2.85164892 4.2870782,2.12087814 C4.22413196,1.79670479 4.06960098,1.64285702 3.8177429,1.65934184 C3.64603977,1.6703282 3.50295322,1.78021997 3.38847959,1.98901012 L2.13501199,4.28022436 C1.92896092,3.48351781 1.73435795,2.51099076 1.55692711,1.36263617 C1.51686244,1.07692389 1.35087604,0.94505236 1.05897524,0.967032118 Z M12.0883511,1.36265372 C12.4947402,1.4450743 12.7980964,1.65386445 13.0041255,2.00001756 C13.187295,2.29672323 13.2788432,2.65386621 13.2788432,3.08243638 C13.2788432,3.64835898 13.1300545,4.16484819 12.8324041,4.63737788 C12.4889978,5.18683672 12.0425587,5.46154859 11.487381,5.46154859 C11.3900905,5.46154859 11.2870576,5.45055871 11.1782824,5.42857895 C10.77193,5.34617241 10.4685737,5.13739982 10.262508,4.79123619 C10.0793751,4.48903207 9.98779035,4.12640117 9.98779035,3.70330837 C9.98779035,3.13738227 10.1366156,2.62089657 10.4342295,2.15386533 C10.7833781,1.60441351 11.2298172,1.3296876 11.7792891,1.3296876 C11.8765796,1.3296876 11.9796125,1.34067748 12.0883511,1.36265372 Z M11.8479777,4.33517376 C12.0597491,4.15385831 12.202832,3.88462382 12.2829687,3.52199293 C12.3058649,3.39562336 12.3230187,3.2582604 12.3230187,3.11540251 C12.3230187,2.95606331 12.2886745,2.78573422 12.2199859,2.61540163 C12.1341435,2.40111654 12.0196625,2.28573335 11.8822854,2.25825865 C11.6762563,2.21979758 11.4759329,2.32968935 11.2870576,2.59892032 C11.1325266,2.80771047 11.0351996,3.0274905 10.9837014,3.25276546 C10.9550629,3.37914205 10.9436148,3.51651554 10.9436148,3.65387147 C10.9436148,3.81320717 10.9779591,3.98353274 11.0466476,4.15385831 C11.1325266,4.3681434 11.246971,4.48351957 11.3843481,4.51101182 C11.527431,4.53846897 11.681962,4.47804219 11.8479777,4.33517376 Z M9.4154222,2.00001756 C9.2093565,1.65386445 8.90029452,1.4450743 8.49964779,1.36265372 C8.3908726,1.34067748 8.28787633,1.3296876 8.19054924,1.3296876 C7.64111385,1.3296876 7.19467474,1.60441351 6.84552615,2.15386533 C6.54787569,2.62089657 6.39908704,3.13738227 6.39908704,3.70330837 C6.39908704,4.12640117 6.4906718,4.48903207 6.67380473,4.79123619 C6.87987043,5.13739982 7.18322665,5.34617241 7.58957914,5.42857895 C7.69831775,5.45055871 7.8013506,5.46154859 7.89867769,5.46154859 C8.45385541,5.46154859 8.90029452,5.18683672 9.24370078,4.63737788 C9.54135124,4.16484819 9.69013989,3.64835898 9.69013989,3.08243638 C9.69013989,2.65386621 9.59855513,2.29672323 9.4154222,2.00001756 Z M8.69422882,3.52199293 C8.61412873,3.88462382 8.47100927,4.15385831 8.25923781,4.33517376 C8.09325872,4.47804219 7.93872774,4.53846897 7.79564484,4.51101182 C7.65826771,4.48351957 7.54378676,4.3681434 7.45794434,4.15385831 C7.38925578,3.98353274 7.35491149,3.81320717 7.35491149,3.65387147 C7.35491149,3.51651554 7.36635959,3.37914205 7.39499811,3.25276546 C7.44649625,3.0274905 7.54378676,2.80771047 7.69831775,2.59892032 C7.8872296,2.32968935 8.08755296,2.21979758 8.29358209,2.25825865 C8.43095922,2.28573335 8.54544017,2.40111654 8.63128259,2.61540163 C8.69997116,2.78573422 8.73431544,2.95606331 8.73431544,3.11540251 C8.73431544,3.2582604 8.72286734,3.39562336 8.69422882,3.52199293 Z"/>
    </g>
  </g>
</svg>
