<svg xmlns="http://www.w3.org/2000/svg" xmlns:xlink="http://www.w3.org/1999/xlink" width="16px" height="16px" viewBox="0 0 16 16" version="1.1">
  <g stroke="none" stroke-width="1" fill="none" fill-rule="evenodd">
    <g>
      <rect x="0" y="0" width="16" height="16"/>
      <path d="M11.5,0.5 C12.6045695,0.5 13.5,1.3954305 13.5,2.5 L13.500839,5.67413008 C13.019064,5.56025863 12.5165691,5.5 12,5.5 C8.41014913,5.5 5.5,8.41014913 5.5,12 C5.5,12.5165691 5.56025863,13.019064 5.67413008,13.500839 L2.5,13.5 C1.3954305,13.5 0.5,12.6045695 0.5,11.5 L0.5,2.5 C0.5,1.3954305 1.3954305,0.5 2.5,0.5 L11.5,0.5 Z M5.25,7 L3.74877818,7 C3.33456462,7 2.99877818,7.33578644 2.99877818,7.75 C2.99877818,8.16421356 3.33456462,8.5 3.74877818,8.5 L3.74877818,8.5 L5.25,8.5 C5.66421356,8.5 6,8.16421356 6,7.75 C6,7.33578644 5.66421356,7 5.25,7 L5.25,7 Z M7.35,3 L3.75,3 C3.33578644,3 3,3.33578644 3,3.75 C3,4.16421356 3.33578644,4.5 3.75,4.5 L3.75,4.5 L7.35,4.5 C7.76421356,4.5 8.1,4.16421356 8.1,3.75 C8.1,3.33578644 7.76421356,3 7.35,3 L7.35,3 Z" fill="#222222"/>
      <path d="M11.5,7 C13.9852814,7 16,9.01471863 16,11.5 C16,13.9852814 13.9852814,16 11.5,16 C9.01471863,16 7,13.9852814 7,11.5 C7,9.01471863 9.01471863,7 11.5,7 Z M11.5,8.49562182 C11.0857864,8.49562182 10.75,8.83140826 10.75,9.24562182 L10.75,9.24562182 L10.7502549,11.2641297 L10.7502549,11.2641297 L10.7515123,11.2778817 C10.7355924,11.5244127 10.8416949,11.773649 11.055429,11.9309581 L11.055429,11.9309581 L13.310488,13.5906897 L13.404568,13.6498359 C13.7275951,13.8210718 14.1358837,13.7344985 14.3590926,13.431227 C14.6046224,13.0976285 14.5332285,12.6281522 14.1996299,12.3826224 L14.1996299,12.3826224 L12.2499505,10.9476218 L12.25,9.24562182 C12.25,8.83140826 11.9142136,8.49562182 11.5,8.49562182 Z" fill="#222222"/>
    </g>
  </g>
</svg>
