<svg xmlns="http://www.w3.org/2000/svg" xmlns:xlink="http://www.w3.org/1999/xlink" width="24px" height="24px" viewBox="0 0 24 24" version="1.1">
  <g stroke="none" stroke-width="1" fill="none" fill-rule="evenodd">
    <rect x="0" y="0" width="24" height="24"/>
    <path d="M10,1.10000002 L10,2.5 L10,2.5 L14,2.5 L14,1.10000002 C14,0.768629161 14.2686292,0.5 14.6,0.5 L18.9,0.5 C19.2313708,0.5 19.5,0.768629161 19.5,1.10000002 L19.5,2.5 L19.5,2.5 L22.4,2.5 C22.7313708,2.5 23,2.76862916 23,3.10000002 L23,10.2 C23,10.3656854 22.8656854,10.5 22.7,10.5 L1.30000001,10.5 C1.13431458,10.5 1,10.3656854 1,10.2 L1,3.10000002 C1,2.76862916 1.26862916,2.5 1.60000002,2.5 L4.5,2.5 L4.5,2.5 L4.5,1.10000002 C4.5,0.768629161 4.76862916,0.5 5.10000002,0.5 L9.39999998,0.5 C9.73137084,0.5 10,0.768629161 10,1.10000002 Z" fill="#73ADFF" fill-rule="nonzero"/>
    <path d="M10,14.1 L10,15.5 L10,15.5 L14,15.5 L14,14.1 C14,13.7686292 14.2686292,13.5 14.6,13.5 L18.9,13.5 C19.2313708,13.5 19.5,13.7686292 19.5,14.1 L19.5,15.5 L19.5,15.5 L22.4,15.5 C22.7313708,15.5 23,15.7686292 23,16.1 L23,23.2 C23,23.3656854 22.8656854,23.5 22.7,23.5 L1.30000001,23.5 C1.13431458,23.5 1,23.3656854 1,23.2 L1,16.1 C1,15.7686292 1.26862916,15.5 1.60000002,15.5 L4.5,15.5 L4.5,15.5 L4.5,14.1 C4.5,13.7686292 4.76862916,13.5 5.10000002,13.5 L9.39999998,13.5 C9.73137084,13.5 10,13.7686292 10,14.1 Z" fill="#738AFF" fill-rule="nonzero"/>
  </g>
</svg>
