<?xml version="1.0" encoding="UTF-8"?>
<svg width="48px" height="48px" viewBox="0 0 48 48" version="1.1" xmlns="http://www.w3.org/2000/svg" xmlns:xlink="http://www.w3.org/1999/xlink">
    <g stroke="none" stroke-width="1" fill="none" fill-rule="evenodd">
        <g transform="translate(6.000000, 6.000000)">
            <path d="M0,11 L0,4 C0,1.790861 1.790861,0 4,0 L11,0" stroke="#D7D9E0" stroke-width="3" stroke-linecap="round"></path>
            <path d="M25,11 L25,4 C25,1.790861 26.790861,0 29,0 L36,0" stroke="#D7D9E0" stroke-width="3" stroke-linecap="round" transform="translate(30.500000, 5.500000) scale(-1, 1) translate(-30.500000, -5.500000) "></path>
            <path d="M0,36 L0,29 C0,26.790861 1.790861,25 4,25 L11,25" stroke="#D7D9E0" stroke-width="3" stroke-linecap="round" transform="translate(5.500000, 30.500000) scale(1, -1) translate(-5.500000, -30.500000) "></path>
            <path d="M25,36 L25,29 C25,26.790861 26.790861,25 29,25 L36,25" stroke="#D7D9E0" stroke-width="3" stroke-linecap="round" transform="translate(30.500000, 30.500000) scale(-1, -1) translate(-30.500000, -30.500000) "></path>
            <rect fill="#3377FF" x="0" y="16.5" width="36" height="3" rx="1.5"></rect>
        </g>
    </g>
</svg>