<svg width="39" height="48" viewBox="0 0 112 33" fill="none" xmlns="http://www.w3.org/2000/svg">
  <path d="M16 2.60938C8.26875 2.60938 2 8.87813 2 16.6094C2 24.3406 8.26875 30.6094 16 30.6094C23.7313 30.6094 30 24.3406 30 16.6094C30 8.87813 23.7313 2.60938 16 2.60938ZM9 13.7656C9 12.9375 9.67188 12.2656 10.5 12.2656C11.3281 12.2656 12 12.9375 12 13.7656C12 14.5938 11.3281 15.2656 10.5 15.2656C9.67188 15.2656 9 14.5938 9 13.7656ZM16 22.2656C13.3281 22.2656 11.1375 20.1625 11 17.5281C10.9937 17.3844 11.1062 17.2656 11.25 17.2656H12.7531C12.8844 17.2656 12.9969 17.3656 13.0063 17.4969C13.125 19.0438 14.4219 20.2656 16 20.2656C17.5781 20.2656 18.8781 19.0438 18.9937 17.4969C19.0031 17.3656 19.1156 17.2656 19.2469 17.2656H20.75C20.8937 17.2656 21.0063 17.3844 21 17.5281C20.8625 20.1625 18.6719 22.2656 16 22.2656ZM21.5 15.2656C20.6719 15.2656 20 14.5938 20 13.7656C20 12.9375 20.6719 12.2656 21.5 12.2656C22.3281 12.2656 23 12.9375 23 13.7656C23 14.5938 22.3281 15.2656 21.5 15.2656Z" fill="#1890FF"/>
  <path d="M68.8438 9.47188C68.425 8.5 67.825 7.63125 67.0656 6.88438C66.3062 6.14063 65.425 5.55938 64.4406 5.15C63.425 4.72813 62.35 4.51562 61.2406 4.51562C59.7 4.51562 58.1969 4.9375 56.8906 5.73438C56.5781 5.925 56.2812 6.13438 56 6.3625C55.7188 6.13438 55.4219 5.925 55.1094 5.73438C53.8031 4.9375 52.3 4.51562 50.7594 4.51562C49.65 4.51562 48.575 4.72813 47.5594 5.15C46.5781 5.55625 45.6937 6.14063 44.9344 6.88438C44.1719 7.63125 43.575 8.5 43.1562 9.47188C42.7219 10.4813 42.5 11.5531 42.5 12.6562C42.5 13.6969 42.7125 14.7812 43.1344 15.8844C43.4875 16.8062 43.9937 17.7625 44.6406 18.7281C45.6656 20.2562 47.075 21.85 48.825 23.4656C51.725 26.1438 54.5969 27.9937 54.7188 28.0688L55.4594 28.5438C55.7875 28.7531 56.2094 28.7531 56.5375 28.5438L57.2781 28.0688C57.4 27.9906 60.2687 26.1438 63.1719 23.4656C64.9219 21.85 66.3313 20.2562 67.3563 18.7281C68.0031 17.7625 68.5125 16.8062 68.8625 15.8844C69.2844 14.7812 69.4969 13.6969 69.4969 12.6562C69.5 11.5531 69.2781 10.4813 68.8438 9.47188Z" fill="#BAE7FF"/>
  <path d="M108.377 11.6442L100.443 10.491L96.8962 3.3004C96.7993 3.10353 96.6399 2.94415 96.443 2.84728C95.9493 2.60353 95.3493 2.80665 95.1024 3.3004L91.5555 10.491L83.6212 11.6442C83.4024 11.6754 83.2024 11.7785 83.0493 11.9348C82.6649 12.3317 82.6712 12.9629 83.068 13.3504L88.8087 18.9473L87.4524 26.8504C87.4149 27.066 87.4493 27.291 87.5524 27.4848C87.8087 27.9723 88.4149 28.1629 88.9024 27.9035L95.9993 24.1723L103.096 27.9035C103.29 28.0067 103.515 28.041 103.731 28.0035C104.274 27.9098 104.64 27.3942 104.546 26.8504L103.19 18.9473L108.931 13.3504C109.087 13.1973 109.19 12.9973 109.221 12.7785C109.306 12.2317 108.924 11.7254 108.377 11.6442Z" fill="#EBEBEB"/>
</svg>
