<svg xmlns="http://www.w3.org/2000/svg" xmlns:xlink="http://www.w3.org/1999/xlink" width="12px" height="12px" viewBox="0 0 12 12" version="1.1">
  <g stroke="none" stroke-width="1" fill="none" fill-rule="evenodd">
    <rect x="0" y="0" width="12" height="12"/>
    <g transform="translate(0.128005, 0.382280)" fill="#8B8FA3" fill-rule="nonzero">
      <path d="M2.14523854,9.34490113 C2.50428457,9.70388001 2.42604469,10.3436125 1.987687,10.7818882 C1.71990409,11.0498694 1.29736351,11.2662168 0.720065283,11.4309304 L0.496288817,11.4901351 C0.281871086,11.5433139 0.0649412022,11.412604 0.0117623606,11.1981863 C-0.0043782287,11.1331072 -0.00390032906,11.0650149 0.0131521274,11.0001688 C0.203174359,10.2755821 0.435161815,9.77651749 0.709054425,9.50295899 C1.14741212,9.06468327 1.78512073,8.98431487 2.14523854,9.34490113 Z M8.82958099,0.00745639321 C9.09824636,-0.00866372609 9.41733888,0.0017325403 9.80448362,0.0349754665 C10.6869671,0.111333733 11.382732,0.818386156 11.4442558,1.69345988 L11.4442558,1.69345988 L11.4673186,2.01267741 L11.4802041,2.28193406 L11.4819867,2.39315324 C11.4851544,4.3608187 10.5316497,6.27812402 8.76962361,7.9649406 L8.76962361,7.9649406 L8.58299488,8.13801367 L8.0818516,9.6113007 C7.98245969,9.90321689 7.80588356,10.1616547 7.57215187,10.3598806 L7.57215187,10.3598806 L7.45061578,10.4538521 C6.68267496,10.9940097 5.62225169,10.8093549 5.08209412,10.0414141 L5.08209412,10.0414141 L4.73199488,9.54301367 L4.62427712,9.56219646 C3.97210057,9.64175102 3.29200036,9.37468013 2.77433859,8.91781917 L2.77433859,8.91781917 L2.64841744,8.79974073 C2.11078646,8.26492824 1.78992178,7.52201614 1.88616726,6.81011519 L1.88616726,6.81011519 L1.89899488,6.73601367 L1.42323695,6.41761427 C1.1072849,6.20599185 0.872748964,5.89552053 0.754694749,5.53726255 L0.754694749,5.53726255 L0.71133385,5.38094658 C0.503798175,4.46528711 1.07784593,3.55475755 1.99350539,3.34722187 L1.99350539,3.34722187 L3.12199488,3.09101367 L3.29138715,2.90109672 C4.81779236,1.23227313 6.67553681,0.224617014 8.54855346,0.0304597067 L8.54855346,0.0304597067 Z M9.67517692,1.52939167 C9.35532404,1.50192715 9.10340466,1.49372441 8.91942052,1.5047636 C7.36091255,1.59827522 5.65022019,2.45156524 4.20198241,4.1347052 L4.20198241,4.1347052 L3.93486939,4.44525434 L2.32507296,4.81011727 L2.27479941,4.82883725 C2.19739083,4.87025704 2.15388261,4.95960847 2.17422925,5.049379 C2.18553118,5.09924377 2.21550161,5.14288648 2.25798256,5.17133991 L2.25798256,5.17133991 L3.79633427,6.20171683 L3.41103347,6.89634347 L3.38685277,6.95926589 C3.34036559,7.14542142 3.43883669,7.47024905 3.70628645,7.73629672 C4.00673448,8.03560035 4.3903036,8.12556445 4.55178359,8.03906051 L4.55178359,8.03906051 L5.24532502,7.66622853 L6.30898812,9.17843601 L6.35369688,9.22427577 C6.42106195,9.27406075 6.51536095,9.2777965 6.58763773,9.22695814 C6.62225715,9.20260738 6.64825874,9.16790137 6.66190077,9.12783444 L6.66190077,9.12783444 L7.29015041,7.2826517 L7.54175877,7.05960592 C9.17767624,5.56648286 9.98449141,3.95326371 9.98198255,2.39558621 L9.98198255,2.39558621 L9.97644417,2.21580535 L9.94857629,1.80722646 L9.9349419,1.73639573 C9.89870029,1.62359931 9.79774408,1.53999698 9.67517692,1.52939167 Z M7.87199488,2.61771966 C8.42427963,2.61771966 8.87199488,3.06543491 8.87199488,3.61771966 C8.87199488,4.17000441 8.42427963,4.61771966 7.87199488,4.61771966 C7.31971013,4.61771966 6.87199488,4.17000441 6.87199488,3.61771966 C6.87199488,3.06543491 7.31971013,2.61771966 7.87199488,2.61771966 Z"/>
    </g>
  </g>
</svg>
