<?xml version="1.0" encoding="UTF-8"?>
<svg width="20px" height="20px" viewBox="0 0 20 20" version="1.1" xmlns="http://www.w3.org/2000/svg" xmlns:xlink="http://www.w3.org/1999/xlink">
    <g stroke="none" stroke-width="1" fill="none" fill-rule="evenodd">
        <path d="M14.8125,2.1875 C16.4693542,2.1875 17.8125,3.53064575 17.8125,5.1875 L17.8125,14.8125 C17.8125,16.4693542 16.4693542,17.8125 14.8125,17.8125 L5.1875,17.8125 C3.53064575,17.8125 2.1875,16.4693542 2.1875,14.8125 L2.1875,5.1875 C2.1875,3.53064575 3.53064575,2.1875 5.1875,2.1875 L14.8125,2.1875 Z M12.5,7.06433983 L11.4393398,8.125 L13.314,10 L11.4393398,11.875 L12.5,12.9356602 L15.4356602,10 L12.5,7.06433983 Z M7.5,7.06433983 L4.56433983,10 L7.5,12.9356602 L8.56066017,11.875 L6.686,9.999 L8.56066017,8.125 L7.5,7.06433983 Z" fill="#222222"></path>
        <g transform="translate(4.564340, 7.064340)"></g>
    </g>
</svg>