<?xml version="1.0" encoding="UTF-8"?>
<svg width="16px" height="16px" viewBox="0 0 16 16" version="1.1" xmlns="http://www.w3.org/2000/svg" xmlns:xlink="http://www.w3.org/1999/xlink">
    <g stroke="none" stroke-width="1" fill="none" fill-rule="evenodd">
        <g transform="translate(1.000000, 1.500000)" stroke="#F27A24" stroke-width="1.2">
            <path d="M6.00381969,0.6 C6.19714077,0.6 6.38532398,0.662248538 6.54051129,0.777530537 L6.54051129,0.777530537 L8.80152788,2.45714286 L12.5,2.45714286 C12.7485281,2.45714286 12.9735281,2.55787879 13.1363961,2.72074675 C13.2992641,2.88361472 13.4,3.10861472 13.4,3.35714286 L13.4,3.35714286 L13.4,11 C13.4,11.3865993 13.2432997,11.7365993 12.9899495,11.9899495 C12.7365993,12.2432997 12.3865993,12.4 12,12.4 L12,12.4 L2,12.4 C1.61340068,12.4 1.26340068,12.2432997 1.01005051,11.9899495 C0.756700338,11.7365993 0.6,11.3865993 0.6,11 L0.6,11 L0.6,1.5 C0.6,1.25147186 0.700735931,1.02647186 0.863603897,0.863603897 C1.02647186,0.700735931 1.25147186,0.6 1.5,0.6 L1.5,0.6 Z"></path>
            <line x1="1.00452316" y1="6" x2="13.0045232" y2="6" stroke-linecap="round"></line>
        </g>
    </g>
</svg>