<?xml version="1.0" encoding="UTF-8"?>
<svg width="16px" height="16px" viewBox="0 0 16 16" version="1.1" xmlns="http://www.w3.org/2000/svg" xmlns:xlink="http://www.w3.org/1999/xlink">
    <g stroke="none" stroke-width="1" fill="none" fill-rule="evenodd">
        <rect x="0" y="0" width="16" height="16"></rect>
        <path d="M13,11.8333333 C13.2761424,11.8333333 13.5,12.057191 13.5,12.3333333 L13.5,13 C13.5,13.2761424 13.2761424,13.5 13,13.5 L12.3333333,13.5 C12.057191,13.5 11.8333333,13.2761424 11.8333333,13 L11.8333333,12.3333333 C11.8333333,12.057191 12.057191,11.8333333 12.3333333,11.8333333 L13,11.8333333 Z M9.66666666,11.8333333 C9.94280903,11.8333333 10.1666667,12.057191 10.1666667,12.3333333 L10.1666667,13 C10.1666667,13.2761424 9.94280903,13.5 9.66666666,13.5 L9,13.5 C8.72385763,13.5 8.5,13.2761424 8.5,13 L8.5,12.3333333 C8.5,12.057191 8.72385763,11.8333333 9,11.8333333 L9.66666666,11.8333333 Z M9.66666666,8.5 C9.94280903,8.5 10.1666667,8.72385763 10.1666667,9 L10.1666667,9.66666666 C10.1666667,9.94280903 10.3905243,10.1666667 10.6666667,10.1666667 L11.3333333,10.1666667 C11.6094757,10.1666667 11.8333333,9.94280903 11.8333333,9.66666666 L11.8333333,9 C11.8333333,8.72385763 12.057191,8.5 12.3333333,8.5 L13,8.5 C13.2761424,8.5 13.5,8.72385763 13.5,9 L13.5,10.5 C13.5,10.7761424 13.2761424,11 13,11 L12.25,11 C12.0454501,11 11.8753264,11.147396 11.8400464,11.3417703 L11.8333333,11.4166667 C11.8333333,11.6467853 11.6467853,11.8333333 11.4166667,11.8333333 L10.5833333,11.8333333 C10.3787834,11.8333333 10.2086597,11.6859374 10.1733797,11.491563 L10.1666667,11.4166667 C10.1666667,11.186548 9.98011864,11 9.74999999,11 L9,11 C8.72385763,11 8.5,10.7761424 8.5,10.5 L8.5,9 C8.5,8.72385763 8.72385763,8.5 9,8.5 L9.66666666,8.5 Z M7,8.5 C7.27614237,8.5 7.5,8.72385763 7.5,9 L7.5,13 C7.5,13.2761424 7.27614237,13.5 7,13.5 L3,13.5 C2.72385763,13.5 2.5,13.2761424 2.5,13 L2.5,9 C2.5,8.72385763 2.72385763,8.5 3,8.5 L7,8.5 Z M5.33333334,10.1666667 L4.66666668,10.1666667 C4.3905243,10.1666667 4.16666668,10.3905243 4.16666668,10.6666667 L4.16666668,11.3333333 C4.16666668,11.6094757 4.3905243,11.8333333 4.66666668,11.8333333 L5.33333334,11.8333333 C5.60947571,11.8333333 5.83333334,11.6094757 5.83333334,11.3333333 L5.83333334,10.6666667 C5.83333334,10.3905243 5.60947571,10.1666667 5.33333334,10.1666667 Z M7,2.5 C7.27614237,2.5 7.5,2.72385763 7.5,3 L7.5,7 C7.5,7.27614237 7.27614237,7.5 7,7.5 L3,7.5 C2.72385763,7.5 2.5,7.27614237 2.5,7 L2.5,3 C2.5,2.72385763 2.72385763,2.5 3,2.5 L7,2.5 Z M5.33333334,4.16666668 L4.66666668,4.16666668 C4.3905243,4.16666668 4.16666668,4.3905243 4.16666668,4.66666668 L4.16666668,5.33333334 C4.16666668,5.60947571 4.3905243,5.83333334 4.66666668,5.83333334 L5.33333334,5.83333334 C5.60947571,5.83333334 5.83333334,5.60947571 5.83333334,5.33333334 L5.83333334,4.66666668 C5.83333334,4.3905243 5.60947571,4.16666668 5.33333334,4.16666668 Z M13,2.5 C13.2761424,2.5 13.5,2.72385763 13.5,3 L13.5,7 C13.5,7.27614237 13.2761424,7.5 13,7.5 L9,7.5 C8.72385763,7.5 8.5,7.27614237 8.5,7 L8.5,3 C8.5,2.72385763 8.72385763,2.5 9,2.5 L13,2.5 Z M11.3333333,4.16666668 L10.6666667,4.16666668 C10.3905243,4.16666668 10.1666667,4.3905243 10.1666667,4.66666668 L10.1666667,5.33333334 C10.1666667,5.60947571 10.3905243,5.83333334 10.6666667,5.83333334 L11.3333333,5.83333334 C11.6094757,5.83333334 11.8333333,5.60947571 11.8333333,5.33333334 L11.8333333,4.66666668 C11.8333333,4.3905243 11.6094757,4.16666668 11.3333333,4.16666668 Z" fill="#8B8FA3" fill-rule="nonzero"></path>
    </g>
</svg>