<?xml version="1.0" encoding="UTF-8"?>
<svg width="16px" height="16px" viewBox="0 0 16 16" version="1.1" xmlns="http://www.w3.org/2000/svg" xmlns:xlink="http://www.w3.org/1999/xlink">
  <g stroke="none" stroke-width="1" fill="none" fill-rule="evenodd">
    <rect fill="#FFFFFF" x="0" y="0" width="16" height="16" rx="2"/>
    <g transform="translate(1.500000, 3.000000)" fill="#222222" fill-rule="nonzero">
      <g>
        <path d="M8,0 L6.55153402,6.65177955 C6.37435163,7.46434262 6.08864504,8.10834207 5.69441424,8.5837779 C5.03440986,9.38769668 3.90591935,10 2.63463575,10 C1.36335215,10 0.53154715,9.46441474 0.239196218,8.81393207 C-0.053154715,8.1634494 -0.0775172927,7.27632936 0.166108484,6.15257193 L0.21261886,5.93214258 L2.21177884,5.93214258 L2.16526846,6.15257193 C2.02352256,6.89165854 1.99967117,7.26162657 2.08161802,7.56201558 C2.16356487,7.86240458 2.54054119,7.99528964 2.92640478,7.99528964 C3.31226836,7.99528964 3.66105502,7.89049852 3.88696256,7.56201558 C4.02427891,7.3675191 4.13782888,7.18880594 4.23970875,6.72633654 L5.69441424,0 L8,0 Z"/>
      </g>
      <g transform="translate(7.000000, 4.000000)">
        <path d="M2.38697392,1.63212435 C2.34570028,1.80138169 2.3963543,1.92400691 2.53893598,2 C2.67776552,2.07944732 3.20306647,2.21588946 4.11483882,2.40932642 C4.71893491,2.54749568 5.14855605,2.75647668 5.40370222,3.03626943 C5.65509625,3.31951641 5.73201531,3.67357513 5.63445942,4.0984456 C5.50313419,4.65803109 5.17106894,5.1148532 4.6382637,5.46891192 C4.10545845,5.82297064 3.36628497,6 2.42074327,6 C1.45644082,6 0.787620144,5.81260794 0.414281256,5.43782383 C0.0409423687,5.06303972 -0.0800644567,4.58549223 0.0512607802,4.00518135 L1.67781764,4.00518135 C1.6515526,4.26770294 1.68344587,4.45423143 1.77349746,4.56476684 C1.92358344,4.76165803 2.26690513,4.86010363 2.80346253,4.86010363 C3.1186431,4.86010363 3.3794175,4.81692573 3.58578573,4.73056995 C3.79215396,4.64421416 3.91597489,4.51468048 3.95724854,4.34196891 C3.99477004,4.1761658 3.94786817,4.05008636 3.81654293,3.96373057 C3.68521769,3.87737478 3.16179282,3.72884283 2.24626831,3.51813472 C1.58964213,3.35924007 1.14688847,3.16062176 0.918007344,2.92227979 C0.685374067,2.68739206 0.621587523,2.34887737 0.726647713,1.90673575 C0.846716501,1.3851468 1.17221548,0.936960276 1.70314465,0.562176166 C2.23407382,0.187392055 2.9028945,0 3.70960667,0 C4.47504519,0 5.06600875,0.140759931 5.48249736,0.422279793 C5.89898597,0.703799655 6.06408056,1.18998273 5.97778111,1.88082902 L4.37373715,1.88082902 C4.3924979,1.69084629 4.36810892,1.54058722 4.30057023,1.43005181 C4.16924499,1.22970639 3.89158592,1.12953368 3.46759301,1.12953368 C3.1186431,1.12953368 2.85880674,1.17962003 2.68808393,1.27979275 C2.51736112,1.37996546 2.41699112,1.49740933 2.38697392,1.63212435 Z"/>
      </g>
    </g>
  </g>
</svg>
