<?xml version="1.0" encoding="UTF-8"?>
<svg width="20px" height="20px" viewBox="0 0 20 20" version="1.1" xmlns="http://www.w3.org/2000/svg">
  <defs>
    <linearGradient x1="50%" y1="3.92377097%" x2="50%" y2="100%" id="icon-application-module-active_svg__a">
      <stop stop-color="#6D83F2" offset="0%"/>
      <stop stop-color="#4965F2" offset="100%"/>
    </linearGradient>
  </defs>
  <g stroke="none" stroke-width="1" fill="none" fill-rule="evenodd">
    <rect x="0" y="0" width="20" height="20"/>
    <g transform="translate(1.566667, 1.419219)">
      <path d="M13.3718051,8.11017186 L16.5384717,9.96996599 C16.7830927,10.1136327 16.9333333,10.376105 16.9333333,10.6597941 L16.9333333,14.4032187 C16.9333333,14.6869079 16.7830927,14.9493801 16.5384717,15.0930468 L13.3718051,16.952841 C13.121686,17.0997368 12.8116474,17.0997368 12.5615282,16.952841 L9.39486159,15.0930468 C9.15024062,14.9493801 9,14.6869079 9,14.4032187 L9,10.6597941 C9,10.376105 9.15024062,10.1136327 9.39486159,9.96996599 L12.5615282,8.11017186 C12.8116474,7.96327605 13.121686,7.96327605 13.3718051,8.11017186 Z M13.017309,10.8140212 C12.9860441,10.7956592 12.9472893,10.7956592 12.9160244,10.8140212 L12.9160244,10.8140212 L11.5285244,11.6289046 C11.4979467,11.646863 11.4791667,11.679672 11.4791667,11.7151332 L11.4791667,11.7151332 L11.4791667,13.3478797 C11.4791667,13.3833408 11.4979467,13.4161498 11.5285244,13.4341082 L11.5285244,13.4341082 L12.9160244,14.2489917 C12.9472893,14.2673536 12.9860441,14.2673536 13.017309,14.2489917 L13.017309,14.2489917 L14.404809,13.4341082 C14.4353866,13.4161498 14.4541667,13.3833408 14.4541667,13.3478797 L14.4541667,13.3478797 L14.4541667,11.7151332 C14.4541667,11.679672 14.4353866,11.646863 14.404809,11.6289046 L14.404809,11.6289046 Z" fill="url(#icon-application-module-active_svg__a)"/>
      <path d="M4.37180509,8.11017186 L7.53847175,9.96996599 C7.78309272,10.1136327 7.93333333,10.376105 7.93333333,10.6597941 L7.93333333,14.4032187 C7.93333333,14.6869079 7.78309272,14.9493801 7.53847175,15.0930468 L4.37180509,16.952841 C4.12168596,17.0997368 3.81164737,17.0997368 3.56152824,16.952841 L0.394861587,15.0930468 C0.150240616,14.9493801 3.8524739e-13,14.6869079 3.84359211e-13,14.4032187 L3.83915122e-13,10.6597941 C3.84359211e-13,10.376105 0.150240616,10.1136327 0.394861587,9.96996599 L3.56152824,8.11017186 C3.81164737,7.96327605 4.12168596,7.96327605 4.37180509,8.11017186 Z" fill="url(#icon-application-module-active_svg__a)"/>
      <path d="M8.80513842,0.110171862 L11.9718051,1.96996599 C12.2164261,2.11363272 12.3666667,2.37610496 12.3666667,2.65979414 L12.3666667,6.40321868 C12.3666667,6.68690785 12.2164261,6.9493801 11.9718051,7.09304683 L8.80513842,8.95284095 C8.5550193,9.09973677 8.2449807,9.09973677 7.99486158,8.95284095 L4.82819492,7.09304683 C4.58357395,6.9493801 4.43333333,6.68690785 4.43333333,6.40321868 L4.43333333,2.65979414 C4.43333333,2.37610496 4.58357395,2.11363272 4.82819492,1.96996599 L7.99486158,0.110171862 C8.2449807,-0.0367239542 8.5550193,-0.0367239542 8.80513842,0.110171862 Z" fill="url(#icon-application-module-active_svg__a)"/>
    </g>
  </g>
</svg>
