<?xml version="1.0" encoding="UTF-8"?>
<svg width="26px" height="13px" viewBox="0 0 26 13" version="1.1" xmlns="http://www.w3.org/2000/svg" xmlns:xlink="http://www.w3.org/1999/xlink">
    <title>icon-query-post</title>
    <g stroke="none" stroke-width="1" fill="none" fill-rule="evenodd">
        <g transform="translate(-120.000000, -906.000000)">
            <g transform="translate(104.000000, 52.000000)">
                <g transform="translate(8.000000, 40.000000)">
                    <g transform="translate(8.000000, 810.000000)">
                        <g transform="translate(0.000000, 4.000000)">
                            <rect stroke="#079968" x="0.5" y="0.5" width="25" height="12" rx="2"></rect>
                            <g transform="translate(3.007568, 3.903809)" fill="#079968" fill-rule="nonzero">
                                <path d="M0,0.0854492188 L2.57373047,0.0854492188 C3.13427734,0.0854492188 3.55411784,0.21875 3.83325195,0.485351562 C4.11238607,0.751953125 4.25195312,1.13134766 4.25195312,1.62353516 C4.25195312,2.12939453 4.09985352,2.52473958 3.7956543,2.80957031 C3.49145508,3.09440104 3.02718099,3.23681641 2.40283203,3.23681641 L1.55517578,3.23681641 L1.55517578,5.09619141 L0,5.09619141 L0,0.0854492188 Z M1.55517578,2.22167969 L1.93457031,2.22167969 C2.23307292,2.22167969 2.44270833,2.16984049 2.56347656,2.06616211 C2.68424479,1.96248372 2.74462891,1.8297526 2.74462891,1.66796875 C2.74462891,1.51074219 2.69222005,1.37744141 2.58740234,1.26806641 C2.48258464,1.15869141 2.28548177,1.10400391 1.99609375,1.10400391 L1.55517578,1.10400391 L1.55517578,2.22167969 Z"></path>
                                <path d="M4.8671875,2.59423828 C4.8671875,1.77620443 5.09505208,1.13932292 5.55078125,0.68359375 C6.00651042,0.227864583 6.64111328,0 7.45458984,0 C8.28857422,0 8.93115234,0.223876953 9.38232422,0.671630859 C9.83349609,1.11938477 10.059082,1.74658203 10.059082,2.55322266 C10.059082,3.13883464 9.9605306,3.61905924 9.76342773,3.99389648 C9.56632487,4.36873372 9.28149414,4.66040039 8.90893555,4.86889648 C8.53637695,5.07739258 8.07210286,5.18164062 7.51611328,5.18164062 C6.95100911,5.18164062 6.48331706,5.09163411 6.11303711,4.91162109 C5.74275716,4.73160807 5.44254557,4.44677734 5.21240234,4.05712891 C4.98225911,3.66748047 4.8671875,3.17985026 4.8671875,2.59423828 Z M6.41552734,2.60107422 C6.41552734,3.10693359 6.50952148,3.4703776 6.69750977,3.69140625 C6.88549805,3.9124349 7.14127604,4.02294922 7.46484375,4.02294922 C7.79752604,4.02294922 8.05501302,3.91471354 8.23730469,3.69824219 C8.41959635,3.48177083 8.51074219,3.09326172 8.51074219,2.53271484 C8.51074219,2.06103516 8.41560872,1.71638997 8.2253418,1.4987793 C8.03507487,1.28116862 7.77701823,1.17236328 7.45117188,1.17236328 C7.1389974,1.17236328 6.88834635,1.2828776 6.69921875,1.50390625 C6.51009115,1.7249349 6.41552734,2.09065755 6.41552734,2.60107422 Z"></path>
                                <path d="M10.6230469,3.43847656 L12.0961914,3.34619141 C12.1280924,3.58544922 12.1930339,3.76774089 12.2910156,3.89306641 C12.4505208,4.09586589 12.6783854,4.19726562 12.9746094,4.19726562 C13.195638,4.19726562 13.3659668,4.14542643 13.4855957,4.04174805 C13.6052246,3.93806966 13.6650391,3.81787109 13.6650391,3.68115234 C13.6650391,3.55126953 13.6080729,3.43505859 13.4941406,3.33251953 C13.3802083,3.22998047 13.1158854,3.13313802 12.7011719,3.04199219 C12.0221354,2.88932292 11.5379232,2.68652344 11.2485352,2.43359375 C10.9568685,2.18066406 10.8110352,1.85823568 10.8110352,1.46630859 C10.8110352,1.20882161 10.8856608,0.965576172 11.0349121,0.736572266 C11.1841634,0.507568359 11.40861,0.327555339 11.708252,0.196533203 C12.0078939,0.0655110677 12.4186198,0 12.9404297,0 C13.5807292,0 14.068929,0.119059245 14.4050293,0.357177734 C14.7411296,0.595296224 14.9410807,0.974121094 15.0048828,1.49365234 L13.5454102,1.57910156 C13.5066732,1.35351562 13.4252116,1.18945312 13.3010254,1.08691406 C13.1768392,0.984375 13.0053711,0.933105469 12.7866211,0.933105469 C12.6066081,0.933105469 12.4710286,0.971272786 12.3798828,1.04760742 C12.288737,1.12394206 12.2431641,1.21679688 12.2431641,1.32617188 C12.2431641,1.40592448 12.2807617,1.47770182 12.355957,1.54150391 C12.4288737,1.60758464 12.6020508,1.66910807 12.8754883,1.72607422 C13.5522461,1.87190755 14.037028,2.01944987 14.329834,2.16870117 C14.62264,2.31795247 14.8356934,2.50309245 14.9689941,2.72412109 C15.1022949,2.94514974 15.1689453,3.19238281 15.1689453,3.46582031 C15.1689453,3.78710938 15.0800781,4.08333333 14.9023438,4.35449219 C14.7246094,4.62565104 14.476237,4.83129883 14.1572266,4.97143555 C13.8382161,5.11157227 13.4360352,5.18164062 12.9506836,5.18164062 C12.0984701,5.18164062 11.5083008,5.01757812 11.1801758,4.68945312 C10.8520508,4.36132812 10.6663411,3.94433594 10.6230469,3.43847656 Z"></path>
                                <polygon points="15.5961914 0.0854492188 20.3027344 0.0854492188 20.3027344 1.32275391 18.7236328 1.32275391 18.7236328 5.09619141 17.175293 5.09619141 17.175293 1.32275391 15.5961914 1.32275391"></polygon>
                            </g>
                        </g>
                    </g>
                </g>
            </g>
        </g>
    </g>
</svg>