<?xml version="1.0" encoding="UTF-8"?>
<svg width="16px" height="16px" viewBox="0 0 16 16" version="1.1" xmlns="http://www.w3.org/2000/svg" xmlns:xlink="http://www.w3.org/1999/xlink">
    <g stroke="none" stroke-width="1" fill="none" fill-rule="evenodd">
        <g transform="translate(1.200000, 2.400000)" stroke="#B8B9BF" stroke-width="1.2">
            <path d="M7.83443717,2.62902086 C7.83443717,1.17928597 6.58395963,0 5.04702911,0 C3.51009859,0 2.25988336,1.17928597 2.25988336,2.62902086 C2.25988336,3.7377872 2.99227968,4.68646165 4.02398267,5.07221634 C1.72999776,5.5195829 0,7.43994345 0,9.73442914 C0,10.2924002 0.414989611,10.4772358 0.74839781,10.6256981 L0.767547157,10.6331213 C2.11193512,11.0807353 4.05624799,11.2 4.99325359,11.2 C6.01498844,11.2 8.01517539,11.0436197 9.34356184,10.6108519 C9.84144444,10.4307176 10.0940582,10.1357724 10.0940582,9.73442914 C10.0940582,7.43969602 8.36406045,5.51933546 6.07007554,5.07221634 C7.10177853,4.68646165 7.83443717,3.73778722 7.83443717,2.62902086 Z" stroke-linejoin="round" fill-rule="nonzero"></path>
            <g transform="translate(9.800000, 0.600000)" stroke-linecap="round">
                <g>
                    <line x1="-2.77555756e-17" y1="1.5" x2="4" y2="1.5"></line>
                    <line x1="2.5" y1="3.9634962e-14" x2="4" y2="1.5"></line>
                </g>
                <g transform="translate(0.000000, 3.000000)">
                    <line x1="0" y1="0.488009047" x2="4" y2="0.488009047"></line>
                    <line x1="0.0760138173" y1="0.417876973" x2="1.33819975" y2="1.93843915" transform="translate(0.707107, 1.178158) rotate(-6.000000) translate(-0.707107, -1.178158) "></line>
                </g>
            </g>
        </g>
    </g>
</svg>