<?xml version="1.0" encoding="UTF-8"?>
<svg width="16px" height="16px" viewBox="0 0 16 16" version="1.1" xmlns="http://www.w3.org/2000/svg" xmlns:xlink="http://www.w3.org/1999/xlink">
  <g stroke="none" stroke-width="1" fill="none" fill-rule="evenodd" stroke-linecap="round">
    <g stroke="#8B8FA3" stroke-width="1.5">
      <g transform="translate(12.000000, 8.000000) scale(-1, 1) translate(-12.000000, -8.000000) translate(9.000000, 3.250000)">
        <line x1="0.5" y1="-8.78926561e-17" x2="0.5" y2="9.5"/>
        <g transform="translate(2.500000, 2.878680)">
          <line x1="3.5" y1="2.12132034" x2="0" y2="2.12132034" transform="translate(1.750000, 2.121320) scale(-1, 1) translate(-1.750000, -2.121320) "/>
          <line x1="2.12132034" y1="2.12132034" x2="1.82242875e-17" y2="4.24264069" transform="translate(1.060660, 3.181981) scale(-1, 1) translate(-1.060660, -3.181981) "/>
          <line x1="2.12132034" y1="2.12132034" x2="-8.4112096e-18" y2="5.32709941e-17" transform="translate(1.060660, 1.060660) scale(-1, 1) translate(-1.060660, -1.060660) "/>
        </g>
      </g>
      <g transform="translate(1.000000, 3.250000)">
        <line x1="0.5" y1="-8.78926561e-17" x2="0.5" y2="9.5"/>
        <g transform="translate(2.500000, 2.878680)">
          <line x1="3.5" y1="2.12132034" x2="0" y2="2.12132034" transform="translate(1.750000, 2.121320) scale(-1, 1) translate(-1.750000, -2.121320) "/>
          <line x1="2.12132034" y1="2.12132034" x2="-2.80373653e-18" y2="4.24264069" transform="translate(1.060660, 3.181981) scale(-1, 1) translate(-1.060660, -3.181981) "/>
          <line x1="2.12132034" y1="2.12132034" x2="-8.4112096e-18" y2="5.32709941e-17" transform="translate(1.060660, 1.060660) scale(-1, 1) translate(-1.060660, -1.060660) "/>
        </g>
      </g>
    </g>
  </g>
</svg>
