<?xml version="1.0" encoding="UTF-8"?>
<svg width="12px" height="12px" viewBox="0 0 12 12" version="1.1" xmlns="http://www.w3.org/2000/svg" xmlns:xlink="http://www.w3.org/1999/xlink">
  <g stroke="none" stroke-width="1" fill="none" fill-rule="evenodd">
    <path d="M1.99319728,5 C1.72108844,5 1.48979592,5.08391608 1.29931973,5.27972028 C1.0952381,5.46153846 1,5.6993007 1,5.99300699 C1,6.27272727 1.0952381,6.51048951 1.29931973,6.70629371 C1.48979592,6.9020979 1.72108844,7 1.99319728,7 C2.26530612,7 2.51020408,6.9020979 2.71428571,6.72027972 C2.9047619,6.52447552 3,6.28671329 3,5.99300699 C3,5.6993007 2.9047619,5.46153846 2.71428571,5.27972028 C2.52380952,5.08391608 2.27891156,5 1.99319728,5 Z M5.99319728,5 C5.72108844,5 5.48979592,5.08391608 5.29931973,5.27972028 C5.0952381,5.46153846 5,5.6993007 5,5.99300699 C5,6.27272727 5.0952381,6.51048951 5.29931973,6.70629371 C5.48979592,6.9020979 5.72108844,7 5.99319728,7 C6.26530612,7 6.51020408,6.9020979 6.71428571,6.72027972 C6.9047619,6.52447552 7,6.28671329 7,5.99300699 C7,5.6993007 6.9047619,5.46153846 6.71428571,5.27972028 C6.52380952,5.08391608 6.27891156,5 5.99319728,5 Z M9.99319728,5 C9.72108844,5 9.47619048,5.08391608 9.28571429,5.27972028 C9.0952381,5.46153846 9,5.6993007 9,5.99300699 C9,6.27272727 9.0952381,6.51048951 9.28571429,6.70629371 C9.47619048,6.9020979 9.72108844,7 9.99319728,7 C10.2653061,7 10.5102041,6.9020979 10.7006803,6.72027972 C10.8911565,6.52447552 11,6.28671329 11,5.99300699 C11,5.6993007 10.9047619,5.46153846 10.7142857,5.27972028 C10.5238095,5.08391608 10.2789116,5 9.99319728,5 Z" fill="#8B8FA3" fill-rule="nonzero"/>
  </g>
</svg>
