<?xml version="1.0" encoding="UTF-8"?>
<svg width="48px" height="48px" viewBox="0 0 48 48" version="1.1" xmlns="http://www.w3.org/2000/svg" xmlns:xlink="http://www.w3.org/1999/xlink">
  <g stroke="none" stroke-width="1" fill="none" fill-rule="evenodd">
    <g transform="translate(0.000000, 16.000000)">
      <rect stroke="#D7D9E0" fill="#F9F9FA" x="0.5" y="0.5" width="47" height="15" rx="2"/>
      <g transform="translate(36.000000, 3.500000)" fill="#3377FF" fill-rule="nonzero">
        <path d="M1.5,1 L0,1 L0,0 L4,0 L4,1 L2.5,1 L2.5,8 L4,8 L4,9 L0,9 L0,8 L1.5,8 L1.5,1 Z"/>
      </g>
      <g transform="translate(5.693359, 4.385742)" fill="#8B8FA3" fill-rule="nonzero">
        <g transform="translate(0.000000, 0.034180)">
          <path d="M3.09082031,7.08007812 L1.66503906,7.08007812 L1.66503906,2.19726562 L0,2.19726562 L0,1.25 C0.439453125,1.23046875 0.747070312,1.20117188 0.922851562,1.16210938 C1.20279948,1.10026042 1.43066406,0.9765625 1.60644531,0.791015625 C1.72688802,0.6640625 1.81803385,0.494791667 1.87988281,0.283203125 C1.9156901,0.15625 1.93359375,0.0618489583 1.93359375,0 L3.09082031,0 L3.09082031,7.08007812 Z"/>
        </g>
        <g transform="translate(6.619141, 0.000000)">
          <path d="M3.1640625,1.47460938 C2.99804688,1.27604167 2.76041667,1.17675781 2.45117188,1.17675781 C2.02799479,1.17675781 1.73990885,1.33463542 1.58691406,1.65039062 C1.49902344,1.83268229 1.4469401,2.12239583 1.43066406,2.51953125 L0.078125,2.51953125 C0.100911458,1.91731771 0.209960938,1.43066406 0.405273438,1.05957031 C0.776367188,0.353190104 1.43554688,0 2.3828125,0 C3.13151042,0 3.72721354,0.207519531 4.16992188,0.622558594 C4.61263021,1.03759766 4.83398438,1.58691406 4.83398438,2.27050781 C4.83398438,2.79459635 4.67773438,3.26009115 4.36523438,3.66699219 C4.16015625,3.93717448 3.82324219,4.23828125 3.35449219,4.5703125 L2.79785156,4.96582031 C2.44954427,5.21321615 2.21110026,5.3922526 2.08251953,5.50292969 C1.9539388,5.61360677 1.84570312,5.7421875 1.7578125,5.88867188 L4.84863281,5.88867188 L4.84863281,7.11425781 L0,7.11425781 C0.0130208333,6.60644531 0.122070312,6.14257812 0.327148438,5.72265625 C0.525716146,5.25065104 0.994466146,4.75097656 1.73339844,4.22363281 C2.37467448,3.76464844 2.78971354,3.4358724 2.97851562,3.23730469 C3.26822917,2.9280599 3.41308594,2.58951823 3.41308594,2.22167969 C3.41308594,1.92220052 3.33007812,1.67317708 3.1640625,1.47460938 Z"/>
        </g>
        <g transform="translate(13.570312, 0.000000)">
          <path d="M1.65039062,1.4453125 C1.49414062,1.65364583 1.41927083,1.93196615 1.42578125,2.28027344 L0.126953125,2.28027344 C0.139973958,1.92871094 0.200195312,1.59505208 0.307617188,1.27929688 C0.421549479,1.00260417 0.600585938,0.747070312 0.844726562,0.512695312 C1.02701823,0.346679688 1.24348958,0.219726562 1.49414062,0.131835938 C1.74479167,0.0439453125 2.05240885,0 2.41699219,0 C3.09407552,0 3.64013672,0.174967448 4.05517578,0.524902344 C4.47021484,0.87483724 4.67773438,1.34440104 4.67773438,1.93359375 C4.67773438,2.35026042 4.55403646,2.70182292 4.30664062,2.98828125 C4.15039062,3.16731771 3.98763021,3.28938802 3.81835938,3.35449219 C3.9453125,3.35449219 4.12760417,3.46354167 4.36523438,3.68164062 C4.72005208,4.01041667 4.89746094,4.45963542 4.89746094,5.02929688 C4.89746094,5.62825521 4.68994141,6.15478516 4.27490234,6.60888672 C3.85986328,7.06298828 3.24544271,7.29003906 2.43164062,7.29003906 C1.42903646,7.29003906 0.732421875,6.96289062 0.341796875,6.30859375 C0.13671875,5.96028646 0.0227864583,5.50455729 0,4.94140625 L1.3671875,4.94140625 C1.3671875,5.22460938 1.41276042,5.45898438 1.50390625,5.64453125 C1.67317708,5.98632812 1.98079427,6.15722656 2.42675781,6.15722656 C2.70019531,6.15722656 2.93863932,6.06363932 3.14208984,5.87646484 C3.34554036,5.68929036 3.44726562,5.41992188 3.44726562,5.06835938 C3.44726562,4.60286458 3.25846354,4.29199219 2.88085938,4.13574219 C2.66601562,4.04785156 2.32747396,4.00390625 1.86523438,4.00390625 L1.86523438,3.0078125 C2.31770833,3.00130208 2.63346354,2.95735677 2.8125,2.87597656 C3.12174479,2.73925781 3.27636719,2.4625651 3.27636719,2.04589844 C3.27636719,1.77571615 3.19742839,1.55598958 3.03955078,1.38671875 C2.88167318,1.21744792 2.65950521,1.1328125 2.37304688,1.1328125 C2.04427083,1.1328125 1.80338542,1.23697917 1.65039062,1.4453125 Z"/>
        </g>
        <g transform="translate(20.570312, 0.078125)">
          <path d="M4.96582031,4.42382812 L4.96582031,5.51269531 L4.16503906,5.51269531 L4.16503906,7.03613281 L2.80273438,7.03613281 L2.80273438,5.51269531 L0,5.51269531 L0,4.296875 L2.60253906,0 L4.16503906,0 L4.16503906,4.42382812 L4.96582031,4.42382812 Z M1.03027344,4.42382812 L2.80273438,4.42382812 L2.80273438,1.3671875 L1.03027344,4.42382812 Z"/>
        </g>
      </g>
    </g>
  </g>
</svg>
