<?xml version="1.0" encoding="UTF-8"?>
<svg width="20px" height="20px" viewBox="0 0 20 20" version="1.1" xmlns="http://www.w3.org/2000/svg">
  <defs>
    <linearGradient id="icon-application-favorites_svg__a" x1="50%" y1="1.89576049%" x2="50%" y2="94.4251638%">
      <stop stop-color="#5C6066" offset="0%"/>
      <stop stop-color="#333740" offset="100%"/>
    </linearGradient>
    <linearGradient x1="50%" y1="1.89576049%" x2="50%" y2="94.4251638%">
      <stop stop-color="#6D83F2" offset="0%"/>
      <stop stop-color="#4965F2" offset="100%"/>
    </linearGradient>
  </defs>
  <g stroke="none" stroke-width="1" fill="none" fill-rule="evenodd">
    <g fill="url(#icon-application-favorites_svg__a)" fill-rule="nonzero">
      <path d="M8.8790799,1.82656859 L6.93,5.775 L2.57298816,6.40821243 C2.30094187,6.44774307 2.04951386,6.57585204 1.8576281,6.77270659 L1.76781039,6.87535826 C1.37925248,7.37120431 1.41882393,8.09057774 1.88022144,8.54032915 L5.033,11.613 L4.28893415,15.9535846 C4.2424631,16.2245316 4.28660644,16.5032417 4.41453028,16.7465673 L4.48440262,16.8637102 C4.83590924,17.3864756 5.53230228,17.5711395 6.10262096,17.2713052 L9.999,15.222 L13.897379,17.2713052 C14.1407046,17.3992291 14.4194147,17.4433724 14.6903618,17.3969013 L14.8152367,17.3689358 C15.4256645,17.199292 15.8204733,16.5914789 15.7110658,15.9535846 L14.966,11.613 L18.1197786,8.54032915 C18.3166331,8.3484434 18.4447421,8.09701538 18.4842727,7.8249691 L18.4962644,7.69756412 C18.5235561,7.06459004 18.0674941,6.50127995 17.4270118,6.40821243 L13.069,5.775 L11.1209201,1.82656859 C10.9992573,1.58005284 10.7997229,1.38051843 10.5532071,1.25885564 C9.93414006,0.953327769 9.18460777,1.20750152 8.8790799,1.82656859 Z"/>
    </g>
  </g>
</svg>
