<?xml version="1.0" encoding="UTF-8"?>
<svg width="48px" height="48px" viewBox="0 0 48 48" version="1.1" xmlns="http://www.w3.org/2000/svg" xmlns:xlink="http://www.w3.org/1999/xlink">
  <g stroke="none" stroke-width="1" fill="none" fill-rule="evenodd">
    <g transform="translate(6.000000, 8.000000)">
      <rect stroke="#D7D9E0" stroke-width="2" fill="#FFFFFF" x="1" y="1" width="34" height="30" rx="4"/>
      <path d="M4,0 L32,0 C34.209139,-4.05812251e-16 36,1.790861 36,4 L36,9.14285714 L36,9.14285714 L0,9.14285714 L0,4 C-2.705415e-16,1.790861 1.790861,4.05812251e-16 4,0 Z" fill="#D7D9E0"/>
      <path d="M7.875,19.8682262 L7.875,17.9332109 L12.1580131,14.8571429 L13.3594644,16.492054 L10.0412919,18.8752047 L13.5,21.1815611 L12.3570626,22.8571429 L7.875,19.8682262 Z M28.125,19.7808221 L23.8422424,22.8571429 L22.6405356,21.2222317 L25.9587081,18.8388284 L22.5,16.532472 L23.643193,14.8571429 L28.125,17.8458068 L28.125,19.7808221 Z M19.125,13.7142857 L21.375,13.7142857 L16.875,24 L14.625,24 L19.125,13.7142857 Z" fill="#8B8FA3" fill-rule="nonzero"/>
    </g>
  </g>
</svg>
