<?xml version="1.0" encoding="UTF-8"?>
<svg width="16px" height="16px" viewBox="0 0 16 16" version="1.1" xmlns="http://www.w3.org/2000/svg" xmlns:xlink="http://www.w3.org/1999/xlink">
    <g stroke="none" stroke-width="1" fill="none" fill-rule="evenodd">
        <path d="M8,3.25 C8.37969577,3.25 8.69349096,3.53215388 8.74315338,3.89822944 L8.75,4 L8.75,7.25 L12,7.25 C12.4142136,7.25 12.75,7.58578644 12.75,8 C12.75,8.37969577 12.4678461,8.69349096 12.1017706,8.74315338 L12,8.75 L8.75,8.75 L8.75,12 C8.75,12.4142136 8.41421356,12.75 8,12.75 C7.62030423,12.75 7.30650904,12.4678461 7.25684662,12.1017706 L7.25,12 L7.25,8.75 L4,8.75 C3.58578644,8.75 3.25,8.41421356 3.25,8 C3.25,7.62030423 3.53215388,7.30650904 3.89822944,7.25684662 L4,7.25 L7.25,7.25 L7.25,4 C7.25,3.58578644 7.58578644,3.25 8,3.25 Z" fill="#8B8FA3" fill-rule="nonzero"></path>
    </g>
</svg>