<svg xmlns="http://www.w3.org/2000/svg" xmlns:xlink="http://www.w3.org/1999/xlink" width="32px" height="32px" viewBox="0 0 32 32" version="1.1">
  <g stroke="none" stroke-width="1" fill="none" fill-rule="evenodd">
    <circle stroke="#D7D9E0" fill="#FFFFFF" cx="16" cy="16" r="15.5"/>
    <g transform="translate(7.000000, 7.000000)" fill-rule="nonzero">
      <path d="M17.82495,7.23735 L17.1,7.23735 L17.1,7.2 L9,7.2 L9,10.8 L14.08635,10.8 C13.3443,12.89565 11.35035,14.4 9,14.4 C6.01785,14.4 3.6,11.98215 3.6,9 C3.6,6.01785 6.01785,3.6 9,3.6 C10.37655,3.6 11.6289,4.1193 12.58245,4.96755 L15.1281,2.4219 C13.5207,0.92385 11.3706,0 9,0 C4.02975,0 0,4.02975 0,9 C0,13.97025 4.02975,18 9,18 C13.97025,18 18,13.97025 18,9 C18,8.39655 17.9379,7.8075 17.82495,7.23735 Z" fill="#FFC107"/>
      <path d="M1.0377,4.81095 L3.99465,6.9795 C4.79475,4.9986 6.73245,3.6 9,3.6 C10.37655,3.6 11.6289,4.1193 12.58245,4.96755 L15.1281,2.4219 C13.5207,0.92385 11.3706,0 9,0 C5.5431,0 2.5452,1.95165 1.0377,4.81095 Z" fill="#FF3D00"/>
      <path d="M9,18 C11.3247,18 13.437,17.11035 15.03405,15.6636 L12.24855,13.3065 C11.34495,13.99095 10.22175,14.4 9,14.4 C6.6591,14.4 4.67145,12.90735 3.92265,10.8243 L0.98775,13.08555 C2.47725,16.0002 5.50215,18 9,18 Z" fill="#4CAF50"/>
      <path d="M17.82495,7.23735 L17.1,7.23735 L17.1,7.2 L9,7.2 L9,10.8 L14.08635,10.8 C13.72995,11.80665 13.0824,12.6747 12.2472,13.30695 C12.24765,13.3065 12.2481,13.3065 12.24855,13.30605 L15.03405,15.66315 C14.83695,15.84225 18,13.5 18,9 C18,8.39655 17.9379,7.8075 17.82495,7.23735 Z" fill="#1976D2"/>
    </g>
  </g>
</svg>
