<?xml version="1.0" encoding="UTF-8"?>
<svg width="16px" height="16px" viewBox="0 0 16 16" version="1.1" xmlns="http://www.w3.org/2000/svg" xmlns:xlink="http://www.w3.org/1999/xlink">
  <g stroke="none" stroke-width="1" fill="none" fill-rule="evenodd">
    <g fill="#8B8FA3">
      <path d="M4.5,5 L4.5,10.9 C4.5,11.7836556 5.2163444,12.5 6.1,12.5 L6.1,12.5 L10,12.5 L10,13 C10,14.1045695 9.1045695,15 8,15 L3,15 C1.8954305,15 1,14.1045695 1,13 L1,7 C1,5.8954305 1.8954305,5 3,5 L4.5,5 Z"/>
      <path d="M13,1 C14.1045695,1 15,1.8954305 15,3 L15,9 C15,10.1045695 14.1045695,11 13,11 L8,11 C6.8954305,11 6,10.1045695 6,9 L6,3 C6,1.8954305 6.8954305,1 8,1 L13,1 Z M10.5,3.5 C10.0857864,3.5 9.75,3.83578644 9.75,4.25 L9.75,4.25 L9.75,5.25 L8.75,5.25 C8.33578644,5.25 8,5.58578644 8,6 C8,6.41421356 8.33578644,6.75 8.75,6.75 L8.75,6.75 L9.75,6.75 L9.75,7.75 C9.75,8.16421356 10.0857864,8.5 10.5,8.5 C10.9142136,8.5 11.25,8.16421356 11.25,7.75 L11.25,7.75 L11.25,6.75 L12.25,6.75 C12.6642136,6.75 13,6.41421356 13,6 C13,5.58578644 12.6642136,5.25 12.25,5.25 L12.25,5.25 L11.25,5.25 L11.25,4.25 C11.25,3.83578644 10.9142136,3.5 10.5,3.5 Z"/>
    </g>
  </g>
</svg>
