<?xml version="1.0" encoding="UTF-8"?>
<svg width="20px" height="20px" viewBox="0 0 20 20" version="1.1" xmlns="http://www.w3.org/2000/svg">
  <defs>
    <linearGradient id="icon-application-query-library-active_svg__a" x1="50%" y1="1.89576049%" x2="50%" y2="94.4251638%">
      <stop stop-color="#6D83F2" offset="0%"/>
      <stop stop-color="#4965F2" offset="100%"/>
    </linearGradient>
  </defs>
  <g stroke="none" stroke-width="1" fill="none" fill-rule="evenodd">
    <g transform="translate(1.999781, 1.500000)" fill="url(#icon-application-query-library-active_svg__a)">
      <path d="M4.61821906,13.5002191 L7,13.5 L7.00021906,13 C7.00021906,12.4477153 7.44793431,12 8.00021906,12 L11.0002191,12 C11.5525038,12 12.0002191,12.4477153 12.0002191,13 L12.0002191,16 C12.0002191,16.5522847 11.5525038,17 11.0002191,17 L8.00021906,17 C7.44793431,17 7.00021906,16.5522847 7.00021906,16 L7,15.5 L4.00021906,15.5002191 L3.87536377,15.4924154 C3.5877683,15.4562841 3.32954209,15.2966915 3.16860862,15.0556167 L3.10579187,14.9474327 L0.101860208,8.93977467 C0.0367672402,8.807055 0.000219056557,8.65779564 0.000219056557,8.5 C0.000219056557,8.43820834 0.00582353834,8.37772568 0.0165519072,8.31903262 C0.0189124177,8.30711623 0.0214101232,8.29487283 0.0241340535,8.28268455 C0.0288440753,8.26038963 0.0344705361,8.23858966 0.0407999637,8.21709079 C0.0451247085,8.20355567 0.0495575716,8.18964759 0.054290942,8.17584202 C0.0605068479,8.1566583 0.0675004813,8.13810608 0.0750201298,8.11982575 C0.0818440311,8.10405581 0.089016915,8.08780033 0.0966207065,8.07173695 C0.137507292,7.98511224 0.190241009,7.90597378 0.252733046,7.83570637 C0.260614825,7.82666497 0.268928982,7.81764312 0.277423976,7.80876245 L0.293112275,7.79289322 C0.301410467,7.78459503 0.309853821,7.776442 0.318438201,7.76843827 C0.334447756,7.75340228 0.351103139,7.73889626 0.368309021,7.72489968 C0.380944683,7.71460802 0.39369259,7.70470731 0.406680977,7.69511347 C0.42123127,7.68450492 0.436290376,7.67404722 0.451705088,7.66396388 L0.460006099,7.65832663 C0.540590864,7.60649759 0.629102738,7.56592555 0.72332022,7.53883199 L0.6603233,7.55965478 C0.70631359,7.54297027 0.75291153,7.52987725 0.79977323,7.52026108 C0.827084451,7.51452711 0.855159232,7.51003084 0.883597931,7.50672773 L1.00021906,7.5 L3.72,7.499 L5.03007656,2.25746437 C5.13209399,1.84939462 5.47669236,1.55297227 5.8868619,1.50640236 L6.00021906,1.5 L8.5,1.5 L8.50021906,1 C8.50021906,0.44771525 8.94793431,1.01453063e-16 9.50021906,0 L12.5002191,0 C13.0525038,-1.01453063e-16 13.5002191,0.44771525 13.5002191,1 L13.5002191,4 C13.5002191,4.55228475 13.0525038,5 12.5002191,5 L9.50021906,5 C8.94793431,5 8.50021906,4.55228475 8.50021906,4 L8.5,3.5 L6.78121906,3.5 L5.781,7.499 L11.0002191,7.5 L11.0002191,7 C11.0002191,6.44771525 11.4479343,6 12.0002191,6 L15.0002191,6 C15.5525038,6 16.0002191,6.44771525 16.0002191,7 L16.0002191,10 C16.0002191,10.5522847 15.5525038,11 15.0002191,11 L12.0002191,11 C11.4479343,11 11.0002191,10.5522847 11.0002191,10 L11.0002191,9.5 L4.50958693,9.5001992 C4.49761586,9.50030306 4.48561476,9.50019059 4.4735885,9.49985888 L2.617,9.499 L4.61821906,13.5002191 Z"/>
    </g>
  </g>
</svg>
