<?xml version="1.0" encoding="UTF-8"?>
<svg width="48px" height="48px" viewBox="0 0 48 48" version="1.1" xmlns="http://www.w3.org/2000/svg" xmlns:xlink="http://www.w3.org/1999/xlink">
  <defs>
    <path d="M8.64139996,5.78718451 C8.47888358,5.60487625 8.24358378,5.5 7.99432552,5.5 C7.7490554,5.5 7.51375561,5.6038961 7.35821845,5.77640284 L4.156651,8.59139917 C4.00211088,8.74724332 3.95724439,8.97267827 4.04298923,9.17360941 C4.12873408,9.37454056 4.32714364,9.5 4.54848499,9.5 L4.83645314,9.5 L4.83645314,12.6541289 C4.83645314,13.1206812 5.21632273,13.5 5.69091045,13.5 L6.88123718,13.5 C7.05372389,13.5 7.20726698,13.3627787 7.20726698,13.1932124 L7.20726697,11.2620972 C7.20726697,11.176824 7.26409785,11.1013522 7.35083973,11.1013522 L8.64139996,11.1013522 C8.72814183,11.1013522 8.79394602,11.1778041 8.79394602,11.2620972 L8.79394602,13.1922323 C8.79394602,13.3627787 8.93851581,13.4990199 9.11100253,13.4990199 L10.3006064,13.4990199 C10.7751941,13.4990199 11.164037,13.1206812 11.164037,12.6531488 L11.164037,9.5 L11.4507836,9.49901985 C11.6711279,9.49901985 11.8695374,9.37356041 11.9552823,9.17360941 C12.0430212,8.97463856 11.9991517,8.74822347 11.8456087,8.59237931 L8.64139996,5.78718451 Z"/>
    <rect id="icon-nav_svg__a" x="27" y="6.5" width="6" height="7" rx="1"/>
    <rect id="icon-nav_svg__b" x="37.5" y="6.5" width="6" height="7" rx="1"/>
  </defs>
  <g stroke="none" stroke-width="1" fill="none" fill-rule="evenodd">
    <g transform="translate(0.000000, 14.000000)">
      <path d="M45,0 C46.6568542,0 48,1.34314575 48,3 L48,17 C48,18.6568542 46.6568542,20 45,20 L3,20 C1.34314575,20 0,18.6568542 0,17 L0,3 C0,1.34314575 1.34314575,0 3,0 L45,0 Z" fill="#FFFFFF" fill-rule="nonzero"/>
      <path d="M45,0 C46.6568542,0 48,1.34314575 48,3 L48,17 C48,18.6568542 46.6568542,20 45,20 L3,20 C1.34314575,20 0,18.6568542 0,17 L0,3 C0,1.34314575 1.34314575,0 3,0 L45,0 Z M45,1.5 L3,1.5 C2.22030388,1.5 1.57955132,2.09488808 1.50686658,2.85553999 L1.5,3 L1.5,17 C1.5,17.7796961 2.09488808,18.4204487 2.85553999,18.4931334 L3,18.5 L45,18.5 C45.7796961,18.5 46.4204487,17.9051119 46.4931334,17.14446 L46.5,17 L46.5,3 C46.5,2.22030388 45.9051119,1.57955132 45.14446,1.50686658 L45,1.5 Z" fill="#D7D9E0" fill-rule="nonzero"/>
      <path d="M22.5,17.25 C23.1903559,17.25 23.75,17.8096441 23.75,18.5 C23.75,19.1472087 23.2581253,19.6795339 22.6278052,19.7435464 L22.5,19.75 L16.5,19.75 C15.8096441,19.75 15.25,19.1903559 15.25,18.5 C15.25,17.8527913 15.7418747,17.3204661 16.3721948,17.2564536 L16.5,17.25 L22.5,17.25 Z" fill="#3377FF" fill-rule="nonzero"/>
      <g fill-rule="nonzero">
        <path fill="#8B8FA3" d="M8.64139996,5.78718451 C8.47888358,5.60487625 8.24358378,5.5 7.99432552,5.5 C7.7490554,5.5 7.51375561,5.6038961 7.35821845,5.77640284 L4.156651,8.59139917 C4.00211088,8.74724332 3.95724439,8.97267827 4.04298923,9.17360941 C4.12873408,9.37454056 4.32714364,9.5 4.54848499,9.5 L4.83645314,9.5 L4.83645314,12.6541289 C4.83645314,13.1206812 5.21632273,13.5 5.69091045,13.5 L6.88123718,13.5 C7.05372389,13.5 7.20726698,13.3627787 7.20726698,13.1932124 L7.20726697,11.2620972 C7.20726697,11.176824 7.26409785,11.1013522 7.35083973,11.1013522 L8.64139996,11.1013522 C8.72814183,11.1013522 8.79394602,11.1778041 8.79394602,11.2620972 L8.79394602,13.1922323 C8.79394602,13.3627787 8.93851581,13.4990199 9.11100253,13.4990199 L10.3006064,13.4990199 C10.7751941,13.4990199 11.164037,13.1206812 11.164037,12.6531488 L11.164037,9.5 L11.4507836,9.49901985 C11.6711279,9.49901985 11.8695374,9.37356041 11.9552823,9.17360941 C12.0430212,8.97463856 11.9991517,8.74822347 11.8456087,8.59237931 L8.64139996,5.78718451 Z"/>
        <path fill="#D7D9E0" d="M8.64139996,5.78718451 C8.47888358,5.60487625 8.24358378,5.5 7.99432552,5.5 C7.7490554,5.5 7.51375561,5.6038961 7.35821845,5.77640284 L4.156651,8.59139917 C4.00211088,8.74724332 3.95724439,8.97267827 4.04298923,9.17360941 C4.12873408,9.37454056 4.32714364,9.5 4.54848499,9.5 L4.83645314,9.5 L4.83645314,12.6541289 C4.83645314,13.1206812 5.21632273,13.5 5.69091045,13.5 L6.88123718,13.5 C7.05372389,13.5 7.20726698,13.3627787 7.20726698,13.1932124 L7.20726697,11.2620972 C7.20726697,11.176824 7.26409785,11.1013522 7.35083973,11.1013522 L8.64139996,11.1013522 C8.72814183,11.1013522 8.79394602,11.1778041 8.79394602,11.2620972 L8.79394602,13.1922323 C8.79394602,13.3627787 8.93851581,13.4990199 9.11100253,13.4990199 L10.3006064,13.4990199 C10.7751941,13.4990199 11.164037,13.1206812 11.164037,12.6531488 L11.164037,9.5 L11.4507836,9.49901985 C11.6711279,9.49901985 11.8695374,9.37356041 11.9552823,9.17360941 C12.0430212,8.97463856 11.9991517,8.74822347 11.8456087,8.59237931 L8.64139996,5.78718451 Z"/>
      </g>
      <rect fill="#3377FF" x="16.5" y="6.5" width="6" height="7" rx="1"/>
      <g>
        <use fill="#8B8FA3" xlink:href="#icon-nav_svg__a"/>
        <use fill="#D7D9E0" xlink:href="#icon-nav_svg__a"/>
      </g>
      <g>
        <use fill="#8B8FA3" xlink:href="#icon-nav_svg__b"/>
        <use fill="#D7D9E0" xlink:href="#icon-nav_svg__b"/>
      </g>
    </g>
  </g>
</svg>
