<?xml version="1.0" encoding="UTF-8"?>
<svg width="20px" height="20px" viewBox="0 0 20 20" version="1.1" xmlns="http://www.w3.org/2000/svg">
  <defs>
    <linearGradient id="icon-application-recycler_svg__a" x1="50%" y1="1.89576049%" x2="50%" y2="94.4251638%">
      <stop stop-color="#5C6066" offset="0%"/>
      <stop stop-color="#333740" offset="100%"/>
    </linearGradient>
    <linearGradient x1="50%" y1="1.89576049%" x2="50%" y2="94.4251638%">
      <stop stop-color="#6D83F2" offset="0%"/>
      <stop stop-color="#4965F2" offset="100%"/>
    </linearGradient>
  </defs>
  <g stroke="none" stroke-width="1" fill="none" fill-rule="evenodd">
    <g transform="translate(2.140625, 2.359375)">
      <path d="M9.890625,0 C10.1009435,0 10.299862,0.0881824777 10.4407107,0.240177365 L10.5060798,0.321379685 L11.043,1.093 L14.96875,1.09375 C15.3484458,1.09375 15.662241,1.37590388 15.7119034,1.74197944 L15.71875,1.84375 C15.71875,2.22344577 15.4365961,2.53724096 15.0705206,2.58690338 L14.96875,2.59375 L14.593,2.593 L14.1190068,13.4978901 C14.0804509,14.3846751 13.3866993,15.0936489 12.5171321,15.1658213 L12.3706585,15.171875 L3.34809147,15.171875 C2.46046878,15.171875 1.72202943,14.509574 1.6121536,13.6439625 L1.5997432,13.4978901 L1.125,2.593 L0.75,2.59375 C0.335786438,2.59375 0,2.25796356 0,1.84375 C0,1.46405423 0.282153882,1.15025904 0.648229443,1.10059662 L0.75,1.09375 L4.968,1.093 L5.65428581,0.27018762 C5.77303046,0.127530075 5.93949523,0.0350048132 6.1205816,0.00812576899 L6.23072322,0 L9.890625,0 Z M5.63442179,5.70406075 C5.22072502,5.72474558 4.90212591,6.07688145 4.92281075,6.49057821 L4.92281075,6.49057821 L5.12256121,10.4855876 L5.13448147,10.5868892 C5.20236287,10.950028 5.52985665,11.2161597 5.90907868,11.1971986 C6.32277544,11.1765138 6.64137456,10.8243779 6.62068972,10.4106811 L6.62068972,10.4106811 L6.42093925,6.41567179 L6.409019,6.31437011 C6.3411376,5.95123131 6.01364382,5.68509964 5.63442179,5.70406075 Z M10.0843282,5.70406075 C9.67063145,5.68337591 9.31849558,6.00197502 9.29781075,6.41567179 L9.29781075,6.41567179 L9.09806028,10.4106811 L9.09981617,10.5126666 C9.13113569,10.8807655 9.43044929,11.1782375 9.80967132,11.1971986 C10.2233681,11.2178834 10.5755039,10.8992843 10.5961888,10.4855876 L10.5961888,10.4855876 L10.7959393,6.49057821 L10.7941834,6.38859273 C10.7628638,6.02049388 10.4635502,5.72302185 10.0843282,5.70406075 Z" fill="url(#icon-application-recycler_svg__a)" fill-rule="nonzero"/>
      <g transform="translate(5.271750, 6.453125)"/>
    </g>
  </g>
</svg>
