<?xml version="1.0" encoding="UTF-8"?>
<svg width="12px" height="12px" viewBox="0 0 12 12" version="1.1" xmlns="http://www.w3.org/2000/svg" xmlns:xlink="http://www.w3.org/1999/xlink">
  <g stroke="none" stroke-width="1" fill="none" fill-rule="evenodd">
    <g stroke="#B8B9BF" stroke-width="1.5">
      <g transform="translate(5.929289, 6.202260) rotate(45.000000) translate(-5.929289, -6.202260) translate(4.529289, 0.952260)">
        <path d="M0.933333333,-3.79316283e-13 L1.86666667,-3.79316283e-13 C2.38213243,-3.79521995e-13 2.8,0.417867567 2.8,0.933333333 L2.8,8.74297979 C2.8,8.99483702 2.69821345,9.23600425 2.51776124,9.41170019 L1.4,10.5 L1.4,10.5 L0.282238759,9.41170019 C0.101786548,9.23600425 -8.85952748e-15,8.99483702 -7.33605886e-15,8.74297979 L-7.33605886e-15,0.933333333 C-7.28816291e-15,0.417867567 0.417867567,-3.79443638e-13 0.933333333,-3.79316283e-13 Z" stroke-linejoin="round"/>
        <line x1="0.35" y1="2.28354492" x2="2.45" y2="2.28354492" stroke-linecap="square"/>
      </g>
    </g>
  </g>
</svg>
