<svg width="48" height="48" viewBox="0 0 150 93" fill="none" xmlns="http://www.w3.org/2000/svg">
  <g clip-path="url(#icon-autoComplete_svg__a)">
    <path d="M148 1.4375H2C1.44772 1.4375 1 1.88522 1 2.4375V30.4375C1 30.9898 1.44772 31.4375 2 31.4375H148C148.552 31.4375 149 30.9898 149 30.4375V2.4375C149 1.88522 148.552 1.4375 148 1.4375Z" fill="white"/>
    <path opacity="0.15" d="M147.5 0.9375H2.5C1.39543 0.9375 0.5 1.83293 0.5 2.9375V29.9375C0.5 31.0421 1.39543 31.9375 2.5 31.9375H147.5C148.605 31.9375 149.5 31.0421 149.5 29.9375V2.9375C149.5 1.83293 148.605 0.9375 147.5 0.9375Z" stroke="black"/>
    <path d="M65 11.4375H9V21.4375H65V11.4375Z" fill="#F5F5F5"/>
    <path d="M147 36.4375H2C0.89543 36.4375 0 37.3329 0 38.4375V90.4375C0 91.5421 0.89543 92.4375 2 92.4375H147C148.105 92.4375 149 91.5421 149 90.4375V38.4375C149 37.3329 148.105 36.4375 147 36.4375Z" fill="#F5F5F5"/>
    <g style="mix-blend-mode:multiply">
      <path d="M65 48.4375H9V56.4375H65V48.4375Z" fill="#F5F5F5"/>
    </g>
    <path d="M149 64.4375H0V88.4375H149V64.4375Z" fill="#BAE7FF"/>
    <path d="M78 72.4375H9V80.4375H78V72.4375Z" fill="#1890FF"/>
  </g>
  <defs>
    <clipPath id="icon-autoComplete_svg__a">
      <rect width="150" height="92" fill="white" transform="translate(0 0.4375)"/>
    </clipPath>
  </defs>
</svg>
