<?xml version="1.0" encoding="UTF-8"?>
<svg width="20px" height="20px" viewBox="0 0 20 20" version="1.1" xmlns="http://www.w3.org/2000/svg">
  <defs>
    <linearGradient x1="50%" y1="3.92377097%" x2="50%" y2="100%" id="icon-application-setting_svg__a">
      <stop stop-color="#5C6066" offset="0%"/>
      <stop stop-color="#333740" offset="100%"/>
    </linearGradient>
  </defs>
  <g stroke="none" stroke-width="1" fill="none" fill-rule="evenodd">
    <rect x="0" y="0" width="20" height="20"/>
    <path d="M10.75,1.9330127 L16.6112159,5.3169873 C17.0753175,5.58493649 17.3612159,6.08012702 17.3612159,6.6160254 L17.3612159,13.3839746 C17.3612159,13.919873 17.0753175,14.4150635 16.6112159,14.6830127 L10.75,18.0669873 C10.2858984,18.3349365 9.71410162,18.3349365 9.25,18.0669873 L3.38878407,14.6830127 C2.92468245,14.4150635 2.63878407,13.919873 2.63878407,13.3839746 L2.63878407,6.6160254 C2.63878407,6.08012702 2.92468245,5.58493649 3.38878407,5.3169873 L9.25,1.9330127 C9.71410162,1.66506351 10.2858984,1.66506351 10.75,1.9330127 Z M10,7.5 C8.61928813,7.5 7.5,8.61928813 7.5,10 C7.5,11.3807119 8.61928813,12.5 10,12.5 C11.3807119,12.5 12.5,11.3807119 12.5,10 C12.5,8.61928813 11.3807119,7.5 10,7.5 Z" fill="url(#icon-application-setting_svg__a)"/>
  </g>
</svg>
