<?xml version="1.0" encoding="UTF-8"?>
<svg width="70px" height="70px" viewBox="0 0 70 70" version="1.1" xmlns="http://www.w3.org/2000/svg" xmlns:xlink="http://www.w3.org/1999/xlink">
  <g stroke="none" stroke-width="1" fill="none" fill-rule="evenodd">
    <g transform="translate(2.001052, 6.500000)">
      <path d="M12.8551953,4.25124478 C13.2214102,7.84400896 12.9880779,11.312344 12.1551983,14.65625 C9.74037122,24.3514749 0.7542194,36.1133977 0.0529788705,45.8783583 C-0.414514816,52.388332 2.21191854,56.5530254 7.93227893,58.3724385 L13.5667774,59.7285374 L23.4339912,60.3752338 L45.3674933,60.3752338 C41.9571782,57.9274284 40.427438,53.8440172 40.7782727,48.125 C41.1024908,42.8398658 43.9884282,33.9702294 49.436085,21.5160907 L49.436442,21.5162468 C50.2967321,19.5475107 49.8031363,17.2492775 48.2103412,15.8073952 C44.1654517,12.1458845 39.4191688,9.15569381 33.9714101,6.83691417 C28.566406,4.5363326 22.7670976,2.60373753 16.5734849,1.03912896 L16.5735455,1.03888853 C14.9670218,0.633613799 13.336137,1.60741849 12.9308623,3.21394219 C12.8454132,3.55266517 12.8197813,3.90370969 12.8551218,4.25125226 Z" fill="#F3F7FE"/>
      <line x1="20.4676983" y1="14.65625" x2="30.7489483" y2="18.375" stroke="#DBE2ED" stroke-width="2.5" stroke-linecap="round"/>
      <line x1="9.9676983" y1="45.59375" x2="15.5451022" y2="47.2799419" stroke="#DBE2ED" stroke-width="2.5" stroke-linecap="round"/>
      <line x1="17.7176983" y1="21.21875" x2="34.1742822" y2="27.1711314" stroke="#DBE2ED" stroke-width="2.5" stroke-linecap="round"/>
      <line x1="12.1551983" y1="39.46875" x2="26.8114483" y2="44.5" stroke="#DBE2ED" stroke-width="2.5" stroke-linecap="round"/>
      <path d="M6.916046,58.0679051 C10.2251124,58.6807575 12.9262338,58.1441085 15.01941,56.4579582 C16.8872223,54.953349 17.898847,52.5796202 18.054284,49.3367716 C18.0819474,48.7851801 18.5514497,48.3603679 19.1030462,48.3879319 C19.1647276,48.3910142 19.2259908,48.3998039 19.2860497,48.4141922 L51.7661107,56.1584549 C52.3031223,56.2874391 52.6338111,56.8273862 52.5047444,57.364378 C52.471932,57.5008968 52.4107385,57.6289757 52.3247189,57.7399485 C50.6399923,59.9275649 45.8089555,61.2434154 37.8316085,61.6875 C28.37971,62.2136702 18.0745225,61.0071386 6.916046,58.0679051 Z" fill="#DBE2ED"/>
    </g>
    <polyline stroke="#DBE2ED" stroke-width="2" stroke-linecap="round" stroke-linejoin="round" transform="translate(63.609785, 6.465901) rotate(-12.000000) translate(-63.609785, -6.465901) " points="60.4268103 3.5 66.3586123 3.5 60.4268103 9.43180204 66.7926958 9.43180204"/>
    <polyline stroke="#DBE2ED" stroke-width="2" stroke-linecap="round" stroke-linejoin="round" transform="translate(53.573190, 13.500000) rotate(-13.000000) translate(-53.573190, -13.500000) " points="51.4268103 11.5 55.4268104 11.5 51.4268103 15.5000001 55.7195265 15.5000001"/>
  </g>
</svg>
