<?xml version="1.0" encoding="UTF-8"?>
<svg width="20px" height="20px" viewBox="0 0 20 20" version="1.1" xmlns="http://www.w3.org/2000/svg" xmlns:xlink="http://www.w3.org/1999/xlink">
  <g stroke="none" stroke-width="1" fill="none" fill-rule="evenodd">
    <g transform="translate(2.000000, 2.000000)">
      <rect fill="#5589F2" x="0" y="0" width="16" height="16" rx="2"/>
      <g transform="translate(3.500000, 4.000000)" fill="#FFFFFF" fill-rule="nonzero" stroke="#FFFFFF" stroke-width="0.8">
        <path d="M4.26666667,4.22380468 L4.00833333,3.55645982 C3.81944444,3.0844354 3.71666667,2.82943371 3.7,2.79145473 L3.3,1.92065107 C3.01666667,1.29671075 2.74444444,0.98474059 2.48333333,0.98474059 C2.08888889,0.98474059 1.77777778,1.34554086 1.55,2.0671414 C1.38333333,2.00746016 1.3,1.92065107 1.3,1.80671414 C1.3,1.47032893 1.5,1.0851136 1.9,0.651068159 C2.3,0.21702272 2.65833333,0 2.975,0 C3.59722222,0 4.24166667,0.873516446 4.90833333,2.62054934 L5.075,3.05188199 L5.26666667,2.75076297 C6.45,0.91692099 7.44722222,0 8.25833333,0 C8.46944444,0 8.71666667,0.0596812479 9,0.179043744 L7.99166667,1.21261445 C7.85833333,1.17463547 7.76388889,1.15564598 7.70833333,1.15564598 C7.09722222,1.15564598 6.36944444,1.84198033 5.525,3.21464903 L5.28333333,3.60528993 L5.475,4.10986775 C6.20833333,6.07934893 6.81111111,7.06408952 7.28333333,7.06408952 C7.71666667,7.06408952 8.04722222,6.76025771 8.275,6.1525941 C8.43055556,6.25025432 8.50833333,6.35062733 8.50833333,6.45371312 C8.50833333,6.72499152 8.28611111,7.0505256 7.84166667,7.43031536 C7.39722222,7.81010512 7.01388889,8 6.69166667,8 C6.04722222,8 5.38888889,7.11291963 4.71666667,5.3387589 L4.48333333,4.73652085 L4.24166667,5.15157681 C3.10833333,7.0505256 2.025,8 0.991666667,8 C0.602777778,8 0.272222222,7.90505256 0,7.71515768 L0.966666667,6.78738555 C1.13333333,6.95015259 1.32777778,7.03153611 1.55,7.03153611 C2.17777778,7.03153611 2.88333333,6.41302136 3.66666667,5.17599186 L4.1,4.4923703 L4.26666667,4.22380468 Z"/>
      </g>
    </g>
  </g>
</svg>
