<?xml version="1.0" encoding="UTF-8"?>
<svg width="16px" height="16px" viewBox="0 0 16 16" version="1.1" xmlns="http://www.w3.org/2000/svg" xmlns:xlink="http://www.w3.org/1999/xlink">
    <g stroke="none" stroke-width="1" fill="none" fill-rule="evenodd">
        <rect x="0" y="0" width="16" height="16"></rect>
        <path d="M7.74084527,11.7792765 L5.33402427,13.2379857 C4.86171414,13.5242401 4.24677608,13.3734122 3.96052167,12.901102 C3.82481879,12.6771969 3.78234076,12.4090012 3.84221136,12.1541202 L4.48577767,9.41433146 C4.52836912,9.23301124 4.4666458,9.04304638 4.32561124,8.92138987 L2.19454775,7.08313301 C1.77635177,6.72239686 1.72977137,6.09094761 2.09050751,5.67275163 C2.26151949,5.47450002 2.50346234,5.35122399 2.76436957,5.32940176 L5.56893642,5.09482841 C5.75454368,5.07930426 5.91613745,4.96189952 5.98825759,4.79017375 L7.07800892,2.19535932 C7.29185972,1.68615771 7.87800951,1.44672857 8.38721112,1.66057937 C8.62860521,1.7619583 8.82061214,1.95396523 8.92199108,2.19535932 L10.0117424,4.79017375 C10.0838626,4.96189952 10.2454563,5.07930426 10.4310636,5.09482841 L13.2356304,5.32940176 C13.7859935,5.37543401 14.1948344,5.85890791 14.1488021,6.40927095 C14.1269799,6.67017819 14.0037039,6.91212103 13.8054523,7.08313301 L11.6743888,8.92138987 C11.5333542,9.04304638 11.4716309,9.23301124 11.5142223,9.41433146 L12.1577886,12.1541202 C12.2840809,12.6917713 11.9506087,13.2300037 11.4129576,13.356296 C11.1580766,13.4161666 10.8898809,13.3736886 10.6659757,13.2379857 L8.25915473,11.7792765 C8.09987044,11.6827386 7.90012956,11.6827386 7.74084527,11.7792765 Z" stroke="#8B8FA3" stroke-width="1.5"></path>
    </g>
</svg>