<svg xmlns="http://www.w3.org/2000/svg" xmlns:xlink="http://www.w3.org/1999/xlink" width="12px" height="12px" viewBox="0 0 12 12" version="1.1">
  <g stroke="none" stroke-width="1" fill="none" fill-rule="evenodd">
    <rect x="0" y="0" width="12" height="12"/>
    <g transform="translate(0.750000, 0.749998)" fill="#8B8FA3" fill-rule="nonzero">
      <path d="M9.75,5.21052784 C10.1296958,5.21052784 10.443491,5.49268172 10.4931534,5.85875728 L10.5,5.96052784 L10.5,7.85526468 C10.5,9.25169582 9.45263866,10.4078903 8.1122099,10.4947627 L7.95,10.5000015 L2.55,10.5000015 C1.18733272,10.5000015 0.0875610967,9.3975159 0.00497905963,8.02163022 L0,7.85526468 L0,5.96052784 C0,5.54631427 0.335786438,5.21052784 0.75,5.21052784 C1.12969577,5.21052784 1.44349096,5.49268172 1.49315338,5.85875728 L1.5,5.96052784 L1.5,7.85526468 C1.5,8.45313947 1.91721768,8.9321743 2.43713243,8.99338839 L2.55,9.00000152 L7.95,9.00000152 C8.48298105,9.00000152 8.93573081,8.56082501 8.99372864,7.98145277 L9,7.85526468 L9,5.96052784 C9,5.54631427 9.33578644,5.21052784 9.75,5.21052784 Z M5.78967168,0.229179497 L5.79364848,0.233333027 L8.04364848,2.60082608 C8.32899661,2.90107485 8.31691726,3.37579493 8.01666849,3.66114306 C7.74371507,3.92055045 7.32657048,3.93415 7.03859555,3.70889745 L6.95635152,3.63416307 L6,2.628 L6,7.38158047 C6,7.79579403 5.66421356,8.13158047 5.25,8.13158047 C4.87030423,8.13158047 4.55650904,7.84942659 4.50684662,7.48335103 L4.5,7.38158047 L4.5,2.627 L3.54364848,3.63416307 C3.25830035,3.93441184 2.78358027,3.94649119 2.48333151,3.66114306 C2.21037808,3.40173566 2.1755812,2.98582253 2.38589658,2.68676448 L2.45635152,2.60082608 L4.70635152,0.233333027 L4.71955926,0.219775264 C4.72408057,0.215256477 4.72867133,0.21078195 4.73333151,0.206353044 L4.74769333,0.193047979 L4.74769333,0.193047979 L4.782,0.164 L4.78859555,0.158598652 L4.79265887,0.155502906 L4.79742237,0.151891384 L4.799,0.15 L4.803,0.147 L4.8556608,0.111860806 L4.8556608,0.111860806 C4.8714095,0.102087055 4.88713148,0.0931492766 4.90309487,0.0848225308 C4.91876531,0.0766425539 4.93488688,0.0689507986 4.95122885,0.061857674 C4.95584641,0.0598618317 4.96085502,0.0577457762 4.96589105,0.0556829181 C4.97437207,0.0520443609 4.99165872,0.04547993 5.00912364,0.0395748487 C5.01969074,0.0359754712 5.03044018,0.0326001077 5.04128822,0.0294660464 C5.04796205,0.0274954869 5.05463334,0.0256670354 5.06134107,0.0239290808 C5.08097079,0.0188947853 5.10202233,0.0143675009 5.12320386,0.0107513519 L5.13806363,0.00829823761 C5.14469359,0.00730609917 5.15135191,0.00640073886 5.15803742,0.00558334959 L5.16969688,0.00427398803 L5.16969688,0.00427398803 L5.2129165,0.000913623245 L5.2129165,0.000913623245 L5.27489165,0.000414556686 L5.27489165,0.000414556686 L5.347,0.006 C5.35482685,0.00726275836 5.35787729,0.00769579038 5.36092176,0.00814711772 C5.38632217,0.0121137977 5.41123973,0.0170655941 5.4356374,0.0232337488 C5.44828824,0.0263758664 5.46072554,0.0298938658 5.47302706,0.0337200365 C5.47828008,0.0353827794 5.48387845,0.0371908909 5.48945954,0.0390667026 C5.50607377,0.0447195068 5.52158399,0.0505309869 5.53663007,0.0567351626 C5.54075001,0.058429032 5.54443654,0.0599924974 5.54810784,0.061584471 C5.55087593,0.0627777711 5.55390153,0.0641088386 5.55691987,0.0654607864 C5.57026162,0.0714409342 5.58321044,0.0777067627 5.59601055,0.0843683594 C5.61191513,0.0926079882 5.62812231,0.101797635 5.64403589,0.11163497 C5.66211987,0.122879613 5.67939428,0.134601608 5.69627038,0.14712672 C5.70112452,0.150665161 5.70628489,0.154594162 5.71140445,0.158598652 L5.74152443,0.183499215 L5.75419247,0.194757699 L5.75419247,0.194757699 L5.77082202,0.210329836 C5.77721569,0.216501549 5.78349997,0.222785833 5.78967168,0.229179497 Z"/>
    </g>
  </g>
</svg>
