<?xml version="1.0" encoding="UTF-8"?>
<svg width="24px" height="24px" viewBox="0 0 24 24" version="1.1" xmlns="http://www.w3.org/2000/svg" xmlns:xlink="http://www.w3.org/1999/xlink">
  <g stroke="none" stroke-width="1" fill="none" fill-rule="evenodd">
    <rect x="0" y="0" width="24" height="24"/>
    <g>
      <path d="M2,0 L11.875,0 L11.875,0 L19,7.20544062 L19,22 C19,23.1045695 18.1045695,24 17,24 L2,24 C0.8954305,24 1.3527075e-16,23.1045695 0,22 L0,2 C-1.3527075e-16,0.8954305 0.8954305,-6.85272294e-16 2,0 Z" fill="#FA9C3F"/>
      <path d="M12,0 L19,7 L13,7 C12.4477153,7 12,6.55228475 12,6 L12,0 L12,0 Z" fill="#EEEEEE"/>
    </g>
    <g transform="translate(4.500000, 12.000000)" fill="#FFFFFF">
      <path d="M0.5,3.5 L8.5,3.5 C8.77614237,3.5 9,3.72385763 9,4 L9,7.5 C9,7.77614237 8.77614237,8 8.5,8 L0.5,8 C0.223857625,8 2.55862292e-16,7.77614237 0,7.5 L0,4 C-3.38176876e-17,3.72385763 0.223857625,3.5 0.5,3.5 Z"/>
      <path d="M0.5,5.68434189e-14 L4.5,5.68434189e-14 C4.77614237,5.67926923e-14 5,0.223857625 5,0.5 L5,2 C5,2.27614237 4.77614237,2.5 4.5,2.5 L0.5,2.5 C0.223857625,2.5 -2.16934637e-17,2.27614237 0,2 L0,0.5 C-3.38176876e-17,0.223857625 0.223857625,5.68941454e-14 0.5,5.68434189e-14 Z"/>
      <path d="M6.5,0 L8.5,0 C8.77614237,-5.07265313e-17 9,0.223857625 9,0.5 L9,2 C9,2.27614237 8.77614237,2.5 8.5,2.5 L6.5,2.5 C6.22385763,2.5 6,2.27614237 6,2 L6,0.5 C6,0.223857625 6.22385763,5.07265313e-17 6.5,0 Z"/>
    </g>
  </g>
</svg>
