<?xml version="1.0" encoding="UTF-8"?>
<svg width="48px" height="48px" viewBox="0 0 48 48" version="1.1" xmlns="http://www.w3.org/2000/svg" xmlns:xlink="http://www.w3.org/1999/xlink">
  <g stroke="none" stroke-width="1" fill="none" fill-rule="evenodd">
    <rect stroke="#D7D9E0" stroke-width="1.5" fill="#FFFFFF" x="0.75" y="3.75" width="46.5" height="40.5" rx="3"/>
    <g transform="translate(5.000000, 8.000000)">
      <rect fill="#EFEFF0" x="0" y="25" width="34" height="3" rx="1"/>
      <rect fill="#EFEFF0" x="0" y="30" width="20" height="3" rx="1"/>
      <rect fill="#EFEFF0" x="0" y="0" width="38" height="22" rx="2"/>
      <g transform="translate(11.000000, 3.500000)" fill="#8B8FA3" fill-rule="nonzero">
        <path d="M10.4581405,7.60380459 L10.8227562,7.25256467 C10.9485221,7.1306471 11.122453,7.06689168 11.3002292,7.07754412 L11.4056452,7.09312813 C12.691643,7.39343343 14.0458894,7.01105066 14.9624342,6.08883908 C15.8789791,5.1666275 16.2199371,3.84332492 15.8579254,2.61332081 C15.8358949,2.54734881 15.7645547,2.5117272 15.6985827,2.5337577 C15.6807718,2.53970543 15.6645164,2.54956079 15.6510063,2.56260236 L14.8583327,3.32778835 L14.8583327,3.32778835 L14.7119903,3.450063 C13.9848899,3.98159572 12.9563324,3.87906456 12.3567621,3.21528344 C11.7571918,2.55150231 11.7908187,1.55255114 12.4337623,0.927848771 L13.1235623,0.260086242 C13.1651789,0.219799264 13.1662567,0.153403352 13.1259697,0.111786823 C13.1120756,0.0974342355 13.0943716,0.0873481843 13.0749403,0.0827151935 L13.0749403,0.0827151935 L13.0749403,0.0827151935 C12.9012791,0.0462032623 12.7251346,0.021765684 12.5478597,0.00959016584 L12.2774984,0 C11.0014183,0 9.81434725,0.632066605 9.132494,1.67468003 C8.45064074,2.71729346 8.36914664,4.02493861 8.91658502,5.13913136 C9.02969898,5.36842124 8.98099992,5.64173093 8.79504646,5.82123208 L1.19516551,13.1649034 C1.10201386,13.2548439 1.0496731,13.3768896 1.0496731,13.5041556 C1.0496731,13.6314215 1.10201386,13.7534672 1.19516551,13.8434078 L2.24808636,14.8599656 C2.44171837,15.0466781 2.75516138,15.0466781 2.94879339,14.8599656 L10.4506994,7.60979844 L10.4581405,7.60380459 Z"/>
        <path d="M8.96453879,12.1083863 L10.9318929,14.0100369 L10.9318929,14.0100369 C11.5562328,14.6136199 12.5335238,14.7097882 13.2708902,14.240201 L13.4221933,14.1335104 L13.5623347,14.0100369 C14.2365563,13.3582344 14.2917225,12.3191974 13.6900742,11.6041035 L13.5623347,11.4674436 L11.5488956,9.52034434 C11.1806379,9.16422019 10.5963357,9.1642213 10.2280793,9.52034686 L8.96437791,10.7424205 C8.58721984,11.1071546 8.57714819,11.708577 8.94188225,12.0857351 C8.94930657,12.0934123 8.95685982,12.1009638 8.96453879,12.1083863 Z"/>
        <path d="M2.15071848,1.0456667 L0.151331022,2.97952375 C-0.021682441,3.14613246 -0.0496226975,3.40737462 0.0844704821,3.60467162 L0.151331022,3.68297046 L1.78812861,5.26386132 C1.95997482,5.43083954 2.22945816,5.45834078 2.43359003,5.32973177 L2.51330837,5.266347 L2.69331752,5.08986391 C2.91255662,4.87528756 3.25953716,4.84384451 3.51621654,5.01529357 L3.60622114,5.08862106 L5.46815214,6.88936818 C5.72190752,7.13478504 6.12453879,7.13484085 6.3783622,6.88949436 C6.62141552,6.65455826 6.62799583,6.26707127 6.39305973,6.02401795 C6.38828341,6.01907661 6.38342421,6.01421606 6.37848419,6.00943837 L4.51655317,4.20869124 L4.51655317,4.20869124 C4.32658729,4.0255103 4.27430309,3.7475509 4.38540363,3.51145873 L4.44197794,3.41700298 L4.51526739,3.33000427 C4.68718834,3.16327284 4.71456032,2.90284465 4.58084215,2.70609924 L4.51526739,2.6278004 L2.8784698,1.0456667 C2.70545808,0.879228518 2.4352461,0.853265525 2.2317226,0.983524776 L2.15071848,1.0456667 Z"/>
      </g>
    </g>
  </g>
</svg>
