<?xml version="1.0" encoding="UTF-8"?>
<svg width="16px" height="16px" viewBox="0 0 16 16" version="1.1" xmlns="http://www.w3.org/2000/svg" xmlns:xlink="http://www.w3.org/1999/xlink">
    <g stroke="none" stroke-width="1" fill="none" fill-rule="evenodd">
        <rect x="0" y="0" width="16" height="16"></rect>
        <path d="M14,8.14389813 C14,9.42811303 13.6183969,10.5829896 12.8551908,11.6085279 C12.0919847,12.6340662 11.1064823,13.3439534 9.89868357,13.7381897 C9.75804034,13.76373 9.65505751,13.7457208 9.58973506,13.6841623 C9.52441261,13.6226038 9.49175139,13.5459832 9.49175139,13.4543003 L9.49175139,11.835443 C9.49175139,11.3390458 9.35644061,10.9759161 9.08581905,10.7460541 C9.38243627,10.7152749 9.64939178,10.669106 9.88668557,10.6075475 C10.1239794,10.545989 10.3686053,10.4461202 10.6205633,10.307941 C10.8725213,10.1697619 11.0834861,9.9994937 11.2534578,9.79713652 C11.4234295,9.59477934 11.5614065,9.32627954 11.6673888,8.99163711 C11.7733711,8.65699468 11.8266956,8.27192668 11.8273621,7.83643309 C11.8273621,7.21757379 11.6217297,6.69072478 11.2104649,6.25588608 C11.4030995,5.79026814 11.3824363,5.26833072 11.1484753,4.69007382 C11.0024996,4.64423239 10.7915348,4.67239213 10.5155808,4.77455303 C10.2396267,4.87671394 10,4.98935288 9.79670057,5.11246986 L9.49975006,5.29616301 C9.01516416,5.16322287 8.51524748,5.09675279 8,5.09675279 C7.48475256,5.09675279 6.98483588,5.16322287 6.50024998,5.29616301 C6.41693054,5.23984354 6.30628231,5.17075396 6.1683053,5.08889426 C6.03032829,5.00703457 5.81303118,4.90847549 5.51641395,4.79321704 C5.21979672,4.67795859 4.99583405,4.64357752 4.84452593,4.69007382 C4.61523082,5.26833072 4.59690054,5.79026814 4.7895351,6.25588608 C4.37827031,6.69072478 4.17263792,7.21757379 4.17263792,7.83643309 C4.17263792,8.27127179 4.22596236,8.65503004 4.33261125,8.98770785 C4.43926014,9.32038566 4.57590403,9.58888546 4.74254292,9.79320726 C4.90918181,9.99752906 5.11881354,10.1687795 5.3714381,10.3069587 C5.62406267,10.4451379 5.86868856,10.5450067 6.10531579,10.6065652 C6.34194301,10.6681237 6.60889852,10.7142925 6.90618231,10.7450718 C6.69821698,10.9290924 6.57057159,11.1926806 6.52324614,11.5358365 C6.41393102,11.5869169 6.29661724,11.6252272 6.17130479,11.6507675 C6.04599235,11.6763077 5.89768373,11.6890778 5.72637895,11.6890778 C5.55507418,11.6890778 5.38443595,11.6340681 5.21446427,11.5240487 C5.0444926,11.4140292 4.89985004,11.2542391 4.7805366,11.0446783 C4.68188637,10.8809589 4.55557409,10.7480187 4.40159975,10.6458578 C4.24762542,10.5436969 4.11864691,10.4824659 4.01466424,10.4621647 L3.85869023,10.4395714 C3.74937511,10.4395714 3.67372106,10.4510318 3.63172805,10.4739525 C3.58973505,10.4968732 3.57673722,10.5263427 3.59273456,10.5623609 C3.6087319,10.5983792 3.63206134,10.63407 3.66272289,10.6694334 C3.69338445,10.7047968 3.72737878,10.7355761 3.76470589,10.7617712 L3.81969672,10.8000815 C3.93434428,10.8511619 4.04765872,10.9484113 4.15964006,11.0918295 C4.2716214,11.2352476 4.35360773,11.3655683 4.40559907,11.4827914 L4.48358607,11.6596083 C4.55157473,11.8541069 4.66622229,12.0112776 4.82752875,12.1311201 C4.9888352,12.2509627 5.16313948,12.3275834 5.35044159,12.3609822 C5.5377437,12.3943809 5.71871353,12.4123901 5.8933511,12.4150096 C6.06798866,12.4176291 6.21263122,12.4087882 6.32727877,12.388487 L6.50724877,12.3580352 C6.50724877,12.5525339 6.50858188,12.7801038 6.5112481,13.0407451 C6.51391432,13.3013864 6.51524743,13.4395655 6.51524743,13.4552826 C6.51524743,13.5476203 6.4812531,13.624241 6.41326443,13.6851446 C6.34527577,13.7460482 6.2412931,13.7640574 6.10131643,13.739172 C4.89351774,13.3449357 3.90801532,12.6350484 3.14480919,11.6095102 C2.38160305,10.5839719 2,9.42909533 2,8.14488042 C2,7.07546535 2.26828862,6.08921973 2.80486585,5.18614357 C3.34144309,4.2830674 4.06932177,3.5679411 4.9885019,3.04076466 C5.90768204,2.51358822 6.91151473,2.25 8,2.25 C9.08848523,2.25 10.0923179,2.51358822 11.0114981,3.04076466 C11.9306782,3.5679411 12.6585569,4.2830674 13.1951341,5.18614357 C13.7317113,6.08921973 14,7.07546535 14,8.14488042 L14,8.14389813 Z" fill="#222222" fill-rule="nonzero"></path>
    </g>
</svg>