<?xml version="1.0" encoding="UTF-8"?>
<svg width="48px" height="48px" viewBox="0 0 48 48" version="1.1" xmlns="http://www.w3.org/2000/svg" xmlns:xlink="http://www.w3.org/1999/xlink">
  <g stroke="none" stroke-width="1" fill="none" fill-rule="evenodd">
    <g transform="translate(2.000000, 26.000000)">
      <g>
        <rect stroke="#D7D9E0" fill="#FFFFFF" x="0.5" y="0.5" width="11" height="11" rx="3"/>
        <path d="M9.78203295,3.21305801 C10.0503001,3.47528325 10.070936,3.8879016 9.84394075,4.17326425 L9.78203295,4.24179307 L5.13087016,8.78820269 C5.01909219,8.89746321 4.88060271,8.96470045 4.73594903,8.98991441 L4.6485815,9 L4.56072083,9 C4.41442337,8.99159534 4.27018063,8.94116741 4.14853995,8.84871621 L4.07843216,8.78820269 L2.21796705,6.96963884 C1.92734432,6.6855615 1.92734432,6.22498112 2.21796705,5.94090378 C2.48623418,5.67867854 2.90835962,5.65850737 3.20029726,5.88039026 L3.27040505,5.94090378 L4.60465116,7.24452802 L8.72959495,3.21305801 C9.02021768,2.92898066 9.49141022,2.92898066 9.78203295,3.21305801 Z" fill="#3377FF"/>
      </g>
      <rect fill="#D7D9E0" x="15" y="2" width="29" height="8" rx="2"/>
    </g>
    <g transform="translate(2.000000, 10.000000)">
      <g>
        <rect stroke="#D7D9E0" fill="#FFFFFF" x="0.5" y="0.5" width="11" height="11" rx="3"/>
        <path d="M9.78203295,3.21305801 C10.0503001,3.47528325 10.070936,3.8879016 9.84394075,4.17326425 L9.78203295,4.24179307 L5.13087016,8.78820269 C5.01909219,8.89746321 4.88060271,8.96470045 4.73594903,8.98991441 L4.6485815,9 L4.56072083,9 C4.41442337,8.99159534 4.27018063,8.94116741 4.14853995,8.84871621 L4.07843216,8.78820269 L2.21796705,6.96963884 C1.92734432,6.6855615 1.92734432,6.22498112 2.21796705,5.94090378 C2.48623418,5.67867854 2.90835962,5.65850737 3.20029726,5.88039026 L3.27040505,5.94090378 L4.60465116,7.24452802 L8.72959495,3.21305801 C9.02021768,2.92898066 9.49141022,2.92898066 9.78203295,3.21305801 Z" fill="#3377FF"/>
      </g>
      <rect fill="#D7D9E0" x="15" y="2" width="29" height="8" rx="2"/>
    </g>
  </g>
</svg>
