<svg width="48" height="48" viewBox="0 0 104 76" fill="none" xmlns="http://www.w3.org/2000/svg">
  <g clip-path="url(#icon-checkbox_svg__a)">
    <path d="M14 0.4375H2C1.44772 0.4375 1 0.885215 1 1.4375V13.4375C1 13.9898 1.44772 14.4375 2 14.4375H14C14.5523 14.4375 15 13.9898 15 13.4375V1.4375C15 0.885215 14.5523 0.4375 14 0.4375Z" fill="#1890FF"/>
    <path fill-rule="evenodd" clip-rule="evenodd" d="M11.9064 4.29297H11.2238C11.1281 4.29297 11.0373 4.33691 10.9787 4.41211L6.95231 9.5127L5.02164 7.06641C4.96207 6.99121 4.87223 6.94727 4.77653 6.94727H4.09391C4.02848 6.94727 3.99235 7.02246 4.03238 7.07324L6.70719 10.4619C6.83219 10.6201 7.07242 10.6201 7.1984 10.4619L11.9679 4.41797C12.008 4.36816 11.9718 4.29297 11.9064 4.29297Z" fill="white" stroke="white" stroke-width="0.833333"/>
    <path d="M14 30.4375H2C1.44772 30.4375 1 30.8852 1 31.4375V43.4375C1 43.9898 1.44772 44.4375 2 44.4375H14C14.5523 44.4375 15 43.9898 15 43.4375V31.4375C15 30.8852 14.5523 30.4375 14 30.4375Z" fill="white" stroke="#D9D9D9"/>
    <path d="M14 60.4375H2C1.44772 60.4375 1 60.8852 1 61.4375V73.4375C1 73.9898 1.44772 74.4375 2 74.4375H14C14.5523 74.4375 15 73.9898 15 73.4375V61.4375C15 60.8852 14.5523 60.4375 14 60.4375Z" fill="#F5F5F5" stroke="#D9D9D9"/>
    <path d="M104 30.4375H24V44.4375H104V30.4375Z" fill="#EBEBEB"/>
    <path d="M104 0.4375H24V14.4375H104V0.4375Z" fill="#EBEBEB"/>
    <path d="M104 60.4375H24V74.4375H104V60.4375Z" fill="#EBEBEB"/>
  </g>
  <defs>
    <clipPath id="icon-checkbox_svg__a">
      <rect width="104" height="75" fill="white" transform="translate(0 0.4375)"/>
    </clipPath>
  </defs>
</svg>
