<?xml version="1.0" encoding="UTF-8"?>
<svg width="26px" height="13px" viewBox="0 0 26 13" version="1.1" xmlns="http://www.w3.org/2000/svg" xmlns:xlink="http://www.w3.org/1999/xlink">
    <title>icon-query-trace</title>
    <g stroke="none" stroke-width="1" fill="none" fill-rule="evenodd">
        <g transform="translate(-120.000000, -1116.000000)">
            <g transform="translate(104.000000, 52.000000)">
                <g transform="translate(8.000000, 40.000000)">
                    <g transform="translate(8.000000, 810.000000)">
                        <g transform="translate(0.000000, 210.000000)">
                            <g transform="translate(0.000000, 4.000000)">
                                <rect stroke="#8B8FA3" x="0.5" y="0.5" width="25" height="12" rx="2"></rect>
                                <g transform="translate(1.858398, 4.131836)" fill="#8B8FA3" fill-rule="nonzero">
                                    <polygon points="0 0.0732421875 4.03417969 0.0732421875 4.03417969 1.13378906 2.68066406 1.13378906 2.68066406 4.36816406 1.35351562 4.36816406 1.35351562 1.13378906 0 1.13378906"></polygon>
                                    <path d="M4.65234375,4.36816406 L4.65234375,0.0732421875 L6.86425781,0.0732421875 C7.27441406,0.0732421875 7.58789062,0.108398438 7.8046875,0.178710938 C8.02148438,0.249023438 8.19628906,0.379394531 8.32910156,0.569824219 C8.46191406,0.760253906 8.52832031,0.9921875 8.52832031,1.265625 C8.52832031,1.50390625 8.47753906,1.70947266 8.37597656,1.88232422 C8.27441406,2.05517578 8.13476562,2.1953125 7.95703125,2.30273438 C7.84375,2.37109375 7.68847656,2.42773438 7.49121094,2.47265625 C7.64941406,2.52539062 7.76464844,2.578125 7.83691406,2.63085938 C7.88574219,2.66601562 7.95654297,2.74121094 8.04931641,2.85644531 C8.14208984,2.97167969 8.20410156,3.06054688 8.23535156,3.12304688 L8.87695312,4.36816406 L7.37695312,4.36816406 L6.66796875,3.05566406 C6.578125,2.88574219 6.49804688,2.77539062 6.42773438,2.72460938 C6.33203125,2.65820312 6.22363281,2.625 6.10253906,2.625 L5.98535156,2.625 L5.98535156,4.36816406 L4.65234375,4.36816406 Z M5.98535156,1.81347656 L6.54492188,1.81347656 C6.60546875,1.81347656 6.72265625,1.79394531 6.89648438,1.75488281 C6.984375,1.73730469 7.05615234,1.69238281 7.11181641,1.62011719 C7.16748047,1.54785156 7.1953125,1.46484375 7.1953125,1.37109375 C7.1953125,1.23242188 7.15136719,1.12597656 7.06347656,1.05175781 C6.97558594,0.977539062 6.81054688,0.940429688 6.56835938,0.940429688 L5.98535156,0.940429688 L5.98535156,1.81347656 Z"></path>
                                    <path d="M11.9443359,3.65917969 L10.4326172,3.65917969 L10.2246094,4.36816406 L8.86816406,4.36816406 L10.4824219,0.0732421875 L11.9296875,0.0732421875 L13.5439453,4.36816406 L12.1552734,4.36816406 L11.9443359,3.65917969 Z M11.6660156,2.73046875 L11.1914062,1.18652344 L10.7197266,2.73046875 L11.6660156,2.73046875 Z"></path>
                                    <path d="M16.7197266,2.61328125 L17.8828125,2.96484375 C17.8046875,3.29101562 17.6816406,3.56347656 17.5136719,3.78222656 C17.3457031,4.00097656 17.137207,4.16601562 16.8881836,4.27734375 C16.6391602,4.38867188 16.3222656,4.44433594 15.9375,4.44433594 C15.4707031,4.44433594 15.0893555,4.37646484 14.793457,4.24072266 C14.4975586,4.10498047 14.2421875,3.86621094 14.0273438,3.52441406 C13.8125,3.18261719 13.7050781,2.74511719 13.7050781,2.21191406 C13.7050781,1.50097656 13.894043,0.954589844 14.2719727,0.572753906 C14.6499023,0.190917969 15.1845703,0 15.8759766,0 C16.4169922,0 16.8422852,0.109375 17.1518555,0.328125 C17.4614258,0.546875 17.6914062,0.8828125 17.8417969,1.3359375 L16.6699219,1.59667969 C16.6289062,1.46582031 16.5859375,1.37011719 16.5410156,1.30957031 C16.4667969,1.20800781 16.3759766,1.12988281 16.2685547,1.07519531 C16.1611328,1.02050781 16.0410156,0.993164062 15.9082031,0.993164062 C15.6074219,0.993164062 15.3769531,1.11425781 15.2167969,1.35644531 C15.0957031,1.53613281 15.0351562,1.81835938 15.0351562,2.203125 C15.0351562,2.6796875 15.1074219,3.00634766 15.2519531,3.18310547 C15.3964844,3.35986328 15.5996094,3.44824219 15.8613281,3.44824219 C16.1152344,3.44824219 16.3071289,3.37695312 16.4370117,3.234375 C16.5668945,3.09179688 16.6611328,2.88476562 16.7197266,2.61328125 Z"></path>
                                    <polygon points="18.5244141 0.0732421875 22.0810547 0.0732421875 22.0810547 0.990234375 19.8544922 0.990234375 19.8544922 1.67285156 21.9199219 1.67285156 21.9199219 2.54882813 19.8544922 2.54882813 19.8544922 3.39550781 22.1455078 3.39550781 22.1455078 4.36816406 18.5244141 4.36816406"></polygon>
                                </g>
                            </g>
                        </g>
                    </g>
                </g>
            </g>
        </g>
    </g>
</svg>