<?xml version="1.0" encoding="UTF-8"?>
<svg width="12px" height="12px" viewBox="0 0 12 12" version="1.1" xmlns="http://www.w3.org/2000/svg" xmlns:xlink="http://www.w3.org/1999/xlink">
    <g stroke="none" stroke-width="1" fill="none" fill-rule="evenodd">
        <g stroke="#B8B9BF" transform="translate(1.000000, 0.500000)">
            <path d="M7.921875,0.5 C8.28862659,0.5 8.62065784,0.648655454 8.86100119,0.888998806 C9.10134455,1.12934216 9.25,1.46137341 9.25,1.828125 L9.25,1.828125 L9.25,9 C9.25,9.41421356 9.08210678,9.78921356 8.81066017,10.0606602 C8.53921356,10.3321068 8.16421356,10.5 7.75,10.5 L7.75,10.5 L2,10.5 C1.58578644,10.5 1.21078644,10.3321068 0.939339828,10.0606602 C0.667893219,9.78921356 0.5,9.41421356 0.5,9 L0.5,9 L0.5,2 C0.5,1.58578644 0.667893219,1.21078644 0.939339828,0.939339828 C1.21078644,0.667893219 1.58578644,0.5 2,0.5 L2,0.5 Z"></path>
            <line x1="2.625" y1="3.5" x2="4.625" y2="3.5" stroke-linecap="round"></line>
            <line x1="2.625" y1="5.5" x2="6.625" y2="5.5" stroke-linecap="round"></line>
            <line x1="2.625" y1="7.5" x2="6.625" y2="7.5" stroke-linecap="round"></line>
        </g>
    </g>
</svg>