<?xml version="1.0" encoding="UTF-8"?>
<svg width="48px" height="48px" viewBox="0 0 48 48" version="1.1" xmlns="http://www.w3.org/2000/svg" xmlns:xlink="http://www.w3.org/1999/xlink">
  <g stroke="none" stroke-width="1" fill="none" fill-rule="evenodd">
    <g transform="translate(0.000000, 15.500000)">
      <rect fill="#EFEFF0" x="0" y="0" width="48" height="17" rx="3"/>
      <g transform="translate(30.000000, 2.000000)">
        <rect fill="#FFFFFF" x="0" y="0" width="16" height="13" rx="2"/>
        <g transform="translate(6.210938, 3.308594)" fill="#8B8FA3" fill-rule="nonzero">
          <path d="M1.3203125,1.15625 C1.1953125,1.32291667 1.13541667,1.54557292 1.140625,1.82421875 L0.1015625,1.82421875 C0.111979167,1.54296875 0.16015625,1.27604167 0.24609375,1.0234375 C0.337239583,0.802083333 0.48046875,0.59765625 0.67578125,0.41015625 C0.821614583,0.27734375 0.994791667,0.17578125 1.1953125,0.10546875 C1.39583333,0.03515625 1.64192708,0 1.93359375,0 C2.47526042,0 2.91210938,0.139973958 3.24414062,0.419921875 C3.57617188,0.699869792 3.7421875,1.07552083 3.7421875,1.546875 C3.7421875,1.88020833 3.64322917,2.16145833 3.4453125,2.390625 C3.3203125,2.53385417 3.19010417,2.63151042 3.0546875,2.68359375 C3.15625,2.68359375 3.30208333,2.77083333 3.4921875,2.9453125 C3.77604167,3.20833333 3.91796875,3.56770833 3.91796875,4.0234375 C3.91796875,4.50260417 3.75195312,4.92382812 3.41992188,5.28710938 C3.08789062,5.65039062 2.59635417,5.83203125 1.9453125,5.83203125 C1.14322917,5.83203125 0.5859375,5.5703125 0.2734375,5.046875 C0.109375,4.76822917 0.0182291667,4.40364583 0,3.953125 L1.09375,3.953125 C1.09375,4.1796875 1.13020833,4.3671875 1.203125,4.515625 C1.33854167,4.7890625 1.58463542,4.92578125 1.94140625,4.92578125 C2.16015625,4.92578125 2.35091146,4.85091146 2.51367188,4.70117188 C2.67643229,4.55143229 2.7578125,4.3359375 2.7578125,4.0546875 C2.7578125,3.68229167 2.60677083,3.43359375 2.3046875,3.30859375 C2.1328125,3.23828125 1.86197917,3.203125 1.4921875,3.203125 L1.4921875,2.40625 C1.85416667,2.40104167 2.10677083,2.36588542 2.25,2.30078125 C2.49739583,2.19140625 2.62109375,1.97005208 2.62109375,1.63671875 C2.62109375,1.42057292 2.55794271,1.24479167 2.43164062,1.109375 C2.30533854,0.973958333 2.12760417,0.90625 1.8984375,0.90625 C1.63541667,0.90625 1.44270833,0.989583333 1.3203125,1.15625 Z"/>
        </g>
      </g>
      <g transform="translate(17.000000, 2.000000)">
        <rect x="0" y="0" width="14" height="13" rx="2"/>
        <g transform="translate(3.250000, 3.308594)" fill="#8B8FA3" fill-rule="nonzero">
          <path d="M2.53125,1.1796875 C2.3984375,1.02083333 2.20833333,0.94140625 1.9609375,0.94140625 C1.62239583,0.94140625 1.39192708,1.06770833 1.26953125,1.3203125 C1.19921875,1.46614583 1.15755208,1.69791667 1.14453125,2.015625 L0.0625,2.015625 C0.0807291667,1.53385417 0.16796875,1.14453125 0.32421875,0.84765625 C0.62109375,0.282552083 1.1484375,0 1.90625,0 C2.50520833,0 2.98177083,0.166015625 3.3359375,0.498046875 C3.69010417,0.830078125 3.8671875,1.26953125 3.8671875,1.81640625 C3.8671875,2.23567708 3.7421875,2.60807292 3.4921875,2.93359375 C3.328125,3.14973958 3.05859375,3.390625 2.68359375,3.65625 L2.23828125,3.97265625 C1.95963542,4.17057292 1.76888021,4.31380208 1.66601562,4.40234375 C1.56315104,4.49088542 1.4765625,4.59375 1.40625,4.7109375 L3.87890625,4.7109375 L3.87890625,5.69140625 L0,5.69140625 C0.0104166667,5.28515625 0.09765625,4.9140625 0.26171875,4.578125 C0.420572917,4.20052083 0.795572917,3.80078125 1.38671875,3.37890625 C1.89973958,3.01171875 2.23177083,2.74869792 2.3828125,2.58984375 C2.61458333,2.34244792 2.73046875,2.07161458 2.73046875,1.77734375 C2.73046875,1.53776042 2.6640625,1.33854167 2.53125,1.1796875 Z"/>
        </g>
      </g>
      <g transform="translate(2.000000, 2.000000)">
        <rect x="0" y="0" width="14" height="13" rx="2"/>
        <g transform="translate(3.554688, 3.335938)" fill="#8B8FA3" fill-rule="nonzero">
          <path d="M2.47265625,5.6640625 L1.33203125,5.6640625 L1.33203125,1.7578125 L0,1.7578125 L0,1 C0.3515625,0.984375 0.59765625,0.9609375 0.73828125,0.9296875 C0.962239583,0.880208333 1.14453125,0.78125 1.28515625,0.6328125 C1.38151042,0.53125 1.45442708,0.395833333 1.50390625,0.2265625 C1.53255208,0.125 1.546875,0.0494791667 1.546875,0 L2.47265625,0 L2.47265625,5.6640625 Z"/>
        </g>
      </g>
    </g>
  </g>
</svg>
