<svg xmlns="http://www.w3.org/2000/svg" xmlns:xlink="http://www.w3.org/1999/xlink" width="20px" height="20px" viewBox="0 0 20 20" version="1.1">
  <g stroke="none" stroke-width="1" fill="none" fill-rule="evenodd">
    <g transform="translate(10.000000, 10.000000) rotate(90.000000) translate(-10.000000, -10.000000) translate(3.000000, 3.000000)" fill-rule="nonzero" stroke="#8B8FA3" stroke-width="1.5">
      <path d="M13.6811716,8.3125 L12.4945096,7.4125 C12.5070008,7.2875 12.519492,7.15 12.519492,7 C12.519492,6.85 12.5070008,6.7125 12.4945096,6.5875 L13.6811716,5.6875 C14.0059423,5.4375 14.0933805,5 13.8810305,4.625 L12.5569655,2.3875 C12.4070714,2.125 12.1197743,1.9625 11.819986,1.9625 C11.7200565,1.9625 11.6326183,1.975 11.5326889,2.0125 L10.1211857,2.5625 C9.88385326,2.4 9.63402969,2.2625 9.38420611,2.15 L9.17185607,0.7125 C9.10940018,0.3 8.75964718,1.06331506e-13 8.3349471,1.06331506e-13 L5.66183485,1.06331506e-13 C5.23713477,1.06331506e-13 4.88738176,0.3 4.82492587,0.7 L4.62506701,2.15 C4.37524344,2.2625 4.13791104,2.4 3.88808746,2.5625 L2.47658427,2.0125 C2.37665484,1.975 2.27672541,1.9625 2.17679598,1.9625 C1.87700769,1.9625 1.58971057,2.1125 1.45230761,2.375 L0.115751481,4.625 C-0.0965985574,4.975 -0.00916030618,5.4375 0.315610341,5.6875 L1.50227232,6.5875 C1.48978114,6.7375 1.47728997,6.875 1.47728997,7 C1.47728997,7.125 1.47728997,7.2625 1.50227232,7.4125 L0.315610341,8.3125 C-0.00916030618,8.5625 -0.0965985574,9 0.115751481,9.375 L1.43981643,11.6125 C1.58971057,11.875 1.87700769,12.0375 2.17679598,12.0375 C2.27672541,12.0375 2.36416366,12.025 2.46409309,11.9875 L3.87559629,11.4375 C4.11292868,11.6 4.36275226,11.7375 4.61257583,11.85 L4.82492587,13.2875 C4.87489059,13.6875 5.23713477,14 5.66183485,14 L8.3349471,14 C8.75964718,14 9.10940018,13.7 9.17185607,13.3 L9.38420611,11.85 C9.63402969,11.7375 9.87136208,11.6 10.1211857,11.4375 L11.5326889,11.9875 C11.6326183,12.025 11.7325477,12.0375 11.8324771,12.0375 C12.1322654,12.0375 12.4195625,11.8875 12.5569655,11.625 L13.8935216,9.3625 C14.0933805,9 14.0059423,8.5625 13.6811716,8.3125 L13.6811716,8.3125 Z M8.995766,7.0007061 C8.995766,8.10031774 8.09671865,9 6.997883,9 C5.89904735,9 5,8.10031774 5,7.0007061 C5,5.90109445 5.89904735,5.0014122 6.997883,5.0014122 C8.09671865,5.0014122 8.995766,5.90109445 8.995766,7.0007061 Z"/>
    </g>
  </g>
</svg>
