<?xml version="1.0" encoding="UTF-8"?>
<svg width="16px" height="16px" viewBox="0 0 16 16" version="1.1" xmlns="http://www.w3.org/2000/svg" xmlns:xlink="http://www.w3.org/1999/xlink">
    <g stroke="none" stroke-width="1" fill="none" fill-rule="evenodd">
        <path d="M8.74103767,0.182079009 L14.4910377,3.44926185 C14.960183,3.71583289 15.25,4.21384325 15.25,4.75343331 L15.25,11.2465667 C15.25,11.7861568 14.960183,12.2841671 14.4910377,12.5507381 L8.74103767,15.817921 C8.28151267,16.0790257 7.71848733,16.0790257 7.25896233,15.817921 L1.50896233,12.5507381 C1.03981703,12.2841671 0.75,11.7861568 0.75,11.2465667 L0.75,4.75343331 C0.75,4.21384325 1.03981703,3.71583289 1.50896233,3.44926185 L7.25896233,0.182079009 C7.71848733,-0.0790257229 8.28151267,-0.0790257229 8.74103767,0.182079009 Z M8.09675315,5.52053856 C6.65191085,5.52053856 5.48063474,6.67326302 5.48063474,8.09522069 C5.48063474,9.51717837 6.65191085,10.6699028 8.09675315,10.6699028 C9.54159545,10.6699028 10.7128716,9.51717837 10.7128716,8.09522069 C10.7128716,6.67326302 9.54159545,5.52053856 8.09675315,5.52053856 Z" fill="#FFFFFF"></path>
    </g>
</svg>