<svg xmlns="http://www.w3.org/2000/svg" xmlns:xlink="http://www.w3.org/1999/xlink" width="16px" height="16px" viewBox="0 0 16 16" version="1.1">
  <g stroke="none" stroke-width="1" fill="none" fill-rule="evenodd">
    <g transform="translate(2.000000, 2.000000)" fill="#000000" fill-rule="nonzero">
      <path d="M5.99987083,0 C9.33653369,0 12.0303532,2.69387754 11.9997417,6 C11.9997417,9.30612245 9.30592211,12 5.99987083,12 C2.69381956,12 0,9.30612243 0,6 C0,2.69387755 2.69381956,0 5.99987083,0 Z M5.892,2.15600001 C5.87835498,2.16623377 5.86623376,2.17835499 5.85599999,2.19200001 L3.22007882,5.70656158 C3.16043206,5.78609058 3.17654981,5.89891483 3.25607882,5.95856159 C3.28796971,5.98247975 3.32689822,5.99513487 3.36675741,5.99454166 L4.55945523,5.97679109 C4.65885548,5.97531174 4.74063455,6.05469232 4.7421139,6.15409257 L4.74213383,9.3 C4.74213383,9.41045695 4.83167688,9.5 4.94213383,9.5 L7.04024556,9.5 C7.15070251,9.5 7.24024556,9.41045695 7.24024556,9.3 L7.24024556,6.15674394 C7.24024556,6.05733268 7.32083431,5.97674393 7.42024557,5.97674393 L7.42289734,5.97676347 L8.63331085,5.99459732 C8.73271132,5.99606185 8.81447856,5.91666909 8.8159431,5.81726862 C8.81653024,5.77741852 8.80387528,5.73850038 8.77996263,5.70661684 L6.14400001,2.19200001 C6.08435325,2.112471 5.971529,2.09635325 5.892,2.15600001 Z"/>
    </g>
  </g>
</svg>
