<?xml version="1.0" encoding="UTF-8"?>
<svg width="16px" height="16px" viewBox="0 0 16 16" version="1.1" xmlns="http://www.w3.org/2000/svg" xmlns:xlink="http://www.w3.org/1999/xlink">
  <g stroke="none" stroke-width="1" fill="none" fill-rule="evenodd">
    <g transform="translate(2.000000, 2.000000)" fill="#222222" fill-rule="nonzero">
      <path d="M11.9658067,0.657594704 L11.3422391,0.0338359691 C11.3187083,0.0102979036 11.2892947,0 11.2584104,0 C11.2275262,0 11.1981126,0.0117690327 11.1745818,0.0338359691 L10.0553956,1.15336521 C9.55977695,0.816476646 8.98327103,0.648767929 8.40676512,0.648767929 C7.65377781,0.648767929 6.90079049,0.935638102 6.32575525,1.51084958 L4.82713402,3.00993012 C4.78154299,3.05553512 4.78154299,3.13056271 4.82713402,3.17616771 L8.82296709,7.17322545 C8.84649795,7.19676352 8.87591151,7.20706142 8.90679576,7.20706142 C8.93620933,7.20706142 8.96709357,7.19529239 8.99062443,7.17322545 L10.4892457,5.67414491 C11.502543,4.65906583 11.621668,3.08937109 10.8466205,1.94483266 L11.9658067,0.82530342 C12.0113978,0.778227289 12.0113978,0.703199706 11.9658067,0.657594704 Z M6.98314848,6.51121736 C6.93755745,6.46561236 6.86255285,6.46561236 6.81696182,6.51121736 L5.83749004,7.49098933 L4.50946749,6.16255976 L5.49040995,5.18131666 C5.53600098,5.13571166 5.53600098,5.06068408 5.49040995,5.01507907 L4.95508303,4.47958808 C4.909492,4.43398308 4.83448741,4.43398308 4.78889638,4.47958808 L3.80795392,5.46083119 L3.17556223,4.82824568 C3.15203137,4.80470761 3.12261781,4.79440971 3.09173356,4.79440971 C3.06232,4.79440971 3.03143575,4.80617874 3.0079049,4.82824568 L1.51075434,6.32732622 C0.497456952,7.34093417 0.378332006,8.91210004 1.1533795,10.0566385 L0.0341932716,11.1761677 C-0.0113977572,11.2217727 -0.0113977572,11.2968003 0.0341932716,11.3424053 L0.657760892,11.966164 C0.681291746,11.9897021 0.710705313,12 0.741589558,12 C0.772473804,12 0.801887371,11.988231 0.825418224,11.966164 L1.94460445,10.8466348 C2.44022305,11.1835234 3.01672897,11.3512321 3.59323488,11.3512321 C4.34622219,11.3512321 5.09920951,11.0643619 5.67424475,10.4891504 L7.17286598,8.99006988 C7.21845701,8.94446488 7.21845701,8.86943729 7.17286598,8.82383229 L6.54047429,8.19124678 L7.52141675,7.21000368 C7.56700778,7.16439868 7.56700778,7.08937109 7.52141675,7.04376609 L6.98314848,6.51121736 L6.98314848,6.51121736 Z"/>
    </g>
  </g>
</svg>
