<?xml version="1.0" encoding="UTF-8"?>
<svg width="48px" height="48px" viewBox="0 0 48 48" version="1.1" xmlns="http://www.w3.org/2000/svg" xmlns:xlink="http://www.w3.org/1999/xlink">
  <g stroke="none" stroke-width="1" fill="none" fill-rule="evenodd">
    <g transform="translate(0.000000, 19.500000)">
      <path d="M45.9574468,2.5 C47.0855178,2.5 48,3.3954305 48,4.5 C48,5.5543618 47.1667631,6.41816512 46.1098849,6.49451426 C46.0082677,6.49817113 45.906593,6.5 45.80491,6.5 L2.04255319,6.5 L2.04255319,6.5 C0.914482213,6.5 0,5.6045695 0,4.5 C0,3.4456382 0.833236893,2.58183488 1.89011505,2.50548574 C1.99173226,2.50182887 2.09340702,2.5 2.19509001,2.5 L45.9574468,2.5 L45.9574468,2.5 Z" fill="#D7D9E0" fill-rule="nonzero"/>
      <path d="M28,2.5 C29.1045695,2.5 30,3.3954305 30,4.5 C30,5.5543618 29.1841222,6.41816512 28.1492623,6.49451426 C28.0497625,6.49817111 27.9502039,6.5 27.8506369,6.5 L2,6.5 L2,6.5 C0.8954305,6.5 0,5.6045695 0,4.5 C0,3.4456382 0.815877791,2.58183488 1.85073766,2.50548574 C1.95023749,2.50182889 2.04979611,2.5 2.14936312,2.5 L28,2.5 L28,2.5 Z" fill="#3377FF" fill-rule="nonzero"/>
      <circle stroke-opacity="0.100251311" stroke="#000000" fill="#FFFFFF" cx="27.5" cy="4.5" r="5"/>
    </g>
  </g>
</svg>
