<svg width="44" height="48" viewBox="0 0 150 106" fill="none" xmlns="http://www.w3.org/2000/svg">
  <g clip-path="url(#icon-typography_svg__a)">
    <path d="M143 7.60938H6V97.6094H143V7.60938Z" fill="#F5F5F5"/>
    <path d="M150 19.6094H0V20.6094H150V19.6094Z" fill="#E0E0E0"/>
    <path d="M19.5 105.109L19.5 1.10938L18.5 1.10937L18.5 105.109H19.5Z" fill="#E0E0E0"/>
    <path d="M131.5 105.109L131.5 1.10938L130.5 1.10937L130.5 105.109H131.5Z" fill="#E0E0E0"/>
    <path d="M150 84.6094H0V85.6094H150V84.6094Z" fill="#E0E0E0"/>
    <path d="M37.2 39.3374L24 73.6094H29.568L32.784 64.7774H47.52L50.736 73.6094H56.352L43.152 39.3374H37.2ZM34.368 60.4574L40.08 44.9534H40.272L45.936 60.4574H34.368ZM70.4078 48.1214C67.3358 48.1214 64.8398 48.6494 63.0158 49.8014C60.9038 51.0494 59.5598 53.0654 59.0318 55.7534L64.0718 56.1854C64.3598 54.7934 65.0798 53.7854 66.2318 53.1134C67.1918 52.5374 68.4878 52.2494 70.0718 52.2494C73.8158 52.2494 75.6878 53.9774 75.6878 57.4334V58.4414L70.1198 58.5854C66.4718 58.6814 63.5918 59.4014 61.5758 60.8414C59.3678 62.3294 58.2638 64.4894 58.2638 67.2734C58.2638 69.3374 59.0318 71.0174 60.6158 72.3134C62.0558 73.6094 64.0718 74.2814 66.6638 74.2814C68.8718 74.2814 70.7918 73.8494 72.4238 73.0814C73.8638 72.3614 75.0638 71.3534 76.0238 70.1054V73.6094H80.7278V57.7694C80.7278 54.7454 79.9598 52.4414 78.4718 50.8574C76.7438 49.0334 74.0558 48.1214 70.4078 48.1214ZM75.6878 62.1374V63.5774C75.6878 65.4974 74.8718 67.1294 73.3358 68.4254C71.7998 69.7214 69.9758 70.3934 67.8158 70.3934C66.5198 70.3934 65.4638 70.0574 64.6958 69.4334C63.8798 68.8094 63.4958 68.0414 63.4958 67.0814C63.4958 64.0094 65.7998 62.3774 70.4557 62.2814L75.6878 62.1374Z" fill="#1890FF"/>
    <g style="mix-blend-mode:multiply">
      <path d="M123 32.6094H53V38.6094H123V32.6094Z" fill="#F5F5F5"/>
    </g>
    <g style="mix-blend-mode:multiply">
      <path d="M123 43.6094H87V49.6094H123V43.6094Z" fill="#F5F5F5"/>
    </g>
    <g style="mix-blend-mode:multiply">
      <path d="M123 53.6094H87V59.6094H123V53.6094Z" fill="#F5F5F5"/>
    </g>
    <g style="mix-blend-mode:multiply">
      <path d="M123 64.6094H87V70.6094H123V64.6094Z" fill="#F5F5F5"/>
    </g>
  </g>
  <defs>
    <clipPath id="icon-typography_svg__a">
      <rect width="150" height="105" fill="white" transform="translate(0 0.609375)"/>
    </clipPath>
  </defs>
</svg>
