<?xml version="1.0" encoding="UTF-8"?>
<svg width="48.2415137px" height="48px" viewBox="0 0 48.2415137 48" version="1.1" xmlns="http://www.w3.org/2000/svg" xmlns:xlink="http://www.w3.org/1999/xlink">
  <g stroke="none" stroke-width="1" fill="none" fill-rule="evenodd">
    <g transform="translate(0.000000, 24.000000)">
      <rect fill="#EFEFF0" x="0" y="0" width="48" height="8" rx="4"/>
      <rect fill="#3377FF" x="0" y="0" width="30" height="8" rx="4"/>
    </g>
    <g transform="translate(28.000000, 11.000000)" fill="#8B8FA3" fill-rule="nonzero">
      <g>
        <path d="M2.74414063,2.55371094 C3.37239583,2.55371094 3.88753255,2.76692708 4.28955078,3.19335938 C4.69156901,3.61979167 4.89257812,4.16503906 4.89257812,4.82910156 C4.89257812,5.48990885 4.69563802,6.07259115 4.30175781,6.57714844 C3.9078776,7.08170573 3.29589844,7.33398438 2.46582031,7.33398438 C1.57389323,7.33398438 0.916341146,6.96126302 0.493164062,6.21582031 C0.164388021,5.63313802 0,4.8811849 0,3.95996094 C0,3.41959635 0.0227864583,2.98014323 0.068359375,2.64160156 C0.149739583,2.03938802 0.307617188,1.53808594 0.541992188,1.13769531 C0.743815104,0.795898438 1.00830078,0.520833333 1.33544922,0.3125 C1.66259766,0.104166667 2.05403646,0 2.50976562,0 C3.16731771,0 3.69140625,0.168457031 4.08203125,0.505371094 C4.47265625,0.842285156 4.69238281,1.2906901 4.74121094,1.85058594 L3.35449219,1.85058594 C3.35449219,1.73665365 3.31054688,1.61132812 3.22265625,1.47460938 C3.07291667,1.25325521 2.84667969,1.14257812 2.54394531,1.14257812 C2.09147135,1.14257812 1.76920573,1.39648438 1.57714844,1.90429688 C1.47298177,2.18424479 1.40136719,2.59765625 1.36230469,3.14453125 C1.53483073,2.93945312 1.73502604,2.78971354 1.96289062,2.6953125 C2.19075521,2.60091146 2.45117188,2.55371094 2.74414063,2.55371094 Z M1.80664062,3.88183594 C1.53320312,4.09342448 1.39648438,4.43522135 1.39648438,4.90722656 C1.39648438,5.28808594 1.49902344,5.59895833 1.70410156,5.83984375 C1.90917969,6.08072917 2.16959635,6.20117188 2.48535156,6.20117188 C2.79459635,6.20117188 3.03792318,6.08479818 3.21533203,5.85205078 C3.39274089,5.61930339 3.48144531,5.31738281 3.48144531,4.94628906 C3.48144531,4.5328776 3.38053385,4.21630859 3.17871094,3.99658203 C2.97688802,3.77685547 2.72949219,3.66699219 2.43652344,3.66699219 C2.19889323,3.66699219 1.98893229,3.73860677 1.80664062,3.88183594 Z"/>
        <path d="M8.00292969,7.32421875 C7.10123698,7.32421875 6.46891276,7.00846354 6.10595703,6.37695312 C5.7430013,5.74544271 5.56152344,4.8453776 5.56152344,3.67675781 C5.56152344,2.50813802 5.7430013,1.60644531 6.10595703,0.971679688 C6.46891276,0.336914063 7.10123698,0.01953125 8.00292969,0.01953125 C8.9046224,0.01953125 9.53776042,0.336914063 9.90234375,0.971679688 C10.2636719,1.60644531 10.4443359,2.50813802 10.4443359,3.67675781 C10.4443359,4.8453776 10.2628581,5.74544271 9.89990234,6.37695312 C9.53694661,7.00846354 8.9046224,7.32421875 8.00292969,7.32421875 Z M8.81835938,5.54199219 C8.9453125,5.11230469 9.00878906,4.4905599 9.00878906,3.67675781 C9.00878906,2.82389323 8.9444987,2.19238281 8.81591797,1.78222656 C8.68733724,1.37207031 8.41634115,1.16699219 8.00292969,1.16699219 C7.58951823,1.16699219 7.31608073,1.37207031 7.18261719,1.78222656 C7.04915365,2.19238281 6.98242188,2.82389323 6.98242188,3.67675781 C6.98242188,4.4905599 7.04915365,5.11311849 7.18261719,5.54443359 C7.31608073,5.9757487 7.58951823,6.19140625 8.00292969,6.19140625 C8.41634115,6.19140625 8.68815104,5.9749349 8.81835938,5.54199219 Z"/>
      </g>
      <g transform="translate(11.500000, 0.000000)">
        <path d="M6.87075685,3.58886719 C7.38705892,3.58886719 7.82792725,3.76627604 8.19336183,4.12109375 C8.55879641,4.47591146 8.7415137,4.90397135 8.7415137,5.40527344 C8.7415137,5.90657552 8.55879641,6.33463542 8.19336183,6.68945312 C7.82792725,7.04427083 7.38705892,7.22167969 6.87075685,7.22167969 C6.35445478,7.22167969 5.91358646,7.04427083 5.54815187,6.68945312 C5.18271729,6.33463542 5,5.90657552 5,5.40527344 C5,4.90071615 5.18271729,4.47102865 5.54815187,4.11621094 C5.91358646,3.76464844 6.35445478,3.58886719 6.87075685,3.58886719 Z M6.87075685,4.62890625 C6.64948454,4.62890625 6.46090018,4.70458984 6.30500377,4.85595703 C6.14910737,5.00732422 6.07115917,5.19042969 6.07115917,5.40527344 C6.07115917,5.62011719 6.14994552,5.80240885 6.30751823,5.95214844 C6.46173833,6.10514323 6.64948454,6.18164062 6.87075685,6.18164062 C7.09202917,6.18164062 7.28061353,6.10595703 7.43650993,5.95458984 C7.59240634,5.80322266 7.67035454,5.62011719 7.67035454,5.40527344 C7.67035454,5.19042969 7.59240634,5.00732422 7.43650993,4.85595703 C7.28061353,4.70458984 7.09202917,4.62890625 6.87075685,4.62890625 Z"/>
        <path d="M1.87075685,0.080078125 C2.38705892,0.080078125 2.82792725,0.257486979 3.19336183,0.612304688 C3.55879641,0.967122396 3.7415137,1.39518229 3.7415137,1.89648438 C3.7415137,2.39778646 3.55963457,2.82584635 3.19587629,3.18066406 C2.83211801,3.53548177 2.39041153,3.71289062 1.87075685,3.71289062 C1.35445478,3.71289062 0.913586455,3.53548177 0.548151873,3.18066406 C0.182717291,2.82584635 0,2.39778646 0,1.89648438 C0,1.39518229 0.182717291,0.967122396 0.548151873,0.612304688 C0.913586455,0.257486979 1.35445478,0.080078125 1.87075685,0.080078125 Z M1.87075685,1.12011719 C1.64948454,1.12011719 1.46090018,1.19580078 1.30500377,1.34716797 C1.14910737,1.49853516 1.07115917,1.68164062 1.07115917,1.89648438 C1.07115917,2.11132812 1.14994552,2.29361979 1.30751823,2.44335938 C1.46173833,2.59635417 1.64948454,2.67285156 1.87075685,2.67285156 C2.09202917,2.67285156 2.28061353,2.59716797 2.43650993,2.44580078 C2.59240634,2.29443359 2.67035454,2.11132812 2.67035454,1.89648438 C2.67035454,1.68164062 2.59240634,1.49853516 2.43650993,1.34716797 C2.28061353,1.19580078 2.09202917,1.12011719 1.87075685,1.12011719 Z"/>
        <polygon points="3 7.265625 1.56369437 7.265625 5.64214546 0 7 9.25319544e-14"/>
      </g>
    </g>
  </g>
</svg>
