<?xml version="1.0" encoding="UTF-8"?>
<svg width="48px" height="48px" viewBox="0 0 48 48" version="1.1" xmlns="http://www.w3.org/2000/svg" xmlns:xlink="http://www.w3.org/1999/xlink">
  <g stroke="none" stroke-width="1" fill="none" fill-rule="evenodd">
    <rect stroke="#D7D9E0" stroke-width="1.5" fill="#FFFFFF" x="0.75" y="3.75" width="46.5" height="40.5" rx="3"/>
    <line x1="1.5" y1="19" x2="46.5" y2="19" stroke="#D7D9E0" stroke-width="1.5" stroke-linecap="round"/>
    <rect fill="#EFEFF0" x="6.5" y="24" width="35" height="16" rx="2"/>
    <rect fill="#D6E4FF" x="6" y="7" width="17" height="9" rx="4.5"/>
    <g transform="translate(12.000000, 8.500000)" fill="#3377FF" fill-rule="nonzero">
      <path d="M3.77734375,4.57421875 L1.65625,4.57421875 L1.2578125,5.7578125 L0,5.7578125 L2.0546875,0 L3.4140625,0 L5.453125,5.7578125 L4.1484375,5.7578125 L3.77734375,4.57421875 Z M3.44140625,3.58203125 L2.72265625,1.31640625 L1.98046875,3.58203125 L3.44140625,3.58203125 Z"/>
    </g>
    <g transform="translate(30.628906, 8.500000)" fill="#8B8FA3" fill-rule="nonzero">
      <path d="M2.609375,5.7578125 L0,5.7578125 L0,0 L2.796875,0 C3.50260417,0.0104166667 4.00260417,0.21484375 4.296875,0.61328125 C4.47395833,0.858072917 4.5625,1.15104167 4.5625,1.4921875 C4.5625,1.84375 4.47395833,2.12630208 4.296875,2.33984375 C4.19791667,2.45963542 4.05208333,2.56901042 3.859375,2.66796875 C4.15364583,2.77473958 4.37565104,2.94401042 4.52539062,3.17578125 C4.67513021,3.40755208 4.75,3.68880208 4.75,4.01953125 C4.75,4.36067708 4.6640625,4.66666667 4.4921875,4.9375 C4.3828125,5.1171875 4.24609375,5.26822917 4.08203125,5.390625 C3.89713542,5.53125 3.67903646,5.62760417 3.42773438,5.6796875 C3.17643229,5.73177083 2.90364583,5.7578125 2.609375,5.7578125 Z M2.58203125,3.22265625 L1.1484375,3.22265625 L1.1484375,4.7578125 L2.5625,4.7578125 C2.81510417,4.7578125 3.01171875,4.72395833 3.15234375,4.65625 C3.40755208,4.53125 3.53515625,4.29166667 3.53515625,3.9375 C3.53515625,3.63802083 3.41145833,3.43229167 3.1640625,3.3203125 C3.02604167,3.2578125 2.83203125,3.22526042 2.58203125,3.22265625 Z M3.1796875,2.125 C3.3359375,2.03125 3.4140625,1.86328125 3.4140625,1.62109375 C3.4140625,1.35286458 3.30989583,1.17578125 3.1015625,1.08984375 C2.921875,1.02994792 2.69270833,1 2.4140625,1 L1.1484375,1 L1.1484375,2.26953125 L2.5625,2.26953125 C2.81510417,2.26953125 3.02083333,2.22135417 3.1796875,2.125 Z"/>
    </g>
  </g>
</svg>
