<?xml version="1.0" encoding="UTF-8"?>
<svg width="26px" height="13px" viewBox="0 0 26 13" version="1.1" xmlns="http://www.w3.org/2000/svg" xmlns:xlink="http://www.w3.org/1999/xlink">
    <title>icon-query-options</title>
    <g stroke="none" stroke-width="1" fill="none" fill-rule="evenodd">
        <g transform="translate(-120.000000, -1086.000000)">
            <g transform="translate(104.000000, 52.000000)">
                <g transform="translate(8.000000, 40.000000)">
                    <g transform="translate(8.000000, 810.000000)">
                        <g transform="translate(0.000000, 180.000000)">
                            <g id="icon-query-options" transform="translate(0.000000, 4.000000)">
                                <rect stroke="#8B8FA3" x="0.5" y="0.5" width="25" height="12" rx="2"></rect>
                                <g id="OPT" transform="translate(5.347168, 4.000000)" fill="#8B8FA3" fill-rule="nonzero">
                                    <path d="M0,2.59423828 C0,1.77620443 0.227864583,1.13932292 0.68359375,0.68359375 C1.13932292,0.227864583 1.77392578,0 2.58740234,0 C3.42138672,0 4.06396484,0.223876953 4.51513672,0.671630859 C4.96630859,1.11938477 5.19189453,1.74658203 5.19189453,2.55322266 C5.19189453,3.13883464 5.0933431,3.61905924 4.89624023,3.99389648 C4.69913737,4.36873372 4.41430664,4.66040039 4.04174805,4.86889648 C3.66918945,5.07739258 3.20491536,5.18164062 2.64892578,5.18164062 C2.08382161,5.18164062 1.61612956,5.09163411 1.24584961,4.91162109 C0.875569661,4.73160807 0.575358073,4.44677734 0.345214844,4.05712891 C0.115071615,3.66748047 0,3.17985026 0,2.59423828 Z M1.54833984,2.60107422 C1.54833984,3.10693359 1.64233398,3.4703776 1.83032227,3.69140625 C2.01831055,3.9124349 2.27408854,4.02294922 2.59765625,4.02294922 C2.93033854,4.02294922 3.18782552,3.91471354 3.37011719,3.69824219 C3.55240885,3.48177083 3.64355469,3.09326172 3.64355469,2.53271484 C3.64355469,2.06103516 3.54842122,1.71638997 3.3581543,1.4987793 C3.16788737,1.28116862 2.90983073,1.17236328 2.58398438,1.17236328 C2.2718099,1.17236328 2.02115885,1.2828776 1.83203125,1.50390625 C1.64290365,1.7249349 1.54833984,2.09065755 1.54833984,2.60107422 Z"></path>
                                    <path d="M6.01904297,0.0854492188 L8.59277344,0.0854492188 C9.15332031,0.0854492188 9.57316081,0.21875 9.85229492,0.485351562 C10.131429,0.751953125 10.2709961,1.13134766 10.2709961,1.62353516 C10.2709961,2.12939453 10.1188965,2.52473958 9.81469727,2.80957031 C9.51049805,3.09440104 9.04622396,3.23681641 8.421875,3.23681641 L7.57421875,3.23681641 L7.57421875,5.09619141 L6.01904297,5.09619141 L6.01904297,0.0854492188 Z M7.57421875,2.22167969 L7.95361328,2.22167969 C8.25211589,2.22167969 8.4617513,2.16984049 8.58251953,2.06616211 C8.70328776,1.96248372 8.76367188,1.8297526 8.76367188,1.66796875 C8.76367188,1.51074219 8.71126302,1.37744141 8.60644531,1.26806641 C8.5016276,1.15869141 8.30452474,1.10400391 8.01513672,1.10400391 L7.57421875,1.10400391 L7.57421875,2.22167969 Z"></path>
                                    <polygon points="10.7290039 0.0854492188 15.4355469 0.0854492188 15.4355469 1.32275391 13.8564453 1.32275391 13.8564453 5.09619141 12.3081055 5.09619141 12.3081055 1.32275391 10.7290039 1.32275391"></polygon>
                                </g>
                            </g>
                        </g>
                    </g>
                </g>
            </g>
        </g>
    </g>
</svg>