<svg xmlns="http://www.w3.org/2000/svg" xmlns:xlink="http://www.w3.org/1999/xlink" width="16px" height="16px" viewBox="0 0 16 16" version="1.1">
  <g stroke="none" stroke-width="1" fill="none" fill-rule="evenodd">
    <path d="M1,12.8862209 C1,11.8158593 1.7693081,10.5580064 2.7168705,10.0809717 L3.91991663,9.4731238 C4.1663854,9.34859365 4.46713945,9.44744443 4.59166959,9.6939132 C4.60587155,9.72202155 4.61738615,9.7514088 4.62605991,9.78168323 L5.78003015,13.8094374 L5.78003015,13.8094374 C5.78003015,13.8094374 5.81755738,14.208153 6.47662925,14.208153 C7.13570112,14.208153 7.13804657,13.8094374 7.13804657,13.8094374 L6.72080697,9.41939785 C6.71035598,9.30943643 6.79102513,9.21182288 6.90098655,9.20137189 C6.90727657,9.20077407 6.91359138,9.20047466 6.91990974,9.20047466 L9.08142347,9.20047466 C9.19188042,9.20047466 9.28142347,9.29001771 9.28142347,9.40047466 C9.28142347,9.40638911 9.28116111,9.41230066 9.28063718,9.41819186 L8.89009884,13.8094374 L8.89009884,13.8094374 C8.89009884,13.8094374 9.11526219,14.2817255 9.64767967,14.2817255 C10.1800972,14.2817255 10.2457698,13.8094374 10.2457698,13.8094374 L11.3740305,9.78565396 C11.4485849,9.51976628 11.7245677,9.36465998 11.9904554,9.43921434 C12.0216005,9.44794737 12.0518246,9.45968206 12.080703,9.47425344 L13.2831295,10.0809717 L13.2831295,10.0809717 C14.2306919,10.5580064 15,11.8158593 15,12.8862209 L15,14.0586346 C15,15.1313695 14.1415648,16 13.0814207,16 L2.91857933,16 C1.85843526,16 1,15.1313695 1,14.0586346 L1,12.8862209 Z M8,8 C10.209139,8 12,6.209139 12,4 C12,1.790861 10.209139,1.50990331e-14 8,1.50990331e-14 C5.790861,1.50990331e-14 4,1.790861 4,4 C4,6.209139 5.790861,8 8,8 Z" fill="#000000" fill-rule="nonzero"/>
  </g>
</svg>
