<svg width="16px" height="16px" viewBox="0 0 182 182" version="1.1" xmlns="http://www.w3.org/2000/svg" xmlns:xlink="http://www.w3.org/1999/xlink">
  <g stroke="none" stroke-width="1" fill="none" fill-rule="evenodd">
    <g fill="#B8B9BF" fill-rule="nonzero">
      <rect opacity="0" x="0" y="0" width="16" height="16"/>
      <path d="M90.5,11 C46.5975446,11 11,46.5975446 11,90.5 C11,134.402455 46.5975446,170 90.5,170 C134.402455,170 170,134.402455 170,90.5 C170,46.5975446 134.402455,11 90.5,11 Z M90.5,156.513393 C54.0506696,156.513393 24.4866071,126.94933 24.4866071,90.5 C24.4866071,54.0506696 54.0506696,24.4866071 90.5,24.4866071 C126.94933,24.4866071 156.513393,54.0506696 156.513393,90.5 C156.513393,126.94933 126.94933,156.513393 90.5,156.513393 Z"/>
      <path d="M110.393807,56.284375 C105.048394,51.5772727 97.9924489,49 90.5088704,49 C83.0252919,49 75.9693465,51.5951705 70.6239333,56.284375 C65.0647036,61.1704545 62,67.7389205 62,74.7727273 L62,76.1329545 C62,76.9204545 62.6414496,77.5647727 63.4254435,77.5647727 L71.9781046,77.5647727 C72.7620986,77.5647727 73.4035482,76.9204545 73.4035482,76.1329545 L73.4035482,74.7727273 C73.4035482,66.8798295 81.0831251,60.4545455 90.5088704,60.4545455 C99.9346157,60.4545455 107.614193,66.8798295 107.614193,74.7727273 C107.614193,80.3389205 103.694223,85.4397727 97.6182699,87.784375 C93.8408446,89.2340909 90.6335967,91.7755682 88.335069,95.1045455 C86.0009053,98.5051136 84.7892783,102.585795 84.7892783,106.72017 L84.7892783,110.568182 C84.7892783,111.355682 85.4307279,112 86.2147218,112 L94.7673829,112 C95.5513768,112 96.1928264,111.355682 96.1928264,110.568182 L96.1928264,106.505398 C96.1928264,102.979545 98.4022639,99.7579545 101.698602,98.4872159 C112.211248,94.4244318 119,85.1176136 119,74.7727273 C119.017741,67.7389205 115.953037,61.1704545 110.393807,56.284375 Z"/>
      <path d="M84,130 C84,133.865993 87.1340068,137 91,137 C94.8659932,137 98,133.865993 98,130 C98,126.134007 94.8659932,123 91,123 C87.1340068,123 84,126.134007 84,130 Z"/>
    </g>
  </g>
</svg>
