<svg xmlns="http://www.w3.org/2000/svg" xmlns:xlink="http://www.w3.org/1999/xlink" width="16px" height="16px" viewBox="0 0 16 16" version="1.1">
  <g stroke="none" stroke-width="1" fill="none" fill-rule="evenodd">
    <g transform="translate(0.000000, 2.000000)" fill="#000000" fill-rule="nonzero">
      <path d="M8.9197397,5.36972967 C9.86767896,5.01529432 10.5408532,4.14364254 10.5408532,3.12489666 C10.5408532,1.79286541 9.39190166,0.709325391 7.97975417,0.709325391 C6.56760668,0.709325391 5.41889613,1.79286541 5.41889613,3.12489666 C5.41889613,4.14364252 6.09182936,5.01529432 7.03976863,5.36972967 C4.93203182,5.78077464 3.34249217,7.54522156 3.34249217,9.6534185 C3.34249217,10.166088 3.72378887,10.3359168 4.03012774,10.4723256 L4.04772235,10.479146 C5.28295977,10.8904183 7.06941433,11 7.93034467,11 C8.8691251,11 10.7069173,10.8563161 11.9274524,10.4586847 C12.384912,10.2931754 12.6170161,10.0221768 12.6170161,9.6534185 C12.6170161,7.54499423 11.0274765,5.78054729 8.9197397,5.36972967 L8.9197397,5.36972967 Z"/>
      <path d="M5.83586406,5.16625331 C5.22921185,4.63266783 4.84767414,3.87446264 4.84767414,3.03031993 C4.84767414,1.9965691 5.41817306,1.09013309 6.27669319,0.570415837 L6.27669319,0.570188486 C6.27139071,0.563140695 6.26367801,0.559048445 6.25765244,0.553137392 C6.25138588,0.546771652 6.24752951,0.538814473 6.24005784,0.533130785 C5.7855183,0.188821986 5.22022282,0.000790286841 4.637262,0 C3.22511449,0 2.07616293,1.08354002 2.07616293,2.41557127 C2.07616293,3.43431713 2.74933719,4.30596892 3.69727645,4.66040426 C1.58929864,5.07144924 0,6.83589617 0,8.94409309 C0,9.31307871 0.232104121,9.58385003 0.695589303,9.75163277 C1.38201976,9.97534308 2.23379128,10.1042493 2.84237166,10.1742725 C2.81708186,9.98026675 2.80420404,9.78500022 2.80380815,9.58953373 C2.80380815,7.62024637 4.04868644,5.92627727 5.83586406,5.16625331 Z M12.3024825,4.66063161 C13.2504218,4.30619626 13.9235961,3.43454448 13.9235961,2.4157986 C13.9235961,1.08376735 12.7746445,0.000227335451 11.362497,0.000227335451 C10.7712702,0.000227335451 10.1940227,0.195064475 9.73776813,0.548590441 L9.66979995,0.601107799 C10.5297764,1.14321449 11.045874,2.05466451 11.0453121,3.03031993 C11.0453121,3.87446263 10.6637744,4.63266781 10.0571222,5.16625331 C11.8442998,5.92627729 13.0891781,7.62024637 13.0891781,9.58953373 C13.0891781,9.79187335 13.0744758,9.99080275 13.0491685,10.1865493 L13.0619426,10.1851852 C13.6883586,10.1165261 14.5859243,9.9858011 15.3104363,9.74958665 C15.7678959,9.58407738 16,9.31307871 16,8.94432044 C16,6.83589617 14.4104604,5.07144924 12.3024825,4.66063161 Z"/>
    </g>
  </g>
</svg>
