<?xml version="1.0" encoding="UTF-8"?>
<svg width="48px" height="48px" viewBox="0 0 48 48" version="1.1" xmlns="http://www.w3.org/2000/svg" xmlns:xlink="http://www.w3.org/1999/xlink">
  <g stroke="none" stroke-width="1" fill="none" fill-rule="evenodd">
    <g transform="translate(7.000000, 7.000000)">
      <rect stroke="#D7D9E0" stroke-width="2" fill="#FFFFFF" x="1" y="1" width="32" height="32" rx="5"/>
      <g transform="translate(7.000000, 7.000000)" fill="#8B8FA3" fill-rule="nonzero">
        <path d="M19.5,16.9230769 C19.7761424,16.9230769 20,17.1469346 20,17.4230769 L20,19.5 C20,19.7761424 19.7761424,20 19.5,20 L17.4230769,20 C17.1469346,20 16.9230769,19.7761424 16.9230769,19.5 L16.9230769,17.4230769 C16.9230769,17.1469346 17.1469346,16.9230769 17.4230769,16.9230769 L19.5,16.9230769 Z M13.3461538,16.9230769 C13.6222962,16.9230769 13.8461538,17.1469346 13.8461538,17.4230769 L13.8461538,19.5 C13.8461538,19.7761424 13.6222962,20 13.3461538,20 L11.2692308,20 C10.9930884,20 10.7692308,19.7761424 10.7692308,19.5 L10.7692308,17.4230769 C10.7692308,17.1469346 10.9930884,16.9230769 11.2692308,16.9230769 L13.3461538,16.9230769 Z M13.3461538,10.7692308 C13.6222962,10.7692308 13.8461538,10.9930884 13.8461538,11.2692308 L13.8461538,13.3461538 C13.8461538,13.6222962 14.0700115,13.8461538 14.3461538,13.8461538 L16.4230769,13.8461538 C16.6992193,13.8461538 16.9230769,13.6222962 16.9230769,13.3461538 L16.9230769,11.2692308 C16.9230769,10.9930884 17.1469346,10.7692308 17.4230769,10.7692308 L19.5,10.7692308 C19.7761424,10.7692308 20,10.9930884 20,11.2692308 L20,14.8846154 C20,15.1607578 19.7761424,15.3846154 19.5,15.3846154 L17.4230769,15.3846154 C17.1469346,15.3846154 16.9230769,15.608473 16.9230769,15.8846154 L16.9230769,16.4230769 C16.9230769,16.6992193 16.6992193,16.9230769 16.4230769,16.9230769 L14.3461538,16.9230769 C14.0700115,16.9230769 13.8461538,16.6992193 13.8461538,16.4230769 L13.8461538,15.8846154 C13.8461538,15.608473 13.6222962,15.3846154 13.3461538,15.3846154 L11.2692308,15.3846154 C10.9930884,15.3846154 10.7692308,15.1607578 10.7692308,14.8846154 L10.7692308,11.2692308 C10.7692308,10.9930884 10.9930884,10.7692308 11.2692308,10.7692308 L13.3461538,10.7692308 Z M8.73076922,10.7692308 C9.00691159,10.7692308 9.23076922,10.9930884 9.23076922,11.2692308 L9.23076922,19.5 C9.23076922,19.7761424 9.00691159,20 8.73076922,20 L0.5,20 C0.223857625,20 1.23691709e-15,19.7761424 0,19.5 L0,11.2692308 C-3.38176876e-17,10.9930884 0.223857625,10.7692308 0.5,10.7692308 L8.73076922,10.7692308 Z M5.65384616,13.8461538 L3.5769231,13.8461538 C3.30078072,13.8461538 3.0769231,14.0700115 3.0769231,14.3461538 L3.0769231,16.4230769 C3.0769231,16.6992193 3.30078072,16.9230769 3.5769231,16.9230769 L5.65384616,16.9230769 C5.92998853,16.9230769 6.15384616,16.6992193 6.15384616,16.4230769 L6.15384616,14.3461538 C6.15384616,14.0700115 5.92998853,13.8461538 5.65384616,13.8461538 Z M8.73076922,0 C9.00691159,9.30328261e-16 9.23076922,0.223857625 9.23076922,0.5 L9.23076922,8.73076922 C9.23076922,9.00691159 9.00691159,9.23076922 8.73076922,9.23076922 L0.5,9.23076922 C0.223857625,9.23076922 1.23691709e-15,9.00691159 0,8.73076922 L0,0.5 C-3.38176876e-17,0.223857625 0.223857625,2.72771136e-16 0.5,0 L8.73076922,0 Z M5.65384616,3.0769231 L3.5769231,3.0769231 C3.30078072,3.0769231 3.0769231,3.30078072 3.0769231,3.5769231 L3.0769231,5.65384616 C3.0769231,5.92998853 3.30078072,6.15384616 3.5769231,6.15384616 L5.65384616,6.15384616 C5.92998853,6.15384616 6.15384616,5.92998853 6.15384616,5.65384616 L6.15384616,3.5769231 C6.15384616,3.30078072 5.92998853,3.0769231 5.65384616,3.0769231 Z M19.5,0 C19.7761424,-5.07265313e-17 20,0.223857625 20,0.5 L20,8.73076922 C20,9.00691159 19.7761424,9.23076922 19.5,9.23076922 L11.2692308,9.23076922 C10.9930884,9.23076922 10.7692308,9.00691159 10.7692308,8.73076922 L10.7692308,0.5 C10.7692308,0.223857625 10.9930884,2.72771136e-16 11.2692308,0 L19.5,0 Z M16.4230769,3.0769231 L14.3461538,3.0769231 C14.0700115,3.0769231 13.8461538,3.30078072 13.8461538,3.5769231 L13.8461538,5.65384616 C13.8461538,5.92998853 14.0700115,6.15384616 14.3461538,6.15384616 L16.4230769,6.15384616 C16.6992193,6.15384616 16.9230769,5.92998853 16.9230769,5.65384616 L16.9230769,3.5769231 C16.9230769,3.30078072 16.6992193,3.0769231 16.4230769,3.0769231 Z"/>
      </g>
    </g>
  </g>
</svg>
