<?xml version="1.0" encoding="UTF-8"?>
<svg width="48px" height="48px" viewBox="0 0 48 48" version="1.1" xmlns="http://www.w3.org/2000/svg" xmlns:xlink="http://www.w3.org/1999/xlink">
  <g stroke="none" stroke-width="1" fill="none" fill-rule="evenodd">
    <g transform="translate(0.000000, 16.000000)">
      <rect stroke="#D7D9E0" fill="#F9F9FA" x="0.5" y="0.5" width="47" height="15" rx="2"/>
      <g transform="translate(38.000000, 3.500000)" fill="#3377FF" fill-rule="nonzero">
        <path d="M1.5,1 L0,1 L0,0 L4,0 L4,1 L2.5,1 L2.5,8 L4,8 L4,9 L0,9 L0,8 L1.5,8 L1.5,1 Z"/>
      </g>
      <polygon fill="#8B8FA3" fill-rule="nonzero" points="9.58832117 6.53097345 10 7.84955752 8.13430657 8.43362832 9.35182482 10.1946903 8.23065693 11 7.01313869 9.33628319 5.76058394 11 4.63941606 10.1946903 5.86569343 8.43362832 4 7.84955752 4.41167883 6.53097345 6.24233577 7.13274336 6.24233577 5 7.75766423 5 7.75766423 7.13274336"/>
      <polygon fill="#8B8FA3" fill-rule="nonzero" points="17.5883212 6.53097345 18 7.84955752 16.1343066 8.43362832 17.3518248 10.1946903 16.2306569 11 15.0131387 9.33628319 13.7605839 11 12.6394161 10.1946903 13.8656934 8.43362832 12 7.84955752 12.4116788 6.53097345 14.2423358 7.13274336 14.2423358 5 15.7576642 5 15.7576642 7.13274336"/>
      <polygon fill="#8B8FA3" fill-rule="nonzero" points="25.5883212 6.53097345 26 7.84955752 24.1343066 8.43362832 25.3518248 10.1946903 24.2306569 11 23.0131387 9.33628319 21.7605839 11 20.6394161 10.1946903 21.8656934 8.43362832 20 7.84955752 20.4116788 6.53097345 22.2423358 7.13274336 22.2423358 5 23.7576642 5 23.7576642 7.13274336"/>
      <polygon fill="#8B8FA3" fill-rule="nonzero" points="33.5883212 6.53097345 34 7.84955752 32.1343066 8.43362832 33.3518248 10.1946903 32.2306569 11 31.0131387 9.33628319 29.7605839 11 28.6394161 10.1946903 29.8656934 8.43362832 28 7.84955752 28.4116788 6.53097345 30.2423358 7.13274336 30.2423358 5 31.7576642 5 31.7576642 7.13274336"/>
    </g>
  </g>
</svg>
