<?xml version="1.0" encoding="UTF-8"?>
<svg width="16px" height="16px" viewBox="0 0 16 16" version="1.1" xmlns="http://www.w3.org/2000/svg" xmlns:xlink="http://www.w3.org/1999/xlink">
  <defs>
    <rect id="icon-query-data-responder_svg__a" x="0" y="0" width="13" height="13" rx="2"/>
  </defs>
  <g stroke="none" stroke-width="1" fill="none" fill-rule="evenodd">
    <rect x="0" y="0" width="16" height="16" rx="2"/>
    <g transform="translate(1.500000, 1.500000)">
      <g>
        <use fill="#3377FF" xlink:href="#icon-query-data-responder_svg__a"/>
        <use fill="#5589F2" xlink:href="#icon-query-data-responder_svg__a"/>
      </g>
      <g transform="translate(2.750000, 2.750000)" fill="#FFFFFF" fill-rule="nonzero">
        <path d="M0,7.5 L0,6.89322157 C0.386107352,6.89322157 0.642309427,6.8321793 0.768606225,6.71009475 C0.894903022,6.5880102 0.958051421,6.34657434 0.958051421,5.98578717 L0.958051421,1.59620991 C0.958051421,1.24635569 0.898511502,1.00765306 0.779431664,0.880102041 C0.660351827,0.75255102 0.400541272,0.68877551 0,0.68877551 L0,0.0874635569 L0.882273342,0.054664723 C1.7699594,0.0182215743 2.46639603,0 2.97158322,0 C3.81596752,0 4.50248083,0.0491982507 5.03112314,0.147594752 C5.55976545,0.245991254 6.05953992,0.46191691 6.53044655,0.79537172 C7.00135318,1.12882653 7.36400541,1.56067784 7.61840325,2.09092566 C7.87280108,2.62117347 8,3.20517493 8,3.84293003 C8,4.49526239 7.86558412,5.07835277 7.59675237,5.59220117 C7.32792061,6.10604956 6.9661705,6.51603499 6.51150203,6.82215743 C6.05683356,7.12827988 5.58592693,7.31778426 5.09878214,7.39067055 C4.61163735,7.46355685 3.7925124,7.5 2.64140731,7.5 L0,7.5 Z M2.87956698,0.666909621 L2.87956698,5.77259475 C2.87956698,6.10058309 2.89490302,6.32106414 2.9255751,6.4340379 C2.95624718,6.54701166 3.03743798,6.64358601 3.1691475,6.72376093 C3.30085701,6.80393586 3.50383401,6.84402332 3.77807848,6.84402332 C4.45647271,6.84402332 4.96436626,6.5925656 5.30175913,6.08965015 C5.63915201,5.58673469 5.80784844,4.83418367 5.80784844,3.83199708 C5.80784844,3.02295918 5.68335589,2.37882653 5.43437077,1.89959913 C5.18538566,1.42037172 4.8624267,1.09511662 4.46549391,0.923833819 C4.06856112,0.75255102 3.53991881,0.666909621 2.87956698,0.666909621 Z"/>
      </g>
    </g>
  </g>
</svg>
