<?xml version="1.0" encoding="UTF-8"?>
<svg width="48px" height="48px" viewBox="0 0 48 48" version="1.1" xmlns="http://www.w3.org/2000/svg" xmlns:xlink="http://www.w3.org/1999/xlink">
  <g stroke="none" stroke-width="1" fill="none" fill-rule="evenodd">
    <g transform="translate(2.000000, 4.000000)">
      <rect stroke="#D7D9E0" fill="#FFFFFF" x="0.5" y="0.5" width="43" height="15" rx="3"/>
      <g transform="translate(3.000000, 2.000000)" stroke="#8B8FA3" stroke-width="1.5">
        <circle fill="#FFFFFF" cx="6" cy="6" r="5.25"/>
        <line x1="6" y1="3.5" x2="6" y2="6.5" stroke-linecap="round"/>
        <line x1="7.5" y1="5" x2="7.5" y2="8" stroke-linecap="round" transform="translate(7.500000, 6.500000) rotate(-90.000000) translate(-7.500000, -6.500000) "/>
      </g>
      <rect fill="#EFEFF0" x="17" y="4" width="24" height="8" rx="1"/>
    </g>
    <line x1="24" y1="21" x2="24" y2="27" stroke="#E4E4E5" stroke-width="2" stroke-linecap="round" transform="translate(24.000000, 24.000000) rotate(-90.000000) translate(-24.000000, -24.000000) "/>
    <g transform="translate(1.000000, 28.000000)">
      <rect stroke="#D7D9E0" fill="#FFFFFF" x="0.5" y="0.5" width="45" height="15" rx="3"/>
      <g transform="translate(31.000000, 2.000000)" stroke="#8B8FA3" stroke-width="1.5">
        <circle fill="#FFFFFF" cx="6" cy="6" r="5.25"/>
        <line x1="6" y1="3.5" x2="6" y2="6.5" stroke-linecap="round"/>
        <line x1="7.5" y1="5" x2="7.5" y2="8" stroke-linecap="round" transform="translate(7.500000, 6.500000) rotate(-90.000000) translate(-7.500000, -6.500000) "/>
      </g>
      <rect fill="#EFEFF0" x="4" y="4" width="24" height="8" rx="1"/>
    </g>
  </g>
</svg>
