<?xml version="1.0" encoding="UTF-8"?>
<svg width="16px" height="16px" viewBox="0 0 16 16" version="1.1" xmlns="http://www.w3.org/2000/svg" xmlns:xlink="http://www.w3.org/1999/xlink">
    <g stroke="none" stroke-width="1" fill="none" fill-rule="evenodd">
        <rect x="0" y="0" width="16" height="16"></rect>
        <g transform="translate(1.000000, 4.000000)">
            <rect stroke="#8B8FA3" stroke-width="1.5" x="0" y="0" width="14" height="8" rx="1"></rect>
            <path d="M10.5779589,1.5 C9.97179142,1.5 9.47178303,1.68472765 9.0926134,2.05431065 C8.72401208,2.40016767 8.53630297,2.85715956 8.52837078,3.41621623 L8.52510193,3.6466034 L9.81910306,3.6466034 L9.8279559,3.42822309 C9.84029783,3.12377447 9.91061886,2.90435968 10.0262492,2.77470743 C10.1393931,2.63899 10.3049877,2.57267732 10.5496102,2.57267732 C10.7932293,2.57267732 10.9597598,2.61645441 11.058956,2.69552274 C11.14389,2.76669474 11.1931254,2.88649543 11.1931254,3.06343656 C11.1931254,3.24906572 11.1068156,3.43131653 10.9265218,3.61064951 C10.8198064,3.70920027 10.6557884,3.83236769 10.4431652,3.97040977 L9.860885,4.33448825 C9.48431253,4.57744278 9.21964319,4.77562304 9.06791235,4.92986223 C8.6894824,5.30490501 8.5,5.75420302 8.5,6.27272727 L8.5,6.5 L12.5,6.5 L12.5,5.40234765 L10.2847059,5.40227273 L10.3772232,5.3319393 C10.4604533,5.27076711 10.5558351,5.20661851 10.6633242,5.13986134 L10.8336328,5.03781514 C11.3680354,4.72171433 11.7189764,4.48280487 11.9259684,4.28742057 C12.3002765,3.92186075 12.4929128,3.51563659 12.4929128,3.06968032 C12.4929128,2.6040985 12.3071186,2.22093006 11.9400516,1.92694473 C11.5750581,1.64109851 11.1186069,1.5 10.5779589,1.5 Z" fill="#8B8FA3" fill-rule="nonzero"></path>
            <rect fill="#8B8FA3" x="0.5" y="0.5" width="7" height="7"></rect>
            <path d="M4.68116804,1.5 L3.89871226,1.5 L3.7247235,1.55127088 C3.51215102,1.69480008 2.79372732,2.10877943 2.5,2.15637744 L2.5,3.30567048 C2.82062088,3.23076042 3.01651905,3.16412859 3.28102669,3.05406397 L3.33849796,3.02727276 L3.33889082,6.5 L4.68116804,6.5 L4.68116804,1.5 Z" fill="#FFFFFF" fill-rule="nonzero"></path>
        </g>
    </g>
</svg>