<?xml version="1.0" encoding="UTF-8"?>
<svg width="48px" height="48px" viewBox="0 0 48 48" version="1.1" xmlns="http://www.w3.org/2000/svg" xmlns:xlink="http://www.w3.org/1999/xlink">
  <g stroke="none" stroke-width="1" fill="none" fill-rule="evenodd">
    <circle stroke="#EFEFF0" stroke-width="7" cx="24" cy="24" r="18"/>
    <path d="M42,24 C42,14.0588745 33.9411255,6 24,6" stroke="#3377FF" stroke-width="7" stroke-linecap="round"/>
    <g transform="translate(14.000000, 20.000000)" fill="#8B8FA3" fill-rule="nonzero">
      <g>
        <path d="M3.25873774,1.47460938 C3.08775459,1.27604167 2.843014,1.17675781 2.52451597,1.17675781 C2.08867656,1.17675781 1.7919705,1.33463542 1.63439779,1.65039062 C1.54387729,1.83268229 1.49023552,2.12239583 1.47347247,2.51953125 L0.0804626603,2.51953125 C0.103930936,1.91731771 0.2162434,1.43066406 0.41740005,1.05957031 C0.799597687,0.353190104 1.47850138,0 2.45411114,0 C3.22521163,0 3.83873942,0.207519531 4.29469449,0.622558594 C4.75064957,1.03759766 4.97862711,1.58691406 4.97862711,2.27050781 C4.97862711,2.79459635 4.81770179,3.26009115 4.49585114,3.66699219 C4.28463666,3.93717448 3.93764144,4.23828125 3.45486548,4.5703125 L2.88156902,4.96582031 C2.52283966,5.21321615 2.27726092,5.3922526 2.14483279,5.50292969 C2.01240466,5.61360677 1.90093035,5.7421875 1.81040986,5.88867188 L4.99371385,5.88867188 L4.99371385,7.11425781 L0,7.11425781 C0.0134104434,6.60644531 0.125722907,6.14257812 0.33693739,5.72265625 C0.541446652,5.25065104 1.02422261,4.75097656 1.78526528,4.22363281 C2.44572961,3.76464844 2.87318749,3.4358724 3.06763892,3.23730469 C3.36602129,2.9280599 3.51521247,2.58951823 3.51521247,2.22167969 C3.51521247,1.92220052 3.4297209,1.67317708 3.25873774,1.47460938 Z"/>
        <path d="M8.15187327,3.59863281 C7.97753751,3.59863281 7.82667002,3.61979167 7.69927081,3.66210938 C7.47464588,3.74023437 7.30533903,3.88509115 7.19135026,4.09667969 L5.9039477,4.03808594 L6.41689716,0.126953125 L10.4350013,0.126953125 L10.4350013,1.30859375 L7.45285391,1.30859375 L7.19135026,2.85644531 C7.41262258,2.71647135 7.58528204,2.62369792 7.70932864,2.578125 C7.91719051,2.50325521 8.17031263,2.46582031 8.468695,2.46582031 C9.07216495,2.46582031 9.59852485,2.66276042 10.0477747,3.05664062 C10.4970246,3.45052083 10.7216495,4.0234375 10.7216495,4.77539062 C10.7216495,5.4296875 10.5054061,6.0139974 10.0729193,6.52832031 C9.64043249,7.04264323 8.99337859,7.29980469 8.13175761,7.29980469 C7.43776716,7.29980469 6.86782332,7.11914062 6.42192607,6.7578125 C5.97602883,6.39648438 5.72793563,5.88378906 5.67764647,5.21972656 L7.10585869,5.21972656 C7.16285307,5.52246094 7.27181292,5.75602214 7.43273824,5.92041016 C7.59366357,6.08479818 7.82834632,6.16699219 8.13678652,6.16699219 C8.49216327,6.16699219 8.7628866,6.04573568 8.9489565,5.80322266 C9.1350264,5.56070964 9.22806135,5.25553385 9.22806135,4.88769531 C9.22806135,4.52636719 9.14089347,4.22119141 8.96655771,3.97216797 C8.79222194,3.72314453 8.52066046,3.59863281 8.15187327,3.59863281 Z"/>
      </g>
      <path d="M18.5582569,3.62304688 C19.0745589,3.62304688 19.5154272,3.80045573 19.8808618,4.15527344 C20.2462964,4.51009115 20.4290137,4.93815104 20.4290137,5.43945312 C20.4290137,5.94075521 20.2462964,6.3688151 19.8808618,6.72363281 C19.5154272,7.07845052 19.0745589,7.25585938 18.5582569,7.25585938 C18.0419548,7.25585938 17.6010865,7.07845052 17.2356519,6.72363281 C16.8702173,6.3688151 16.6875,5.94075521 16.6875,5.43945312 C16.6875,4.93489583 16.8702173,4.50520833 17.2356519,4.15039062 C17.6010865,3.79882812 18.0419548,3.62304688 18.5582569,3.62304688 Z M18.5582569,4.66308594 C18.3369845,4.66308594 18.1484002,4.73876953 17.9925038,4.89013672 C17.8366074,5.04150391 17.7586592,5.22460938 17.7586592,5.43945312 C17.7586592,5.65429688 17.8374455,5.83658854 17.9950182,5.98632812 C18.1492383,6.13932292 18.3369845,6.21582031 18.5582569,6.21582031 C18.7795292,6.21582031 18.9681135,6.14013672 19.1240099,5.98876953 C19.2799063,5.83740234 19.3578545,5.65429688 19.3578545,5.43945312 C19.3578545,5.22460938 19.2799063,5.04150391 19.1240099,4.89013672 C18.9681135,4.73876953 18.7795292,4.66308594 18.5582569,4.66308594 Z"/>
      <path d="M13.5582569,0.114257812 C14.0745589,0.114257812 14.5154272,0.291666667 14.8808618,0.646484375 C15.2462964,1.00130208 15.4290137,1.42936198 15.4290137,1.93066406 C15.4290137,2.43196615 15.2471346,2.86002604 14.8833763,3.21484375 C14.519618,3.56966146 14.0779115,3.74707031 13.5582569,3.74707031 C13.0419548,3.74707031 12.6010865,3.56966146 12.2356519,3.21484375 C11.8702173,2.86002604 11.6875,2.43196615 11.6875,1.93066406 C11.6875,1.42936198 11.8702173,1.00130208 12.2356519,0.646484375 C12.6010865,0.291666667 13.0419548,0.114257812 13.5582569,0.114257812 Z M13.5582569,1.15429688 C13.3369845,1.15429688 13.1484002,1.22998047 12.9925038,1.38134766 C12.8366074,1.53271484 12.7586592,1.71582031 12.7586592,1.93066406 C12.7586592,2.14550781 12.8374455,2.32779948 12.9950182,2.47753906 C13.1492383,2.63053385 13.3369845,2.70703125 13.5582569,2.70703125 C13.7795292,2.70703125 13.9681135,2.63134766 14.1240099,2.47998047 C14.2799063,2.32861328 14.3578545,2.14550781 14.3578545,1.93066406 C14.3578545,1.71582031 14.2799063,1.53271484 14.1240099,1.38134766 C13.9681135,1.22998047 13.7795292,1.15429688 13.5582569,1.15429688 Z"/>
      <polygon points="14.6875 7.29980469 13.2511944 7.29980469 17.3296455 0.0341796875 18.6875 0.0341796875"/>
    </g>
  </g>
</svg>
