<?xml version="1.0" encoding="UTF-8"?>
<svg width="16px" height="16px" viewBox="0 0 16 16" version="1.1" xmlns="http://www.w3.org/2000/svg" xmlns:xlink="http://www.w3.org/1999/xlink">
    <g stroke="none" stroke-width="1" fill="none" fill-rule="evenodd">
        <rect x="0" y="0" width="16" height="16"></rect>
        <g fill="#FFFFFF">
            <path d="M8,0 C12.418278,0 16,3.46979319 16,7.75 C16,9.37000034 15.4869111,10.8739073 14.6095734,12.1175321 L14.9805116,14.7130732 C15.0507709,15.2051388 14.7088294,15.6609932 14.2167638,15.7312525 C14.045272,15.7557388 13.8703573,15.7302127 13.7130155,15.6577381 L11.5865951,14.6793886 C10.5078278,15.204423 9.28954525,15.5 8,15.5 C3.581722,15.5 0,12.0302068 0,7.75 C0,3.46979319 3.581722,0 8,0 Z M7.94931874,10.1 C7.39741024,10.1 6.95,10.5477153 6.95,11.1 C6.95,11.6522847 7.39741024,12.1 7.94931874,12.1 C8.50122725,12.1 8.94863749,11.6522847 8.94863749,11.1 C8.94863749,10.5477153 8.50122725,10.1 7.94931874,10.1 Z M7.94386978,3.3 C6.60912582,3.3 5.57419355,4.31131103 5.57419355,5.66493193 C5.57419355,6.12132316 5.94391969,6.49130135 6.4,6.49130135 C6.85608031,6.49130135 7.22580645,6.12132316 7.22580645,5.66493193 L7.23169925,5.56018351 C7.27461103,5.18823744 7.54855323,4.95273884 7.94386978,4.95273884 C8.374657,4.95273884 8.66645043,5.2395183 8.66645043,5.67937663 C8.66645043,6.13749483 8.41383383,6.42296566 7.70836186,6.63521165 C7.35986063,6.74006059 7.12102541,7.06083535 7.12032352,7.42499405 L7.12032352,7.42499405 L7.11806487,8.59684797 L7.12429927,8.70051822 C7.17447153,9.10807952 7.5212806,9.42399716 7.94227702,9.4248097 L7.94227702,9.4248097 L8.04587665,9.41857105 C8.45316029,9.36836458 8.76886271,9.02131909 8.7696747,8.60003566 L8.7696747,8.60003566 L8.77006452,7.99481128 L8.9616288,7.89855101 C9.83307571,7.42326059 10.3180633,6.6672287 10.3180633,5.67937663 C10.3180633,4.3200054 9.28022443,3.3 7.94386978,3.3 Z"></path>
        </g>
    </g>
</svg>