<?xml version="1.0" encoding="UTF-8"?>
<svg width="16px" height="16px" viewBox="0 0 16 16" version="1.1" xmlns="http://www.w3.org/2000/svg" xmlns:xlink="http://www.w3.org/1999/xlink">
  <g stroke="none" stroke-width="1" fill="none" fill-rule="evenodd">
    <g transform="translate(1.300000, 3.000000)" fill-rule="nonzero">
      <path d="M1.625,2.5 C1.625,2.03976667 1.9887725,1.66666667 2.4375,1.66666667 L12.1875,1.66666667 C12.6362438,1.66666667 13,2.03976667 13,2.5 L13,9.16666667 C13,9.62691667 12.6362438,10 12.1875,10 L2.4375,10 C1.9887725,10 1.625,9.62691667 1.625,9.16666667 L1.625,2.5 Z" fill="#DC8453"/>
      <path d="M0,0.833333333 C0,0.3731 0.363768437,0 0.8125,0 L10.5625,0 C11.0112437,0 11.375,0.3731 11.375,0.833333333 L11.375,7.5 C11.375,7.96025 11.0112437,8.33333333 10.5625,8.33333333 L0.8125,8.33333333 C0.36376925,8.33333333 0,7.96025 0,7.5 L0,0.833333333 Z" fill="#E3BC5E"/>
      <path d="M0.32667375,1.02233333 C-0.0685526562,0.667641667 0.176035438,0 0.701199687,0 L10.6738125,0 C11.1989312,0 11.443575,0.66765 11.0482937,1.02233333 L6.22253125,5.353175 C5.9162025,5.62809167 5.4587975,5.62809167 5.15246875,5.353175 L0.32667375,1.02233333 Z" fill="#F6D891"/>
    </g>
  </g>
</svg>
