<?xml version="1.0" encoding="UTF-8"?>
<svg width="20px" height="20px" viewBox="0 0 20 20" version="1.1" xmlns="http://www.w3.org/2000/svg" xmlns:xlink="http://www.w3.org/1999/xlink">
  <g stroke="none" stroke-width="1" fill="none" fill-rule="evenodd">
    <rect x="0" y="0" width="20" height="20"/>
    <g transform="translate(3.000000, 3.200000)" fill="currentColor" fill-rule="nonzero">
      <path d="M13.8,-0.75 L9.7,-0.75 C9.17532949,-0.75 8.75,-0.324670511 8.75,0.200000003 L8.75,4 C8.75,4.52467051 9.17532949,4.95 9.7,4.95 L13.8,4.95 C14.3246705,4.95 14.75,4.52467051 14.75,4 L14.75,0.200000003 C14.75,-0.324670511 14.3246705,-0.75 13.8,-0.75 Z M13.25,0.75 L13.25,3.45 L10.25,3.45 L10.25,0.75 L13.25,0.75 Z"/>
      <path d="M6.8,-0.75 L0.200000003,-0.75 C-0.324670511,-0.75 -0.75,-0.324670511 -0.75,0.200000003 L-0.75,4 C-0.75,4.52467051 -0.324670511,4.95 0.200000003,4.95 L6.8,4.95 C7.32467051,4.95 7.75,4.52467051 7.75,4 L7.75,0.200000003 C7.75,-0.324670511 7.32467051,-0.75 6.8,-0.75 Z M6.25,0.75 L6.25,3.449 L0.75,3.449 L0.75,0.75 L6.25,0.75 Z"/>
      <path d="M13.8,5.95 L0.200000003,5.95 C-0.324670511,5.95 -0.75,6.37532949 -0.75,6.9 L-0.75,13.2635884 C-0.75,13.7882589 -0.324670511,14.2135884 0.200000003,14.2135884 L13.8,14.2135884 C14.3246705,14.2135884 14.75,13.7882589 14.75,13.2635884 L14.75,6.9 C14.75,6.37532949 14.3246705,5.95 13.8,5.95 Z M13.25,7.449 L13.25,12.713 L0.75,12.713 L0.75,7.449 L13.25,7.449 Z"/>
    </g>
  </g>
</svg>
