<?xml version="1.0" encoding="UTF-8"?>
<svg width="16px" height="16px" viewBox="0 0 16 16" version="1.1" xmlns="http://www.w3.org/2000/svg" xmlns:xlink="http://www.w3.org/1999/xlink">
    <g stroke="none" stroke-width="1" fill="none" fill-rule="evenodd">
        <rect x="0" y="0" width="16" height="16"></rect>
        <g transform="translate(0.000000, 3.000000)">
            <rect fill="#8B8FA3" x="0" y="0" width="16" height="10" rx="2"></rect>
            <g transform="translate(2.834000, 2.600000)" fill="#FFFFFF" fill-rule="nonzero">
                <g id="B">
                    <path d="M0,4.9 L0,0 L1.89,0 C2.436,0 2.83033333,0.098 3.073,0.294 C3.30166667,0.476 3.416,0.760666667 3.416,1.148 C3.416,1.43733333 3.36233333,1.673 3.255,1.855 C3.129,2.06966667 2.93533333,2.205 2.674,2.261 C3.29933333,2.36366667 3.612,2.75566667 3.612,3.437 C3.612,3.90366667 3.47666667,4.26066667 3.206,4.508 C2.92133333,4.76933333 2.492,4.9 1.918,4.9 L0,4.9 Z M1.176,0.854 L1.176,1.953 L1.645,1.953 C1.85033333,1.953 1.99733333,1.89933333 2.086,1.792 C2.16533333,1.69866667 2.205,1.55166667 2.205,1.351 C2.205,1.17366667 2.16183333,1.0465 2.0755,0.9695 C1.98916667,0.8925 1.83866667,0.854 1.624,0.854 L1.176,0.854 Z M1.176,2.814 L1.176,4.046 L1.757,4.046 C1.99033333,4.046 2.15833333,3.99233333 2.261,3.885 C2.35433333,3.787 2.401,3.63416667 2.401,3.4265 C2.401,3.21883333 2.35666667,3.06833333 2.268,2.975 C2.17,2.86766667 2.002,2.814 1.764,2.814 L1.176,2.814 Z"></path>
                </g>
                <g id="t" transform="translate(3.930500, 0.329000)">
                    <path d="M2.457,4.557 C2.32166667,4.62233333 2.07666667,4.655 1.722,4.655 C1.29733333,4.655 0.998666667,4.564 0.826,4.382 C0.653333333,4.2 0.567,3.878 0.567,3.416 L0.567,1.897 L0,1.897 L0,1.071 L0.567,1.071 L0.567,0.175 L1.673,0 L1.673,1.071 L2.457,1.071 L2.457,1.897 L1.673,1.897 L1.673,3.283 C1.673,3.48833333 1.70333333,3.626 1.764,3.696 C1.82466667,3.766 1.93433333,3.801 2.093,3.801 C2.219,3.801 2.34033333,3.77533333 2.457,3.724 L2.457,4.557 Z"></path>
                </g>
                <g id="n" transform="translate(7.010500, 1.316000)">
                    <path d="M3.367,3.584 L2.261,3.584 L2.261,1.638 C2.261,1.32533333 2.226,1.1165 2.156,1.0115 C2.086,0.9065 1.939,0.854 1.715,0.854 C1.533,0.854 1.386,0.921666667 1.274,1.057 C1.162,1.19233333 1.106,1.36966667 1.106,1.589 L1.106,3.584 L0,3.584 L0,0.084 L1.05,0.084 L1.12,0.595 C1.37666667,0.198333333 1.73133333,0 2.184,0 C2.62733333,0 2.93533333,0.107333333 3.108,0.322 C3.28066667,0.536666667 3.367,0.91 3.367,1.442 L3.367,3.584 Z"></path>
                </g>
            </g>
        </g>
    </g>
</svg>