<?xml version="1.0" encoding="UTF-8"?>
<svg width="20px" height="20px" viewBox="0 0 20 20" version="1.1" xmlns="http://www.w3.org/2000/svg" xmlns:xlink="http://www.w3.org/1999/xlink">
  <g stroke="none" stroke-width="1" fill="none" fill-rule="evenodd">
    <g>
      <rect fill="#FFC3C3" opacity="0" x="0" y="0" width="20" height="20"/>
      <path d="M9.96666667,7.58333333 C8.65038801,7.58333333 7.58333333,8.65038801 7.58333333,9.96666667 C7.58333333,11.2829453 8.65038801,12.35 9.96666667,12.35 C11.2829453,12.35 12.35,11.2829453 12.35,9.96666667 C12.35,8.65038801 11.2829453,7.58333333 9.96666667,7.58333333 Z M9.96666667,9.08333333 C10.4545182,9.08333333 10.85,9.47881514 10.85,9.96666667 C10.85,10.4545182 10.4545182,10.85 9.96666667,10.85 C9.47881514,10.85 9.08333333,10.4545182 9.08333333,9.96666667 C9.08333333,9.47881514 9.47881514,9.08333333 9.96666667,9.08333333 Z" fill="#8B8FA3" fill-rule="nonzero"/>
      <path d="M2.28233662,9.27178425 C2.62751459,9.27178425 2.91822928,9.50496928 3.0055459,9.82240454 L3.026,9.932 L3.09852013,10.0557467 C4.55083,12.4735711 7.16101593,13.9833333 10.0333333,13.9833333 C12.8143062,13.9833333 15.349399,12.568038 16.8258054,10.2841154 L16.9834051,10.0288242 L17.1157711,9.74103464 L17.1545032,9.66601079 C17.3509915,9.3013668 17.805879,9.16504964 18.170523,9.3615379 C18.50478,9.54165214 18.647179,9.93889357 18.517245,10.2847184 L18.330648,10.6888482 C18.3082393,10.733985 18.28687,10.7732373 18.2618091,10.8151092 C16.5428487,13.6871516 13.4431544,15.4833333 10.0333333,15.4833333 C6.73530103,15.4833333 3.72718835,13.8030187 1.977976,11.0935223 L1.75876553,10.738132 C1.68516087,10.6126645 1.63243419,10.5061299 1.5916099,10.3807393 C1.55398073,10.2651624 1.53233662,10.1467133 1.53233662,10.0217843 C1.53233662,9.60757069 1.86812306,9.27178425 2.28233662,9.27178425 Z" fill="#8B8FA3" fill-rule="nonzero"/>
      <path d="M17.8147496,4.45 C18.2289631,4.45 18.5647496,4.78578644 18.5647496,5.2 C18.5647496,5.50299516 18.4740203,5.69387968 18.2618091,6.04844253 C16.5428487,8.92048498 13.4431544,10.7166667 10.0333333,10.7166667 C6.62891289,10.7166667 3.53341825,8.92619616 1.81265988,6.06145526 C1.66266353,5.81173938 1.53233662,5.47285891 1.53233662,5.2 C1.53233662,4.78578644 1.86812306,4.45 2.28233662,4.45 C2.69655019,4.45 3.03233662,4.78578644 3.03233662,5.2 C3.03233662,5.18436544 3.03510511,5.17983822 3.03959983,5.1824112 L3.05722046,5.20742355 L3.09852013,5.28908008 C4.55083,7.70690442 7.16101593,9.21666667 10.0333333,9.21666667 C12.8143062,9.21666667 15.349399,7.80137134 16.8258054,5.51744875 L17.0265326,5.19028239 C17.0480897,5.15798825 17.0647496,5.14605642 17.0647496,5.2 C17.0647496,4.78578644 17.400536,4.45 17.8147496,4.45 Z" fill="#8B8FA3" fill-rule="nonzero" transform="translate(10.048543, 7.583333) scale(1, -1) translate(-10.048543, -7.583333) "/>
    </g>
  </g>
</svg>
