<svg xmlns="http://www.w3.org/2000/svg" xmlns:xlink="http://www.w3.org/1999/xlink" width="24px" height="24px" viewBox="0 0 24 24" version="1.1">
  <g stroke="none" stroke-width="1" fill="none" fill-rule="evenodd">
    <g transform="translate(1.333333, 1.500000)" fill="#FFFFFF">
      <path d="M10.6666667,0 C16.557704,0 21.3333333,4.32791409 21.3333333,9.66666667 C21.3333333,12.3632815 20.1149362,14.802003 18.149819,16.555374 L18.5552923,19.466174 C18.6316342,20.0131569 18.2501043,20.5184616 17.7031213,20.5948035 C17.518174,20.6206165 17.3296939,20.5941273 17.1590262,20.5183359 L14.0843383,19.1529063 C13.9574828,19.0965714 13.8481414,19.0170721 13.7590815,18.9215975 C12.7814719,19.1889469 11.7426752,19.3333333 10.6666667,19.3333333 C4.77562934,19.3333333 0,15.0054192 0,9.66666667 C0,4.32791409 4.77562934,0 10.6666667,0 Z M10.402,12.886 C10.094,12.886 9.842,12.984 9.632,13.18 C9.422,13.376 9.324,13.628 9.324,13.936 C9.324,14.244 9.422,14.496 9.632,14.692 C9.842,14.888 10.094,15 10.402,15 C10.71,15 10.962,14.902 11.172,14.706 C11.382,14.51 11.494,14.244 11.494,13.936 C11.494,13.628 11.382,13.376 11.186,13.18 C10.976,12.984 10.71,12.886 10.402,12.886 Z M10.654,4.808 C9.618,4.808 8.806,5.102 8.204,5.69 C7.65874447,6.21047118 7.36450576,6.72705872 7.30421001,7.5709396 L7.294,7.78892008 L7.294,7.78892008 C7.28967595,7.97071772 7.43354671,8.12159915 7.61534435,8.12592321 C7.61795368,8.12598527 7.62056366,8.1260163 7.62317373,8.126 L8.54290525,8.126 C8.70724574,8.12599582 8.84552388,8.0116584 8.88121014,7.85730489 L8.89,7.78892008 L8.89,7.78892008 C8.9054409,7.26185688 9.01963737,7.05213768 9.24,6.754 C9.506,6.362 9.94,6.18 10.556,6.18 C11.032,6.18 11.41,6.306 11.676,6.572 C11.928,6.838 12.068,7.202 12.068,7.664 C12.068,8.014 11.942,8.35 11.69,8.658 L11.522,8.854 C10.612,9.666 10.066,10.254 9.884,10.632 C9.688,11.01 9.604,11.2822478 9.604,11.8142478 C9.604,12.0272928 9.77670716,12.2 9.98975224,12.2 L10.8282478,12.2 C11.0146622,12.2 11.1701929,12.0677711 11.2061629,11.8919903 L11.214,11.8142478 C11.214,11.4782478 11.284,11.374 11.424,11.094 C11.55,10.842 11.732,10.604 11.984,10.394 C12.656,9.806 13.062,9.428 13.188,9.288 C13.524,8.84 13.706,8.266 13.706,7.566 C13.706,6.712 13.426,6.04 12.866,5.55 C12.306,5.046 11.564,4.808 10.654,4.808 Z"/>
    </g>
  </g>
</svg>
