<?xml version="1.0" encoding="UTF-8"?>
<svg width="16px" height="16px" viewBox="0 0 16 16" version="1.1" xmlns="http://www.w3.org/2000/svg" xmlns:xlink="http://www.w3.org/1999/xlink">
  <g stroke="none" stroke-width="1" fill="none" fill-rule="evenodd">
    <rect fill="#FFFFFF" x="0" y="0" width="16" height="16" rx="2"/>
    <g transform="translate(1.000000, 1.500000)">
      <path d="M3.51130928,2 C3.33876975,1.99955056 3.16689172,2.01784941 3,2.05444451 L3,2.07349715 L3.02475128,2.07349715 C3.14428072,2.22429324 3.27755138,2.36715828 3.42337711,2.50082073 C3.52368492,2.66739528 3.61096574,2.83342546 3.71062219,3 C3.72299783,2.98965714 3.73537347,2.97876991 3.73537347,2.97876991 C3.92344746,2.85399898 4.02180591,2.65732958 3.99591323,2.45781619 C3.94136446,2.38752014 3.89135617,2.31483471 3.84610287,2.24007169 C3.77119769,2.13609869 3.60901169,2.08384001 3.50935523,2.00055274" fill="#5D87A1"/>
      <path d="M12.8855638,10.0415395 C12.2520488,9.99966316 11.6163537,10.0860404 11.0213064,10.2948518 C10.8771679,10.3492005 10.6471491,10.3492005 10.6270601,10.5207534 C10.7044027,10.5930608 10.7134427,10.7097924 10.781243,10.8104557 C10.9127819,11.0200292 11.081844,11.2066189 11.2809564,11.361977 C11.4818462,11.5065918 11.6827361,11.6507341 11.8961815,11.7773902 C12.2703387,11.9952577 12.693714,12.1214412 13.058329,12.3383635 C13.2702678,12.4650196 13.4812021,12.6275932 13.6931408,12.7637012 C13.798608,12.8360087 13.8654038,12.9527402 14,13 L14,12.9725893 C13.9604548,12.8721567 13.9115485,12.7752116 13.8538527,12.6828871 C13.7579278,12.5930935 13.6615007,12.5113342 13.5650736,12.421068 C13.2833603,12.0705373 12.9463196,11.762623 12.5656468,11.5080096 C12.2577831,11.3085735 11.5848023,11.0354121 11.4607528,10.7045938 L11.4411661,10.6861625 C11.6664369,10.6561264 11.8884465,10.6074169 12.1046047,10.5406025 C12.4310506,10.4593157 12.7288697,10.477747 13.0648579,10.3988232 C13.2190409,10.3624332 13.4977755,10.2721671 13.4977755,10.2721671 L13.4977755,10.1303878 C13.3260147,9.96970467 13.2029697,9.7546728 13.0221689,9.60296899 C12.530289,9.19892467 12.0060928,8.83110284 11.4542239,8.50276196 C11.1594181,8.32364749 10.7792341,8.2083337 10.4653438,8.0556847 C10.3518411,8.00180858 10.1640091,7.97534312 10.0952043,7.88554959 C9.93909211,7.67003277 9.80841148,7.43914412 9.70547812,7.19697499 C9.43025908,6.70547357 9.16357786,6.16056862 8.92652788,5.64071135 C8.78621828,5.29232037 8.62439356,4.95194258 8.44188122,4.62131849 C7.56114851,3.21225215 6.28988057,2.05502094 4.76409105,1.27343762 C4.37910289,1.0980822 3.9697877,0.974624465 3.54820548,0.906701942 C3.31015106,0.897249992 3.07310109,0.879763883 2.83554889,0.871257128 C2.68220099,0.776721029 2.53634072,0.671844371 2.39911578,0.557452371 C1.85570884,0.233723067 0.459524675,-0.461940489 0.0597539558,0.459152086 C-0.19638055,1.04091964 0.440440143,1.61276264 0.65890781,1.9081361 C0.843120174,2.11640243 1.00542913,2.34099278 1.14355447,2.57875198 C1.21035033,2.73092839 1.22943487,2.89208414 1.29422183,3.05134951 C1.43363172,3.46019644 1.59916518,3.86074372 1.78991743,4.25080203 C1.89194032,4.44358656 2.00946814,4.62875363 2.1414746,4.80468633 C2.21831495,4.90345921 2.35090222,4.94646558 2.37952902,5.10951173 C2.27420518,5.32254413 2.20052456,5.54819794 2.16055913,5.78012762 C1.82527864,6.77648433 1.92446239,7.8573762 2.43628039,8.78490268 C2.58694775,9.00844131 2.94955385,9.50041533 3.43420052,9.31232152 C3.86159358,9.15163836 3.76667315,8.64170563 3.89022038,8.19510097 C3.91834495,8.08687613 3.89976265,8.01598651 3.95651402,7.94462428 L3.95651402,8.03158222 C3.95651402,8.03158222 4.19908846,8.5330082 4.31962235,8.78773826 C4.64741501,9.25513959 5.0546228,9.66866112 5.5249612,10.0117659 C5.71100517,10.1646133 5.8608857,10.3525041 5.96490988,10.5632872 L5.96490988,10.7253881 L6.17935975,10.7253881 C6.17031742,10.5774112 6.09171357,10.4409102 5.96490988,10.3529813 C5.78905183,10.1826514 5.62799126,9.99932616 5.48327656,9.80476814 C5.09016066,9.27792005 4.74347544,8.72171052 4.44668515,8.14169745 C4.29601779,7.85813893 4.16895499,7.54716976 4.04842111,7.26408384 C3.99317641,7.15491382 3.99317641,6.98997728 3.90026487,6.93326558 C3.72870437,7.12427502 3.57983243,7.33234951 3.45629839,7.55378613 C3.30633083,8.00135752 3.21904448,8.4654247 3.19664832,8.9342435 C3.15998593,8.94369545 3.17806601,8.9342435 3.15998593,8.9522022 C2.86417568,8.87894959 2.76222411,8.57790496 2.65073026,8.3227023 C2.36270985,7.53561346 2.33365491,6.68507939 2.56736099,5.88220868 C2.63164573,5.69080668 2.91038034,5.08777224 2.7988865,4.904877 C2.74313957,4.73048851 2.55781873,4.63077044 2.45636937,4.49324456 C2.32685713,4.30823184 2.21541064,4.11256553 2.12339451,3.90864142 C1.90291795,3.40012648 1.79142411,2.83300945 1.55136078,2.32071374 C1.41847133,2.07433051 1.26374025,1.83893067 1.088812,1.61701602 C0.895312928,1.39533755 0.724627124,1.15686514 0.579054111,0.904811552 C0.532849455,0.804148279 0.468062492,0.639684341 0.541889496,0.530041715 C0.552126593,0.467466647 0.605212304,0.418862654 0.671965648,0.410947139 C0.791495084,0.310756464 1.13451443,0.438357795 1.25454609,0.493179108 C1.57715235,0.612689048 1.88443906,0.765987917 2.17060362,0.950180914 C2.30017755,1.04186483 2.60553006,1.27391022 2.60553006,1.27391022 L2.69593047,1.27391022 C3.00329188,1.33676569 3.34882235,1.29139633 3.63810367,1.3731557 C4.12517414,1.52594255 4.58999893,1.73551545 5.02173223,1.99698443 C6.2942074,2.76030113 7.32866392,3.8276683 8.0195104,5.09013523 C8.13502204,5.29760554 8.18373782,5.48806235 8.28920497,5.70451201 C8.49009477,6.14875369 8.74120704,6.60244731 8.94209684,7.03440145 C9.11932059,7.46176275 9.3485212,7.86838244 9.62512219,8.2461415 C9.76875841,8.43518051 10.3458144,8.53537118 10.6054645,8.63461666 C10.8309526,8.70802301 11.0522303,8.79241692 11.2684008,8.88745634 C11.595349,9.07649535 11.9212927,9.29436281 12.2291563,9.50183312 C12.3823348,9.61053055 12.8629637,9.83643217 12.8920927,10.017437" fill="#00758F"/>
    </g>
  </g>
</svg>
