<?xml version="1.0" encoding="UTF-8"?>
<svg width="48px" height="48px" viewBox="0 0 48 48" version="1.1" xmlns="http://www.w3.org/2000/svg" xmlns:xlink="http://www.w3.org/1999/xlink">
  <g stroke="none" stroke-width="1" fill="none" fill-rule="evenodd">
    <rect stroke="#D7D9E0" stroke-width="1.5" fill="#FFFFFF" x="0.75" y="3.75" width="46.5" height="40.5" rx="3"/>
    <g transform="translate(5.000000, 8.000000)">
      <g transform="translate(4.000000, 28.000000)" fill="#EFEFF0">
        <rect x="0" y="0" width="6" height="4" rx="1"/>
        <rect x="8" y="0" width="6" height="4" rx="1"/>
        <rect x="16" y="0" width="6" height="4" rx="1"/>
        <rect x="24" y="0" width="6" height="4" rx="1"/>
      </g>
      <rect fill="#EFEFF0" x="0" y="0" width="38" height="25" rx="2"/>
      <g transform="translate(12.000000, 4.000000)" fill="#8B8FA3" fill-rule="nonzero">
        <path d="M1.77230308,8.13622256 C0.877381896,9.03537173 0.515098354,10.3382569 0.816769123,11.5726223 C0.816769123,11.6089863 0.816769123,11.6453503 0.843940692,11.6771688 C0.990509543,12.4702153 0.738063162,13.2848007 0.16917975,13.8544644 C0.16917975,13.8544644 0.16917975,13.8544644 0.16917975,13.8544644 C-0.057684671,14.0825979 -0.0566559059,14.4514466 0.171477561,14.678311 C0.257668181,14.7640221 0.368511029,14.8206254 0.488479291,14.8401918 C3.28685826,15.2965633 5.42207883,14.7755721 6.89414629,13.2771856 C8.24739562,11.8474822 8.21867249,9.59567048 6.82939936,8.20121119 C5.44012623,6.8067519 3.19668922,6.77792154 1.77230308,8.13622256 Z M14.8508912,0.145229569 C14.6638695,-0.0297370174 14.3801076,-0.0487251028 14.1716017,0.0997745384 L6.8850891,5.65892383 C6.79198147,5.72674674 6.73397677,5.8328146 6.72696432,5.94807206 C6.71995188,6.06332951 6.76466683,6.17569374 6.84886033,6.25438462 L8.76898546,8.18167759 C8.84791113,8.27447007 8.96586629,8.32439135 9.08715665,8.31633481 C9.20844701,8.30827828 9.31881959,8.24319067 9.38487466,8.14076806 L14.9007058,0.831600412 C15.0499381,0.620340306 15.0290512,0.332550879 14.8508912,0.145229569 Z"/>
      </g>
    </g>
  </g>
</svg>
