<?xml version="1.0" encoding="UTF-8"?>
<svg width="16px" height="16px" viewBox="0 0 16 16" version="1.1" xmlns="http://www.w3.org/2000/svg" xmlns:xlink="http://www.w3.org/1999/xlink">
  <g stroke="none" stroke-width="1" fill="none" fill-rule="evenodd">
    <rect fill="#FFFFFF" x="0" y="0" width="16" height="16" rx="2"/>
    <g transform="translate(1.000000, 1.000000)" fill="#29B5E8">
      <path d="M4.67558629,7.25570202 C4.61293382,7.45785576 4.47697794,7.63745813 4.27675853,7.75228145 L1.31105885,9.45800978 C0.892182298,9.69789888 0.358562213,9.5556725 0.118155714,9.14076318 C-0.123772346,8.72351786 0.0186277811,8.19270706 0.437146318,7.95209919 L2.09457281,7.00053908 L0.437146318,6.04646327 C0.0186277811,5.80621478 -0.124488374,5.27531414 0.118155714,4.85959621 C0.358562213,4.44360873 0.892182298,4.30093312 1.31105885,4.54082222 L4.27675853,6.2454724 C4.48530177,6.36523726 4.62465878,6.55517193 4.68319409,6.76756812 C4.70288487,6.83585116 4.71165622,6.9041342 4.71505735,6.97277663 C4.71738444,7.06729473 4.70521196,7.16307068 4.67558629,7.25570202 Z M5.48031259,8.85325564 C5.93194743,8.88560024 6.28852952,9.26169604 6.28852952,9.71928226 L6.28852952,13.1297506 C6.28852952,13.6106968 5.89659354,14 5.41542253,14 C4.93192442,14 4.54150999,13.6106968 4.54150999,13.1297506 L4.54150999,11.2222279 L2.87844478,12.176753 C2.4614478,12.4185288 1.92818573,12.2754938 1.68589966,11.8602251 C1.44513515,11.4441478 1.58753527,10.9106416 2.00533778,10.6703931 L4.97336456,8.96682112 C5.13285986,8.87418978 5.30980835,8.83870057 5.48031259,8.85325564 Z M8.5201212,5.14683421 C8.06741231,5.11359115 7.71154625,4.73686642 7.71154625,4.27963959 L7.71154625,0.868722003 C7.71154625,0.389393025 8.10124465,0 8.58510077,0 C9.06850937,0 9.4590133,0.389393025 9.4590133,0.868722003 L9.4590133,2.77741269 L11.120915,1.82136027 C11.5387175,1.58111178 12.0722481,1.72369755 12.3131021,2.1390561 C12.5534191,2.55666081 12.4118245,3.08783099 11.993664,3.32807948 L9.02599519,5.03317888 C8.86649989,5.12464222 8.68990941,5.16049082 8.5201212,5.14683421 Z M2.00533778,3.32807948 C1.58753527,3.08783099 1.44513515,2.55666081 1.68589966,2.1390561 C1.92818573,1.72369755 2.4614478,1.58111178 2.87844478,1.82136027 L4.54150999,2.77741269 L4.54150999,0.868722003 C4.54150999,0.389393025 4.93192442,0 5.41542253,0 C5.89659354,0 6.28852952,0.389393025 6.28852952,0.868722003 L6.28852952,4.27963959 C6.28852952,4.73686642 5.93194743,5.11359115 5.48031259,5.14683421 C5.30980835,5.16049082 5.13285986,5.12464222 4.97336456,5.03317888 L2.00533778,3.32807948 Z M7.3356314,8.55999795 C7.3002775,8.59620593 7.23225481,8.6255856 7.18061127,8.6255856 L6.81794294,8.6255856 C6.76817898,8.6255856 6.69908225,8.59620593 6.66301232,8.55999795 L5.43019061,7.33386813 C5.39492622,7.29918753 5.36637459,7.22973649 5.36637459,7.18095006 L5.36637459,6.81904994 C5.36637459,6.76909551 5.39492622,6.69973431 5.43019061,6.66460448 L6.66301232,5.43811529 C6.69908225,5.40235654 6.76817898,5.37369563 6.81794294,5.37369563 L7.18061127,5.37369563 C7.23118077,5.37369563 7.3002775,5.40235654 7.3356314,5.43811529 L8.56916914,6.66460448 C8.60443353,6.69973431 8.63289566,6.76909551 8.63289566,6.81904994 L8.63289566,7.18095006 C8.63289566,7.22973649 8.60443353,7.29918753 8.56916914,7.33386813 L7.3356314,8.55999795 Z M7.58319818,6.99335139 C7.58319818,6.94375634 7.5532145,6.87475453 7.5178606,6.83809732 L7.16047298,6.4841935 C7.1255666,6.44915352 7.05611185,6.42013323 7.00634789,6.42013323 L6.99229583,6.42013323 C6.94253187,6.42013323 6.87343514,6.44915352 6.83879727,6.4841935 L6.48149915,6.83809732 C6.44578724,6.87475453 6.41839916,6.94375634 6.41839916,6.99335139 L6.41839916,7.00745723 C6.41839916,7.05624366 6.44578724,7.1245267 6.48149915,7.1603753 L6.83879727,7.51499788 C6.87379315,7.55012771 6.94253187,7.57905816 6.99229583,7.57905816 L7.00634789,7.57905816 C7.05611185,7.57905816 7.1255666,7.55012771 7.16047298,7.51499788 L7.5178606,7.1603753 C7.5532145,7.1245267 7.58319818,7.05624366 7.58319818,7.00745723 L7.58319818,6.99335139 Z M11.993664,10.6703931 C12.4118245,10.9106416 12.5534191,11.4441478 12.3131021,11.8602251 C12.0722481,12.2754938 11.53827,12.4185288 11.120915,12.176753 L9.4590133,11.2222279 L9.4590133,13.1297506 C9.4590133,13.6106968 9.06850937,14 8.58510077,14 C8.10124465,14 7.71154625,13.6106968 7.71154625,13.1297506 L7.71154625,9.71928226 C7.71154625,9.26169604 8.06741231,8.88560024 8.5201212,8.85325564 C8.68990941,8.83870057 8.86649989,8.87418978 9.02599519,8.96682112 L11.993664,10.6703931 Z M11.905145,7.00053908 L13.5625714,7.95209919 C13.98109,8.19270706 14.1242956,8.72351786 13.8823676,9.14076318 C13.6407975,9.5556725 13.1064614,9.69789888 12.6894644,9.45800978 L9.72143767,7.75228145 C9.52318734,7.63745813 9.38606792,7.45785576 9.324937,7.25570202 C9.29602736,7.16307068 9.28233332,7.06729473 9.28582396,6.97277663 C9.28734552,6.9041342 9.29754892,6.83585116 9.31652367,6.76756812 C9.37577501,6.55517193 9.51522152,6.36523726 9.72143767,6.2454724 L12.6894644,4.54082222 C13.1064614,4.30093312 13.6407975,4.44360873 13.8823676,4.85959621 C14.1242956,5.27531414 13.98109,5.80621478 13.5625714,6.04646327 L11.905145,7.00053908 Z"/>
    </g>
  </g>
</svg>
