<svg xmlns="http://www.w3.org/2000/svg" xmlns:xlink="http://www.w3.org/1999/xlink" width="16px" height="16px" viewBox="0 0 16 16" version="1.1">
  <g stroke="none" stroke-width="1" fill="none" fill-rule="evenodd">
    <path d="M8,1.91666667 C8.37969577,1.91666667 8.69349096,2.19882055 8.74315338,2.56489611 L8.75,2.66666667 L8.74966667,7.24966667 L13.3333333,7.25 C13.7475469,7.25 14.0833333,7.58578644 14.0833333,8 C14.0833333,8.37969577 13.8011795,8.69349096 13.4351039,8.74315338 L13.3333333,8.75 L8.74966667,8.74966667 L8.75,13.3333333 C8.75,13.7475469 8.41421356,14.0833333 8,14.0833333 C7.62030423,14.0833333 7.30650904,13.8011795 7.25684662,13.4351039 L7.25,13.3333333 L7.24966667,8.74966667 L2.66666667,8.75 C2.2524531,8.75 1.91666667,8.41421356 1.91666667,8 C1.91666667,7.62030423 2.19882055,7.30650904 2.56489611,7.25684662 L2.66666667,7.25 L7.24966667,7.24966667 L7.25,2.66666667 C7.25,2.2524531 7.58578644,1.91666667 8,1.91666667 Z" fill="currentColor" fill-rule="nonzero"/>
  </g>
</svg>
