<?xml version="1.0" encoding="UTF-8"?>
<svg width="20px" height="20px" viewBox="0 0 20 20" version="1.1" xmlns="http://www.w3.org/2000/svg" xmlns:xlink="http://www.w3.org/1999/xlink">
  <g stroke="none" stroke-width="1" fill="none" fill-rule="evenodd">
    <g transform="translate(2.000000, 2.000000)">
      <rect fill="#5589F2" x="0" y="0" width="16" height="16" rx="2"/>
      <path d="M8.41747573,6.52870264 L8.10291262,9.93436663 C8.03300971,10.7061487 7.92491909,11.2941064 7.77864078,11.6982396 C7.63236246,12.1023728 7.3961165,12.465812 7.06990291,12.7885572 C6.59093851,13.2628524 6.05372168,13.5 5.45825243,13.5 C5.33915858,13.5 5.18640777,13.464919 5,13.394757 L5.51650485,12.8811711 C5.73656958,12.9597525 5.93592233,12.9990432 6.11456311,12.9990432 C6.87831715,12.9990432 7.3197411,12.3717949 7.43883495,11.1172981 L7.53980583,10.0732874 L7.86601942,6.52870264 L6.41587257,6.52870264 L6.69160072,6.04037505 L7.91262136,6.04037505 L7.93592233,5.79621125 C8.02912621,4.7578135 8.30485437,3.94884552 8.7631068,3.36930731 C9.22135922,2.7897691 9.81294498,2.5 10.5378641,2.5 C10.6750809,2.5 10.8291262,2.5140324 11,2.54209721 L10.4563107,3.12303865 C10.2621359,3.04165072 10.0718447,3.00095675 9.88543689,3.00095675 C9.44012945,3.00095675 9.12297735,3.16794234 8.93398058,3.50191351 C8.74498382,3.83588468 8.60776699,4.47576221 8.5223301,5.42154612 L8.46407767,6.04037505 L10.3475728,6.04037505 L9.88543689,6.52870264 L8.41747573,6.52870264 Z" stroke="#FFFFFF" stroke-width="1.5" fill="#FFFFFF" fill-rule="nonzero"/>
    </g>
  </g>
</svg>
