<?xml version="1.0" encoding="UTF-8"?>
<svg width="16px" height="16px" viewBox="0 0 16 16" version="1.1" xmlns="http://www.w3.org/2000/svg" xmlns:xlink="http://www.w3.org/1999/xlink">
  <g stroke="none" stroke-width="1" fill="none" fill-rule="evenodd">
    <g transform="translate(2.250000, 0.500000)" fill-rule="nonzero">
      <polygon fill="#188038" points="7.546875 0 11.5 3.75 9.5234375 4.09090909 7.546875 3.75 7.1875 1.875"/>
      <path d="M7.546875,3.75 L7.546875,0 L1.078125,0 C0.482460938,0 0,0.457670455 0,1.02272727 L0,13.9772727 C0,14.5423295 0.482460938,15 1.078125,15 L10.421875,15 C11.0175391,15 11.5,14.5423295 11.5,13.9772727 L11.5,3.75 L7.546875,3.75 Z" fill="#34A853"/>
      <path d="M2.15625,5.79545455 L2.15625,10.7386364 L9.34375,10.7386364 L9.34375,5.79545455 L2.15625,5.79545455 Z M5.30078125,9.88636364 L3.0546875,9.88636364 L3.0546875,8.69318182 L5.30078125,8.69318182 L5.30078125,9.88636364 Z M5.30078125,7.84090909 L3.0546875,7.84090909 L3.0546875,6.64772727 L5.30078125,6.64772727 L5.30078125,7.84090909 Z M8.4453125,9.88636364 L6.19921875,9.88636364 L6.19921875,8.69318182 L8.4453125,8.69318182 L8.4453125,9.88636364 Z M8.4453125,7.84090909 L6.19921875,7.84090909 L6.19921875,6.64772727 L8.4453125,6.64772727 L8.4453125,7.84090909 Z" fill="#FFFFFF"/>
    </g>
  </g>
</svg>
