<?xml version="1.0" encoding="UTF-8"?>
<svg width="48px" height="48px" viewBox="0 0 48 48" version="1.1" xmlns="http://www.w3.org/2000/svg" xmlns:xlink="http://www.w3.org/1999/xlink">
  <g stroke="none" stroke-width="1" fill="none" fill-rule="evenodd">
    <g transform="translate(0.000000, 11.000000)">
      <rect stroke="#D7D9E0" fill="#F9F9FA" x="0.5" y="0.5" width="47" height="32" rx="2"/>
      <rect fill="#D7D9E0" x="6" y="5" width="29" height="5" rx="1"/>
      <rect fill="#D7D9E0" x="6" y="23" width="20" height="5" rx="1"/>
      <rect fill="#D7D9E0" x="6" y="14" width="36" height="5" rx="1"/>
      <g transform="translate(31.000000, 21.500000)" fill="#3377FF" fill-rule="nonzero">
        <path d="M0,8 L0,7 L1.5,7 L1.5,1 L0,1 L0,0 L4,0 L4,1 L2.5,1 L2.5,7 L4,7 L4,8 L0,8 Z"/>
      </g>
    </g>
    <g transform="translate(2.000000, 3.000000)">
      <g fill="#8B8FA3" fill-rule="nonzero">
        <path d="M2.47203947,6 L0,6 L0,0 L2.64967105,0 C3.31825658,0.0108548168 3.79194079,0.223880597 4.07072368,0.639077341 C4.23848684,0.894165536 4.32236842,1.19945726 4.32236842,1.55495251 C4.32236842,1.92130258 4.23848684,2.21573948 4.07072368,2.43826323 C3.97697368,2.56309362 3.83881579,2.6770692 3.65625,2.78018996 C3.93503289,2.89145183 4.14535362,3.06784261 4.28721217,3.30936228 C4.42907072,3.55088195 4.5,3.84396201 4.5,4.18860244 C4.5,4.54409769 4.41858553,4.86295794 4.25575658,5.14518318 C4.15213816,5.33242877 4.02261513,5.48982361 3.8671875,5.61736771 C3.69202303,5.76390773 3.48540296,5.86431479 3.2473273,5.91858887 C3.00925164,5.97286296 2.75082237,6 2.47203947,6 Z M2.44613487,3.35820896 L1.08799342,3.35820896 L1.08799342,4.95793758 L2.42763158,4.95793758 C2.66694079,4.95793758 2.85320724,4.92265943 2.98643092,4.85210312 C3.22820724,4.72184532 3.34909539,4.47218453 3.34909539,4.10312076 C3.34909539,3.79104478 3.23190789,3.57666214 2.99753289,3.45997286 C2.86677632,3.39484396 2.68297697,3.36092266 2.44613487,3.35820896 Z M3.01233553,2.21438263 C3.16036184,2.11668928 3.234375,1.94165536 3.234375,1.68928087 C3.234375,1.40976934 3.13569079,1.22523745 2.93832237,1.13568521 C2.76809211,1.07327001 2.55098684,1.04206242 2.28700658,1.04206242 L1.08799342,1.04206242 L1.08799342,2.36499322 L2.42763158,2.36499322 C2.66694079,2.36499322 2.86184211,2.31478969 3.01233553,2.21438263 Z"/>
      </g>
      <g transform="translate(16.500000, 0.000000)">
        <g transform="translate(0.200000, 0.000000)" fill="#8B8FA3" fill-rule="nonzero">
          <path d="M3.11712034,3.43066406 L1.36676218,3.43066406 L1.03796562,4.31835938 L0,4.31835938 L1.69555874,0 L2.81733524,0 L4.5,4.31835938 L3.42335244,4.31835938 L3.11712034,3.43066406 Z M2.83989971,2.68652344 L2.2467765,0.987304688 L1.63431232,2.68652344 L2.83989971,2.68652344 Z"/>
        </g>
        <rect fill="#3377FF" x="0" y="5" width="5" height="1" rx="0.5"/>
      </g>
      <g transform="translate(25.500000, 0.000000)" fill="#8B8FA3" fill-rule="nonzero">
        <path d="M0,1.63790036 L0,0 L1.88492063,0 L1.88492063,1.31405694 C1.88492063,1.92437722 1.72729277,2.41429419 1.41203704,2.78380783 C1.09678131,3.15332147 0.63712522,3.39205219 0.0330687831,3.5 L0.0330687831,2.84608541 C0.478395062,2.71322657 0.778218695,2.48487544 0.932539683,2.16103203 C1.01631393,1.99080664 1.0515873,1.81642942 1.03835979,1.63790036 L0,1.63790036 Z M4.54365079,2.76512456 C4.23500882,3.14294187 3.77204586,3.38790036 3.1547619,3.5 L3.1547619,2.84608541 C3.60890653,2.71737841 3.91093474,2.48072361 4.06084656,2.136121 C4.12257496,1.99911032 4.15343915,1.83303677 4.15343915,1.63790036 L3.12169312,1.63790036 L3.12169312,0 L5,0 L5,1.31405694 C5,1.90776987 4.8478836,2.39145907 4.54365079,2.76512456 Z"/>
      </g>
      <g transform="translate(8.500000, 0.000000)" fill="#8B8FA3">
        <path d="M4,0 L4,1.2 L3.014,1.2 L2.362,4.799 L3,4.8 L3,6 L2.145,5.999 L2.14597352,6 L1,6 L1,5.999 L0,6 L0,4.8 L1.217,4.799 L1.868,1.2 L1,1.2 L1,0 L4,0 Z"/>
      </g>
    </g>
  </g>
</svg>
