<?xml version="1.0" encoding="UTF-8"?>
<svg width="16px" height="16px" viewBox="0 0 16 16" version="1.1" xmlns="http://www.w3.org/2000/svg" xmlns:xlink="http://www.w3.org/1999/xlink">
  <g stroke="none" stroke-width="1" fill="none" fill-rule="evenodd">
    <g transform="translate(1.500000, 2.500000)">
      <path d="M10,6.56153224 L10,8.43604253 C10,9.30215783 7.7607564,10 5.002547,10 C2.23911936,10 0.00509399033,9.29693427 0.00509399033,8.43604253 L0.00509399033,8.43604253 L0.00509399033,6.56140787 C0.00509399033,7.42739879 2.2392436,8.12536534 4.997453,8.12536534 C7.75566241,8.12536534 9.99478177,7.42739879 10,6.56153224 L10,6.56153224 Z M9.99490601,3.74939369 L9.99490601,5.62402836 C9.99490601,6.49014365 7.75566241,7.18798582 4.997453,7.18798582 C2.3231682,7.18798582 0.144681556,6.52966405 0.00691684523,5.70684074 L0,5.62402836 L0,3.74939369 C0,4.61550899 2.2392436,5.31335116 4.997453,5.31335116 C7.75578665,5.31335116 9.99490601,4.61538462 9.99490601,3.74939369 Z M4.997453,0 C7.66680814,0 9.84990641,0.653662737 9.98797378,1.48069421 L9.99490601,1.56395747 L9.99490601,2.81213855 C9.99490601,3.67812947 7.75566241,4.37609601 4.997453,4.37609601 C2.3231682,4.37609601 0.144681556,3.71765777 0.00691684523,2.89482694 L0,2.81201418 L0,1.56395747 C0,0.697842174 2.2392436,0 4.997453,0 Z" fill="#222222" fill-rule="nonzero"/>
      <path d="M10.4704708,5.5 C11.306244,5.5 12.0627141,5.83571604 12.6104477,6.37748778 C13.1603842,6.92143843 13.5,7.67291618 13.5,8.5019961 C13.5,9.33106959 13.1604662,10.0813432 12.6107112,10.6242467 C12.1086665,11.1200345 11.4311119,11.442754 10.6777406,11.4930977 L10.4704708,11.5 L7.52994873,11.5 C6.69412521,11.5 5.93738555,11.1650725 5.389521,10.6241257 C4.83967385,10.0812213 4.5,9.33099088 4.5,8.5019961 C4.5,7.67299484 4.83975599,6.92156061 5.38978463,6.37760906 C5.89203817,5.88090477 6.56969151,5.55738962 7.32276904,5.50691976 L7.52994873,5.5 L10.4704708,5.5 Z M10.4050609,7.38188424 L7.59493905,7.38188424 L7.46203227,7.38945733 C7.20041328,7.41947089 6.96568304,7.53701584 6.78882461,7.71198076 C6.5843407,7.9142754 6.45729402,8.19352469 6.45729402,8.5019961 C6.45729402,8.80977285 6.58389294,9.0877751 6.78783864,9.2890402 C6.99435835,9.49284546 7.27990422,9.61811638 7.59493905,9.61811638 L7.59493905,9.61811638 L10.4050609,9.61811638 L10.5381642,9.61058666 C10.8001687,9.58073976 11.035231,9.46380005 11.2122151,9.28914205 C11.4161746,9.08786332 11.5427053,8.80981259 11.5427053,8.5019961 C11.5427053,8.19348486 11.4157269,7.91418694 11.2112292,7.71187861 C11.0049325,7.50779049 10.7198412,7.38188424 10.4050609,7.38188424 L10.4050609,7.38188424 Z" stroke="#FFFFFF" fill="#FF0000"/>
    </g>
  </g>
</svg>
