<?xml version="1.0" encoding="UTF-8"?>
<svg width="20px" height="20px" viewBox="0 0 20 20" version="1.1" xmlns="http://www.w3.org/2000/svg">
  <defs>
    <linearGradient id="icon-application-datasource-active_svg__a" x1="50%" y1="1.89576049%" x2="50%" y2="94.4251638%">
      <stop stop-color="#6D83F2" offset="0%"/>
      <stop stop-color="#4965F2" offset="100%"/>
    </linearGradient>
  </defs>
  <g stroke="none" stroke-width="1" fill="none" fill-rule="evenodd">
    <g transform="translate(2.500000, 2.000000)" fill="url(#icon-application-datasource-active_svg__a)">
      <path d="M14.5,11.4 C14.7761424,11.4 15,11.6238576 15,11.9 L15,14.4 C15,15.2284271 14.3284271,15.9 13.5,15.9 L1.5,15.9 C0.671572875,15.9 -3.42636147e-16,15.2284271 0,14.4 L0,11.9 C-3.38176876e-17,11.6238576 0.223857625,11.4 0.5,11.4 L14.5,11.4 Z M3.6,12.4 C2.99248678,12.4 2.5,12.8924868 2.5,13.5 C2.5,14.1075132 2.99248678,14.6 3.6,14.6 C4.20751322,14.6 4.7,14.1075132 4.7,13.5 C4.7,12.8924868 4.20751322,12.4 3.6,12.4 Z M14.5,5.7 C14.7761424,5.7 15,5.92385763 15,6.2 L15,9.7 C15,9.97614237 14.7761424,10.2 14.5,10.2 L0.5,10.2 C0.223857625,10.2 -7.72046149e-17,9.97614237 0,9.7 L0,6.2 C-3.38176876e-17,5.92385763 0.223857625,5.7 0.5,5.7 L14.5,5.7 Z M3.6,6.8 C2.99248678,6.8 2.5,7.29248678 2.5,7.9 C2.5,8.50751322 2.99248678,9 3.6,9 C4.20751322,9 4.7,8.50751322 4.7,7.9 C4.7,7.29248678 4.20751322,6.8 3.6,6.8 Z M13.5,0 C14.3284271,-1.52179594e-16 15,0.671572875 15,1.5 L15,4 C15,4.27614237 14.7761424,4.5 14.5,4.5 L0.5,4.5 C0.223857625,4.5 -7.72046149e-17,4.27614237 0,4 L0,1.5 C-1.01453063e-16,0.671572875 0.671572875,1.52179594e-16 1.5,0 L13.5,0 Z M3.6,1.2 C2.99248678,1.2 2.5,1.69248678 2.5,2.3 C2.5,2.90751322 2.99248678,3.4 3.6,3.4 C4.20751322,3.4 4.7,2.90751322 4.7,2.3 C4.7,1.69248678 4.20751322,1.2 3.6,1.2 Z"/>
    </g>
  </g>
</svg>
