<?xml version="1.0" encoding="UTF-8"?>
<svg width="48px" height="48px" viewBox="0 0 48 48" version="1.1" xmlns="http://www.w3.org/2000/svg" xmlns:xlink="http://www.w3.org/1999/xlink">
  <g stroke="none" stroke-width="1" fill="none" fill-rule="evenodd">
    <g transform="translate(37.000000, 18.750000)" fill="#D7D9E0" stroke="#D7D9E0">
      <path d="M5.40693177,8.29892886 L2.62587555,9.76101664 C2.52810663,9.81241681 2.4071812,9.7748275 2.35578103,9.67705858 C2.33531322,9.63812649 2.32825029,9.59353287 2.33568565,9.55018134 L2.86682013,6.45342973 C2.87794772,6.38855091 2.85643802,6.32235087 2.8093008,6.27640344 L0.559379055,4.08327177 C0.480282338,4.00617152 0.478663877,3.87954887 0.55576412,3.80045215 C0.586465842,3.76895543 0.626694325,3.74845799 0.670221731,3.74213309 L3.77953712,3.29032312 C3.84467915,3.28085742 3.90099227,3.23994355 3.93012467,3.18091485 L5.32065278,0.363397156 C5.36953724,0.264346422 5.48946241,0.223678622 5.58851314,0.272563081 C5.62795567,0.292029129 5.65988117,0.323954634 5.67934722,0.363397156 L7.06987533,3.18091485 C7.09900773,3.23994355 7.15532085,3.28085742 7.22046288,3.29032312 L10.3297783,3.74213309 C10.4390872,3.75801661 10.5148235,3.85950518 10.49894,3.96881416 C10.4926151,4.01234156 10.4721177,4.05257005 10.4406209,4.08327177 L8.1906992,6.27640344 C8.14356198,6.32235087 8.12205228,6.38855091 8.13317987,6.45342973 L8.66431435,9.55018134 C8.68298655,9.65904864 8.60986898,9.76243982 8.50100169,9.78111202 C8.45765016,9.78854739 8.41305655,9.78148446 8.37412445,9.76101664 L5.59306823,8.29892886 C5.53480342,8.26829724 5.46519658,8.26829724 5.40693177,8.29892886 Z"/>
    </g>
    <g transform="translate(0.000000, 18.750000)" fill="#FFD400" stroke="#FFD400">
      <path d="M5.40693177,8.29892886 L2.62587555,9.76101664 C2.52810663,9.81241681 2.4071812,9.7748275 2.35578103,9.67705858 C2.33531322,9.63812649 2.32825029,9.59353287 2.33568565,9.55018134 L2.86682013,6.45342973 C2.87794772,6.38855091 2.85643802,6.32235087 2.8093008,6.27640344 L0.559379055,4.08327177 C0.480282338,4.00617152 0.478663877,3.87954887 0.55576412,3.80045215 C0.586465842,3.76895543 0.626694325,3.74845799 0.670221731,3.74213309 L3.77953712,3.29032312 C3.84467915,3.28085742 3.90099227,3.23994355 3.93012467,3.18091485 L5.32065278,0.363397156 C5.36953724,0.264346422 5.48946241,0.223678622 5.58851314,0.272563081 C5.62795567,0.292029129 5.65988117,0.323954634 5.67934722,0.363397156 L7.06987533,3.18091485 C7.09900773,3.23994355 7.15532085,3.28085742 7.22046288,3.29032312 L10.3297783,3.74213309 C10.4390872,3.75801661 10.5148235,3.85950518 10.49894,3.96881416 C10.4926151,4.01234156 10.4721177,4.05257005 10.4406209,4.08327177 L8.1906992,6.27640344 C8.14356198,6.32235087 8.12205228,6.38855091 8.13317987,6.45342973 L8.66431435,9.55018134 C8.68298655,9.65904864 8.60986898,9.76243982 8.50100169,9.78111202 C8.45765016,9.78854739 8.41305655,9.78148446 8.37412445,9.76101664 L5.59306823,8.29892886 C5.53480342,8.26829724 5.46519658,8.26829724 5.40693177,8.29892886 Z"/>
    </g>
    <g transform="translate(12.333333, 18.750000)" fill="#FFD400" stroke="#FFD400">
      <path d="M5.40693177,8.29892886 L2.62587555,9.76101664 C2.52810663,9.81241681 2.4071812,9.7748275 2.35578103,9.67705858 C2.33531322,9.63812649 2.32825029,9.59353287 2.33568565,9.55018134 L2.86682013,6.45342973 C2.87794772,6.38855091 2.85643802,6.32235087 2.8093008,6.27640344 L0.559379055,4.08327177 C0.480282338,4.00617152 0.478663877,3.87954887 0.55576412,3.80045215 C0.586465842,3.76895543 0.626694325,3.74845799 0.670221731,3.74213309 L3.77953712,3.29032312 C3.84467915,3.28085742 3.90099227,3.23994355 3.93012467,3.18091485 L5.32065278,0.363397156 C5.36953724,0.264346422 5.48946241,0.223678622 5.58851314,0.272563081 C5.62795567,0.292029129 5.65988117,0.323954634 5.67934722,0.363397156 L7.06987533,3.18091485 C7.09900773,3.23994355 7.15532085,3.28085742 7.22046288,3.29032312 L10.3297783,3.74213309 C10.4390872,3.75801661 10.5148235,3.85950518 10.49894,3.96881416 C10.4926151,4.01234156 10.4721177,4.05257005 10.4406209,4.08327177 L8.1906992,6.27640344 C8.14356198,6.32235087 8.12205228,6.38855091 8.13317987,6.45342973 L8.66431435,9.55018134 C8.68298655,9.65904864 8.60986898,9.76243982 8.50100169,9.78111202 C8.45765016,9.78854739 8.41305655,9.78148446 8.37412445,9.76101664 L5.59306823,8.29892886 C5.53480342,8.26829724 5.46519658,8.26829724 5.40693177,8.29892886 Z"/>
    </g>
    <g transform="translate(24.666667, 18.750000)" fill="#FFD400" stroke="#FFD400">
      <path d="M5.40693177,8.29892886 L2.62587555,9.76101664 C2.52810663,9.81241681 2.4071812,9.7748275 2.35578103,9.67705858 C2.33531322,9.63812649 2.32825029,9.59353287 2.33568565,9.55018134 L2.86682013,6.45342973 C2.87794772,6.38855091 2.85643802,6.32235087 2.8093008,6.27640344 L0.559379055,4.08327177 C0.480282338,4.00617152 0.478663877,3.87954887 0.55576412,3.80045215 C0.586465842,3.76895543 0.626694325,3.74845799 0.670221731,3.74213309 L3.77953712,3.29032312 C3.84467915,3.28085742 3.90099227,3.23994355 3.93012467,3.18091485 L5.32065278,0.363397156 C5.36953724,0.264346422 5.48946241,0.223678622 5.58851314,0.272563081 C5.62795567,0.292029129 5.65988117,0.323954634 5.67934722,0.363397156 L7.06987533,3.18091485 C7.09900773,3.23994355 7.15532085,3.28085742 7.22046288,3.29032312 L10.3297783,3.74213309 C10.4390872,3.75801661 10.5148235,3.85950518 10.49894,3.96881416 C10.4926151,4.01234156 10.4721177,4.05257005 10.4406209,4.08327177 L8.1906992,6.27640344 C8.14356198,6.32235087 8.12205228,6.38855091 8.13317987,6.45342973 L8.66431435,9.55018134 C8.68298655,9.65904864 8.60986898,9.76243982 8.50100169,9.78111202 C8.45765016,9.78854739 8.41305655,9.78148446 8.37412445,9.76101664 L5.59306823,8.29892886 C5.53480342,8.26829724 5.46519658,8.26829724 5.40693177,8.29892886 Z"/>
    </g>
  </g>
</svg>
