<?xml version="1.0" encoding="UTF-8"?>
<svg width="16px" height="16px" viewBox="0 0 16 16" version="1.1" xmlns="http://www.w3.org/2000/svg" xmlns:xlink="http://www.w3.org/1999/xlink">
  <g stroke="none" stroke-width="1" fill="none" fill-rule="evenodd">
    <g transform="translate(1.000000, 1.000000)" fill-rule="nonzero">
      <path d="M0,7 C0,3.134 3.134,0 7,0 C10.866,0 14,3.134 14,7 C14,10.866 10.866,14 7,14 C3.134,14 0,10.866 0,7 Z" fill="#336790"/>
      <path d="M4.43620747,8.1489369 C4.43620747,7.95193421 4.38545054,7.80363373 4.28393668,7.70396236 C4.18463055,7.60217032 4.00256584,7.49701447 3.73774254,7.38849479 C3.25444784,7.20480111 2.90687638,6.99003913 2.69500733,6.74431332 C2.48315911,6.49636237 2.37722979,6.20414901 2.37722979,5.86764191 C2.37722979,5.46030661 2.52066967,5.13377605 2.80755983,4.88803979 C3.09665773,4.64009928 3.46299488,4.51612903 3.9065713,4.51612903 C4.20228196,4.51612903 4.46600139,4.57922672 4.69771917,4.70541166 C4.92943695,4.82938192 5.10708621,5.00537642 5.23066694,5.23339519 C5.3564554,5.4614244 5.41935484,5.72043834 5.41935484,6.01043701 L4.44944343,6.01043701 C4.44944343,5.78463293 4.40089423,5.61306779 4.30379582,5.49573116 C4.20890515,5.37619028 4.07097418,5.31641462 3.89001333,5.31641462 C3.72009113,5.31641462 3.58767948,5.36733153 3.49278881,5.46916536 C3.39788772,5.5687845 3.35045279,5.70382818 3.35045279,5.87429642 C3.35045279,6.00712542 3.40340704,6.12777364 3.50933636,6.23625153 C3.61526567,6.34250428 3.80284971,6.45319686 4.07207805,6.56831881 C4.54213679,6.7387766 4.88309548,6.94798097 5.0949437,7.19595281 C5.30901006,7.44385153 5.41604325,7.7593191 5.41604325,8.14228239 C5.41604325,8.56290582 5.28252773,8.89168241 5.01550713,9.12853903 C4.7484761,9.36551056 4.38545054,9.48387097 3.92643044,9.48387097 C3.61526567,9.48387097 3.3316871,9.41962414 3.07569472,9.29123497 C2.81970234,9.16290847 2.61888235,8.97914166 2.47323474,8.74001812 C2.32978445,8.5009677 2.25806452,8.21869955 2.25806452,7.89328678 L3.2345887,7.89328678 C3.2345887,8.17219112 3.28865722,8.37475143 3.39678385,8.5009677 C3.5049209,8.62711086 3.6814767,8.690219 3.92643044,8.690219 C4.26627485,8.690219 4.43620747,8.50981601 4.43620747,8.1489369 Z" fill="#FFFFFF"/>
      <path d="M9.0142871,7.20396994 C9.0142871,7.95522073 8.81993723,8.50154119 8.43108695,8.84286258 L9.03225806,9.40476863 L8.47896875,9.93548387 L7.67742608,9.17064111 L7.44710605,9.18625616 C6.95463575,9.18625616 6.56882453,9.01242826 6.28968182,8.66494924 C6.01253378,8.31530964 5.87296242,7.83244127 5.87096774,7.21641287 L5.87096774,6.50468092 C5.87096774,5.88033432 6.00954176,5.39334122 6.28668979,5.04370162 C6.56383783,4.69198983 6.94866111,4.51612903 7.44117845,4.51612903 C7.92164302,4.51612903 8.30153605,4.68471263 8.58065995,5.02186019 C8.85978385,5.35900775 9.00435132,5.83246781 9.0142871,6.44225019 L9.0142871,7.20396994 Z M8.13200681,6.49844472 C8.13200681,6.08428256 8.07516775,5.77835528 7.9615555,5.58064323 C7.84787738,5.38293118 7.67446228,5.28407516 7.44117845,5.28407516 C7.20789463,5.28407516 7.03539218,5.38084918 6.92373698,5.57440703 C6.81208177,5.76586324 6.75425478,6.0582673 6.75026542,6.4516094 L6.75026542,7.20396994 C6.75026542,7.62015517 6.80709507,7.92717256 6.92074495,8.12488461 C7.03638952,8.32259666 7.21184636,8.42145269 7.44710605,8.42145269 C7.67643814,8.42145269 7.84688945,8.32362784 7.95852584,8.12797816 C8.07220395,7.93026611 8.13003094,7.62957331 8.13200681,7.225831 L8.13200681,6.49844472 Z" fill="#FFFFFF"/>
      <polygon fill="#FFFFFF" points="10.4674669 8.27544883 12.1935484 8.27544883 12.1935484 9.03225806 9.48387097 9.03225806 9.48387097 4.51612903 10.4674669 4.51612903"/>
    </g>
  </g>
</svg>
