<?xml version="1.0" encoding="UTF-8"?>
<svg width="48px" height="48px" viewBox="0 0 48 48" version="1.1" xmlns="http://www.w3.org/2000/svg" xmlns:xlink="http://www.w3.org/1999/xlink">
    <g stroke="none" stroke-width="1" fill="none" fill-rule="evenodd">
        <g transform="translate(2.000000, 15.000000)">
            <rect stroke="#D7D9E0" fill="#FFFFFF" x="0.5" y="0.5" width="43" height="17" rx="3"></rect>
            <g transform="translate(9.000000, 5.522461)" fill="#8B8FA3" fill-rule="nonzero">
                <path d="M22.2835773,1.94720898 C22.5476568,1.68094241 22.960898,1.65673636 23.2520978,1.87459082 L23.3355253,1.94720898 L25.8149903,4.44720898 C26.1054777,4.7401022 26.1054777,5.21497593 25.8149903,5.50786915 C25.5509109,5.77413571 25.1376697,5.79834176 24.8464699,5.5804873 L24.7630424,5.50786915 L22.8095513,3.53853906 L20.8560602,5.50786915 C20.5919808,5.77413571 20.1787395,5.79834176 19.8875398,5.5804873 L19.8041123,5.50786915 C19.5400328,5.24160259 19.5160256,4.8249389 19.7320906,4.53132741 L19.8041123,4.44720898 L22.2835773,1.94720898 Z" transform="translate(22.809551, 3.727539) scale(1, -1) translate(-22.809551, -3.727539) "></path>
                <g>
                    <path d="M2.91143437,6.47753906 L0,6.47753906 L0,0 L3.12063924,0 C3.9080631,0.01171875 4.46594274,0.241699219 4.79427816,0.689941406 C4.99186053,0.965332031 5.09065172,1.29492188 5.09065172,1.67871094 C5.09065172,2.07421875 4.99186053,2.39208984 4.79427816,2.63232422 C4.68386448,2.76708984 4.52114958,2.89013672 4.30613347,3.00146484 C4.63446889,3.12158203 4.88217326,3.31201172 5.04924659,3.57275391 C5.21631992,3.83349609 5.29985658,4.14990234 5.29985658,4.52197266 C5.29985658,4.90576172 5.20397102,5.25 5.01219989,5.5546875 C4.89016372,5.75683594 4.73761851,5.92675781 4.55456425,6.06445312 C4.34826501,6.22265625 4.10491907,6.33105469 3.82452644,6.38964844 C3.54413381,6.44824219 3.23976979,6.47753906 2.91143437,6.47753906 Z M2.88092533,3.62548828 L1.2813798,3.62548828 L1.2813798,5.35253906 L2.85913316,5.35253906 C3.1409786,5.35253906 3.36035314,5.31445312 3.51725679,5.23828125 C3.80200786,5.09765625 3.94438339,4.828125 3.94438339,4.4296875 C3.94438339,4.09277344 3.80636629,3.86132812 3.5303321,3.73535156 C3.37633407,3.66503906 3.15986515,3.62841797 2.88092533,3.62548828 Z M3.54776584,2.390625 C3.72210322,2.28515625 3.80927192,2.09619141 3.80927192,1.82373047 C3.80927192,1.52197266 3.69304699,1.32275391 3.46059714,1.22607422 C3.26010915,1.15869141 3.00441431,1.125 2.69351264,1.125 L1.2813798,1.125 L1.2813798,2.55322266 L2.85913316,2.55322266 C3.1409786,2.55322266 3.37052283,2.49902344 3.54776584,2.390625 Z"></path>
                    <path d="M9.49073367,5.58544922 L9.49073367,6.52148438 L8.90234499,6.54345703 C8.31540912,6.56396484 7.91443312,6.46142578 7.69941701,6.23583984 C7.5599471,6.09228516 7.49021215,5.87109375 7.49021215,5.57226562 L7.49021215,2.62353516 L6.82773008,2.62353516 L6.82773008,1.73144531 L7.49021215,1.73144531 L7.49021215,0.395507812 L8.71929073,0.395507812 L8.71929073,1.73144531 L9.49073367,1.73144531 L9.49073367,2.62353516 L8.71929073,2.62353516 L8.71929073,5.15478516 C8.71929073,5.35107422 8.74398853,5.47338867 8.79338412,5.52172852 C8.84277971,5.57006836 8.99387212,5.59423828 9.24666133,5.59423828 C9.28443443,5.59423828 9.32438675,5.59350586 9.36651828,5.59204102 C9.40864982,5.59057617 9.45005495,5.58837891 9.49073367,5.58544922 Z"></path>
                    <path d="M13.5159902,2.61474609 C13.0946749,2.61474609 12.8055654,2.79492188 12.6486617,3.15527344 C12.5673043,3.34570312 12.5266256,3.58886719 12.5266256,3.88476562 L12.5266256,6.47753906 L11.2888301,6.47753906 L11.2888301,1.69628906 L12.4873997,1.69628906 L12.4873997,2.39501953 C12.6472089,2.14892578 12.7983013,1.97167969 12.9406769,1.86328125 C13.1963717,1.66992188 13.5203487,1.57324219 13.9126078,1.57324219 C14.4036581,1.57324219 14.8053605,1.70288086 15.117715,1.9621582 C15.4300695,2.22143555 15.5862467,2.65136719 15.5862467,3.25195312 L15.5862467,6.47753906 L14.3135838,6.47753906 L14.3135838,3.56396484 C14.3135838,3.31201172 14.2801691,3.11865234 14.2133398,2.98388672 C14.0913036,2.73779297 13.8588538,2.61474609 13.5159902,2.61474609 Z"></path>
                </g>
            </g>
        </g>
    </g>
</svg>