<svg xmlns="http://www.w3.org/2000/svg" xmlns:xlink="http://www.w3.org/1999/xlink" width="48px" height="48px" viewBox="0 0 48 48" version="1.1">
  <g stroke="none" stroke-width="1" fill="none" fill-rule="evenodd">
    <g>
      <rect x="0" y="0" width="48" height="48"/>
      <path d="M31.2,7.2 C33.8509668,7.2 36,9.3490332 36,12 L36,36 C36,38.6509668 33.8509668,40.8 31.2,40.8 L16.8,40.8 C14.1490332,40.8 12,38.6509668 12,36 L12,12 C12,9.3490332 14.1490332,7.2 16.8,7.2 L31.2,7.2 Z M24,33.6 C22.6745166,33.6 21.6,34.6745166 21.6,36 C21.6,37.3254834 22.6745166,38.4 24,38.4 C25.3254834,38.4 26.4,37.3254834 26.4,36 C26.4,34.6745166 25.3254834,33.6 24,33.6 Z M31.2,10.8 L16.8,10.8 C16.2108963,10.8 15.7209399,11.2245004 15.6193336,11.7842985 L15.6,12 L15.599,31.199 L32.4,31.199 L32.4,12 C32.4,11.4108963 31.9754996,10.9209399 31.4157015,10.8193336 L31.2,10.8 Z" fill="#813AEB" fill-rule="nonzero"/>
    </g>
  </g>
</svg>
