<?xml version="1.0" encoding="UTF-8"?>
<svg width="48px" height="48px" viewBox="0 0 48 48" version="1.1" xmlns="http://www.w3.org/2000/svg" xmlns:xlink="http://www.w3.org/1999/xlink">
  <g stroke="none" stroke-width="1" fill="none" fill-rule="evenodd">
    <rect stroke="#D7D9E0" stroke-width="2" fill="#FFFFFF" x="7" y="11" width="34" height="25" rx="5"/>
    <path d="M14.0136364,18.625 L15.9045455,18.625 L15.9045455,28.375 L14.0136364,28.375 L14.0136364,18.625 Z M11,21.5449219 L12.8909091,21.5449219 L12.8909091,26.2675781 L11,26.2675781 L11,21.5449219 Z M17.0272727,17 L18.9181818,17 L18.9181818,30 L17.0272727,30 L17.0272727,17 Z M20.0409091,21.46875 L21.9318182,21.46875 L21.9318182,25.53125 L20.0409091,25.53125 L20.0409091,21.46875 Z M23.0545455,20.25 L24.9454545,20.25 L24.9454545,26.75 L23.0545455,26.75 L23.0545455,20.25 Z M26.0681818,18.625 L27.9590909,18.625 L27.9590909,28.375 L26.0681818,28.375 L26.0681818,18.625 Z M29.0818182,21.875 L30.9727273,21.875 L30.9727273,25.125 L29.0818182,25.125 L29.0818182,21.875 Z M32.0954545,20.25 L33.9863636,20.25 L33.9863636,26.75 L32.0954545,26.75 L32.0954545,20.25 Z M35.1090909,21.46875 L37,21.46875 L37,25.53125 L35.1090909,25.53125 L35.1090909,21.46875 Z" fill="#3377FF" fill-rule="nonzero"/>
  </g>
</svg>
