<svg xmlns="http://www.w3.org/2000/svg" xmlns:xlink="http://www.w3.org/1999/xlink" width="24px" height="24px" viewBox="0 0 24 24" version="1.1">
  <defs>
    <path d="M2,0 L11.875,0 L11.875,0 L19,7.20544062 L19,22 C19,23.1045695 18.1045695,24 17,24 L2,24 C0.8954305,24 1.3527075e-16,23.1045695 0,22 L0,2 C-1.3527075e-16,0.8954305 0.8954305,-6.85272294e-16 2,0 Z" id="icon-mobile-app_svg__a"/>
  </defs>
  <g stroke="none" stroke-width="1" fill="none" fill-rule="evenodd">
    <rect x="0" y="0" width="24" height="24"/>
    <g transform="translate(2.571429, 0.000000)">
      <g>
        <use fill="#08A67E" xlink:href="#icon-mobile-app_svg__a"/>
        <use fill="#079968" xlink:href="#icon-mobile-app_svg__a"/>
      </g>
      <g transform="translate(4.428571, 10.000000)" fill="#FFFFFF">
        <path d="M7,0 C7.82842712,-1.52179594e-16 8.5,0.671572875 8.5,1.5 L8.5,9.5 C8.5,10.3284271 7.82842712,11 7,11 L1.5,11 C0.671572875,11 3.23497668e-16,10.3284271 0,9.5 L0,1.5 C-1.01453063e-16,0.671572875 0.671572875,1.52179594e-16 1.5,0 L7,0 Z M4.25,7.75 C3.69771525,7.75 3.25,8.19771525 3.25,8.75 C3.25,9.30228475 3.69771525,9.75 4.25,9.75 C4.80228475,9.75 5.25,9.30228475 5.25,8.75 C5.25,8.19771525 4.80228475,7.75 4.25,7.75 Z M6.75,1.5 L1.75,1.5 L1.75,6.5 L6.75,6.5 L6.75,1.5 Z"/>
      </g>
      <path d="M11.875,0 L19,7.2 L12.875,7.2 C12.3227153,7.2 11.875,6.75228475 11.875,6.2 L11.875,0 L11.875,0 Z" fill="#EEEEEE"/>
    </g>
  </g>
</svg>
