<?xml version="1.0" encoding="UTF-8"?>
<svg width="48px" height="48px" viewBox="0 0 48 48" version="1.1" xmlns="http://www.w3.org/2000/svg" xmlns:xlink="http://www.w3.org/1999/xlink">
    <g stroke="none" stroke-width="1" fill="none" fill-rule="evenodd">
        <g>
            <rect stroke="#D7D9E0" stroke-width="1.5" fill="#FFFFFF" x="3.75" y="7.75" width="40.5" height="32.5" rx="3"></rect>
            <rect fill="#EFEFF0" x="7" y="11" width="34" height="26" rx="2"></rect>
            <g transform="translate(23.550135, 23.982543) rotate(32.000000) translate(-23.550135, -23.982543) translate(19.681414, 14.982543)">
                <path d="M7.73744171,6.52910797 L7.73744171,14.907104 C7.73744171,15.3441691 7.44113914,15.6988053 7.14553734,16.0675803 L7.14553734,16.0675803 L5.61618391,17.8420392 C5.60006128,17.8607457 5.58257491,17.8782321 5.56386836,17.8943547 C5.35469482,18.0746352 5.03897998,18.0512127 4.85869952,17.8420392 L4.85869952,17.8420392 L3.32934609,16.0675803 C3.05613823,15.721021 2.73744171,15.3441691 2.73744171,14.907104 L2.73744171,14.907104 L2.73744171,6.52910797 L7.73744171,6.52910797 Z M2.73744171,1.92585629 C2.73744171,1.0313333 3.75320999,0 5.23744171,0 C6.72167344,0 7.73744171,1.0313333 7.73744171,1.92585629 L7.73744171,1.92585629 L7.73744171,5.22328637 L2.73744171,5.22328637 Z" fill="#8B8FA3" fill-rule="nonzero"></path>
                <line x1="0.5" y1="2.51284971" x2="0.5" y2="9.01284971" stroke="#8B8FA3" stroke-width="1.8" stroke-linecap="round"></line>
            </g>
        </g>
    </g>
</svg>