<?xml version="1.0" encoding="UTF-8"?>
<svg width="16px" height="16px" viewBox="0 0 16 16" version="1.1" xmlns="http://www.w3.org/2000/svg" xmlns:xlink="http://www.w3.org/1999/xlink">
  <g stroke="none" stroke-width="1" fill="none" fill-rule="evenodd">
    <rect x="0" y="0" width="16" height="16"/>
    <g transform="translate(1.500000, 1.500000)" stroke="#8B8FA3" stroke-width="1.5">
      <g transform="translate(1.218750, 0.000000)">
        <path d="M6.00638703,0.75 C6.19077584,0.75 6.36776161,0.822546546 6.4991021,0.95196413 L6.4991021,0.95196413 L9.60321505,4.01063101 C9.73711102,4.14256667 9.8125,4.32269043 9.8125,4.5106669 L9.8125,4.5106669 L9.8125,11 C9.8125,11.345178 9.67258898,11.657678 9.44638348,11.8838835 C9.22017797,12.110089 8.90767797,12.25 8.5625,12.25 L8.5625,12.25 L2,12.25 C1.65482203,12.25 1.34232203,12.110089 1.11611652,11.8838835 C0.889911016,11.657678 0.75,11.345178 0.75,11 L0.75,11 L0.75,2 C0.75,1.65482203 0.889911016,1.34232203 1.11611652,1.11611652 C1.34232203,0.889911016 1.65482203,0.75 2,0.75 L2,0.75 Z"/>
        <line x1="2.84375" y1="7.04166667" x2="5.01041667" y2="7.04166667" stroke-linecap="round"/>
        <line x1="2.84375" y1="9.20833333" x2="7.17708333" y2="9.20833333" stroke-linecap="round"/>
        <path d="M6.09375,0.8125 L6.09375,3.875 C6.09375,4.42728475 6.54146525,4.875 7.09375,4.875 L9.74316425,4.875 L9.74316425,4.875" stroke-linecap="round" stroke-linejoin="round"/>
      </g>
    </g>
  </g>
</svg>
