<?xml version="1.0" encoding="UTF-8"?>
<svg width="16px" height="16px" viewBox="0 0 16 16" version="1.1" xmlns="http://www.w3.org/2000/svg" xmlns:xlink="http://www.w3.org/1999/xlink">
  <g stroke="none" stroke-width="1" fill="none" fill-rule="evenodd">
    <g fill="#8B8FA3" fill-rule="nonzero">
      <path d="M0.469669914,1.46966991 C0.735936477,1.20340335 1.15260016,1.1791973 1.44621165,1.39705176 L1.53033009,1.46966991 L7.53033009,7.46966991 C7.79659665,7.73593648 7.8208027,8.15260016 7.60294824,8.44621165 L7.53033009,8.53033009 L1.53033009,14.5303301 C1.23743687,14.8232233 0.762563133,14.8232233 0.469669914,14.5303301 C0.203403352,14.2640635 0.1791973,13.8473998 0.397051761,13.5537883 L0.469669914,13.4696699 L5.939,8 L0.469669914,2.53033009 C0.203403352,2.26406352 0.1791973,1.84739984 0.397051761,1.55378835 L0.469669914,1.46966991 Z" transform="translate(4.000000, 8.000000) scale(-1, 1) translate(-4.000000, -8.000000) "/>
      <path d="M6.46966991,1.46966991 C6.73593648,1.20340335 7.15260016,1.1791973 7.44621165,1.39705176 L7.53033009,1.46966991 L13.5303301,7.46966991 C13.7965966,7.73593648 13.8208027,8.15260016 13.6029482,8.44621165 L13.5303301,8.53033009 L7.53033009,14.5303301 C7.23743687,14.8232233 6.76256313,14.8232233 6.46966991,14.5303301 C6.20340335,14.2640635 6.1791973,13.8473998 6.39705176,13.5537883 L6.46966991,13.4696699 L11.939,8 L6.46966991,2.53033009 C6.20340335,2.26406352 6.1791973,1.84739984 6.39705176,1.55378835 L6.46966991,1.46966991 Z" transform="translate(10.000000, 8.000000) scale(-1, 1) translate(-10.000000, -8.000000) "/>
    </g>
  </g>
</svg>
