<?xml version="1.0" encoding="UTF-8"?>
<svg width="20px" height="20px" viewBox="0 0 20 20" version="1.1" xmlns="http://www.w3.org/2000/svg" xmlns:xlink="http://www.w3.org/1999/xlink">
  <g stroke="none" stroke-width="1" fill="none" fill-rule="evenodd">
    <rect x="0" y="0" width="20" height="20"/>
    <g transform="translate(1.500000, 3.000000)" stroke="#8B8FA3" stroke-width="1.5">
      <path d="M7.58759443,6.34027043 C8.87722316,5.85807707 9.79304647,4.67223402 9.79304647,3.28627607 C9.79304647,1.47410746 8.22994954,0 6.30878639,0 C4.38762324,0 2.8248542,1.47410746 2.8248542,3.28627607 C2.8248542,4.672234 3.7403496,5.85807707 5.02997834,6.34027043 C2.1624972,6.89947863 0,9.29992931 0,12.1680364 C0,12.8655002 0.518737013,13.0965447 0.935497263,13.2821227 L0.959433946,13.2914016 C2.63991889,13.8509191 5.07030999,14 6.24156699,14 C7.51873555,14 10.0189692,13.8045246 11.6794523,13.2635649 C12.3018055,13.0383969 12.6175728,12.6697154 12.6175728,12.1680364 C12.6175728,9.29962003 10.4550756,6.89916933 7.58759443,6.34027043 L7.58759443,6.34027043 Z" stroke-linejoin="round" fill-rule="nonzero"/>
      <line x1="13" y1="5.5" x2="18" y2="5.5" stroke-linecap="round"/>
      <line x1="13" y1="5.5" x2="18" y2="5.5" stroke-linecap="round" transform="translate(15.500000, 5.500000) rotate(90.000000) translate(-15.500000, -5.500000) "/>
    </g>
  </g>
</svg>
