<?xml version="1.0" encoding="UTF-8"?>
<svg width="16px" height="16px" viewBox="0 0 16 16" version="1.1" xmlns="http://www.w3.org/2000/svg" xmlns:xlink="http://www.w3.org/1999/xlink">
  <g stroke="none" stroke-width="1" fill="none" fill-rule="evenodd">
    <g transform="translate(3.000000, 3.504485)" fill="#FA9C3F">
      <path d="M0.699999988,3.49551532 L9.30000001,3.49551532 C9.68659933,3.49551532 10,3.80891599 10,4.19551531 L10,8.79551533 C10,9.18211465 9.68659933,9.49551532 9.30000001,9.49551532 L0.699999988,9.49551532 C0.31340067,9.49551532 -1.74699843e-16,9.18211465 0,8.79551533 L0,4.19551531 C-4.73447618e-17,3.80891599 0.31340067,3.49551532 0.699999988,3.49551532 Z"/>
      <path d="M0.5,8.8817842e-16 L5,8.8817842e-16 C5.27614237,8.37451888e-16 5.5,0.223857625 5.5,0.5 L5.5,1.99551532 C5.5,2.2716577 5.27614237,2.49551532 5,2.49551532 L0.5,2.49551532 C0.223857625,2.49551532 2.55862292e-16,2.2716577 0,1.99551532 L0,0.5 C-3.38176876e-17,0.223857625 0.223857625,9.38904951e-16 0.5,8.8817842e-16 Z"/>
      <path d="M7,8.8817842e-16 L9.5,8.8817842e-16 C9.77614237,1.08271559e-15 10,0.223857625 10,0.5 L10,1.99551532 C10,2.2716577 9.77614237,2.49551532 9.5,2.49551532 L7,2.49551532 C6.72385763,2.49551532 6.5,2.2716577 6.5,1.99551532 L6.5,0.5 C6.5,0.223857625 6.72385763,9.38904951e-16 7,8.8817842e-16 Z"/>
    </g>
  </g>
</svg>
