<?xml version="1.0" encoding="UTF-8"?>
<svg width="16px" height="16px" viewBox="0 0 16 16" version="1.1" xmlns="http://www.w3.org/2000/svg" xmlns:xlink="http://www.w3.org/1999/xlink">
  <g stroke="none" stroke-width="1" fill="none" fill-rule="evenodd">
    <rect x="0" y="0" width="16" height="16" rx="2"/>
    <g transform="translate(0.500000, 0.500000)" fill-rule="nonzero">
      <g transform="translate(0.000000, 1.000000)">
        <path d="M14.4122863,10.0123128 C13.6118121,10.4359051 9.46500281,12.1667979 8.58214318,12.6339926 C7.69934221,13.1013063 7.20889711,13.0967854 6.51149256,12.7583161 C5.81408793,12.4198468 1.40113754,10.6102554 0.606229887,10.2245551 C0.208893247,10.0317644 0,9.8690731 0,9.715364 L0,8.17619121 C0,8.17619121 5.74506234,6.90648516 6.67257182,6.56872964 C7.60002264,6.23091463 7.92182959,6.2187203 8.71111207,6.51221899 C9.50045314,6.80577715 14.219917,7.6702123 15,7.96026084 C15,7.96026084 14.9996484,9.3349578 14.9996484,9.47766217 C14.9997656,9.62982465 14.81976,9.79673941 14.4122863,10.0123128" fill="#912626"/>
        <path d="M14.4120071,8.69139932 C13.6115587,9.13453142 9.46488299,10.9461561 8.58205178,11.435108 C7.69927916,11.9242467 7.20884994,11.919453 6.51146777,11.5652213 C5.81402706,11.2112385 1.40127736,9.31700124 0.606395308,8.91352564 C-0.18848675,8.50980102 -0.205185953,8.23195635 0.575692209,7.90710902 C1.35651177,7.58213717 5.74506228,5.75276974 6.672659,5.39922278 C7.60008006,5.04580033 7.92181805,5.03291352 8.71107504,5.34020491 C9.50039074,5.64737179 13.6223399,7.39057809 14.4023392,7.6940719 C15.1825143,7.99793929 15.2124555,8.24808039 14.4120071,8.69139932" fill="#C6302B"/>
        <path d="M14.4122863,7.45168758 C13.6118121,7.87528008 9.46500281,9.6061737 8.58214318,10.0735471 C7.69934221,10.5406826 7.20889711,10.5361617 6.51149256,10.1976923 C5.81402934,9.85940122 1.40113754,8.04963049 0.606229887,7.66392992 C0.208893247,7.47113915 0,7.30862624 0,7.15491712 L0,5.61556503 C0,5.61556503 5.74506234,4.34591784 6.67257182,4.00810269 C7.60002264,3.67034704 7.92182959,3.65809314 8.71111207,3.95159198 C9.50045314,4.24515031 14.219917,5.10940743 15,5.39951563 C15,5.39951563 14.9996484,6.77421326 14.9996484,6.91709615 C14.9997656,7.06919922 14.81976,7.23611406 14.4122863,7.45168758" fill="#912626"/>
        <path d="M14.4120071,6.13076888 C13.6115587,6.57402633 9.46488299,8.38552991 8.58205178,8.87466953 C7.69927916,9.36362232 7.20884994,9.35882866 6.51146777,9.00459626 C5.81402706,8.65061282 1.40127736,6.75643423 0.606395308,6.35289562 C-0.18848675,5.94929477 -0.205185953,5.67138728 0.575692209,5.34641482 C1.35651177,5.02162912 5.74506228,3.19213376 6.672659,2.83864838 C7.60008006,2.485163 7.92181805,2.47233842 8.71107504,2.77956814 C9.50039074,3.08673559 13.6223399,4.82982066 14.4023392,5.13343957 C15.1825143,5.43718299 15.2124555,5.68744914 14.4120071,6.13070656 L14.4120071,6.13076888" fill="#C6302B"/>
        <path d="M8.58214318,7.31594663 C7.69934221,7.78314696 7.20889711,7.77856659 6.51149256,7.44009313 C5.81402934,7.10179824 1.40113754,5.29194711 0.606229887,4.90636108 C0.208893247,4.71350858 0,4.55093428 0,4.39734231 L0,3.24170897 C3.83004156,2.13944339 6.05423216,1.47572408 6.67257182,1.25055104 C7.60002264,0.912731993 7.92182959,0.900537433 8.71111207,1.19403967 C9.23733945,1.38974748 11.3335182,1.99300868 14.9996484,3.00382327 C14.9996484,3.67907015 14.9996484,4.06430195 14.9996484,4.15951865 C14.9996484,4.31150451 14.81976,4.47842126 14.4122863,4.69399729 C13.6118121,5.11759466 9.46500281,6.8485678 8.58214318,7.31594663 Z" fill="#912626"/>
        <path d="M14.4120071,3.57011798 C13.6115587,4.01337905 9.46488299,5.82502191 8.58205178,6.31404098 C7.69927916,6.80299782 7.20884994,6.79820412 6.51146777,6.44409328 C5.81408565,6.08998247 1.40127736,4.19591296 0.606395308,3.79230882 C-0.18848675,3.38870467 -0.205185953,3.11073266 0.575692209,2.7858198 C1.35651177,2.4609692 5.74506228,0.631645695 6.672659,0.278032931 C7.60008006,-0.0755175798 7.92181805,-0.0882177566 8.71107504,0.219014462 C9.50039074,0.52624668 13.6223399,2.26934594 14.4023392,2.57296733 C15.1825143,2.87652646 15.2124555,3.1268569 14.4120071,3.57011798" fill="#C6302B"/>
        <polyline fill="#FFFFFF" points="9.6 1.88231684 8.21325411 1.99193021 7.90278214 2.56060606 7.40131292 1.92600988 5.8 1.81644411 6.99487339 1.48841314 6.63638639 0.984848485 7.75504843 1.31792462 8.80969052 1.05505244 8.52466395 1.57575163 9.6 1.88231684"/>
        <polyline fill="#FFFFFF" points="7.91231099 5.31818182 5.4 4.28846697 9 3.74242424 7.91231099 5.31818182"/>
        <path d="M4.10000002,2.36363636 C5.14935661,2.36363636 6,2.62822324 6,2.95454545 C6,3.28091575 5.14935661,3.54545455 4.10000002,3.54545455 C3.05070334,3.54545455 2.2,3.28091575 2.2,2.95454545 C2.2,2.62822324 3.05070334,2.36363636 4.10000002,2.36363636" fill="#FFFFFF"/>
        <polygon fill="#621B1C" points="13.5 3.00395126 11.3979934 3.84123586 11.3979934 2.16666667"/>
        <path d="M11.3979934,2.16666667 C11.3975586,2.92024021 11.3975586,3.47842994 11.3979934,3.84123586 L9.28378634,2.99509328 L11.3979934,2.16666667 Z" fill="#9A2928"/>
      </g>
    </g>
  </g>
</svg>
