<?xml version="1.0" encoding="UTF-8"?>
<svg width="48px" height="48px" viewBox="0 0 48 48" version="1.1" xmlns="http://www.w3.org/2000/svg" xmlns:xlink="http://www.w3.org/1999/xlink">
  <g stroke="none" stroke-width="1" fill="none" fill-rule="evenodd">
    <g transform="translate(2.000000, 8.000000)">
      <rect stroke="#D7D9E0" stroke-width="1.5" fill="#F9F9FA" x="0.75" y="0.75" width="42.5" height="30.5" rx="3"/>
      <g transform="translate(14.000000, 5.000000)" fill="#D7D9E0">
        <path d="M14,0 C15.1045695,-2.02906125e-16 16,0.8954305 16,2 L16,11 C16,12.1045695 15.1045695,13 14,13 L2,13 C0.8954305,13 1.3527075e-16,12.1045695 0,11 L0,2 C-1.3527075e-16,0.8954305 0.8954305,2.02906125e-16 2,0 L14,0 Z M10.4479604,5.91658714 C10.2343291,5.74161212 9.91930138,5.77294926 9.74432635,5.9865806 L9.74432635,5.9865806 L7.5165091,8.70657788 C7.49915052,8.72777141 7.4800795,8.74750248 7.45948863,8.76557186 C7.25193213,8.94771167 6.93602085,8.92710737 6.75388105,8.71955087 L6.75388105,8.71955087 L5.3950411,7.17109165 C5.37528958,7.1485839 5.35355599,7.12789605 5.33010239,7.10927752 C5.11382358,6.93758568 4.79931123,6.97373056 4.62761938,7.19000937 L4.62761938,7.19000937 L2.64370949,9.68912442 C2.57351984,9.77754175 2.53531692,9.88710974 2.53531692,10 C2.53531692,10.2761424 2.75917454,10.5 3.03531692,10.5 L3.03531692,10.5 L12.9827996,10.5 C13.0933078,10.5 13.2007026,10.46339 13.2882011,10.3958913 C13.5068458,10.2272227 13.5473594,9.91324317 13.3786908,9.69459846 L13.3786908,9.69459846 L10.5270314,5.99799937 C10.5038497,5.96794894 10.4773218,5.94063563 10.4479604,5.91658714 Z M4,2.5 C3.17156578,2.5 2.5,3.1715658 2.5,4 C2.5,4.8284342 3.1715658,5.5 4,5.5 C4.8284342,5.5 5.5,4.8284342 5.5,4 C5.5,3.1715658 4.8284342,2.5 4,2.5 Z"/>
      </g>
      <g transform="translate(7.500000, 23.000000)">
        <rect fill="#3377FF" x="0" y="0" width="9" height="4" rx="2"/>
        <circle fill="#8B8FA3" cx="13.5" cy="2" r="2"/>
        <circle fill="#8B8FA3" cx="20" cy="2" r="2"/>
        <circle fill="#8B8FA3" cx="26.5" cy="2" r="2"/>
      </g>
    </g>
  </g>
</svg>
