<?xml version="1.0" encoding="UTF-8"?>
<svg width="16px" height="16px" viewBox="0 0 16 16" version="1.1" xmlns="http://www.w3.org/2000/svg" xmlns:xlink="http://www.w3.org/1999/xlink">
    <g stroke="none" stroke-width="1" fill="none" fill-rule="evenodd">
        <rect x="0" y="0" width="16" height="16"></rect>
        <rect stroke="#8B8FA3" stroke-width="1.5" x="1.5" y="1.5" width="13" height="13" rx="2"></rect>
        <path d="M4.87179487,6.70877774 L4.87179487,5.5435457 C4.83760684,4.48729221 5.42165242,3.97313706 6.62393162,4.00108028 L7,4.00108028 L7,4.71363224 L6.64957265,4.71363224 C6.19373219,4.72480953 5.96011396,4.98747574 5.94871795,5.50163088 L5.94871795,6.69201181 C5.96011396,7.42412402 5.72079772,7.85724384 5.23076923,7.99137127 C5.71509972,8.1646192 5.95441595,8.60891631 5.94871795,9.32426259 L5.94871795,10.4894946 C5.93162393,11.031593 6.17948718,11.2942592 6.69230769,11.2774933 L7,11.2774933 L7,11.9984282 L6.64957265,11.9984282 C5.42450142,12.0319601 4.83190883,11.5289822 4.87179487,10.4894946 L4.87179487,9.24043295 C4.86609687,8.68156866 4.57549858,8.39654788 4,8.38537059 L4,7.60575492 C4.58119658,7.58898899 4.87179487,7.28999659 4.87179487,6.70877774 Z" stroke="#8B8FA3" stroke-width="0.4" fill="#8B8FA3" fill-rule="nonzero"></path>
        <path d="M9.87179487,6.70877774 L9.87179487,5.5435457 C9.83760684,4.48729221 10.4216524,3.97313706 11.6239316,4.00108028 L12,4.00108028 L12,4.71363224 L11.6495726,4.71363224 C11.1937322,4.72480953 10.960114,4.98747574 10.9487179,5.50163088 L10.9487179,6.69201181 C10.960114,7.42412402 10.7207977,7.85724384 10.2307692,7.99137127 C10.7150997,8.1646192 10.954416,8.60891631 10.9487179,9.32426259 L10.9487179,10.4894946 C10.9316239,11.031593 11.1794872,11.2942592 11.6923077,11.2774933 L12,11.2774933 L12,11.9984282 L11.6495726,11.9984282 C10.4245014,12.0319601 9.83190883,11.5289822 9.87179487,10.4894946 L9.87179487,9.24043295 C9.86609687,8.68156866 9.57549858,8.39654788 9,8.38537059 L9,7.60575492 C9.58119658,7.58898899 9.87179487,7.28999659 9.87179487,6.70877774 Z" stroke="#8B8FA3" stroke-width="0.4" fill="#8B8FA3" fill-rule="nonzero" transform="translate(10.500000, 8.000000) scale(-1, 1) translate(-10.500000, -8.000000) "></path>
    </g>
</svg>