<?xml version="1.0" encoding="UTF-8"?>
<svg width="48px" height="48px" viewBox="0 0 48 48" version="1.1" xmlns="http://www.w3.org/2000/svg" xmlns:xlink="http://www.w3.org/1999/xlink">
  <g stroke="none" stroke-width="1" fill="none" fill-rule="evenodd">
    <g transform="translate(0.000000, 18.000000)">
      <rect stroke="#D7D9E0" fill="#F9F9FA" x="0.5" y="0.5" width="47" height="15" rx="2"/>
      <g transform="translate(35.000000, 3.000000)" fill="#1890FF" fill-rule="nonzero">
        <path d="M4.5,0 L4.5,1 L3,1 L3,9 L4.5,9 L4.5,10 L0.5,10 L0.5,9 L2,9 L2,1 L0.5,1 L0.5,0 L4.5,0 Z"/>
      </g>
      <path d="M11.590332,3.58300781 L11.590332,4.98486328 L9.22167969,4.98486328 L9.22167969,11.5 L7.55664062,11.5 L7.55664062,4.98486328 L5.17724609,4.98486328 L5.17724609,3.58300781 L11.590332,3.58300781 Z M18.2255859,9.78125 C18.1861979,10.1285807 18.0053711,10.4812826 17.6831055,10.8393555 C17.1818034,11.4086914 16.4799805,11.6933594 15.5776367,11.6933594 C14.8328451,11.6933594 14.1757812,11.4534505 13.6064453,10.9736328 C13.0371094,10.4938151 12.7524414,9.71321615 12.7524414,8.63183594 C12.7524414,7.61848958 13.0093587,6.84147135 13.5231934,6.30078125 C14.037028,5.76009115 14.7039388,5.48974609 15.5239258,5.48974609 C16.0109049,5.48974609 16.4495443,5.58105469 16.8398437,5.76367188 C17.2301432,5.94628906 17.5524089,6.23453776 17.8066406,6.62841797 C18.0358073,6.9757487 18.1844076,7.37858073 18.2524414,7.83691406 C18.2918294,8.10546875 18.3079427,8.4921875 18.3007812,8.99707031 L14.2939453,8.99707031 C14.3154297,9.5843099 14.4998372,9.99609375 14.847168,10.2324219 C15.058431,10.3792318 15.3126628,10.4526367 15.6098633,10.4526367 C15.9249674,10.4526367 16.1809896,10.3631185 16.3779297,10.184082 C16.4853516,10.0874023 16.5802409,9.953125 16.6625977,9.78125 L18.2255859,9.78125 Z M16.7109375,7.98730469 C16.6858724,7.58268229 16.5632324,7.27563477 16.3430176,7.06616211 C16.1228027,6.85668945 15.8497721,6.75195312 15.5239258,6.75195312 C15.1694336,6.75195312 14.8946126,6.86295573 14.6994629,7.08496094 C14.5043132,7.30696615 14.3816732,7.6077474 14.331543,7.98730469 L16.7109375,7.98730469 Z M25.9296875,11.5 L24.0229492,11.5 L23.0131836,9.74365234 L21.9980469,11.5 L20.1396484,11.5 L22.1376953,8.53515625 L20.2255859,5.65625 L22.1000977,5.65625 L23.0776367,7.35351562 L24.0336914,5.65625 L25.8544922,5.65625 L23.9316406,8.50830078 L25.9296875,11.5 Z M30.8945312,10.409668 L30.8945312,11.5537109 L30.1694336,11.5805664 C29.4461263,11.6056315 28.9519857,11.480306 28.6870117,11.2045898 C28.5151367,11.0291341 28.4291992,10.7587891 28.4291992,10.3935547 L28.4291992,6.78955078 L27.612793,6.78955078 L27.612793,5.69921875 L28.4291992,5.69921875 L28.4291992,4.06640625 L29.9438477,4.06640625 L29.9438477,5.69921875 L30.8945312,5.69921875 L30.8945312,6.78955078 L29.9438477,6.78955078 L29.9438477,9.88330078 C29.9438477,10.1232096 29.9742839,10.2727051 30.0351562,10.3317871 C30.0960286,10.3908691 30.2822266,10.4204102 30.59375,10.4204102 C30.6402995,10.4204102 30.6895345,10.419515 30.7414551,10.4177246 C30.7933757,10.4159342 30.844401,10.4132487 30.8945312,10.409668 Z" fill="#8B8FA3" fill-rule="nonzero"/>
    </g>
    <rect fill="#D7D9E0" x="0" y="12.5" width="20" height="3" rx="1"/>
  </g>
</svg>
