<?xml version="1.0" encoding="UTF-8"?>
<svg width="16px" height="16px" viewBox="0 0 16 16" version="1.1" xmlns="http://www.w3.org/2000/svg" xmlns:xlink="http://www.w3.org/1999/xlink">
  <g stroke="none" stroke-width="1" fill="none" fill-rule="evenodd">
    <rect x="0" y="0" width="16" height="16" rx="2"/>
    <g transform="translate(1.500000, 1.000000)" fill-rule="nonzero">
      <path d="M1,4 L10.4144438,4 C11.4519403,4 12.3783778,3.52298155 13,2.77829194 C11.7033159,1.08939419 9.66817875,0 7.37823269,0 C4.57429023,0 2.1509937,1.63202076 1,4" fill="#F0BF1A"/>
      <path d="M9.06259611,5 L0.278139032,5 C0.0982548484,5.63467751 0,6.30532723 0,6.99997505 C0,7.69467277 0.0982548484,8.36537238 0.278139032,9 L9.06259611,9 C10.1173979,9 11,8.1111222 11,6.99997505 C11,5.8888778 10.1389531,5 9.06259611,5" fill="#07A5DE"/>
      <path d="M13,11.1908248 C12.3835509,10.4628491 11.4664253,10 10.4397054,10 L1,10 C2.1486789,12.3680291 4.56710186,14 7.36535557,14 C9.66479899,14 11.7072148,12.8975341 13,11.1908248" fill="#3EBEB0"/>
      <path d="M0.266410518,5 C0.0940653643,5.63467751 0,6.30532723 0,6.99997505 C0,7.69467277 0.0940653643,8.36537238 0.266410518,9 L5.77321544,9 C5.91755393,8.39999751 6,7.73333915 6,6.99997505 C6,6.26666085 5.91755393,5.60000249 5.77321544,5 L0.266410518,5 Z" fill="#231F20"/>
      <path d="M3.69069409,1 C2.54657711,1.70072598 1.5932018,2.75179037 1,4 L6,4 C5.49151414,2.79559496 4.68645116,1.78833516 3.69069409,1" fill="#D7A229"/>
      <path d="M3.8189386,13 C4.76540643,12.2183152 5.52671988,11.1831046 6,10 L1,10 C1.61727368,11.267629 2.60494854,12.323947 3.8189386,13" fill="#019B8F"/>
    </g>
  </g>
</svg>
