<?xml version="1.0" encoding="UTF-8"?>
<svg width="48px" height="48px" viewBox="0 0 48 48" version="1.1" xmlns="http://www.w3.org/2000/svg" xmlns:xlink="http://www.w3.org/1999/xlink">
  <g stroke="none" stroke-width="1" fill="none" fill-rule="evenodd">
    <g transform="translate(6.000000, 19.000000)">
      <rect stroke="#D7D9E0" fill="#FFFFFF" x="0.5" y="0.5" width="40" height="26" rx="3"/>
      <g transform="translate(4.000000, 3.000000)">
        <rect fill="#F5F5F6" x="0" y="0" width="6" height="5" rx="1"/>
        <rect fill="#3377FF" opacity="0.200195312" x="8" y="0" width="25" height="5" rx="1"/>
        <rect fill="#3377FF" x="8" y="0" width="6" height="5" rx="1"/>
      </g>
      <g transform="translate(4.000000, 11.000000)">
        <rect fill="#F5F5F6" x="27" y="0" width="6" height="5" rx="1"/>
        <rect fill="#3377FF" opacity="0.200195312" x="0" y="0" width="25" height="5" rx="1"/>
        <rect fill="#3377FF" x="19" y="0" width="6" height="5" rx="1"/>
      </g>
      <rect fill="#F5F5F6" x="4" y="19" width="33" height="5" rx="1"/>
    </g>
    <g transform="translate(1.000000, 2.000000)">
      <rect stroke="#D7D9E0" fill="#FFFFFF" x="0.5" y="0.5" width="45" height="17" rx="3"/>
      <g transform="translate(4.000000, 3.000000)" stroke="#8B8FA3" stroke-width="1.5">
        <rect fill="#FFFFFF" x="1.25" y="1.75" width="9.5" height="9.5" rx="2.5"/>
        <line x1="1.5" y1="5" x2="10.5" y2="5" stroke-linecap="square"/>
        <g transform="translate(3.500000, 0.500000)" stroke-linecap="round">
          <line x1="0.5" y1="2.77555756e-17" x2="0.5" y2="2"/>
          <line x1="4.5" y1="2.77555756e-17" x2="4.5" y2="2"/>
        </g>
      </g>
      <rect fill="#EFEFF0" x="19" y="5" width="23" height="8" rx="1"/>
    </g>
  </g>
</svg>
