<svg xmlns="http://www.w3.org/2000/svg" xmlns:xlink="http://www.w3.org/1999/xlink" width="48px" height="48px" viewBox="0 0 48 48" version="1.1">
  <g stroke="none" stroke-width="1" fill="none" fill-rule="evenodd">
    <g transform="translate(2.000000, 6.000000)">
      <rect stroke="#D7D9E0" fill="#FFFFFF" x="0.5" y="0.5" width="43" height="13" rx="3"/>
      <rect fill="#EFEFF0" x="5" y="4" width="24" height="6" rx="1"/>
      <path d="M34.4696699,5.46966991 C34.7359365,5.20340335 35.1526002,5.1791973 35.4462117,5.39705176 L35.5303301,5.46966991 L38.5303301,8.46966991 C38.8232233,8.76256313 38.8232233,9.23743687 38.5303301,9.53033009 C38.2640635,9.79659665 37.8473998,9.8208027 37.5537883,9.60294824 L37.4696699,9.53033009 L35,7.061 L32.5303301,9.53033009 C32.2640635,9.79659665 31.8473998,9.8208027 31.5537883,9.60294824 L31.4696699,9.53033009 C31.2034034,9.26406352 31.1791973,8.84739984 31.3970518,8.55378835 L31.4696699,8.46966991 L34.4696699,5.46966991 Z" fill="#8B8FA3" fill-rule="nonzero" transform="translate(35.000000, 7.500000) scale(1, -1) translate(-35.000000, -7.500000) "/>
    </g>
    <g transform="translate(2.000000, 19.000000)">
      <rect stroke="#D7D9E0" fill="#FFFFFF" x="0.5" y="0.5" width="43" height="23" rx="3"/>
      <g transform="translate(5.000000, 14.000000)">
        <path d="M33.8275907,0.702926953 C34.1251999,0.414826885 34.6000111,0.422535547 34.8881111,0.720144731 C35.1500203,0.990698534 35.1674594,1.40770025 34.9448675,1.69773661 L34.8708934,1.78066514 L32.0216513,4.5388691 C31.754198,4.79777682 31.3429039,4.81817274 31.0528003,4.60220813 L30.9696699,4.53033009 L29.4696699,3.03033009 C29.1767767,2.73743687 29.1767767,2.26256313 29.4696699,1.96966991 C29.7359365,1.70340335 30.1526002,1.6791973 30.4462117,1.89705176 L30.5303301,1.96966991 L31.508,2.947 L33.8275907,0.702926953 Z" fill="#3377FF" fill-rule="nonzero"/>
        <rect fill="#D7D9E0" x="0" y="0" width="27" height="5" rx="1"/>
      </g>
      <g transform="translate(5.000000, 5.000000)" fill="#D7D9E0">
        <rect x="0" y="0" width="27" height="5" rx="1"/>
      </g>
    </g>
  </g>
</svg>
