<?xml version="1.0" encoding="UTF-8"?>
<svg width="16px" height="16px" viewBox="0 0 16 16" version="1.1" xmlns="http://www.w3.org/2000/svg" xmlns:xlink="http://www.w3.org/1999/xlink">
  <defs>
    <linearGradient x1="50%" y1="4.38271658%" x2="50%" y2="100%" id="icon-editor-folder_svg__a">
      <stop stop-color="#FFD640" offset="0%"/>
      <stop stop-color="#FFB60D" offset="100%"/>
    </linearGradient>
  </defs>
  <g stroke="none" stroke-width="1" fill="none" fill-rule="evenodd">
    <rect x="0" y="0" width="16" height="16"/>
    <g transform="translate(1.000000, 1.500000)">
      <path d="M1.51535127,0 L7.0761538,0 C7.61703262,-5.43447038e-16 8.11602439,0.29119106 8.38210165,0.762097418 L9.1875,2.1875 L9.1875,2.1875 L12.5,2.1875 C13.3284271,2.1875 14,2.85907288 14,3.6875 L14,4.09375 C14,4.92217712 13.3284271,5.59375 12.5,5.59375 L1.50563157,5.59375 C0.677204443,5.59375 0.00563156739,4.92217712 0.00563156739,4.09375 C0.00563156739,4.09187633 0.00563507803,4.09000266 0.00564209929,4.088129 L0.0153618064,1.494379 C0.018457974,0.66815197 0.689118439,3.73821114e-16 1.51535127,0 Z" fill="#FFAE0D"/>
      <path d="M1.5,2 L12.5,2 C13.3284271,2 14,2.67157288 14,3.5 L14,11.5 C14,12.3284271 13.3284271,13 12.5,13 L1.5,13 C0.671572875,13 1.01453063e-16,12.3284271 0,11.5 L0,3.5 C-1.01453063e-16,2.67157288 0.671572875,2 1.5,2 Z" fill="url(#icon-editor-folder_svg__a)"/>
    </g>
  </g>
</svg>
