<?xml version="1.0" encoding="UTF-8"?>
<svg width="16px" height="16px" viewBox="0 0 16 16" version="1.1" xmlns="http://www.w3.org/2000/svg" xmlns:xlink="http://www.w3.org/1999/xlink">
  <g stroke="none" stroke-width="1" fill="none" fill-rule="evenodd">
    <g transform="translate(1.500000, 0.500000)" fill="#D85BAF" fill-rule="nonzero">
      <polygon points="0.647186333 11.1144101 1.1834023 11.432336 7.1571253 0.807532557 6.62090001 0.489609603"/>
      <polygon points="12.4719131 10.2652992 0.524541688 10.2652992 0.524541688 10.9011509 12.4719131 10.9011509"/>
      <polygon points="0.76090679 10.6226785 6.73684918 14.1658277 7.04644485 13.6152032 1.07050246 10.0720539"/>
      <polygon points="5.95235055 1.38796744 11.9282556 4.93111671 12.2378513 4.38047301 6.26194621 0.837323739"/>
      <polygon points="0.762482744 4.37860567 1.07207841 4.92924937 7.04801148 1.3861001 6.73841581 0.835446827"/>
      <polygon points="5.84416924 0.808471012 11.8178456 11.4332936 12.3541362 11.1153677 6.38038521 0.490546144"/>
      <polygon points="1.61749832 3.95667405 0.998316311 3.95667405 0.998316311 11.0429726 1.61749832 11.0429726"/>
      <polygon points="12.001738 3.95667405 11.3825466 3.95667405 11.3825466 11.0429726 12.001738 11.0429726"/>
      <polygon points="6.3610075 13.4164996 6.63143745 13.897506 11.8289426 10.8159238 11.5585126 10.3349173"/>
      <path d="M12.8222598,11.2497201 C12.4641732,11.8894022 11.6659386,12.1077368 11.0430172,11.7400154 C10.4200958,11.372294 10.2074819,10.5525816 10.5655684,9.9128995 C10.923655,9.27320784 11.7218896,9.05487323 12.344811,9.42260425 C12.9715557,9.79415611 13.1841696,10.6100381 12.8222598,11.2497201 Z"/>
      <path d="M2.43052265,5.08603852 C2.0724361,5.7257206 1.27419216,5.94405521 0.651270758,5.57633377 C0.0283493549,5.20861233 -0.184260807,4.38889996 0.173822018,3.74922745 C0.531908573,3.10954537 1.33014318,2.89121076 1.95306459,3.2589322 C2.57599532,3.63048407 2.78860921,4.44635643 2.43052265,5.08603852 Z"/>
      <path d="M0.17746816,11.2497201 C-0.180618395,10.6100381 0.0319954967,9.79415611 0.6549169,9.42260425 C1.2778383,9.05487323 2.07234285,9.27320784 2.43415947,9.9128995 C2.79224602,10.5525816 2.57963213,11.3684635 1.95671073,11.7400154 C1.33005926,12.1077368 0.535554715,11.8894022 0.17746816,11.2497201 Z"/>
      <path d="M10.569485,5.08603852 C10.2113985,4.44635643 10.4240124,3.63048407 11.0469338,3.2589322 C11.6698552,2.89121076 12.4643597,3.10954537 12.8261763,3.74922745 C13.1842629,4.38889996 12.971649,5.2047819 12.3487276,5.57633377 C11.7258062,5.94405521 10.9275716,5.7257206 10.569485,5.08603852 Z"/>
      <path d="M6.50007377,15 C5.78017059,15 5.19827994,14.4024527 5.19827994,13.6631794 C5.19827994,12.923906 5.78017059,12.3263587 6.50007377,12.3263587 C7.21997695,12.3263587 7.8018676,12.923906 7.8018676,13.6631794 C7.8018676,14.3986222 7.21997695,15 6.50007377,15 Z"/>
      <path d="M6.50007377,2.67364224 C5.78017059,2.67364224 5.19827994,2.07609491 5.19827994,1.3368216 C5.19827994,0.597547336 5.78017059,-2.1263167e-16 6.50007377,-2.1263167e-16 C7.21997695,-2.1263167e-16 7.8018676,0.597547336 7.8018676,1.3368216 C7.8018676,2.07609491 7.21997695,2.67364224 6.50007377,2.67364224 Z"/>
    </g>
  </g>
</svg>
