<svg xmlns="http://www.w3.org/2000/svg" xmlns:xlink="http://www.w3.org/1999/xlink" width="20px" height="20px" viewBox="0 0 20 20" version="1.1">
  <g stroke="none" stroke-width="1" fill="none" fill-rule="evenodd">
    <g fill-rule="nonzero" stroke="#8B8FA3" stroke-width="1.5">
      <path d="M15.2498206,4.83431008 L11.6323907,8.857425 C11.5498556,8.94921623 11.5041928,9.06829409 11.5041928,9.19173508 L11.5041928,15.6928629 C11.5041928,15.9690052 11.2803352,16.1928629 11.0041928,16.1928629 C10.8620787,16.1928629 10.7266788,16.132388 10.6318345,16.0265533 L8.70129146,13.8722999 C8.61910088,13.7805851 8.57364975,13.6617634 8.57364975,13.5386095 L8.57364975,9.1941887 C8.57364975,9.06927461 8.52689301,8.94888465 8.44258253,8.85671484 L4.76606242,4.83747386 C4.57968076,4.63371791 4.59376539,4.31744889 4.79752134,4.13106722 C4.88969114,4.04675674 5.01008111,4 5.1349952,4 L14.8780185,4 C15.1541609,4 15.3780185,4.22385763 15.3780185,4.5 C15.3780185,4.62344099 15.3323557,4.74251885 15.2498206,4.83431008 Z"/>
    </g>
  </g>
</svg>
