<?xml version="1.0" encoding="UTF-8"?>
<svg width="48px" height="48px" viewBox="0 0 48 48" version="1.1" xmlns="http://www.w3.org/2000/svg" xmlns:xlink="http://www.w3.org/1999/xlink">
  <g stroke="none" stroke-width="1" fill="none" fill-rule="evenodd">
    <g transform="translate(2.000000, 16.000000)">
      <rect fill="#3377FF" x="0" y="0" width="44" height="16" rx="3"/>
      <polygon fill="#A0BFFF" fill-rule="nonzero" points="29.5 0 29.5 16 28.5 16 28.5 0"/>
      <path d="M35.9696699,6.46966991 C36.2359365,6.20340335 36.6526002,6.1791973 36.9462117,6.39705176 L37.0303301,6.46966991 L39.5303301,8.96966991 C39.8232233,9.26256313 39.8232233,9.73743687 39.5303301,10.0303301 C39.2640635,10.2965966 38.8473998,10.3208027 38.5537883,10.1029482 L38.4696699,10.0303301 L36.5,8.061 L34.5303301,10.0303301 C34.2640635,10.2965966 33.8473998,10.3208027 33.5537883,10.1029482 L33.4696699,10.0303301 C33.2034034,9.76406352 33.1791973,9.34739984 33.3970518,9.05378835 L33.4696699,8.96966991 L35.9696699,6.46966991 Z" fill="#FFFFFF" fill-rule="nonzero" transform="translate(36.500000, 8.250000) scale(1, -1) translate(-36.500000, -8.250000) "/>
      <g transform="translate(6.707520, 4.522461)" fill="#FFFFFF" fill-rule="nonzero">
        <path d="M2.93554688,6.47753906 L0,6.47753906 L0,0 L3.14648438,0 C3.94042969,0.01171875 4.50292969,0.241699219 4.83398438,0.689941406 C5.03320312,0.965332031 5.1328125,1.29492188 5.1328125,1.67871094 C5.1328125,2.07421875 5.03320312,2.39208984 4.83398438,2.63232422 C4.72265625,2.76708984 4.55859375,2.89013672 4.34179688,3.00146484 C4.67285156,3.12158203 4.92260742,3.31201172 5.09106445,3.57275391 C5.25952148,3.83349609 5.34375,4.14990234 5.34375,4.52197266 C5.34375,4.90576172 5.24707031,5.25 5.05371094,5.5546875 C4.93066406,5.75683594 4.77685547,5.92675781 4.59228516,6.06445312 C4.38427734,6.22265625 4.13891602,6.33105469 3.85620117,6.38964844 C3.57348633,6.44824219 3.26660156,6.47753906 2.93554688,6.47753906 Z M2.90478516,3.62548828 L1.29199219,3.62548828 L1.29199219,5.35253906 L2.8828125,5.35253906 C3.16699219,5.35253906 3.38818359,5.31445312 3.54638672,5.23828125 C3.83349609,5.09765625 3.97705078,4.828125 3.97705078,4.4296875 C3.97705078,4.09277344 3.83789062,3.86132812 3.55957031,3.73535156 C3.40429688,3.66503906 3.18603516,3.62841797 2.90478516,3.62548828 Z M3.57714844,2.390625 C3.75292969,2.28515625 3.84082031,2.09619141 3.84082031,1.82373047 C3.84082031,1.52197266 3.72363281,1.32275391 3.48925781,1.22607422 C3.28710938,1.15869141 3.02929688,1.125 2.71582031,1.125 L1.29199219,1.125 L1.29199219,2.55322266 L2.8828125,2.55322266 C3.16699219,2.55322266 3.3984375,2.49902344 3.57714844,2.390625 Z"/>
        <path d="M9.56933594,5.58544922 L9.56933594,6.52148438 L8.97607422,6.54345703 C8.38427734,6.56396484 7.97998047,6.46142578 7.76318359,6.23583984 C7.62255859,6.09228516 7.55224609,5.87109375 7.55224609,5.57226562 L7.55224609,2.62353516 L6.88427734,2.62353516 L6.88427734,1.73144531 L7.55224609,1.73144531 L7.55224609,0.395507812 L8.79150391,0.395507812 L8.79150391,1.73144531 L9.56933594,1.73144531 L9.56933594,2.62353516 L8.79150391,2.62353516 L8.79150391,5.15478516 C8.79150391,5.35107422 8.81640625,5.47338867 8.86621094,5.52172852 C8.91601562,5.57006836 9.06835938,5.59423828 9.32324219,5.59423828 C9.36132812,5.59423828 9.40161133,5.59350586 9.4440918,5.59204102 C9.48657227,5.59057617 9.52832031,5.58837891 9.56933594,5.58544922 Z"/>
        <path d="M13.6279297,2.61474609 C13.203125,2.61474609 12.9116211,2.79492188 12.753418,3.15527344 C12.6713867,3.34570312 12.6303711,3.58886719 12.6303711,3.88476562 L12.6303711,6.47753906 L11.3823242,6.47753906 L11.3823242,1.69628906 L12.5908203,1.69628906 L12.5908203,2.39501953 C12.7519531,2.14892578 12.9042969,1.97167969 13.0478516,1.86328125 C13.3056641,1.66992188 13.6323242,1.57324219 14.027832,1.57324219 C14.5229492,1.57324219 14.9279785,1.70288086 15.2429199,1.9621582 C15.5578613,2.22143555 15.715332,2.65136719 15.715332,3.25195312 L15.715332,6.47753906 L14.4321289,6.47753906 L14.4321289,3.56396484 C14.4321289,3.31201172 14.3984375,3.11865234 14.3310547,2.98388672 C14.2080078,2.73779297 13.9736328,2.61474609 13.6279297,2.61474609 Z"/>
      </g>
    </g>
  </g>
</svg>
