<?xml version="1.0" encoding="UTF-8"?>
<svg width="16px" height="16px" viewBox="0 0 16 16" version="1.1" xmlns="http://www.w3.org/2000/svg" xmlns:xlink="http://www.w3.org/1999/xlink">
  <g stroke="none" stroke-width="1" fill="none" fill-rule="evenodd">
    <g fill="#8B8FA3" fill-rule="nonzero">
      <g transform="translate(1.256850, 4.204407)">
        <path d="M1.42547872,0.42388873 C2.42812166,2.49905433 4.53087857,3.84559348 6.87648313,3.84559348 C9.21676971,3.84559348 11.3155732,2.50518455 12.3210203,0.437232097 C12.5021394,0.0647153603 12.95095,-0.0904430177 13.3234668,0.0906761597 C13.6959835,0.271795337 13.8511419,0.720605922 13.6700227,1.09312266 C12.9966539,2.4780735 11.9297394,3.60168107 10.6340722,4.34535145 L11.252734,5.41606208 L11.2976899,5.50762128 C11.4377188,5.84948322 11.3070411,6.25073325 10.9782149,6.44058113 C10.6194955,6.64768791 10.1608027,6.52478155 9.95369587,6.16606208 L9.95369587,6.16606208 L9.25795635,4.96141343 C8.71152947,5.14290247 8.1398046,5.26316131 7.55196286,5.31558271 L7.55120439,6.89592737 C7.55120439,7.31014094 7.21541796,7.64592737 6.80120439,7.64592737 C6.42150863,7.64592737 6.10771343,7.36377349 6.05805101,6.99769793 L6.05120439,6.89592737 L6.051228,5.30072317 C5.41462379,5.23116334 4.79804464,5.08194504 4.21331407,4.86159311 L3.45930581,6.16606208 C3.25219903,6.52478155 2.79350623,6.64768791 2.43478676,6.44058113 C2.10596058,6.25073325 1.97528291,5.84948322 2.11531177,5.50762128 L2.16026771,5.41606208 L2.86625445,4.19370899 C1.67941159,3.4494992 0.703580014,2.37770353 0.0748650889,1.07645507 C-0.105336131,0.703493419 0.050927076,0.255066309 0.42388873,0.0748650889 C0.796850385,-0.105336131 1.2452775,0.050927076 1.42547872,0.42388873 Z"/>
      </g>
    </g>
  </g>
</svg>
