<?xml version="1.0" encoding="UTF-8"?>
<svg width="16px" height="16px" viewBox="0 0 16 16" version="1.1" xmlns="http://www.w3.org/2000/svg" xmlns:xlink="http://www.w3.org/1999/xlink">
  <g stroke="none" stroke-width="1" fill="none" fill-rule="evenodd" stroke-linejoin="round">
    <g transform="translate(3.000000, 2.300000)" fill-rule="nonzero" stroke="#F73131" stroke-width="1.2">
      <path d="M6.01351351,5.43451751 C7.03560291,5.02120892 7.76143451,4.00477202 7.76143451,2.81680806 C7.76143451,1.26352068 6.52260914,-8.8817842e-16 5,-8.8817842e-16 C3.47739088,-8.8817842e-16 2.23882537,1.26352068 2.23882537,2.81680806 C2.23882537,4.004772 2.96439709,5.02120892 3.98648649,5.43451751 C1.71387734,5.91383882 0,7.97136798 0,10.4297455 C0,11.0275716 0.411122664,11.2256098 0.741424108,11.3846766 L0.760395017,11.3926299 C2.09225573,11.8722163 4.01845116,12 4.94672558,12 C5.95893972,12 7.94048857,11.8324496 9.25649688,11.3687699 C9.74974013,11.1757688 10,10.8597561 10,10.4297455 C10,7.97110288 8.28612266,5.91357371 6.01351351,5.43451751 L6.01351351,5.43451751 Z"/>
    </g>
  </g>
</svg>
