<?xml version="1.0" encoding="UTF-8"?>
<svg width="26px" height="13px" viewBox="0 0 26 13" version="1.1" xmlns="http://www.w3.org/2000/svg" xmlns:xlink="http://www.w3.org/1999/xlink">
    <title>icon-query-put</title>
    <g stroke="none" stroke-width="1" fill="none" fill-rule="evenodd">
        <g transform="translate(-120.000000, -966.000000)">
            <g transform="translate(104.000000, 52.000000)">
                <g transform="translate(8.000000, 40.000000)">
                    <g transform="translate(8.000000, 810.000000)">
                        <g transform="translate(0.000000, 60.000000)">
                            <g transform="translate(0.000000, 4.000000)">
                                <rect stroke="#F27A24" x="0.5" y="0.5" width="25" height="12" rx="2"></rect>
                                <g transform="translate(5.535156, 3.989258)" fill="#F27A24" fill-rule="nonzero">
                                    <path d="M0,0 L2.57373047,0 C3.13427734,0 3.55411784,0.133300781 3.83325195,0.399902344 C4.11238607,0.666503906 4.25195312,1.04589844 4.25195312,1.53808594 C4.25195312,2.04394531 4.09985352,2.43929036 3.7956543,2.72412109 C3.49145508,3.00895182 3.02718099,3.15136719 2.40283203,3.15136719 L1.55517578,3.15136719 L1.55517578,5.01074219 L0,5.01074219 L0,0 Z M1.55517578,2.13623047 L1.93457031,2.13623047 C2.23307292,2.13623047 2.44270833,2.08439128 2.56347656,1.98071289 C2.68424479,1.87703451 2.74462891,1.74430339 2.74462891,1.58251953 C2.74462891,1.42529297 2.69222005,1.29199219 2.58740234,1.18261719 C2.48258464,1.07324219 2.28548177,1.01855469 1.99609375,1.01855469 L1.55517578,1.01855469 L1.55517578,2.13623047 Z"></path>
                                    <path d="M8.32275391,0 L9.86767578,0 L9.86767578,2.98730469 C9.86767578,3.28352865 9.8215332,3.56323242 9.72924805,3.82641602 C9.63696289,4.08959961 9.49226888,4.31974284 9.29516602,4.5168457 C9.09806315,4.71394857 8.89127604,4.8523763 8.67480469,4.93212891 C8.37402344,5.04378255 8.01285807,5.09960938 7.59130859,5.09960938 C7.34749349,5.09960938 7.08146159,5.08251953 6.79321289,5.04833984 C6.50496419,5.01416016 6.2639974,4.94637044 6.0703125,4.8449707 C5.8766276,4.74357096 5.69946289,4.59944661 5.53881836,4.41259766 C5.37817383,4.2257487 5.26822917,4.03320312 5.20898438,3.83496094 C5.11328125,3.51595052 5.06542969,3.23339844 5.06542969,2.98730469 L5.06542969,0 L6.61035156,0 L6.61035156,3.05908203 C6.61035156,3.33251953 6.68611654,3.54614258 6.83764648,3.69995117 C6.98917643,3.85375977 7.19938151,3.93066406 7.46826172,3.93066406 C7.73486328,3.93066406 7.94392904,3.85489909 8.09545898,3.70336914 C8.24698893,3.55183919 8.32275391,3.33707682 8.32275391,3.05908203 L8.32275391,0 Z"></path>
                                    <polygon points="10.5410156 0 15.2475586 0 15.2475586 1.23730469 13.668457 1.23730469 13.668457 5.01074219 12.1201172 5.01074219 12.1201172 1.23730469 10.5410156 1.23730469"></polygon>
                                </g>
                            </g>
                        </g>
                    </g>
                </g>
            </g>
        </g>
    </g>
</svg>