<?xml version="1.0" encoding="UTF-8"?>
<svg width="26px" height="13px" viewBox="0 0 26 13" version="1.1" xmlns="http://www.w3.org/2000/svg" xmlns:xlink="http://www.w3.org/1999/xlink">
    <title>icon-query-patch</title>
    <g stroke="none" stroke-width="1" fill="none" fill-rule="evenodd">
        <g transform="translate(-120.000000, -873.000000)">
            <g transform="translate(104.000000, 79.000000)">
                <g transform="translate(8.000000, 40.000000)">
                    <g transform="translate(8.000000, 630.000000)">
                        <g transform="translate(0.000000, 120.000000)">
                            <g transform="translate(0.000000, 4.000000)">
                                <rect stroke="#8B8FA3" x="0.5" y="0.5" width="25" height="12" rx="2"></rect>
                                <g transform="translate(2.498535, 4.131836)" fill="#8B8FA3" fill-rule="nonzero">
                                    <path d="M0,0.0732421875 L2.20605469,0.0732421875 C2.68652344,0.0732421875 3.04638672,0.1875 3.28564453,0.416015625 C3.52490234,0.64453125 3.64453125,0.969726562 3.64453125,1.39160156 C3.64453125,1.82519531 3.51416016,2.1640625 3.25341797,2.40820312 C2.99267578,2.65234375 2.59472656,2.77441406 2.05957031,2.77441406 L1.33300781,2.77441406 L1.33300781,4.36816406 L0,4.36816406 L0,0.0732421875 Z M1.33300781,1.90429688 L1.65820312,1.90429688 C1.9140625,1.90429688 2.09375,1.85986328 2.19726562,1.77099609 C2.30078125,1.68212891 2.35253906,1.56835938 2.35253906,1.4296875 C2.35253906,1.29492188 2.30761719,1.18066406 2.21777344,1.08691406 C2.12792969,0.993164062 1.95898438,0.946289062 1.7109375,0.946289062 L1.33300781,0.946289062 L1.33300781,1.90429688 Z"></path>
                                    <path d="M6.47167969,3.65917969 L4.95996094,3.65917969 L4.75195312,4.36816406 L3.39550781,4.36816406 L5.00976562,0.0732421875 L6.45703125,0.0732421875 L8.07128906,4.36816406 L6.68261719,4.36816406 L6.47167969,3.65917969 Z M6.19335938,2.73046875 L5.71875,1.18652344 L5.24707031,2.73046875 L6.19335938,2.73046875 Z"></path>
                                    <polygon points="7.78125 0.0732421875 11.8154297 0.0732421875 11.8154297 1.13378906 10.4619141 1.13378906 10.4619141 4.36816406 9.13476562 4.36816406 9.13476562 1.13378906 7.78125 1.13378906"></polygon>
                                    <path d="M15.0703125,2.61328125 L16.2333984,2.96484375 C16.1552734,3.29101562 16.0322266,3.56347656 15.8642578,3.78222656 C15.6962891,4.00097656 15.487793,4.16601562 15.2387695,4.27734375 C14.9897461,4.38867188 14.6728516,4.44433594 14.2880859,4.44433594 C13.8212891,4.44433594 13.4399414,4.37646484 13.144043,4.24072266 C12.8481445,4.10498047 12.5927734,3.86621094 12.3779297,3.52441406 C12.1630859,3.18261719 12.0556641,2.74511719 12.0556641,2.21191406 C12.0556641,1.50097656 12.2446289,0.954589844 12.6225586,0.572753906 C13.0004883,0.190917969 13.5351562,0 14.2265625,0 C14.7675781,0 15.1928711,0.109375 15.5024414,0.328125 C15.8120117,0.546875 16.0419922,0.8828125 16.1923828,1.3359375 L15.0205078,1.59667969 C14.9794922,1.46582031 14.9365234,1.37011719 14.8916016,1.30957031 C14.8173828,1.20800781 14.7265625,1.12988281 14.6191406,1.07519531 C14.5117188,1.02050781 14.3916016,0.993164062 14.2587891,0.993164062 C13.9580078,0.993164062 13.7275391,1.11425781 13.5673828,1.35644531 C13.4462891,1.53613281 13.3857422,1.81835938 13.3857422,2.203125 C13.3857422,2.6796875 13.4580078,3.00634766 13.6025391,3.18310547 C13.7470703,3.35986328 13.9501953,3.44824219 14.2119141,3.44824219 C14.4658203,3.44824219 14.6577148,3.37695312 14.7875977,3.234375 C14.9174805,3.09179688 15.0117188,2.88476562 15.0703125,2.61328125 Z"></path>
                                    <polygon points="16.8837891 0.0732421875 18.2109375 0.0732421875 18.2109375 1.57617188 19.6611328 1.57617188 19.6611328 0.0732421875 20.9941406 0.0732421875 20.9941406 4.36816406 19.6611328 4.36816406 19.6611328 2.63085938 18.2109375 2.63085938 18.2109375 4.36816406 16.8837891 4.36816406"></polygon>
                                </g>
                            </g>
                        </g>
                    </g>
                </g>
            </g>
        </g>
    </g>
</svg>