<?xml version="1.0" encoding="UTF-8"?>
<svg width="12px" height="12px" viewBox="0 0 12 12" version="1.1" xmlns="http://www.w3.org/2000/svg" xmlns:xlink="http://www.w3.org/1999/xlink">
  <g stroke="none" stroke-width="1" fill="none" fill-rule="evenodd">
    <circle fill="#FA9C3F" cx="6" cy="6" r="6"/>
    <path d="M6,10.125 C6.41421356,10.125 6.75,9.78921356 6.75,9.375 C6.75,8.96078644 6.41421356,8.625 6,8.625 C5.58578644,8.625 5.25,8.96078644 5.25,9.375 C5.25,9.78921356 5.58578644,10.125 6,10.125 Z M6,2.25 C6.31066017,2.25 6.5625,2.50183983 6.5625,2.8125 L6.5625,6.9375 C6.5625,7.24816017 6.31066017,7.5 6,7.5 C5.68933983,7.5 5.4375,7.24816017 5.4375,6.9375 L5.4375,2.8125 C5.4375,2.50183983 5.68933983,2.25 6,2.25 Z" fill="#FFFFFF"/>
  </g>
</svg>
