<svg xmlns="http://www.w3.org/2000/svg" xmlns:xlink="http://www.w3.org/1999/xlink" width="16px" height="16px" viewBox="0 0 16 16" version="1.1">
  <g stroke="none" stroke-width="1" fill="none" fill-rule="evenodd">
    <path d="M13.146989,4.80277559 L11.0979458,6.77574062 C10.8990257,6.96727503 10.5824999,6.96128779 10.3909655,6.76236775 C10.3498619,6.71967926 10.3166745,6.67002367 10.2929519,6.61571851 L8.60693033,2.7561076 C8.47427961,2.4524459 8.1205785,2.31381412 7.81691681,2.44646484 C7.67866127,2.50686001 7.56823307,2.61712396 7.50763218,2.75528945 L5.80970103,6.62644531 C5.69878221,6.8793319 5.40385966,6.99441953 5.15097307,6.88350071 C5.09898498,6.86069817 5.05125976,6.82920867 5.00984411,6.79038263 L2.8693784,4.78375471 C2.62762773,4.55712008 2.24792643,4.56937406 2.0212918,4.81112473 C1.88855325,4.95271666 1.83250195,5.14976976 1.87084705,5.34002604 L3.11313072,11.5038456 L3.11313072,11.5038456 C3.11313072,11.4836006 3.11166767,11.4633556 3.10874159,11.4418454 C3.15848505,11.8113161 3.44670451,12.1175214 3.83441088,12.2440524 C3.79929785,12.2326646 3.76418482,12.2238075 3.73199788,12.2187462 C4.55569104,12.4857268 5.84668913,13 8.03480712,13 C10.2229251,13 11.5373319,12.4300531 12.3727294,12.1478888 C12.3420055,12.1529501 12.3098186,12.1605419 12.2747055,12.1719297 C12.6624119,12.0441333 12.9506314,11.7379281 13.0003748,11.3684573 C12.9945226,11.4114779 12.9945226,11.4519679 12.9974487,11.4886619 L14.1528141,5.34589411 C14.2140662,5.0202335 13.9997207,4.70657884 13.6740601,4.64532681 C13.4832432,4.60943692 13.2868547,4.66810286 13.146989,4.80277559 Z" fill="#FA9C3F" fill-rule="nonzero"/>
  </g>
</svg>
