<?xml version="1.0" encoding="UTF-8"?>
<svg width="48px" height="48px" viewBox="0 0 48 48" version="1.1" xmlns="http://www.w3.org/2000/svg" xmlns:xlink="http://www.w3.org/1999/xlink">
  <g stroke="none" stroke-width="1" fill="none" fill-rule="evenodd">
    <g transform="translate(2.000000, 1.000000)">
      <rect stroke="#D7D9E0" fill="#FFFFFF" x="0.5" y="0.5" width="43" height="13" rx="3"/>
      <rect fill="#EFEFF0" x="5" y="4" width="24" height="6" rx="1"/>
      <path d="M34.4696699,5.46966991 C34.7359365,5.20340335 35.1526002,5.1791973 35.4462117,5.39705176 L35.5303301,5.46966991 L38.5303301,8.46966991 C38.8232233,8.76256313 38.8232233,9.23743687 38.5303301,9.53033009 C38.2640635,9.79659665 37.8473998,9.8208027 37.5537883,9.60294824 L37.4696699,9.53033009 L35,7.061 L32.5303301,9.53033009 C32.2640635,9.79659665 31.8473998,9.8208027 31.5537883,9.60294824 L31.4696699,9.53033009 C31.2034034,9.26406352 31.1791973,8.84739984 31.3970518,8.55378835 L31.4696699,8.46966991 L34.4696699,5.46966991 Z" fill="#8B8FA3" fill-rule="nonzero" transform="translate(35.000000, 7.500000) scale(1, -1) translate(-35.000000, -7.500000) "/>
    </g>
    <g transform="translate(2.000000, 14.000000)">
      <rect stroke="#D7D9E0" fill="#FFFFFF" x="0.5" y="0.5" width="43" height="32" rx="3"/>
      <rect fill="#D7D9E0" x="13" y="5" width="22" height="5" rx="1"/>
      <rect fill="#D7D9E0" x="17" y="14" width="23" height="5" rx="1"/>
      <path d="M11.4,15.0333333 L13.4,17.7 C13.5656854,17.9209139 13.5209139,18.2343146 13.3,18.4 C13.2134519,18.4649111 13.1081851,18.5 13,18.5 L9,18.5 C8.72385763,18.5 8.5,18.2761424 8.5,18 C8.5,17.8918149 8.53508894,17.7865481 8.6,17.7 L10.6,15.0333333 C10.7656854,14.8124194 11.0790861,14.7676479 11.3,14.9333333 C11.3379028,14.9617605 11.3715729,14.9954305 11.4,15.0333333 Z" fill="#8B8FA3" transform="translate(11.000000, 16.500000) scale(1, -1) translate(-11.000000, -16.500000) "/>
      <path d="M7.4,6.03333333 L9.4,8.7 C9.56568542,8.9209139 9.5209139,9.23431458 9.3,9.4 C9.21345191,9.46491106 9.10818511,9.5 9,9.5 L5,9.5 C4.72385763,9.5 4.5,9.27614237 4.5,9 C4.5,8.89181489 4.53508894,8.78654809 4.6,8.7 L6.6,6.03333333 C6.76568542,5.81241943 7.0790861,5.76764791 7.3,5.93333333 C7.33790283,5.96176046 7.37157288,5.9954305 7.4,6.03333333 Z" fill="#8B8FA3" transform="translate(7.000000, 7.500000) scale(1, -1) translate(-7.000000, -7.500000) "/>
      <rect fill="#D7D9E0" x="24" y="23" width="16" height="5" rx="1"/>
    </g>
  </g>
</svg>
