<?xml version="1.0" encoding="UTF-8"?>
<svg width="16px" height="16px" viewBox="0 0 16 16" version="1.1" xmlns="http://www.w3.org/2000/svg" xmlns:xlink="http://www.w3.org/1999/xlink">
  <g stroke="none" stroke-width="1" fill="none" fill-rule="evenodd">
    <g transform="translate(2.000000, 2.000000)">
      <path d="M4.29045933,0.733028757 C5.06141504,-0.0127514994 6.53907193,0.111544548 7.18153502,0.2669156 C8.78768454,-0.199204709 12,-0.385665705 12,2.5974496 C12,4.65345699 11.1210389,5.29243907 10.3324382,5.99887773 C10.0852612,6.72952098 12,7.21016404 12,7.72472214 C12,8.23924845 10.811431,9.12304174 9.10402841,9.12304174 C9.05005855,11.5582014 8.54354692,12.385814 7.18153502,12.385814 C6.02510967,12.385814 5.73599718,11.2981967 5.73599718,10.5213613 C5.73599718,10.3188088 5.70323739,10.0600756 5.65479595,9.78831035 L3.90256638,9.78831035 C3.13161067,9.78831035 3.09949162,8.9767494 2.93887174,8.65690872 C2.62133676,8.76140325 1.89991503,9.12304174 1.49333389,8.85612377 C0.23249453,8.02851118 -0.527996614,1.66522329 0.43569556,0.733028757 C1.2066447,-0.0127316336 3.3267729,0.422294599 4.29045933,0.733028757 Z" fill="#3D6288" fill-rule="nonzero"/>
      <path d="M7.18153502,0.2669156 C6.53907193,0.111544548 5.06141504,-0.0127514994 4.29045933,0.733028757 M7.18153502,0.2669156 C8.78768454,-0.199204709 12,-0.385665705 12,2.5974496 C12,4.65345699 11.1210389,5.29243907 10.3324382,5.99887773 M7.18153502,0.2669156 C7.82813006,0.767301374 9.05778026,1.85187515 9.71363314,2.83942397 M4.29045933,0.733028757 C3.3267729,0.422294599 1.2066447,-0.0127316336 0.43569556,0.733028757 C-0.527996614,1.66522329 0.23249453,8.02851118 1.49333389,8.85612377 C1.89991503,9.12304174 2.62133676,8.76140325 2.93887174,8.65690872 M4.29045933,0.733028757 C4.06435273,1.27983315 3.67908846,2.39627975 3.47075002,3.52969181 M4.29045933,7.21016404 C3.96922778,6.89942194 3.32676469,6.41958146 3.32676469,4.9280273 C3.32676469,4.48634521 3.38310035,4.00652062 3.47075002,3.52969181 M4.29045933,7.21016404 C4.62359381,7.37130812 4.9567283,7.75523613 5.13063117,7.97685989 M4.29045933,7.21016404 C4.05727176,7.71772935 3.32676469,8.38999075 2.93887174,8.65690872 M9.10887501,8.65690872 C9.10887501,7.25860501 10.4581214,4.64836338 10.0726107,3.52969181 C9.99752937,3.31172336 9.87242116,3.07841052 9.71363314,2.83942397 M9.10887501,8.65690872 C9.10887501,8.81845806 9.10731424,8.97372978 9.10402841,9.12304174 M9.10887501,8.65690872 C9.10887501,8.15009037 9.17869903,7.74450855 9.29649625,7.40689189 M10.3324382,5.99887773 C10.0852612,6.72952098 12,7.21016404 12,7.72472214 C12,8.23924845 10.811431,9.12304174 9.10402841,9.12304174 M10.3324382,5.99887773 C9.91300124,6.37465278 9.5190295,6.76951497 9.29649625,7.40689189 M9.10402841,9.12304174 C9.05005855,11.5582014 8.54354692,12.385814 7.18153502,12.385814 C6.02510967,12.385814 5.73599718,11.2981967 5.73599718,10.5213613 C5.73599718,10.3188088 5.70323739,10.0600756 5.65479595,9.78831035 M9.71363314,2.83942397 C9.19085662,2.7587685 8.04886431,2.78391075 7.66337824,3.52969181 C7.27790038,4.27547286 8.59152013,6.42523132 9.29649625,7.40689189 M3.47075002,3.52969181 C3.9046036,3.37432473 4.86867611,3.15680128 5.25414575,3.52969181 C5.73599718,3.99580099 6.04074204,5.27065812 5.73599718,5.86025362 C5.25414575,6.79247198 5.33241436,7.25518808 5.13063117,7.97685989 M5.13063117,7.97685989 C5.14947544,8.00085788 5.16644678,8.0230282 5.18134805,8.04273515 C5.23071774,8.10805417 5.26604869,8.18179632 5.28843345,8.25975003 C5.36423769,8.52372786 5.54777627,9.18796344 5.65479595,9.78831035 M2.93887174,8.65690872 C3.09949162,8.9767494 3.13161067,9.78831035 3.90256638,9.78831035 C4.86626102,9.78831035 5.3919455,9.78831035 5.65479595,9.78831035" stroke="#FFFFFF" stroke-width="0.7" stroke-linecap="round" stroke-linejoin="round"/>
    </g>
  </g>
</svg>
