<svg width="48" height="48" viewBox="0 0 151 83" fill="none" xmlns="http://www.w3.org/2000/svg">
  <g clip-path="url(#icon-space_svg__a)">
    <path fill-rule="evenodd" clip-rule="evenodd" d="M0 0.609375H68.6364V34.776H0V0.609375ZM0 48.4427H68.6364V82.6094H0V48.4427ZM82.3636 0.609375H151V34.776H82.3636V0.609375ZM82.3636 48.4427H151V82.6094H82.3636V48.4427Z" fill="#EEEEEE"/>
    <path d="M82.1493 20.8958H81.7203V18.3333H69.28V20.8958H68.851V15.3438H69.28V17.9063H81.7203V15.3438H82.1493V20.8958ZM82.1493 68.7292H81.7203V66.1667H69.28V68.7292H68.851V63.1771H69.28V65.7396H81.7203V63.1771H82.1493V68.7292ZM31.959 48.2292V47.8021H34.5328V35.4167H31.959V34.9896H37.5357V35.4167H34.9618V47.8021H37.5357V48.2292H31.959ZM114.323 48.2292V47.8021H116.896V35.4167H114.323V34.9896H119.899V35.4167H117.325V47.8021H119.899V48.2292H114.323Z" fill="#1890FF"/>
  </g>
  <defs>
    <clipPath id="icon-space_svg__a">
      <rect width="151" height="82" fill="white" transform="translate(0 0.609375)"/>
    </clipPath>
  </defs>
</svg>
