<?xml version="1.0" encoding="UTF-8"?>
<svg width="20px" height="20px" viewBox="0 0 20 20" version="1.1" xmlns="http://www.w3.org/2000/svg" xmlns:xlink="http://www.w3.org/1999/xlink">
  <g stroke="none" stroke-width="1" fill="none" fill-rule="evenodd">
    <g transform="translate(2.959473, 3.704102)" fill="#8B8FA3" fill-rule="nonzero">
      <g>
        <path d="M8.58398438,0 L6.98730469,7.51464844 C6.79199219,8.43261719 6.47705078,9.16015625 6.04248047,9.69726562 C5.31494141,10.6054688 4.25048828,11.0595703 2.84912109,11.0595703 C1.44775391,11.0595703 0.5859375,10.6921387 0.263671875,9.95727539 C-0.05859375,9.22241211 -0.0854492188,8.22021484 0.183105469,6.95068359 L0.234375,6.70166016 L2.36572266,6.70166016 L2.31445312,6.95068359 C2.15820312,7.78564453 2.12524414,8.37280273 2.21557617,8.7121582 C2.3059082,9.05151367 2.61962891,9.22119141 3.15673828,9.22119141 C3.68896484,9.22119141 4.07958984,9.03564453 4.32861328,8.66455078 C4.47998047,8.44482422 4.61181641,8.07373047 4.72412109,7.55126953 L6.328125,0 L8.58398438,0 Z"/>
      </g>
      <g transform="translate(7.738190, 4.774902)">
        <path d="M2.27792279,1.69189453 C2.23853477,1.86735026 2.28687461,1.99446615 2.42294232,2.07324219 C2.5554293,2.15559896 3.05673138,2.29703776 3.92684857,2.49755859 C4.50334597,2.64078776 4.91333946,2.85742188 5.15682904,3.14746094 C5.39673789,3.44108073 5.47014284,3.80810547 5.37704388,4.24853516 C5.25171836,4.82861328 4.93482383,5.30216471 4.42636029,5.66918945 C3.91789675,6.03621419 3.2124931,6.21972656 2.31014935,6.21972656 C1.38990196,6.21972656 0.751636983,6.02547201 0.39535443,5.63696289 C0.0390718784,5.24845378 -0.0764066372,4.75341797 0.0489188836,4.15185547 L1.60116498,4.15185547 C1.57609987,4.42399089 1.60653607,4.61735026 1.69247357,4.73193359 C1.83570274,4.93603516 2.16333946,5.03808594 2.67538373,5.03808594 C2.97616498,5.03808594 3.22502565,4.99332682 3.42196576,4.90380859 C3.61890586,4.81429036 3.73706993,4.68001302 3.77645795,4.50097656 C3.81226524,4.32910156 3.76750612,4.19840495 3.6421806,4.10888672 C3.51685508,4.01936849 3.01734336,3.86539714 2.14364545,3.64697266 C1.51701784,3.48225911 1.0944918,3.27636719 0.876067321,3.02929688 C0.654062113,2.78580729 0.593189717,2.43489583 0.693450134,1.9765625 C0.808033467,1.4358724 1.11866172,0.971272786 1.6253349,0.582763672 C2.13200808,0.194254557 2.77027305,0 3.54012982,0 C4.27059857,0 4.83456341,0.145914714 5.23202435,0.437744141 C5.62948529,0.729573568 5.78703737,1.2335612 5.7046806,1.94970703 L4.17391888,1.94970703 C4.19182253,1.75276693 4.16854779,1.59700521 4.10409466,1.48242188 C3.97876914,1.27473958 3.71379519,1.17089844 3.30917279,1.17089844 C2.97616498,1.17089844 2.72819948,1.22281901 2.56527631,1.32666016 C2.40235313,1.4305013 2.30656862,1.55224609 2.27792279,1.69189453 Z"/>
      </g>
    </g>
  </g>
</svg>
