<?xml version="1.0" encoding="UTF-8"?>
<svg width="16px" height="16px" viewBox="0 0 16 16" version="1.1" xmlns="http://www.w3.org/2000/svg" xmlns:xlink="http://www.w3.org/1999/xlink">
  <g stroke="none" stroke-width="1" fill="none" fill-rule="evenodd">
    <g transform="translate(2.000000, 2.000000)" fill="#8B8FA3" fill-rule="nonzero">
      <g transform="translate(5.929289, 6.202260) rotate(45.000000) translate(-5.929289, -6.202260) translate(3.779289, 0.202260)">
        <path d="M2.61666667,2.65362552e-13 L1.68333333,2.65362552e-13 C0.753654004,2.65362552e-13 -2.98013387e-13,0.753654004 -2.98013387e-13,1.68333333 L-2.98013387e-13,9.49297979 C-2.98013387e-13,9.94722229 0.18357931,10.3821846 0.509037761,10.6990648 L1.626799,11.7873646 C1.91798789,12.0708785 2.38201211,12.0708785 2.673201,11.7873646 L3.79096224,10.6990648 C4.11642069,10.3821846 4.3,9.94722229 4.3,9.49297979 L4.3,1.68333333 C4.3,0.753654004 3.546346,2.65362552e-13 2.61666667,2.65362552e-13 Z M1.68333333,1.5 L2.61666667,1.5 C2.71791887,1.5 2.8,1.58208113 2.8,1.68333333 L2.8,9.49297979 L2.79350361,9.54135327 C2.7849539,9.57260423 2.76819089,9.60132778 2.74456024,9.62433559 L2.149,10.203 L1.55543976,9.62433559 C1.51999379,9.58982388 1.5,9.54245175 1.5,9.49297979 L1.5,1.68333333 C1.5,1.58208113 1.58208113,1.5 1.68333333,1.5 Z"/>
        <polygon points="3.95 2.28354492 3.95 3.78354492 0.35 3.78354492 0.35 2.28354492"/>
      </g>
    </g>
  </g>
</svg>
