<?xml version="1.0" encoding="UTF-8"?>
<svg width="20px" height="20px" viewBox="0 0 20 20" version="1.1" xmlns="http://www.w3.org/2000/svg" xmlns:xlink="http://www.w3.org/1999/xlink">
  <g stroke="none" stroke-width="1" fill="none" fill-rule="evenodd">
    <g transform="translate(2.000000, 4.000000)" stroke="#B8B9BF" stroke-linecap="round" stroke-width="1.5">
      <path d="M8,12 L8,12 L2,12 C0.8954305,12 0,11.1045695 0,10 L0,2 C0,0.8954305 0.8954305,0 2,0 L10,0 C11.1045695,0 12,0.8954305 12,2 L12,8 L12,8"/>
      <g transform="translate(5.500000, 5.500000)">
        <line x1="6" y1="6" x2="0.5" y2="0.5"/>
        <line x1="0.5" y1="3.5" x2="0.5" y2="0.5"/>
        <line x1="2" y1="2" x2="2" y2="-1" transform="translate(2.000000, 0.500000) rotate(90.000000) translate(-2.000000, -0.500000) "/>
      </g>
    </g>
    <g transform="translate(16.500000, 4.000000)" fill="#B8B9BF">
      <rect x="0" y="0" width="2" height="2" rx="0.5"/>
      <rect x="0" y="3.5" width="2" height="2" rx="0.5"/>
      <rect x="0" y="7" width="2" height="2" rx="0.5"/>
      <rect x="0" y="10.5" width="2" height="2" rx="0.5"/>
    </g>
  </g>
</svg>
