<?xml version="1.0" encoding="UTF-8"?>
<svg width="16px" height="16px" viewBox="0 0 16 16" version="1.1" xmlns="http://www.w3.org/2000/svg" xmlns:xlink="http://www.w3.org/1999/xlink">
    <g stroke="none" stroke-width="1" fill="none" fill-rule="evenodd">
        <rect x="0" y="0" width="16" height="16"></rect>
        <rect stroke="#8B8FA3" stroke-width="1.5" x="1.5" y="1.5" width="13" height="13" rx="2"></rect>
        <path d="M6.23799794,5.5 L5.09871223,5.5 L4.92472347,5.55127088 C4.712151,5.69480007 3.99372731,6.10877942 3.7,6.15637742 L3.7,7.30567044 C4.02062088,7.23076038 4.21651903,7.16412855 4.48102667,7.05406393 L4.53849794,7.02727273 L4.5388908,10.5 L6.23799794,10.5 L6.23799794,5.5 Z" fill="#8B8FA3" fill-rule="nonzero"></path>
        <path d="M10.2936516,5.4 C9.66608994,5.4 9.1484342,5.58472765 8.75588211,5.95431065 C8.37427133,6.30016767 8.17993719,6.75715956 8.17172505,7.31621623 L8.16834082,7.5466034 L9.50801258,7.5466034 L9.51717787,7.32822309 C9.5299554,7.02377447 9.60275835,6.80435968 9.72246975,6.67470743 C9.83960696,6.53899 10.0110461,6.47267732 10.2643023,6.47267732 C10.5165197,6.47267732 10.6889278,6.51645441 10.7916251,6.59552274 C10.8795567,6.66669474 10.9305299,6.78649543 10.9305299,6.96343656 C10.9305299,7.14906572 10.8411738,7.33131653 10.6545167,7.51064951 C10.5440349,7.60920027 10.374228,7.73236769 10.1541004,7.87040977 L9.55126918,8.23448825 C9.16140591,8.47744278 8.8873953,8.67562304 8.73030925,8.82986223 C8.33852296,9.20490501 8.14235294,9.65420302 8.14235294,10.1727273 L8.14235294,10.4 L12.2835294,10.4 L12.2835294,9.30234765 L9.99004844,9.30227273 L10.0858311,9.2319393 C10.1719987,9.17076711 10.270747,9.10661851 10.3820298,9.03986134 L10.5583492,8.93781514 C11.1116131,8.62171433 11.4749403,8.38280487 11.6892379,8.18742057 C12.0767569,7.82186075 12.2761921,7.41563659 12.2761921,6.96968032 C12.2761921,6.5040985 12.0838404,6.12093006 11.7038181,5.82694473 C11.3259425,5.54109851 10.8533813,5.4 10.2936516,5.4 Z" fill="#8B8FA3" fill-rule="nonzero"></path>
    </g>
</svg>