<?xml version="1.0" encoding="UTF-8"?>
<svg width="16px" height="16px" viewBox="0 0 16 16" version="1.1" xmlns="http://www.w3.org/2000/svg" xmlns:xlink="http://www.w3.org/1999/xlink">
  <g stroke="none" stroke-width="1" fill="none" fill-rule="evenodd">
    <rect fill="#FFFFFF" x="0" y="0" width="16" height="16" rx="2"/>
    <g transform="translate(1.000000, 1.000000)" fill="#222222" fill-rule="nonzero">
      <path d="M12,0 C13.1045695,0 14,0.8954305 14,2 L14,12 C14,13.1045695 13.1045695,14 12,14 L2,14 C0.8954305,14 0,13.1045695 0,12 L0,2 C0,0.8954305 0.8954305,0 2,0 L12,0 Z M12,0.8 L2,0.8 C1.37867966,0.8 0.867647457,1.27219968 0.806195465,1.87730697 L0.8,2 L0.8,12 C0.8,12.6213203 1.27219968,13.1323525 1.87730697,13.1938045 L2,13.2 L11.1565358,13.199269 C10.1682623,11.4812011 9.58426858,10.4677125 9.40455473,10.158803 C9.13893761,9.7022347 8.6918404,9.57276329 8.22383181,9.82015877 C8.04940575,9.9123891 7.80529031,10.0397904 7.49148552,10.2023625 C7.30215333,10.3015552 7.06834912,10.234168 6.96068952,10.0495191 L6.96068952,10.0495191 L6.47909567,9.21537407 C6.47860553,9.21452391 6.47811847,9.21367199 6.47763455,9.21281828 C6.36869465,9.02063334 6.4361781,8.77652343 6.62836653,8.66758967 C8.11167453,7.83070262 9.25896554,7.31390967 10.0702396,7.11721084 C10.8934705,6.91761295 11.9323002,6.96951139 12.6316138,7.29923602 C12.6603278,7.31277456 12.6830008,7.3364806 12.6952474,7.36576888 C12.7225743,7.43112251 12.6917476,7.50625497 12.626394,7.53358193 L12.626394,7.53358193 L12.4355485,7.61344946 C11.6971292,7.9223689 11.2590767,8.10663407 11.1213909,8.16624497 C10.5615322,8.40869242 10.3983996,8.89218192 10.7080586,9.42821626 C11.0975602,10.1025785 11.7849793,11.2658549 12.7703161,12.9180455 C13.0036692,12.724466 13.1613675,12.4420948 13.1938045,12.122693 L13.2,12 L13.2,2 C13.2,1.37867966 12.7278003,0.867647457 12.122693,0.806195465 L12,0.8 Z M5.8,6 C5.91045695,6 6,6.08954305 6,6.2 L6,7.3 C6,7.41045695 5.91045695,7.5 5.8,7.5 L2.2,7.5 C2.08954305,7.5 2,7.41045695 2,7.3 L2,6.2 C2,6.08954305 2.08954305,6 2.2,6 L5.8,6 Z M7.3,4 C7.41045695,4 7.5,4.08954305 7.5,4.2 L7.5,5.3 C7.5,5.41045695 7.41045695,5.5 7.3,5.5 L3.2,5.5 C3.08954305,5.5 3,5.41045695 3,5.3 L3,4.2 C3,4.08954305 3.08954305,4 3.2,4 L7.3,4 Z M5.3,2 C5.41045695,2 5.5,2.08954305 5.5,2.2 L5.5,3.3 C5.5,3.41045695 5.41045695,3.5 5.3,3.5 L2.2,3.5 C2.08954305,3.5 2,3.41045695 2,3.3 L2,2.2 C2,2.08954305 2.08954305,2 2.2,2 L5.3,2 Z"/>
    </g>
  </g>
</svg>
