<?xml version="1.0" encoding="UTF-8"?>
<svg width="16px" height="16px" viewBox="0 0 16 16" version="1.1" xmlns="http://www.w3.org/2000/svg" xmlns:xlink="http://www.w3.org/1999/xlink">
  <g stroke="none" stroke-width="1" fill="none" fill-rule="evenodd">
    <g transform="translate(1.500000, 1.500000)">
      <rect fill="#096EF9" x="0" y="0" width="13" height="13" rx="2"/>
      <g transform="translate(1.500000, 3.500000)" fill="#FFFFFF" fill-rule="nonzero">
        <path d="M6.75614004,4.74113354 L7.2460947,4.74113354 C7.63045568,4.74113354 8.33018977,4.84585425 8.50646081,4.20054822 C8.64274705,3.70270028 8.19756411,3.5798657 7.46094263,3.59628139 L7.0289941,3.59628139 L6.75614004,4.74113354 Z M7.20582831,2.56322567 L7.53246475,2.56322567 C8.08324137,2.56322567 8.42733596,2.53803609 8.52279264,1.99377139 C8.60783074,1.50979186 8.35187167,1.35497501 7.80785306,1.35497501 L7.4713612,1.35497501 L7.20582831,2.56350869 L7.20582831,2.56322567 Z M6.17636036,0.257388693 L8.44366777,0.257388693 C9.60885879,0.257388693 10.1030372,0.767406887 9.92507665,1.78800933 C9.83806747,2.28897059 9.60463505,2.65407796 9.22562414,2.88276536 C9.52438385,2.93257846 9.73838704,3.08994256 9.86819686,3.35598979 C9.99828827,3.62203702 10.0320782,3.93421797 9.96956679,4.29309869 C9.87805227,4.81868348 9.63729869,5.21605614 9.24786921,5.48493366 C8.85843973,5.75409421 8.38538006,5.88853296 7.8286902,5.88853296 L5.1956063,5.88853296 L6.17636036,0.257388693 Z"/>
        <path d="M4.22104706,3.95686028 C3.56101619,4.65990423 2.50874001,4.71113247 1.96781881,4.25517281 C1.33144092,3.71911595 1.36241507,2.73332607 2.02216436,2.02971606 C2.63995776,1.37054161 3.73897674,1.21629082 4.32551441,1.7730088 C4.91261525,2.32972677 4.88135952,3.25409937 4.22104706,3.95686028 M5.45550754,0.621363944 C4.40210502,-0.366973205 2.19083265,-0.158097826 0.994667494,1.1183628 C-0.282312029,2.48086423 -0.342852404,4.38961157 0.889073813,5.42804484 C1.83237732,6.22335623 3.57819277,6.22137502 4.85010379,5.21916946 L5.62530217,0.799106132 C5.57155232,0.737174694 5.51488952,0.677859684 5.45550754,0.621363944"/>
      </g>
    </g>
  </g>
</svg>
