<?xml version="1.0" encoding="UTF-8"?>
<svg width="48px" height="48px" viewBox="0 0 48 48" version="1.1" xmlns="http://www.w3.org/2000/svg" xmlns:xlink="http://www.w3.org/1999/xlink">
  <g stroke="none" stroke-width="1" fill="none" fill-rule="evenodd" stroke-linecap="round">
    <line x1="4" y1="24" x2="44" y2="24" stroke="#8B8FA3" stroke-width="2"/>
    <g transform="translate(4.000000, 0.000000)" fill="#F9F9FA" stroke="#D7D9E0" stroke-dasharray="1,3" stroke-width="1.5">
      <path d="M40,1 L40,1 L40,15.3157895 C40,16.2459533 39.1045695,17 38,17 L2,17 C0.8954305,17 0,16.2459533 0,15.3157895 L0,1 L0,1"/>
      <path d="M40,31 L40,31 L40,45.3157895 C40,46.2459533 39.1045695,47 38,47 L2,47 C0.8954305,47 0,46.2459533 0,45.3157895 L0,31 L0,31" transform="translate(20.000000, 39.000000) scale(1, -1) translate(-20.000000, -39.000000) "/>
    </g>
  </g>
</svg>
