<?xml version="1.0" encoding="UTF-8"?>
<svg width="16px" height="16px" viewBox="0 0 16 16" version="1.1" xmlns="http://www.w3.org/2000/svg" xmlns:xlink="http://www.w3.org/1999/xlink">
  <g stroke="none" stroke-width="1" fill="none" fill-rule="evenodd">
    <rect fill="#FFFFFF" x="0" y="0" width="16" height="16" rx="2"/>
    <g transform="translate(0.000000, 2.500000)" fill-rule="nonzero">
      <path d="M15.6476955,0 C15.4002446,0.00828361725 15.4762515,0.0822444856 14.9442035,0.218332483 C14.3426504,0.28254809 13.7473645,0.398927249 13.1646146,0.566244408 C11.4301726,1.31946189 11.0821413,3.8938918 9.50714224,4.81574006 C8.32817888,5.50505535 7.13950036,5.56008224 6.07026118,5.90681079 C5.29486124,6.18180565 4.57888578,6.61114371 3.96264272,7.17065411 C3.46831247,7.61146088 3.45573991,7.99901583 2.93912194,8.55283481 C2.3870722,9.14452176 0.744067035,8.56289349 0,9.46817452 C0.240021624,9.71904979 0.342888035,9.78946053 0.817787963,9.72437497 C0.720064873,9.91667323 0.143441495,10.0793871 0.256023066,10.3604384 C0.374890918,10.6562819 1.76930226,10.8592305 3.03684503,10.064595 C3.62718393,9.69538231 4.09751202,9.16345574 5.01702343,9.03683474 C6.33700438,8.9633775 7.66060712,9.06799759 8.95452103,9.34806207 C8.71433693,9.90987612 8.39671635,10.43265 8.01157893,10.9000569 C7.90985548,11.0136608 8.21559731,11.0260863 8.56477163,10.9592256 C9.10789243,10.8492128 9.63191181,10.6551322 10.1191974,10.3835142 C10.7015356,10.0326439 10.7895435,9.13268802 11.5038936,8.93802302 C12.0424243,9.59616915 12.978604,9.71636422 13.6560875,9.21434082 C13.0668915,9.04156823 12.9040197,7.74281538 13.1028948,7.17006242 C13.2914832,6.62807718 13.4777857,5.7612558 13.6675171,5.04531459 C13.8715354,4.27612156 13.9463993,3.30634666 14.1932787,2.91524159 C14.5110076,2.4791687 14.8951,2.09948046 15.330524,1.79103639 C15.7699388,1.46676173 16.0212788,0.934509277 15.9985842,0.376312898 C15.9951553,0.131354502 15.8728586,-0.00532518252 15.6476955,0.00236674779 L15.6476955,0 Z" fill="#002B64"/>
      <path d="M0.511474652,10.30837 C1.25204422,10.4410397 2.01417286,10.3271011 2.68824219,9.98294216 C3.31562088,9.58212624 3.96432776,9.218253 4.63127439,8.89305481 C5.70108506,8.53804264 6.87376214,8.89305481 8.01729373,8.96464893 C8.2931819,8.984394 8.57018631,8.98003957 8.84536834,8.95163182 C9.27112098,8.68063919 9.26254878,7.66648777 9.67687182,7.57359292 C9.65061784,8.71625452 9.23852208,9.8132786 8.51219546,10.6740325 C9.60450318,10.4873724 10.5361178,9.75159686 10.9987052,8.71022354 C11.154371,8.39916432 11.2880662,8.0768374 11.3987412,7.74577382 C11.5764715,7.887187 11.475891,8.31675172 11.5650419,8.54928469 C12.422262,8.05581778 12.9097345,6.93042921 13.2343352,5.79202352 C13.6092261,4.47433669 13.7629542,3.14067431 14.0052618,2.75075262 C14.2585841,2.40460709 14.5750721,2.11331485 14.9367743,1.89339823 C15.345505,1.6720924 15.6331833,1.26841253 15.7168446,0.798777378 C15.3168085,0.760317726 15.2219428,0.663872754 15.1625089,0.454415575 C14.979817,0.556620235 14.7746372,0.607995995 14.5670267,0.603520686 C14.3858675,0.609437555 14.186421,0.603520686 13.9429705,0.626596477 C11.9296462,0.840787151 11.6736231,3.13830757 10.3832212,4.44120222 C10.2879972,4.53672336 10.1868181,4.62566773 10.0803367,4.70746135 C9.61192752,5.04336208 9.10196718,5.31243299 8.56420015,5.5074221 C7.73898295,5.83403329 6.95434083,5.85710909 6.17998535,6.13875207 C5.61099403,6.34628214 5.06968481,6.62760025 4.56898306,6.9759891 C4.45468705,7.05882527 4.34039104,7.14343651 4.24095351,7.22923111 C3.99600634,7.44658366 3.78408531,7.7009048 3.61232545,7.98363197 C3.43487681,8.27898894 3.22822136,8.55442359 2.99569846,8.80548514 C2.5676599,9.24037505 0.969230178,8.93210615 0.406322321,9.33800339 C0.345704083,9.37961516 0.295549322,9.43560022 0.260023426,9.50130899 C0.566908218,9.6456806 0.774355479,9.55692756 1.12524423,9.59775396 C1.17153412,9.9450742 0.39660716,10.1509813 0.510903172,10.3107367 L0.511474652,10.30837 Z" fill="#C49A6C"/>
      <path d="M13.2731958,1.48868436 C13.4257476,1.62262461 13.6429505,1.64339437 13.8166156,1.54064822 C13.9902808,1.43790206 14.0832702,1.23361216 14.0492657,1.02953529 C13.6063687,0.991075636 13.3497742,1.1466893 13.2731958,1.48868436 Z" fill="#002B64"/>
      <path d="M15.260232,0.892855603 C15.1174791,1.1321383 15.0409733,1.40743214 15.0390692,1.68867455 C15.0390692,1.76086035 14.986493,1.80701194 14.9853501,1.69873322 C14.9843333,1.40979583 15.0604772,1.12619037 15.2053699,0.879246803 C15.2556601,0.784576891 15.2882345,0.82362823 15.260232,0.892855603 Z" fill="#002B64"/>
      <path d="M15.1836537,0.828361725 C15.0019173,1.08130024 14.8840567,1.37721823 14.8407656,1.68926623 C14.8339079,1.76086035 14.7779028,1.80760362 14.786475,1.69459142 C14.8275717,1.37469794 14.9454602,1.07057287 15.1293631,0.81001943 C15.1899399,0.722449762 15.2179425,0.764459535 15.1836537,0.828361725 Z" fill="#002B64"/>
      <path d="M15.1145046,0.748483988 C14.8802302,1.00516413 14.7079065,1.31556896 14.6116021,1.6543567 C14.5990296,1.72476745 14.5395956,1.76441047 14.5544541,1.6543567 C14.6512238,1.30830784 14.8243675,0.990288233 15.060214,0.725408197 C15.1293631,0.64138865 15.1533652,0.685765171 15.1145046,0.748483988 Z" fill="#002B64"/>
      <path d="M15.0522132,0.656772511 C14.7806787,0.934816989 14.5632029,1.26422955 14.4115841,1.6271391 C14.3892964,1.6951831 14.3252906,1.72595082 14.3572935,1.62003886 C14.5079452,1.24835927 14.7277586,0.911001643 15.0042089,0.627188163 C15.0813587,0.552635608 15.0996461,0.600562251 15.0522132,0.657364198 L15.0522132,0.656772511 Z" fill="#002B64"/>
    </g>
  </g>
</svg>
