<?xml version="1.0" encoding="UTF-8"?>
<svg width="16px" height="16px" viewBox="0 0 16 16" version="1.1" xmlns="http://www.w3.org/2000/svg" xmlns:xlink="http://www.w3.org/1999/xlink">
    <g stroke="none" stroke-width="1" fill="none" fill-rule="evenodd">
        <g transform="translate(-2101.000000, -216.000000)">
            <g transform="translate(2101.000000, 216.000000)">
                <rect x="0" y="0" width="16" height="16"></rect>
                <path d="M7.61169625,0.75 C8.37398855,0.75 8.85935405,1.05692037 9.18328579,1.44299094 C9.65864524,2.00953711 9.74294462,2.82344918 9.74919066,3.14541987 L9.74919066,3.14541987 L11.9098182,3.98420543 C12.4081578,4.00528934 12.8649043,4.2366784 13.2014279,4.6009804 C13.546018,4.97401484 13.7559897,5.48262286 13.7559896,6.00001704 L13.7559896,6.00001704 L13.7558305,13.005336 C13.7493143,13.5205077 13.5352184,14.0195364 13.1889719,14.3837842 C12.8375361,14.7534911 12.3574698,14.9814304 11.8352433,14.9814304 L11.8352433,14.9814304 L3.64601,14.981271 C3.11968572,14.9745591 2.64429443,14.7562059 2.30118034,14.4071565 C1.9603316,14.0604116 1.75,13.584782 1.75,13.059981 C1.75,12.275202 2.05096394,11.9096726 2.26225969,11.7461054 L2.26225969,11.7461054 L3.95198375,11.4815711 C4.40270338,11.5001552 4.87783333,11.2727217 5.2264767,10.9050565 C5.53832883,10.5761898 5.75,10.1258748 5.75,9.6 C5.75,9.08115749 5.54064396,8.64149116 5.23298112,8.32106369 C4.89478239,7.96883344 4.43763303,7.75 4.00357419,7.75 L4.00357419,7.75 L2.52836502,7.75 L1.75942923,6.15032696 C1.70072216,5.55921721 1.9200869,4.98431495 2.30764716,4.5780667 C2.65862732,4.21016242 3.14204528,3.98262974 3.67073171,3.98262974 L3.67073171,3.98262974 L5.08597103,3.98262974 L5.3834393,3.09022494 C5.41065718,2.75397029 5.53306818,2.00401043 5.9976543,1.46200956 C6.33879355,1.06402572 6.84310665,0.75 7.61169625,0.75 Z" stroke="#8B8FA3" stroke-width="1.5" stroke-linejoin="round" fill-rule="nonzero"></path>
            </g>
        </g>
    </g>
</svg>