<?xml version="1.0" encoding="UTF-8"?>
<svg width="16px" height="16px" viewBox="0 0 16 16" version="1.1" xmlns="http://www.w3.org/2000/svg" xmlns:xlink="http://www.w3.org/1999/xlink">
    <g stroke="none" stroke-width="1" fill="none" fill-rule="evenodd">
        <rect x="0" y="0" width="16" height="16"></rect>
        <path d="M12.5219797,3.84457117 C12.5183664,3.83750242 12.5123785,3.83196335 12.5050885,3.82894613 C11.662225,3.43851296 10.7727625,3.16010354 9.85896007,3.00068521 C9.84193221,2.99748912 9.82479359,3.00567741 9.81644462,3.02099776 C9.69532761,3.24293779 9.58538017,3.47090677 9.48702169,3.70403512 C8.50199259,3.55307086 7.50003691,3.55307086 6.51500781,3.70403512 C6.41599816,3.4703148 6.30428881,3.24228899 6.18038928,3.02099776 C6.1716926,3.00604392 6.15481826,2.99798608 6.13785172,3.00068521 C5.22395271,3.15976886 4.33443241,3.43819921 3.49167912,3.82896845 C3.48446482,3.83205629 3.47837754,3.83732858 3.47425729,3.84405777 C1.78891632,6.38509066 1.32723782,8.86364572 1.55372161,11.3115087 C1.55500891,11.3236301 1.56111216,11.3347054 1.57063494,11.3422008 C2.55199337,12.0758082 3.64965465,12.6357763 4.81677733,12.9982092 C4.83361041,13.0033073 4.85180765,12.9972871 4.86238804,12.9831199 C5.11306068,12.6387619 5.33517546,12.2741173 5.52647371,11.8928941 C5.53179052,11.8823127 5.53236919,11.8699402 5.52806364,11.8589001 C5.52375809,11.84786 5.51497976,11.8392072 5.50394472,11.8351261 C5.15368594,11.6998208 4.81459452,11.5367134 4.48985271,11.3473347 C4.4778729,11.3402245 4.47019149,11.3275535 4.46937052,11.3135479 C4.46854954,11.2995423 4.47469703,11.286045 4.48576256,11.2775578 C4.55409609,11.2260243 4.62124398,11.1729074 4.68715273,11.1182494 C4.69894379,11.1084446 4.7152188,11.1062307 4.72915968,11.1125351 C6.85667908,12.0928276 9.16000863,12.0928276 11.262346,11.1125351 C11.2763293,11.1058241 11.2928911,11.1078491 11.3048835,11.117736 C11.3708672,11.1726829 11.4381874,11.2259732 11.5067822,11.2775578 C11.5179069,11.2859579 11.5241516,11.2994045 11.5234326,11.3134111 C11.5227136,11.3274177 11.5151257,11.3401406 11.5032006,11.3473347 C11.1791972,11.5383065 10.8397984,11.7013117 10.4886222,11.8346127 C10.4775925,11.8388503 10.4688746,11.8476332 10.4646537,11.8587598 C10.4604329,11.8698864 10.4611092,11.8823019 10.4665132,11.8928941 C10.6610143,12.2719973 10.882802,12.6361825 11.1300904,12.9825172 C11.1403835,12.9970869 11.1587514,13.0033793 11.1757011,12.9981423 C12.3449152,12.6369381 13.444495,12.0769179 14.4270833,11.3422008 C14.436762,11.3350692 14.4429258,11.3240711 14.4439966,11.3120221 C14.7151405,8.48203766 13.9900563,6.02379515 12.5219797,3.84457117 L12.5219797,3.84457117 Z M5.84420102,9.82101409 C5.20366135,9.82101409 4.67587718,9.22755285 4.67587718,8.49871181 C4.67587718,7.76987077 5.19342492,7.17636488 5.84420102,7.17636488 C6.50006218,7.17636488 7.02273919,7.77502704 7.01250276,8.49866717 C7.01250276,9.22755285 6.49493291,9.82101409 5.84420102,9.82101409 Z M10.1638421,9.82101409 C9.52332454,9.82101409 8.99554036,9.22755285 8.99554036,8.49871181 C8.99554036,7.76987077 9.51308811,7.17636488 10.1638421,7.17636488 C10.8197475,7.17636488 11.3424024,7.77502704 11.3321659,8.49866717 C11.3321659,9.22755285 10.8197475,9.82101409 10.1638421,9.82101409 Z" fill="#222222" fill-rule="nonzero"></path>
    </g>
</svg>