<?xml version="1.0" encoding="UTF-8"?>
<svg width="48px" height="48px" viewBox="0 0 48 48" version="1.1" xmlns="http://www.w3.org/2000/svg" xmlns:xlink="http://www.w3.org/1999/xlink">
  <g stroke="none" stroke-width="1" fill="none" fill-rule="evenodd">
    <g transform="translate(4.000000, 16.251336)">
      <g transform="translate(16.000000, 2.748664)" fill="#3377FF" fill-rule="nonzero">
        <polygon points="0 0.0546190155 1.82608696 0.0546190155 1.82608696 7.39177343 6.1541502 7.39177343 6.1541502 9 0 9"/>
        <path d="M9.01778656,2.38503034 L9.01778656,9 L7.30434783,9 L7.30434783,2.38503034 L9.01778656,2.38503034 Z M9.01778656,0 L9.01778656,1.59608901 L7.30434783,1.59608901 L7.30434783,0 L9.01778656,0 Z"/>
        <path d="M13.6956522,3.66554282 C13.1225296,3.66554282 12.729249,3.91436278 12.5158103,4.4120027 C12.4051383,4.67498314 12.3498024,5.01078894 12.3498024,5.41942009 L12.3498024,9 L10.6660079,9 L10.6660079,2.3971679 L12.2964427,2.3971679 L12.2964427,3.36210384 C12.513834,3.02225219 12.7193676,2.77747808 12.9130435,2.62778152 C13.2608696,2.36075523 13.701581,2.22724208 14.2351779,2.22724208 C14.9031621,2.22724208 15.4496047,2.40627107 15.8745059,2.76432906 C16.2994071,3.12238705 16.5118577,3.71611598 16.5118577,4.54551585 L16.5118577,9 L14.7806324,9 L14.7806324,4.97639919 C14.7806324,4.62845583 14.7351779,4.36142953 14.6442688,4.1753203 C14.4782609,3.83546864 14.1620553,3.66554282 13.6956522,3.66554282 Z"/>
        <polygon points="24 9 21.9604743 9 20.4130435 6.17194875 19.7134387 6.91840863 19.7134387 9 18.0533597 9 18.0533597 0.084962913 19.7134387 0.084962913 19.7134387 4.90357384 21.8181818 2.41537424 23.9110672 2.41537424 21.6521739 4.94605529"/>
      </g>
      <g>
        <rect x="0" y="0.248664446" width="13" height="13"/>
        <g transform="translate(6.500000, 6.748664) rotate(30.000000) translate(-6.500000, -6.748664) translate(3.362500, 0.767414)" fill="#3377FF" fill-rule="nonzero">
          <path d="M3.1375,-1.02885021e-12 C4.81054191,-1.02885021e-12 6.17773357,1.30950056 6.2700333,2.95946 L6.275,3.1375 L6.275,4.35625 C6.275,4.74284932 5.96159932,5.05625 5.575,5.05625 C5.22061729,5.05625 4.92774177,4.79290638 4.88139017,4.45123585 L4.875,4.35625 L4.875,3.1375 C4.875,2.17790525 4.09709475,1.4 3.1375,1.4 C2.22841023,1.4 1.48238806,2.09817535 1.40637766,2.98758185 L1.4,3.1375 L1.4,4.35625 C1.4,4.74284932 1.08659932,5.05625 0.7,5.05625 C0.345617286,5.05625 0.0527417698,4.79290638 0.00639017493,4.45123585 L-2.34604077e-13,4.35625 L-2.34604077e-13,3.1375 C-2.34604077e-13,1.4047066 1.4047066,-1.02885021e-12 3.1375,-1.02885021e-12 Z M5.575,6.90625 C5.92938271,6.90625 6.22225823,7.16959362 6.26860983,7.51126415 L6.275,7.60625 L6.275,8.825 C6.275,10.5577934 4.8702934,11.9625 3.1375,11.9625 C1.46445809,11.9625 0.0972664322,10.6529994 0.00496670032,9.00304 L-2.34604077e-13,8.825 L-2.34604077e-13,7.60625 C-2.34604077e-13,7.21965068 0.313400675,6.90625 0.7,6.90625 C1.05438271,6.90625 1.34725823,7.16959362 1.39360983,7.51126415 L1.4,7.60625 L1.4,8.825 C1.4,9.78459475 2.17790525,10.5625 3.1375,10.5625 C4.04658977,10.5625 4.79261194,9.86432465 4.86862234,8.97491815 L4.875,8.825 L4.875,7.60625 C4.875,7.21965068 5.18840068,6.90625 5.575,6.90625 Z"/>
          <path d="M3.1375,3.25 C3.49188271,3.25 3.78475823,3.51334362 3.83110983,3.85501415 L3.8375,3.95 L3.8375,8.0125 C3.8375,8.39909932 3.52409932,8.7125 3.1375,8.7125 C2.78311729,8.7125 2.49024177,8.44915638 2.44389017,8.10748585 L2.4375,8.0125 L2.4375,3.95 C2.4375,3.56340068 2.75090068,3.25 3.1375,3.25 Z"/>
        </g>
      </g>
    </g>
  </g>
</svg>
