<?xml version="1.0" encoding="UTF-8"?>
<svg width="16px" height="16px" viewBox="0 0 16 16" version="1.1" xmlns="http://www.w3.org/2000/svg">
  <defs>
    <linearGradient x1="46.4736482%" y1="43.8394845%" x2="53.1250037%" y2="55.7495913%" id="icon-query-MongoDB_svg__a">
      <stop stop-color="#999875" offset="23.1%"/>
      <stop stop-color="#9B9977" offset="56.3%"/>
      <stop stop-color="#A09F7E" offset="68.3%"/>
      <stop stop-color="#A9A889" offset="76.8%"/>
      <stop stop-color="#B7B69A" offset="83.7%"/>
      <stop stop-color="#C9C7B0" offset="89.6%"/>
      <stop stop-color="#DEDDCB" offset="94.8%"/>
      <stop stop-color="#F8F6EB" offset="99.4%"/>
      <stop stop-color="#FBF9EF" offset="100%"/>
    </linearGradient>
    <linearGradient x1="44.1318074%" y1="-0.532297164%" x2="52.2916153%" y2="96.233905%" id="icon-query-MongoDB_svg__b">
      <stop stop-color="#48A547" offset="0%"/>
      <stop stop-color="#3F9143" offset="100%"/>
    </linearGradient>
    <linearGradient x1="44.9474607%" y1="55.9852782%" x2="59.1042178%" y2="46.1993691%" id="icon-query-MongoDB_svg__c">
      <stop stop-color="#41A247" offset="0%"/>
      <stop stop-color="#4BA74B" offset="35.2%"/>
      <stop stop-color="#67B554" offset="95.6%"/>
      <stop stop-color="#69B655" offset="100%"/>
    </linearGradient>
  </defs>
  <g stroke="none" stroke-width="1" fill="none" fill-rule="evenodd">
    <rect fill="#FFFFFF" x="0" y="0" width="16" height="16" rx="2"/>
    <g transform="translate(4.000000, 0.000000)" fill-rule="nonzero">
      <path d="M4.39322975,16 L3.91609036,15.8577143 C3.91609036,15.8577143 3.97962424,13.6862857 3.10603349,13.5337143 C2.53422863,12.9348571 3.19053354,-12.0325714 5.28079795,13.4485714 C4.88420786,13.6295034 4.58075141,13.9413369 4.43389143,14.3188571 C4.35518025,14.8764286 4.34155216,15.4398774 4.39322975,16 L4.39322975,16 Z" fill="url(#icon-query-MongoDB_svg__a)"/>
      <path d="M4.65117727,13.9022857 C7.24424953,12.1466427 8.48095185,9.20461017 7.8278709,6.34514286 C6.89392298,2.63942857 4.68230887,1.42114286 4.44405685,0.956 C4.2384962,0.666359905 4.06303678,0.360305004 3.9199024,0.0417142857 L4.09589122,10.3668571 C4.09589122,10.3668571 3.73120679,13.5222857 4.65117727,13.9022857 Z" fill="url(#icon-query-MongoDB_svg__b)"/>
      <path d="M3.67339097,14.0394286 C3.67339097,14.0394286 -0.215517375,11.6571429 0.00939253428,7.44285714 C0.0518424581,4.8722754 1.33086614,2.44440122 3.51582697,0.786857143 C3.77150768,0.591487076 3.91361011,0.301550241 3.90147757,0 C4.14354163,0.468571429 4.10415063,6.996 4.12956418,7.75942857 C4.22804168,10.7291429 3.94595128,13.4788571 3.67339097,14.0394286 Z" fill="url(#icon-query-MongoDB_svg__c)"/>
    </g>
  </g>
</svg>
