<?xml version="1.0" encoding="UTF-8"?>
<svg width="26px" height="13px" viewBox="0 0 26 13" version="1.1" xmlns="http://www.w3.org/2000/svg" xmlns:xlink="http://www.w3.org/1999/xlink">
    <title>icon-query-get</title>
    <g stroke="none" stroke-width="1" fill="none" fill-rule="evenodd">
        <g transform="translate(-120.000000, -783.000000)">
            <g transform="translate(104.000000, 79.000000)">
                <g transform="translate(8.000000, 40.000000)">
                    <g transform="translate(8.000000, 630.000000)">
                        <g transform="translate(0.000000, 30.000000)">
                            <g transform="translate(0.000000, 4.000000)">
                                <rect stroke="#3377FF" x="0.5" y="0.5" width="25" height="12" rx="2"></rect>
                                <g transform="translate(5.350586, 3.903809)" fill="#3377FF" fill-rule="nonzero">
                                    <path d="M2.71044922,3.28125 L2.71044922,2.23876953 L5.10302734,2.23876953 L5.10302734,4.375 C4.64501953,4.68717448 4.23999023,4.8996582 3.88793945,5.01245117 C3.53588867,5.12524414 3.11832682,5.18164062 2.63525391,5.18164062 C2.04052734,5.18164062 1.55574544,5.08024089 1.1809082,4.87744141 C0.806070964,4.67464193 0.51554362,4.37272135 0.309326172,3.97167969 C0.103108724,3.57063802 0,3.11035156 0,2.59082031 C0,2.04394531 0.112792969,1.56827799 0.338378906,1.16381836 C0.563964844,0.759358724 0.89436849,0.452311198 1.32958984,0.242675781 C1.66910807,0.0808919271 2.12597656,0 2.70019531,0 C3.25390625,0 3.66805013,0.0501302083 3.94262695,0.150390625 C4.21720378,0.250651042 4.44506836,0.40616862 4.6262207,0.616943359 C4.80737305,0.827718099 4.94352214,1.09488932 5.03466797,1.41845703 L3.54101562,1.68505859 C3.47949219,1.49593099 3.37524414,1.35123698 3.22827148,1.25097656 C3.08129883,1.15071615 2.89388021,1.10058594 2.66601562,1.10058594 C2.3264974,1.10058594 2.0559082,1.21850586 1.85424805,1.4543457 C1.65258789,1.69018555 1.55175781,2.0633138 1.55175781,2.57373047 C1.55175781,3.11604818 1.65372721,3.50341797 1.85766602,3.73583984 C2.06160482,3.96826172 2.34586589,4.08447266 2.71044922,4.08447266 C2.8836263,4.08447266 3.04882813,4.05940755 3.20605469,4.00927734 C3.36328125,3.95914714 3.54329427,3.87369792 3.74609375,3.75292969 L3.74609375,3.28125 L2.71044922,3.28125 Z"></path>
                                    <polygon points="6.01904297 0.0854492188 10.168457 0.0854492188 10.168457 1.15527344 7.57080078 1.15527344 7.57080078 1.95166016 9.98046875 1.95166016 9.98046875 2.97363281 7.57080078 2.97363281 7.57080078 3.96142578 10.2436523 3.96142578 10.2436523 5.09619141 6.01904297 5.09619141"></polygon>
                                    <polygon points="10.7255859 0.0854492188 15.4321289 0.0854492188 15.4321289 1.32275391 13.8530273 1.32275391 13.8530273 5.09619141 12.3046875 5.09619141 12.3046875 1.32275391 10.7255859 1.32275391"></polygon>
                                </g>
                            </g>
                        </g>
                    </g>
                </g>
            </g>
        </g>
    </g>
</svg>