<svg xmlns="http://www.w3.org/2000/svg" xmlns:xlink="http://www.w3.org/1999/xlink" width="48px" height="48px" viewBox="0 0 48 48" version="1.1">
  <g stroke="none" stroke-width="1" fill="none" fill-rule="evenodd">
    <path d="M13,7 L28.0701043,7 C28.6210103,7 29.1475204,7.2272417 29.5254115,7.62811045 L36.9553072,15.5097805 C37.3051527,15.8808983 37.5,16.3716501 37.5,16.8816701 L37.5,32 C37.5,36.9705627 33.4705627,41 28.5,41 L13,41 C11.8954305,41 11,40.1045695 11,39 L11,9 C11,7.8954305 11.8954305,7 13,7 Z" fill="#FFFFFF" fill-rule="nonzero"/>
    <path d="M37.5,30 C37.5,25.4096508 37.5,21.1335873 37.5,16.5432381 C37.5,16.2951017 37.4057435,16.0563719 37.2365671,15.8760238 L29.1957394,7.30421428 C29.0135874,7.11003372 28.7600903,7 28.4948866,7 L14.1812193,7 C12.1484825,7 10.5,8.75654018 10.5,10.9225223 L10.5,37.0774777 C10.5,39.2434598 12.1484825,41 14.1812193,41 C20.2571794,41 21.4586777,41 24.5,41" stroke="#D7D9E0" stroke-width="2" stroke-linecap="round" fill-rule="nonzero"/>
    <rect fill="#D7D9E0" x="15" y="20" width="12" height="3" rx="1.5"/>
    <rect fill="#D7D9E0" x="15" y="27" width="16" height="3" rx="1.5"/>
    <g transform="translate(29.000000, 34.000000)" fill-rule="nonzero">
      <path d="M6,9 C4.25923596,9 2.43652257,7.95471427 0.531859738,5.86414285 C-0.177286579,5.08551912 -0.177286579,3.91448088 0.531859738,3.13585715 C2.43520079,1.04528573 4.25923599,0 6,0 C7.74076401,0 9.56347741,1.04528573 11.4681403,3.13585715 C12.1772866,3.91448088 12.1772866,5.08551912 11.4681403,5.86414285 C9.56479919,7.95471427 7.74076401,9 6,9 Z" fill="#3377FF"/>
      <path d="M6,6.75 C7.27450327,6.75 8.30769231,5.74264069 8.30769231,4.5 C8.30769231,3.25735931 7.27450327,2.25 6,2.25 C4.72549673,2.25 3.69230769,3.25735931 3.69230769,4.5 C3.69230769,5.74264069 4.72549673,6.75 6,6.75 Z" fill="#FFFFFF"/>
    </g>
    <path d="M28.0093928,7.20710678 L28.0093928,15 C28.0093928,16.1045695 28.9048233,17 30.0093928,17 L37.802286,17 C38.0784284,17 38.302286,16.7761424 38.302286,16.5 C38.302286,16.3673918 38.2496076,16.2402148 38.1558394,16.1464466 L28.8629462,6.85355339 C28.6676841,6.65829124 28.3511016,6.65829124 28.1558394,6.85355339 C28.0620712,6.94732158 28.0093928,7.07449854 28.0093928,7.20710678 Z" fill="#D7D9E0"/>
  </g>
</svg>
