<?xml version="1.0" encoding="UTF-8"?>
<svg width="16px" height="16px" viewBox="0 0 16 16" version="1.1" xmlns="http://www.w3.org/2000/svg" xmlns:xlink="http://www.w3.org/1999/xlink">
  <g stroke="none" stroke-width="1" fill="none" fill-rule="evenodd">
    <path d="M12,0 C14.209139,0 16,1.790861 16,4 L16,12 C16,14.209139 14.209139,16 12,16 L4,16 C1.790861,16 0,14.209139 0,12 L0,4 C0,1.790861 1.790861,0 4,0 L12,0 Z M12,1 L4,1 C2.40231912,1 1.09633912,2.24891996 1.00509269,3.82372721 L1,4 L1,12 C1,13.5976809 2.24891996,14.9036609 3.82372721,14.9949073 L4,15 L12,15 C13.5976809,15 14.9036609,13.75108 14.9949073,12.1762728 L15,12 L15,4 C15,2.40231912 13.75108,1.09633912 12.1762728,1.00509269 L12,1 Z" fill="#D7D9E0" fill-rule="nonzero"/>
    <g fill="#4965F2">
      <path d="M12.7843527,4.56564734 C13.1113032,4.89259791 13.1364533,5.40706328 12.8598028,5.76286229 L12.7843527,5.84830615 L7.11574801,11.5169108 C6.97951861,11.6531402 6.81073455,11.7369737 6.63443788,11.7684112 L6.5279587,11.7809863 L6.42087851,11.7809863 C6.24257848,11.7705071 6.06678265,11.707632 5.91853306,11.5923609 L5.8330892,11.5169108 L3.56564734,9.24946894 C3.21145089,8.89527249 3.21145089,8.32100658 3.56564734,7.96681013 C3.89259791,7.63985956 4.40706328,7.61470952 4.76286229,7.89136 L4.84830615,7.96681013 L6.4744186,9.5922093 L11.5016938,4.56564734 C11.8558903,4.21145089 12.4301562,4.21145089 12.7843527,4.56564734 Z"/>
    </g>
    <g transform="translate(4.500000, 4.500000)" fill="#4965F2">
      <rect x="0" y="0" width="7" height="7" rx="2"/>
    </g>
  </g>
</svg>
