<svg xmlns="http://www.w3.org/2000/svg" xmlns:xlink="http://www.w3.org/1999/xlink" width="16px" height="16px" viewBox="0 0 16 16" version="1.1">
  <g stroke="none" stroke-width="1" fill="none" fill-rule="evenodd">
    <g transform="translate(1.500000, 2.000000)" fill="#222222">
      <path d="M6.5,0 C10.0898509,0 13,2.52898915 13,5.64865536 C13,6.89696498 12.5340454,8.05069913 11.7450369,8.98567365 L12.1332063,10.7021861 C12.255265,11.2408141 11.9175688,11.7764065 11.3789408,11.8984652 C11.14842,11.9507035 10.9068471,11.9195984 10.6970785,11.8106681 L9.01209752,10.9356771 L8.9325702,10.8884442 C8.18118254,11.1521356 7.36010021,11.2973107 6.5,11.2973107 C2.91014913,11.2973107 0,8.76832157 0,5.64865536 C0,2.52898915 2.91014913,0 6.5,0 Z M8.9819218,5.98806346 C8.63149823,5.76721012 8.16838679,5.87224754 7.94753345,6.22267111 C7.64570937,6.70156934 7.17286196,6.9352798 6.43191966,6.9352798 C5.68178901,6.9352798 5.17624792,6.69295711 4.83121338,6.19525772 C4.59522004,5.85484617 4.12795156,5.77019849 3.78754001,6.00619183 C3.44712847,6.24218517 3.36248079,6.70945365 3.59847412,7.0498652 C4.2357582,7.96912359 5.20826772,8.4352798 6.43191966,8.4352798 C7.66475995,8.4352798 8.6253204,7.96051136 9.21652945,7.0224518 C9.43738279,6.67202823 9.33234537,6.2089168 8.9819218,5.98806346 Z"/>
    </g>
  </g>
</svg>
