<svg version="1.1" id="Layer_1" xmlns="http://www.w3.org/2000/svg" xmlns:xlink="http://www.w3.org/1999/xlink" x="0px" y="0px"
	  width="46px" height="46px" viewBox="0 0 96 84" enable-background="new 0 0 96 84" xml:space="preserve">
<path fill="#FFFFFF" opacity="1.000000" stroke="none" 
	d="
M4.000765,69.922119 
	C4.000793,50.273857 3.988773,31.112915 4.007424,11.952000 
	C4.013917,5.281410 5.253081,4.013679 11.824705,4.008583 
	C36.650597,3.989332 61.476521,3.988300 86.302406,4.009674 
	C92.631592,4.015122 93.980904,5.339260 93.988853,11.579263 
	C94.015381,32.406334 94.010704,53.233463 93.992500,74.060547 
	C93.986671,80.723625 92.746201,81.986336 86.162773,81.991554 
	C61.836735,82.010849 37.510674,82.001671 13.184621,81.998085 
	C4.839263,81.996857 4.014518,81.173737 4.000937,72.908676 
	C3.999568,72.075600 4.000765,71.242523 4.000765,69.922119 
M88.891991,13.482848 
	C87.533730,12.990754 86.177025,12.074618 84.816971,12.069605 
	C61.019299,11.981870 37.221210,11.991783 13.423251,12.017979 
	C9.145943,12.022687 7.025187,14.328097 7.022137,18.564505 
	C7.010157,35.206448 7.007071,51.848412 7.025125,68.490341 
	C7.029739,72.743126 9.209184,74.960068 13.475954,74.986404 
	C19.133997,75.021324 24.792528,75.017616 30.450638,74.988770 
	C35.009098,74.965530 37.038052,72.532623 37.009251,68.077316 
	C36.966225,61.420822 37.274368,54.748539 36.906105,48.112217 
	C36.643864,43.386463 38.017025,41.731918 42.964935,41.869419 
	C55.270466,42.211391 67.593216,42.082809 79.906204,41.923317 
	C84.016548,41.870075 89.829590,41.880817 90.341232,37.188625 
	C91.166008,29.624779 89.848511,21.827335 88.891991,13.482848 
z"/>
<path fill="#EFEFF0" opacity="1.000000" stroke="none" 
	d="
M89.163971,13.805709 
	C89.848511,21.827335 91.166008,29.624779 90.341232,37.188625 
	C89.829590,41.880817 84.016548,41.870075 79.906204,41.923317 
	C67.593216,42.082809 55.270466,42.211391 42.964935,41.869419 
	C38.017025,41.731918 36.643864,43.386463 36.906105,48.112217 
	C37.274368,54.748539 36.966225,61.420822 37.009251,68.077316 
	C37.038052,72.532623 35.009098,74.965530 30.450638,74.988770 
	C24.792528,75.017616 19.133997,75.021324 13.475954,74.986404 
	C9.209184,74.960068 7.029739,72.743126 7.025125,68.490341 
	C7.007071,51.848412 7.010157,35.206448 7.022137,18.564505 
	C7.025187,14.328097 9.145943,12.022687 13.423251,12.017979 
	C37.221210,11.991783 61.019299,11.981870 84.816971,12.069605 
	C86.177025,12.074618 87.533730,12.990754 89.163971,13.805709 
M45.093052,25.127550 
	C45.231106,25.262583 45.369160,25.397615 45.286915,26.201315 
	C44.207199,28.004984 43.110455,29.903927 46.156925,30.804848 
	C47.067429,31.074112 48.188351,30.631849 50.400970,30.380739 
	C48.417210,29.365072 47.546726,28.919390 47.279301,28.782471 
	C47.943871,26.869005 48.884277,25.266191 48.901340,23.653605 
	C48.910084,22.827387 47.343555,21.441235 46.349995,21.302364 
	C45.380520,21.166862 44.234055,22.297709 43.165291,22.872610 
	C43.673714,23.485363 44.182133,24.098116 45.093052,25.127550 
M26.282188,43.997425 
	C23.126202,43.998096 19.967869,44.075809 16.814821,43.979862 
	C12.904642,43.860882 10.920901,45.512768 10.980828,49.567783 
	C11.064273,55.214104 11.046078,60.863033 10.987083,66.509964 
	C10.948210,70.230873 12.651199,72.047829 16.403646,72.001022 
	C20.223434,71.953369 24.053509,71.827278 27.862303,72.038315 
	C32.256451,72.281776 33.893753,69.953873 33.960274,66.049332 
	C34.047974,60.901535 33.800823,55.742424 34.043167,50.604477 
	C34.280182,45.579571 32.075302,43.526718 26.282188,43.997425 
M59.713753,34.545166 
	C61.258537,35.695107 62.700668,37.616447 64.368935,37.838436 
	C68.132408,38.339233 72.007866,38.022572 75.837494,37.997673 
	C88.367500,37.916210 86.950935,39.393383 86.998589,26.755030 
	C87.042892,15.006488 87.008049,15.006356 75.352943,15.006345 
	C58.417633,15.006329 57.161362,16.481915 59.713753,34.545166 
z"/>
<path fill="#FEFEFE" opacity="1.000000" stroke="none" 
	d="
M26.747135,43.997520 
	C32.075302,43.526718 34.280182,45.579571 34.043167,50.604477 
	C33.800823,55.742424 34.047974,60.901535 33.960274,66.049332 
	C33.893753,69.953873 32.256451,72.281776 27.862303,72.038315 
	C24.053509,71.827278 20.223434,71.953369 16.403646,72.001022 
	C12.651199,72.047829 10.948210,70.230873 10.987083,66.509964 
	C11.046078,60.863033 11.064273,55.214104 10.980828,49.567783 
	C10.920901,45.512768 12.904642,43.860882 16.814821,43.979862 
	C19.967869,44.075809 23.126202,43.998096 26.747135,43.997520 
M21.500076,58.283024 
	C21.479429,59.730457 21.458780,61.177895 21.438133,62.625328 
	C22.479065,62.625328 23.519997,62.625328 25.718201,62.625328 
	C24.098423,61.474079 23.383736,60.966122 23.230114,60.856934 
	C23.764254,58.731632 24.566301,56.833092 24.514904,54.957943 
	C24.499462,54.394604 22.116451,53.547741 20.799482,53.511833 
	C20.115479,53.493179 19.390955,54.960674 18.685869,55.755535 
	C20.104935,56.979694 23.646555,52.746986 21.500076,58.283024 
z"/>
<path fill="#FEFEFE" opacity="1.000000" stroke="none" 
	d="
M59.567581,34.132175 
	C57.161362,16.481915 58.417633,15.006329 75.352943,15.006345 
	C87.008049,15.006356 87.042892,15.006488 86.998589,26.755030 
	C86.950935,39.393383 88.367500,37.916210 75.837494,37.997673 
	C72.007866,38.022572 68.132408,38.339233 64.368935,37.838436 
	C62.700668,37.616447 61.258537,35.695107 59.567581,34.132175 
M76.751251,23.226105 
	C75.513329,22.438440 74.275406,21.650776 72.746338,20.677864 
	C73.305168,23.981485 73.684822,26.225857 74.080605,28.565620 
	C72.704880,28.484360 71.721901,28.426300 70.738930,28.368238 
	C70.630165,28.783688 70.521408,29.199137 70.412643,29.614586 
	C71.722275,30.093330 73.036263,30.936325 74.339989,30.920757 
	C75.186981,30.910641 76.532784,29.776583 76.745239,28.920332 
	C77.126518,27.383633 76.822739,25.676958 76.751251,23.226105 
z"/>
<path fill="#9C9FB0" opacity="1.000000" stroke="none" 
	d="
M44.690552,24.710869 
	C44.182133,24.098116 43.673714,23.485363 43.165291,22.872612 
	C44.234055,22.297709 45.380520,21.166862 46.349995,21.302364 
	C47.343555,21.441235 48.910084,22.827387 48.901340,23.653605 
	C48.884277,25.266191 47.943871,26.869005 47.279301,28.782471 
	C47.546726,28.919390 48.417210,29.365072 50.400970,30.380739 
	C48.188351,30.631849 47.067429,31.074112 46.156925,30.804848 
	C43.110455,29.903927 44.207199,28.004984 45.656059,25.757429 
	C46.103672,24.687889 46.182140,24.062235 46.260612,23.436581 
	C45.737259,23.861345 45.213905,24.286108 44.690552,24.710869 
z"/>
<path fill="#A6A8B7" opacity="1.000000" stroke="none" 
	d="
M21.745863,58.039795 
	C23.646555,52.746986 20.104935,56.979694 18.685869,55.755535 
	C19.390955,54.960674 20.115479,53.493179 20.799482,53.511833 
	C22.116451,53.547741 24.499462,54.394604 24.514904,54.957943 
	C24.566301,56.833092 23.764254,58.731632 23.230114,60.856934 
	C23.383736,60.966122 24.098423,61.474079 25.718201,62.625328 
	C23.519997,62.625328 22.479065,62.625328 21.438133,62.625328 
	C21.458780,61.177895 21.479429,59.730457 21.745863,58.039795 
z"/>
<path fill="#9FA2B3" opacity="1.000000" stroke="none" 
	d="
M76.778244,23.633709 
	C76.822739,25.676958 77.126518,27.383633 76.745239,28.920332 
	C76.532784,29.776583 75.186981,30.910641 74.339989,30.920757 
	C73.036263,30.936325 71.722275,30.093330 70.412643,29.614586 
	C70.521408,29.199137 70.630165,28.783688 70.738930,28.368238 
	C71.721901,28.426300 72.704880,28.484360 74.080605,28.565620 
	C73.684822,26.225857 73.305168,23.981485 72.746338,20.677864 
	C74.275406,21.650776 75.513329,22.438440 76.778244,23.633709 
z"/>
<path fill="#EFEFF0" opacity="1.000000" stroke="none" 
	d="
M44.891800,24.919210 
	C45.213905,24.286108 45.737259,23.861345 46.260612,23.436581 
	C46.182140,24.062235 46.103672,24.687889 45.766205,25.423096 
	C45.369160,25.397615 45.231106,25.262583 44.891800,24.919210 
z"/>
</svg>
