<svg xmlns="http://www.w3.org/2000/svg" xmlns:xlink="http://www.w3.org/1999/xlink" width="16px" height="16px" viewBox="0 0 16 16" version="1.1">
  <g stroke="none" stroke-width="1" fill="none" fill-rule="evenodd">
    <g transform="translate(2.000000, 2.000000)" fill="#000000">
      <path d="M9,0 C10.6568542,-3.04359188e-16 12,1.34314575 12,3 L12,9 C12,10.6568542 10.6568542,12 9,12 L3,12 C1.34314575,12 2.02906125e-16,10.6568542 0,9 L0,3 C-2.02906125e-16,1.34314575 1.34314575,3.04359188e-16 3,0 L9,0 Z M6.71133293,2.726 L4.97533293,2.726 L2.57533293,9.19 L4.07133293,9.19 L4.59133293,7.662 L7.09533293,7.662 L7.62333293,9.19 L9.12733293,9.19 L6.71133293,2.726 Z M5.83133293,4.038 L6.77533293,6.75 L4.90333293,6.75 L5.83133293,4.038 Z"/>
    </g>
  </g>
</svg>
