<svg xmlns="http://www.w3.org/2000/svg" xmlns:xlink="http://www.w3.org/1999/xlink" width="12px" height="12px" viewBox="0 0 12 12" version="1.1">
  <g stroke="none" stroke-width="1" fill="none" fill-rule="evenodd">
    <g transform="translate(1.100000, 0.000000)" stroke="#8B8FA3">
      <path d="M5.68384955,0.5 L9.10093665,3.66510927 L9.25,10 C9.25,10.4142136 9.08210678,10.7892136 8.81066017,11.0606602 C8.53921356,11.3321068 8.16421356,11.5 7.75,11.5 L7.75,11.5 L2,11.5 C1.58578644,11.5 1.21078644,11.3321068 0.939339828,11.0606602 C0.667893219,10.7892136 0.5,10.4142136 0.5,10 L0.5,10 L0.5,2 C0.5,1.58578644 0.667893219,1.21078644 0.939339828,0.939339828 C1.21078644,0.667893219 1.58578644,0.5 2,0.5 L2,0.5 L5.68384955,0.5 Z"/>
      <line x1="2.625" y1="6.5" x2="4.625" y2="6.5" stroke-linecap="round"/>
      <line x1="2.625" y1="8.5" x2="6.625" y2="8.5" stroke-linecap="round"/>
      <path d="M5.625,0.75 L5.625,3.5 C5.625,4.05228475 6.07271525,4.5 6.625,4.5 L9,4.5 L9,4.5" stroke-linecap="round" stroke-linejoin="round"/>
    </g>
  </g>
</svg>
