<svg xmlns="http://www.w3.org/2000/svg" xmlns:xlink="http://www.w3.org/1999/xlink" width="32px" height="32px" viewBox="0 0 32 32" version="1.1">
  <g stroke="none" stroke-width="1" fill="none" fill-rule="evenodd">
    <circle stroke="#D7D9E0" fill="#FFFFFF" cx="16" cy="16" r="15.5"/>
    <path d="M16,6 C10.4783333,6 6,10.4759253 6,15.9964831 C6,20.4132625 8.865,24.1602776 12.8391667,25.4823125 C13.3383333,25.5747799 13.5,25.264889 13.5,25.0016482 L13.5,23.1406363 C10.7183333,23.7454235 10.1391667,21.9610513 10.1391667,21.9610513 C9.68416667,20.8056245 9.02833333,20.4982326 9.02833333,20.4982326 C8.12083333,19.8776176 9.0975,19.8909463 9.0975,19.8909463 C10.1016667,19.9609217 10.63,20.9214171 10.63,20.9214171 C11.5216667,22.4492129 12.9691667,22.0077016 13.54,21.7519582 C13.6291667,21.106352 13.8883333,20.6648407 14.175,20.4157616 C11.9541667,20.1616844 9.61916667,19.3044859 9.61916667,15.4749999 C9.61916667,14.3828841 10.01,13.491531 10.6491667,12.7917772 C10.5458333,12.539366 10.2033333,11.5222239 10.7466667,10.1460414 C10.7466667,10.1460414 11.5866667,9.87780239 13.4975,11.1706809 C14.295,10.9490922 15.15,10.8382978 16,10.8341326 C16.85,10.8382978 17.7058333,10.9490922 18.505,11.1706809 C20.4141667,9.87780239 21.2525,10.1460414 21.2525,10.1460414 C21.7966667,11.5230569 21.4541667,12.5401991 21.3508333,12.7917772 C21.9925,13.491531 22.38,14.3837171 22.38,15.4749999 C22.38,19.3144824 20.0408333,20.1600183 17.8141667,20.4074312 C18.1725,20.7173222 18.5,21.3254416 18.5,22.2584467 L18.5,25.0016482 C18.5,25.2673881 18.66,25.5797782 19.1675,25.4814794 C23.1383333,24.1577785 26,20.4115964 26,15.9964831 C26,10.4759253 21.5225,6 16,6 Z" fill="#000000" fill-rule="nonzero"/>
  </g>
</svg>
