<svg version="1.1" id="Layer_1" xmlns="http://www.w3.org/2000/svg" xmlns:xlink="http://www.w3.org/1999/xlink" x="0px" y="0px"
	 width="46px" height="46px" viewBox="0 0 96 84" enable-background="new 0 0 96 84" xml:space="preserve" style="border:2px solid #D7D9E0; border-radius:5px">
<path fill="#FDFDFD" opacity="1.000000" stroke="none" 
	d="
M65.000000,3.995095 
	C72.993660,3.995554 80.488647,4.080366 87.980469,3.963389 
	C92.175758,3.897884 94.048645,5.660886 94.035347,9.916813 
	C93.966644,31.898006 93.951653,53.879757 94.046547,75.860756 
	C94.066078,80.386162 92.113579,82.062172 87.703598,82.047150 
	C61.892395,81.959213 36.080585,81.959068 10.269383,82.047066 
	C5.839818,82.062164 3.933381,80.339783 3.953099,75.833740 
	C4.048554,54.019276 4.063735,32.203789 3.942710,10.389577 
	C3.916252,5.620671 5.898620,3.907998 10.545982,3.942018 
	C28.529821,4.073663 46.515198,3.995252 65.000000,3.995095 
M27.918243,19.523064 
	C27.916819,7.390217 27.920332,7.537528 18.089758,7.771935 
	C14.649946,7.853957 13.906670,9.283849 13.982091,12.319958 
	C14.134638,18.460773 13.927095,24.610016 14.047646,30.752258 
	C14.251419,41.134743 11.675187,40.094921 24.091459,40.239910 
	C27.298801,40.277359 28.023403,38.774517 27.953289,35.958252 
	C27.825199,30.813253 27.917599,25.662767 27.918243,19.523064 
M25.197065,78.068138 
	C26.103081,76.641113 27.723639,75.247047 27.791254,73.781349 
	C28.081917,67.480446 27.985376,61.157566 27.901037,54.844410 
	C27.767359,44.838188 29.697432,45.971386 18.441160,45.721695 
	C14.842268,45.641861 13.850183,47.043308 13.969751,50.413273 
	C14.175838,56.221748 14.024582,62.042835 14.026991,67.858627 
	C14.031235,78.104813 14.032404,78.104813 25.197065,78.068138 
M51.970463,64.490990 
	C51.970982,65.985283 51.941242,67.480301 51.976898,68.973755 
	C52.219624,79.139839 49.870544,77.954170 61.820576,78.135025 
	C64.806267,78.180214 65.985626,77.156731 65.912666,74.109314 
	C65.761703,67.803703 65.954109,61.490509 65.850151,55.182991 
	C65.678917,44.793350 68.019386,45.866444 55.735939,45.755978 
	C52.969547,45.731102 51.855778,46.753830 51.936729,49.549873 
	C52.071213,54.194851 51.971203,58.846626 51.970463,64.490990 
M65.867012,12.796412 
	C66.250565,9.258069 64.919716,7.432385 61.113094,7.821915 
	C59.471245,7.989926 57.785610,7.981483 56.141655,7.824731 
	C52.805580,7.506636 51.834305,9.045829 51.920803,12.199844 
	C52.093559,18.499195 51.877151,24.808355 51.992245,31.110346 
	C52.175144,41.124805 49.788330,40.095585 61.863060,40.235596 
	C64.884529,40.270634 65.962090,39.119144 65.909470,36.133232 
	C65.777939,28.670176 65.866882,21.203234 65.867012,12.796412 
M70.947388,14.597496 
	C70.946907,16.263912 70.928802,17.930538 70.948875,19.596706 
	C71.058136,28.665663 69.685066,27.652369 79.204483,27.976395 
	C83.564865,28.124815 85.407372,26.746080 84.891815,22.304478 
	C84.643700,20.166943 84.848778,17.976761 84.849243,15.810420 
	C84.850975,7.800653 84.840759,8.062218 76.721855,7.742236 
	C72.091957,7.559763 70.195175,9.040973 70.947388,14.597496 
M45.980309,8.337522 
	C45.671791,8.215146 45.370949,8.012284 45.053642,7.982010 
	C32.985649,6.830613 32.915833,6.833302 33.014336,18.803465 
	C33.093609,28.437403 31.114296,27.911587 42.581364,27.888037 
	C42.914173,27.887352 43.380005,28.015079 43.558125,27.845655 
	C44.697525,26.761879 46.659008,25.655546 46.717537,24.475647 
	C46.972038,19.345217 46.666206,14.186989 45.980309,8.337522 
M46.887245,48.200169 
	C46.887043,44.700447 46.756969,41.194508 46.924202,37.702808 
	C47.082413,34.399460 46.062141,32.834370 42.421814,32.911545 
	C31.068871,33.152225 33.220753,31.932899 33.000557,42.074989 
	C32.964390,43.740742 33.199375,45.438320 32.956833,47.068798 
	C32.222935,52.002411 34.350143,53.758396 39.087631,53.060780 
	C40.392948,52.868565 41.754108,52.956738 43.082161,53.038204 
	C45.908993,53.211601 47.038517,51.814438 46.887245,48.200169 
M84.845932,41.570545 
	C84.841545,32.888306 84.836349,33.093365 76.254471,32.876045 
	C72.134666,32.771717 70.438339,34.007084 70.899490,38.210598 
	C71.170242,40.678638 70.949020,43.200603 70.949890,45.698311 
	C70.952438,53.049816 70.952599,53.049820 78.153877,53.035881 
	C84.826981,53.022964 84.827553,53.022961 84.844391,46.518219 
	C84.847839,45.186115 84.845184,43.853996 84.845932,41.570545 
M32.992176,68.512817 
	C32.996746,78.939575 32.996735,78.939445 43.384766,78.094727 
	C43.550137,78.081284 43.785583,78.155777 43.872604,78.070770 
	C44.886852,77.080040 46.667904,76.119774 46.740112,75.049820 
	C47.052677,70.418289 47.021214,65.743279 46.736286,61.107357 
	C46.672920,60.076393 45.222012,58.505890 44.160244,58.259373 
	C35.190411,56.176765 32.993359,57.983330 32.993202,67.049309 
	C32.993198,67.215492 32.993008,67.381683 32.992176,68.512817 
M82.037743,58.143036 
	C80.042488,58.128597 78.032387,58.263954 76.055130,58.067940 
	C72.166100,57.682407 70.606171,59.217346 70.889297,63.184566 
	C71.160896,66.990112 70.752373,70.846916 71.074883,74.644493 
	C71.176674,75.843140 72.505699,77.713608 73.555534,77.934570 
	C83.093010,79.942032 84.849510,78.449211 84.849426,68.901215 
	C84.849411,67.072006 85.097282,65.197296 84.775307,63.426388 
	C84.453491,61.656384 83.560478,59.990231 82.037743,58.143036 
z"/>
<path fill="#D7D9E0" opacity="1.000000" stroke="none" 
	d="
M27.918139,20.018816 
	C27.917599,25.662767 27.825199,30.813253 27.953289,35.958252 
	C28.023403,38.774517 27.298801,40.277359 24.091459,40.239910 
	C11.675187,40.094921 14.251419,41.134743 14.047646,30.752258 
	C13.927095,24.610016 14.134638,18.460773 13.982091,12.319958 
	C13.906670,9.283849 14.649946,7.853957 18.089758,7.771935 
	C27.920332,7.537528 27.916819,7.390217 27.918139,20.018816 
z"/>
<path fill="#D7D9E0" opacity="1.000000" stroke="none" 
	d="
M24.731056,78.078438 
	C14.032404,78.104813 14.031235,78.104813 14.026991,67.858627 
	C14.024582,62.042835 14.175838,56.221748 13.969751,50.413273 
	C13.850183,47.043308 14.842268,45.641861 18.441160,45.721695 
	C29.697432,45.971386 27.767359,44.838188 27.901037,54.844410 
	C27.985376,61.157566 28.081917,67.480446 27.791254,73.781349 
	C27.723639,75.247047 26.103081,76.641113 24.731056,78.078438 
z"/>
<path fill="#D7D9E0" opacity="1.000000" stroke="none" 
	d="
M51.970207,63.993263 
	C51.971203,58.846626 52.071213,54.194851 51.936729,49.549873 
	C51.855778,46.753830 52.969547,45.731102 55.735939,45.755978 
	C68.019386,45.866444 65.678917,44.793350 65.850151,55.182991 
	C65.954109,61.490509 65.761703,67.803703 65.912666,74.109314 
	C65.985626,77.156731 64.806267,78.180214 61.820576,78.135025 
	C49.870544,77.954170 52.219624,79.139839 51.976898,68.973755 
	C51.941242,67.480301 51.970982,65.985283 51.970207,63.993263 
z"/>
<path fill="#D7D9E0" opacity="1.000000" stroke="none" 
	d="
M65.867188,13.267132 
	C65.866882,21.203234 65.777939,28.670176 65.909470,36.133232 
	C65.962090,39.119144 64.884529,40.270634 61.863060,40.235596 
	C49.788330,40.095585 52.175144,41.124805 51.992245,31.110346 
	C51.877151,24.808355 52.093559,18.499195 51.920803,12.199844 
	C51.834305,9.045829 52.805580,7.506636 56.141655,7.824731 
	C57.785610,7.981483 59.471245,7.989926 61.113094,7.821915 
	C64.919716,7.432385 66.250565,9.258069 65.867188,13.267132 
z"/>
<path fill="#D7D9E0" opacity="1.000000" stroke="none" 
	d="
M70.947289,14.117325 
	C70.195175,9.040973 72.091957,7.559763 76.721855,7.742236 
	C84.840759,8.062218 84.850975,7.800653 84.849243,15.810420 
	C84.848778,17.976761 84.643700,20.166943 84.891815,22.304478 
	C85.407372,26.746080 83.564865,28.124815 79.204483,27.976395 
	C69.685066,27.652369 71.058136,28.665663 70.948875,19.596706 
	C70.928802,17.930538 70.946907,16.263912 70.947289,14.117325 
z"/>
<path fill="#D7D9E0" opacity="1.000000" stroke="none" 
	d="
M46.272144,8.688191 
	C46.666206,14.186989 46.972038,19.345217 46.717537,24.475647 
	C46.659008,25.655546 44.697525,26.761879 43.558125,27.845655 
	C43.380005,28.015079 42.914173,27.887352 42.581364,27.888037 
	C31.114296,27.911587 33.093609,28.437403 33.014336,18.803465 
	C32.915833,6.833302 32.985649,6.830613 45.053642,7.982010 
	C45.370949,8.012284 45.671791,8.215146 46.272144,8.688191 
z"/>
<path fill="#D7D9E0" opacity="1.000000" stroke="none" 
	d="
M46.884651,48.664276 
	C47.038517,51.814438 45.908993,53.211601 43.082161,53.038204 
	C41.754108,52.956738 40.392948,52.868565 39.087631,53.060780 
	C34.350143,53.758396 32.222935,52.002411 32.956833,47.068798 
	C33.199375,45.438320 32.964390,43.740742 33.000557,42.074989 
	C33.220753,31.932899 31.068871,33.152225 42.421814,32.911545 
	C46.062141,32.834370 47.082413,34.399460 46.924202,37.702808 
	C46.756969,41.194508 46.887043,44.700447 46.884651,48.664276 
z"/>
<path fill="#D7D9E0" opacity="1.000000" stroke="none" 
	d="
M84.845634,42.046215 
	C84.845184,43.853996 84.847839,45.186115 84.844391,46.518219 
	C84.827553,53.022961 84.826981,53.022964 78.153877,53.035881 
	C70.952599,53.049820 70.952438,53.049816 70.949890,45.698311 
	C70.949020,43.200603 71.170242,40.678638 70.899490,38.210598 
	C70.438339,34.007084 72.134666,32.771717 76.254471,32.876045 
	C84.836349,33.093365 84.841545,32.888306 84.845634,42.046215 
z"/>
<path fill="#D7D9E0" opacity="1.000000" stroke="none" 
	d="
M32.992538,68.030342 
	C32.993008,67.381683 32.993198,67.215492 32.993202,67.049309 
	C32.993359,57.983330 35.190411,56.176765 44.160244,58.259373 
	C45.222012,58.505890 46.672920,60.076393 46.736286,61.107357 
	C47.021214,65.743279 47.052677,70.418289 46.740112,75.049820 
	C46.667904,76.119774 44.886852,77.080040 43.872604,78.070770 
	C43.785583,78.155777 43.550137,78.081284 43.384766,78.094727 
	C32.996735,78.939445 32.996746,78.939575 32.992538,68.030342 
z"/>
<path fill="#D7D9E0" opacity="1.000000" stroke="none" 
	d="
M82.477806,58.210793 
	C83.560478,59.990231 84.453491,61.656384 84.775307,63.426388 
	C85.097282,65.197296 84.849411,67.072006 84.849426,68.901215 
	C84.849510,78.449211 83.093010,79.942032 73.555534,77.934570 
	C72.505699,77.713608 71.176674,75.843140 71.074883,74.644493 
	C70.752373,70.846916 71.160896,66.990112 70.889297,63.184566 
	C70.606171,59.217346 72.166100,57.682407 76.055130,58.067940 
	C78.032387,58.263954 80.042488,58.128597 82.477806,58.210793 
z"/>
</svg>
