<svg xmlns="http://www.w3.org/2000/svg" xmlns:xlink="http://www.w3.org/1999/xlink" width="32px" height="32px" viewBox="0 0 32 32" version="1.1">
  <g stroke="none" stroke-width="1" fill="none" fill-rule="evenodd">
    <circle stroke="#D7D9E0" fill="#FFFFFF" cx="16" cy="16" r="15.5"/>
    <g transform="translate(9.000000, 8.000000)" fill="#000000" fill-rule="nonzero">
      <path d="M8.41891891,7.24602334 C9.84984407,6.69494522 10.8660083,5.33969603 10.8660083,3.75574408 C10.8660083,1.68469424 9.13165279,0 7,0 C4.86834723,0 3.13435552,1.68469424 3.13435552,3.75574408 C3.13435552,5.339696 4.15015593,6.69494522 5.58108109,7.24602334 C2.39942827,7.88511843 0,10.6284906 0,13.9063273 C0,14.7034288 0.57557173,14.9674797 1.03799375,15.1795688 L1.06455302,15.1901732 C2.92915802,15.8296218 5.62583162,16 6.92541581,16 C8.34251561,16 11.116684,15.7765995 12.9590956,15.1583598 C13.6496362,14.9010251 14,14.4796748 14,13.9063273 C14,10.6281372 11.6005717,7.88476495 8.41891891,7.24602334 L8.41891891,7.24602334 Z"/>
    </g>
  </g>
</svg>
