<?xml version="1.0" encoding="UTF-8"?>
<svg width="32px" height="32px" viewBox="0 0 32 32" version="1.1" xmlns="http://www.w3.org/2000/svg" xmlns:xlink="http://www.w3.org/1999/xlink">
  <g stroke="none" stroke-width="1" fill="none" fill-rule="evenodd">
    <circle stroke="#D7D9E0" fill="#FFFFFF" cx="16" cy="16" r="15.5"/>
    <g transform="translate(7.000000, 9.500000)" fill-rule="nonzero">
      <path d="M8.13335362,8.66666667 C8.62954954,9.09524298 9.37046105,9.09524298 9.86665698,8.66666667 L9.86665698,8.66666667 L18,2.16666667 L18,11.7 C18,12.41799 17.4243857,13 16.7142857,13 L1.28571429,13 C0.575634857,13 0,12.41799 0,11.7 L0,2.16666667 Z" fill="#FA9C19"/>
      <path d="M0.316458187,1.59374788 C-0.323735499,1.04080779 0.0724519793,0 0.923120942,0 L17.0769094,0 C17.9275047,0 18.3237823,1.04082078 17.6834998,1.59374788 L9.86665698,7.58333333 C9.37046105,8.01190965 8.62954954,8.01190965 8.13335362,7.58333333 L0.316458187,1.59374788 Z" fill="#FFD249"/>
    </g>
  </g>
</svg>
