<svg version="1.1" id="Layer_1" xmlns="http://www.w3.org/2000/svg" xmlns:xlink="http://www.w3.org/1999/xlink" x="0px" y="0px"
	 width="46px" height="46px" viewBox="0 0 96 84" enable-background="new 0 0 96 84" xml:space="preserve" style="border:2px solid #D7D9E0; border-radius:4px">
<path fill="#FDFEFE" opacity="1.000000" stroke="none" 
	d="
M4.353906,79.205093 
	C4.127378,55.647457 4.072487,32.497597 3.998774,9.347799 
	C3.986702,5.556406 5.915198,3.982314 9.597318,3.986587 
	C35.916008,4.017130 62.234756,4.013716 88.553467,3.992949 
	C92.302040,3.989990 94.013809,5.772730 94.009377,9.498707 
	C93.982819,31.819618 93.981606,54.140594 94.010994,76.461494 
	C94.015877,80.170433 92.359222,82.007851 88.593216,82.005287 
	C62.274506,81.987404 35.955524,82.041359 9.637615,81.895439 
	C7.927333,81.885963 6.225194,80.407852 4.353906,79.205093 
M50.040009,48.578663 
	C52.103844,48.332569 54.167679,48.086479 56.209610,47.842999 
	C56.209610,45.805798 56.209610,44.051559 56.209610,42.164448 
	C53.651695,42.039433 51.360764,41.927467 49.036053,41.029087 
	C47.967079,37.413818 47.006210,33.761734 45.791737,30.196020 
	C44.960068,27.754232 43.025227,25.806944 40.592716,27.447073 
	C39.476105,28.199953 39.338226,31.162342 39.587124,33.010929 
	C39.995174,36.041496 41.080845,38.980824 41.066345,42.027485 
	C38.766975,42.357311 36.445980,42.579662 34.172298,43.037155 
	C27.410257,44.397766 21.100002,46.756813 16.377260,52.089970 
	C8.232715,61.287193 11.758533,74.706161 23.830566,78.017456 
	C33.295975,79.343979 40.129463,76.411827 44.088264,67.693283 
	C46.742767,61.847206 47.679459,55.221127 50.040009,48.578663 
M82.443802,42.255650 
	C81.951851,42.212875 81.458542,42.121849 80.968185,42.135677 
	C78.851440,42.195374 76.272392,41.010399 76.068291,44.960701 
	C75.859619,48.999237 78.137413,49.095695 81.030365,49.009506 
	C84.273331,48.912895 87.521393,48.987309 90.818848,48.987309 
	C90.818848,46.718384 90.818848,44.958004 90.818848,42.956684 
	C88.213348,42.751415 85.781418,42.559826 82.443802,42.255650 
M29.305340,20.035320 
	C30.971161,21.622137 32.448421,23.526901 34.377003,24.670666 
	C35.449547,25.306751 37.756943,25.216997 38.616867,24.452377 
	C39.389984,23.764942 39.540726,21.333538 38.911514,20.337595 
	C37.724030,18.457993 35.950081,16.800102 34.082932,15.555597 
	C32.996933,14.831751 30.623528,14.431102 29.962982,15.065440 
	C29.040815,15.951017 29.177906,17.939619 29.305340,20.035320 
M66.464821,42.008190 
	C64.671890,42.008190 62.878960,42.008190 61.038467,42.008190 
	C61.038467,44.317505 61.038467,46.175022 61.038467,48.230667 
	C64.860107,48.230667 68.299637,48.230667 72.017029,48.230667 
	C72.017029,46.231346 72.017029,44.336536 72.017029,42.010094 
	C70.344345,42.010094 68.879059,42.010094 66.464821,42.008190 
M25.987709,12.463419 
	C25.926596,9.525880 24.785910,7.548341 21.531622,8.495911 
	C20.520678,8.790275 19.322199,10.244716 19.202053,11.282916 
	C19.083738,12.305301 20.181047,14.372473 20.819691,14.402698 
	C22.493559,14.481920 24.208168,13.700308 25.987709,12.463419 
z"/>
<path fill="#D7D9E0" opacity="1.000000" stroke="none" 
	d="
M49.069836,41.815502 
	C51.360764,41.927467 53.651695,42.039433 56.209610,42.164448 
	C56.209610,44.051559 56.209610,45.805798 56.209610,47.842999 
	C54.167679,48.086479 52.103844,48.332569 49.238029,48.731506 
	C46.274723,48.905010 44.113403,48.925663 41.529037,48.953300 
	C34.346333,49.090393 28.070103,50.686378 22.882179,55.276340 
	C17.900597,59.683750 16.900049,68.117554 23.962099,71.459938 
	C23.568520,73.783821 23.330883,75.816864 23.093246,77.849899 
	C11.758533,74.706161 8.232715,61.287193 16.377260,52.089970 
	C21.100002,46.756813 27.410257,44.397766 34.172298,43.037155 
	C36.445980,42.579662 38.766975,42.357311 41.925423,42.016708 
	C44.879612,41.942455 46.974724,41.878979 49.069836,41.815502 
z"/>
<path fill="#D7D9E0" opacity="1.000000" stroke="none" 
	d="
M23.461906,77.933678 
	C23.330883,75.816864 23.568520,73.783821 24.318129,71.446564 
	C30.649950,72.547455 35.286777,70.150902 37.517372,65.198990 
	C39.795429,60.141712 40.537552,54.392574 41.952080,48.946320 
	C44.113403,48.925663 46.274723,48.905010 48.910412,48.914207 
	C47.679459,55.221127 46.742767,61.847206 44.088264,67.693283 
	C40.129463,76.411827 33.295975,79.343979 23.461906,77.933678 
z"/>
<path fill="#D7D9E0" opacity="1.000000" stroke="none" 
	d="
M49.052944,41.422295 
	C46.974724,41.878979 44.879612,41.942455 42.332619,41.982277 
	C41.080845,38.980824 39.995174,36.041496 39.587124,33.010929 
	C39.338226,31.162342 39.476105,28.199953 40.592716,27.447073 
	C43.025227,25.806944 44.960068,27.754232 45.791737,30.196020 
	C47.006210,33.761734 47.967079,37.413818 49.052944,41.422295 
z"/>
<path fill="#D7D9E0" opacity="1.000000" stroke="none" 
	d="
M82.896652,42.311943 
	C85.781418,42.559826 88.213348,42.751415 90.818848,42.956684 
	C90.818848,44.958004 90.818848,46.718384 90.818848,48.987309 
	C87.521393,48.987309 84.273331,48.912895 81.030365,49.009506 
	C78.137413,49.095695 75.859619,48.999237 76.068291,44.960701 
	C76.272392,41.010399 78.851440,42.195374 80.968185,42.135677 
	C81.458542,42.121849 81.951851,42.212875 82.896652,42.311943 
z"/>
<path fill="#D7D9E0" opacity="1.000000" stroke="none" 
	d="
M29.083534,19.745773 
	C29.177906,17.939619 29.040815,15.951017 29.962982,15.065440 
	C30.623528,14.431102 32.996933,14.831751 34.082932,15.555597 
	C35.950081,16.800102 37.724030,18.457993 38.911514,20.337595 
	C39.540726,21.333538 39.389984,23.764942 38.616867,24.452377 
	C37.756943,25.216997 35.449547,25.306751 34.377003,24.670666 
	C32.448421,23.526901 30.971161,21.622137 29.083534,19.745773 
z"/>
<path fill="#D7D9E0" opacity="1.000000" stroke="none" 
	d="
M66.939301,42.009140 
	C68.879059,42.010094 70.344345,42.010094 72.017029,42.010094 
	C72.017029,44.336536 72.017029,46.231346 72.017029,48.230667 
	C68.299637,48.230667 64.860107,48.230667 61.038467,48.230667 
	C61.038467,46.175022 61.038467,44.317505 61.038467,42.008190 
	C62.878960,42.008190 64.671890,42.008190 66.939301,42.009140 
z"/>
<path fill="#D7D9E0" opacity="1.000000" stroke="none" 
	d="
M25.947124,12.862593 
	C24.208168,13.700308 22.493559,14.481920 20.819691,14.402698 
	C20.181047,14.372473 19.083738,12.305301 19.202053,11.282916 
	C19.322199,10.244716 20.520678,8.790275 21.531622,8.495911 
	C24.785910,7.548341 25.926596,9.525880 25.947124,12.862593 
z"/>
<path fill="#FAFDFD" opacity="1.000000" stroke="none" 
	d="
M41.529037,48.953300 
	C40.537552,54.392574 39.795429,60.141712 37.517372,65.198990 
	C35.286777,70.150902 30.649950,72.547455 24.474072,71.155716 
	C16.900049,68.117554 17.900597,59.683750 22.882179,55.276340 
	C28.070103,50.686378 34.346333,49.090393 41.529037,48.953300 
z"/>
</svg>
