<svg xmlns="http://www.w3.org/2000/svg" xmlns:xlink="http://www.w3.org/1999/xlink" width="32px" height="32px" viewBox="0 0 32 32" version="1.1">
  <g stroke="none" stroke-width="1" fill="none" fill-rule="evenodd">
    <circle stroke="#D7D9E0" fill="#FFFFFF" cx="16" cy="16" r="15.5"/>
    <g transform="translate(8.000000, 8.000000)" fill="#222222" fill-rule="nonzero">
      <path d="M6.91115262,1.55997266 C8.7558602,-0.28542993 11.6660339,-0.521752492 13.784265,1.00183707 C15.9024961,2.52542663 16.6044296,5.35984565 15.4420586,7.69603555 C14.2796876,10.0322254 11.5956247,11.1815871 9.10296402,10.4105443 L6.50078793,13.0121948 L5.74885264,12.2585801 C5.36101215,11.8705592 4.74186216,11.8407759 4.31857571,12.1897788 L4.24258224,12.2585801 C3.85508069,12.6463553 3.82531087,13.2650098 4.17378817,13.6882079 L4.24258224,13.7642093 L4.99451754,14.5178239 L3.72102713,15.7922487 C3.57439314,15.9388442 3.37098203,16.0139622 3.16427504,15.9978527 L0.834075548,15.8186492 C0.48535032,15.7916896 0.208288398,15.5145985 0.181331715,15.1658365 L0.00214712125,12.8353913 C-0.0139607712,12.6286625 0.0611493714,12.42523 0.207729444,12.2785805 L5.5888664,6.89687617 C5.00578662,5.01032654 5.51477648,2.95598329 6.91115262,1.55997266 Z M9.4205367,4.06882132 C8.9722784,4.51712687 8.7972136,5.17054646 8.96128752,5.78294324 C9.12536144,6.39534003 9.60364735,6.87367636 10.2159796,7.03776758 C10.8283118,7.2018588 11.4816625,7.02677555 11.9299208,6.57846998 C12.622868,5.88544964 12.622868,4.76184167 11.9299207,4.06882134 C11.2369735,3.375801 10.113484,3.375801 9.4205367,4.06882132 Z"/>
    </g>
  </g>
</svg>
