<?xml version="1.0" standalone="no"?>
<!DOCTYPE svg PUBLIC "-//W3C//DTD SVG 20010904//EN"
 "http://www.w3.org/TR/2001/REC-SVG-20010904/DTD/svg10.dtd">
<svg version="1.0" xmlns="http://www.w3.org/2000/svg"
 width="36px" height="36px" viewBox="0 0 256.000000 256.000000"
 preserveAspectRatio="xMidYMid meet">

<g transform="translate(0.000000,256.000000) scale(0.100000,-0.100000)"
fill="#D7D9E0" stroke="none">
<path d="M461 2339 c-89 -17 -182 -95 -225 -188 -21 -46 -21 -49 -21 -871 0
-824 0 -825 22 -872 30 -66 96 -133 162 -165 l56 -28 785 -3 c833 -3 868 -2
946 43 53 31 111 95 138 154 21 46 21 49 21 871 0 824 0 825 -22 872 -30 66
-96 133 -162 165 l-56 28 -800 2 c-440 0 -820 -3 -844 -8z m1640 -238 l29 -29
0 -792 0 -792 -29 -29 -29 -29 -792 0 -792 0 -29 29 -29 29 0 792 0 792 29 29
29 29 792 0 792 0 29 -29z"/>
<path d="M1700 1904 c-77 -21 -134 -57 -218 -138 -102 -99 -197 -243 -357
-541 -96 -181 -195 -304 -275 -345 -21 -11 -64 -23 -95 -26 -70 -9 -103 -34
-112 -86 -17 -107 65 -151 212 -112 82 21 137 55 223 138 102 99 197 243 357
541 96 181 195 304 275 345 21 11 64 23 95 26 70 9 103 34 112 86 17 108 -69
152 -217 112z"/>
</g>
</svg>
