<svg xmlns="http://www.w3.org/2000/svg" xmlns:xlink="http://www.w3.org/1999/xlink" width="16px" height="16px" viewBox="0 0 16 16" version="1.1">
  <g stroke="none" stroke-width="1" fill="none" fill-rule="evenodd">
    <g transform="translate(2.000000, 2.000000)" fill="#000000" fill-rule="nonzero">
      <path d="M5.99987083,0 C2.69381956,0 0,2.69387755 0,6 C0,9.30612243 2.69381956,12 5.99987083,12 C9.30592211,12 11.9997417,9.30612245 11.9997417,6 C12.0303532,2.69387754 9.33653369,0 5.99987083,0 Z M8.72430197,3.58163266 L7.49983854,7.31632653 C7.46922695,7.40816327 7.3773922,7.49999999 7.28555744,7.53061224 L3.55094396,8.75510204 C3.45910919,8.78571429 3.33666285,8.78571429 3.30605127,8.7244898 C3.2448281,8.66326531 3.21421651,8.57142857 3.27543968,8.47959183 L4.49990313,4.74489796 C4.53051472,4.65306122 4.62234947,4.5612245 4.71418423,4.53061225 L8.4487977,3.30612245 C8.54063246,3.2755102 8.6630788,3.2755102 8.69369039,3.33673469 C8.75491356,3.39795918 8.78552515,3.48979592 8.72430197,3.58163266 L8.72430197,3.58163266 Z"/>
    </g>
  </g>
</svg>
