<svg xmlns="http://www.w3.org/2000/svg" xmlns:xlink="http://www.w3.org/1999/xlink" width="16px" height="16px" viewBox="0 0 16 16" version="1.1">
  <g stroke="none" stroke-width="1" fill="none" fill-rule="evenodd">
    <g transform="translate(3.000000, 1.500000)">
      <path d="M5.83027727,0 C6.09874788,-6.20833952e-16 6.35594282,0.107950563 6.54398998,0.299561443 L9.71371271,3.52935422 C9.89720338,3.71632226 10,3.96782736 10,4.22979277 L10,10.7272727 C10,11.8318422 9.1045695,12.7272727 8,12.7272727 L2,12.7272727 C0.8954305,12.7272727 1.3527075e-16,11.8318422 0,10.7272727 L0,2 C-1.3527075e-16,0.8954305 0.8954305,1.09108455e-15 2,0 L5.83027727,0 Z M6.36363636,8.75 L2.72727273,8.75 L2.62550217,8.75684662 C2.25942661,8.80650904 1.97727273,9.12030423 1.97727273,9.5 C1.97727273,9.91421356 2.31305916,10.25 2.72727273,10.25 L2.72727273,10.25 L6.36363636,10.25 L6.46540692,10.2431534 C6.83148248,10.193491 7.11363636,9.87969577 7.11363636,9.5 C7.11363636,9.08578644 6.77784993,8.75 6.36363636,8.75 L6.36363636,8.75 Z M4.54545455,6.06818182 L2.72727273,6.06818182 L2.62550217,6.07502843 C2.25942661,6.12469086 1.97727273,6.43848605 1.97727273,6.81818182 C1.97727273,7.23239538 2.31305916,7.56818182 2.72727273,7.56818182 L2.72727273,7.56818182 L4.54545455,7.56818182 L4.6472251,7.5613352 C5.01330066,7.51167278 5.29545455,7.19787758 5.29545455,6.81818182 C5.29545455,6.40396826 4.95966811,6.06818182 4.54545455,6.06818182 L4.54545455,6.06818182 Z M5.60099206,1.7626443 C5.50722387,1.85641249 5.45454545,1.98358945 5.45454545,2.11619769 L5.45454545,4.04545455 C5.45454545,4.32159692 5.67840308,4.54545455 5.95454545,4.54545455 L7.88380231,4.54545455 C8.15994468,4.54545455 8.38380231,4.32159692 8.38380231,4.04545455 C8.38380231,3.9128463 8.33112389,3.78566934 8.2373557,3.69190115 L6.30809885,1.7626443 C6.1128367,1.56738215 5.79625421,1.56738215 5.60099206,1.7626443 Z" fill="#222222"/>
      <g transform="translate(2.272727, 6.363636)"/>
    </g>
  </g>
</svg>
