<svg xmlns="http://www.w3.org/2000/svg" xmlns:xlink="http://www.w3.org/1999/xlink" width="16px" height="16px" viewBox="0 0 16 16" version="1.1">
  <g stroke="none" stroke-width="1" fill="none" fill-rule="evenodd">
    <g transform="translate(1.500000, 3.473773)" fill="#222222" fill-rule="nonzero">
      <path d="M12.193438,1.75432097 C12.0108293,1.64997315 11.7832931,1.6406086 11.5919887,1.72890291 L10.0108293,2.4579999 L10.0108293,1.71371237 C10.0108293,0.767892977 9.17749595,0 8.15430755,0 L1.85652174,0 C0.833333333,0 0,0.769230769 0,1.71371237 L0,7.36581158 C0,8.31163098 0.833333333,9.08086175 1.85652174,9.08086175 L8.15430755,9.08086175 C9.17894523,9.08086175 10.0108293,8.31163098 10.0108293,7.36714937 L10.0108293,6.59445475 L11.5919887,7.32221395 C11.7832931,7.41184606 12.0122786,7.40248151 12.193438,7.29813368 C12.3760467,7.19378586 12.4876409,7.01050826 12.4876409,6.81117716 L12.4876409,2.2399397 C12.4876409,2.04194639 12.3760467,1.8586688 12.193438,1.75432097 Z M3.76983164,5.02581413 C3.07919346,5.04337563 2.5056126,4.49896914 2.48805401,3.80821681 C2.47049541,3.11746449 3.01481194,2.54378883 3.70545012,2.52622733 L3.76983164,2.52622733 C4.46046982,2.54378883 5.00478635,3.11746449 4.98722775,3.80821681 C4.96966915,4.47165125 4.4351074,5.00825263 3.76983164,5.02581413 Z"/>
    </g>
  </g>
</svg>
